*
*
G04 PADS 9.2 Build Number: 406656 generated Gerber (RS-274-X) file*
G04 PC Version=2.1*
*
%IN "IS903SZQ064-4Z08-TB (RI"*%
*
%MOIN*%
*
%FSLAX35Y35*%
*
*
*
*
G04 PC Standard Apertures*
*
*
G04 Thermal Relief Aperture macro.*
%AMTER*
1,1,$1,0,0*
1,0,$1-$2,0,0*
21,0,$3,$4,0,0,45*
21,0,$3,$4,0,0,135*
%
*
*
G04 Annular Aperture macro.*
%AMANN*
1,1,$1,0,0*
1,0,$2,0,0*
%
*
*
G04 Odd Aperture macro.*
%AMODD*
1,1,$1,0,0*
1,0,$1-0.005,0,0*
%
*
*
G04 PC Custom Aperture Macros*
*
*
*
*
*
*
G04 PC Aperture Table*
*
%ADD033C,0.01*%
%ADD035C,0.005*%
%ADD037C,0.006*%
%ADD084C,0.012*%
%ADD085C,0.015*%
%ADD086C,0.008*%
%ADD095C,0.001*%
%ADD104C,0.018*%
%ADD164C,0.016*%
%ADD213C,0.004*%
%ADD249R,0.014X0.014*%
%ADD262C,0.00118*%
%ADD265R,0.03543X0.03543*%
%ADD266R,0.11X0.11*%
%ADD276C,0.01831*%
%ADD290R,0.05X0.01*%
%ADD291R,0.02X0.02*%
%ADD293O,0.10236X0.05906*%
%ADD294C,0.01969*%
%ADD295R,0.02362X0.008*%
%ADD296R,0.008X0.02362*%
%ADD297R,0.02362X0.0315*%
%ADD298O,0.10236X0.04331*%
%ADD312C,0.00984*%
*
*
*
*
G04 PC Circuitry*
G04 Layer Name IS903SZQ064-4Z08-TB (RI - circuitry*
%LPD*%
*
*
G04 PC Custom Flashes*
G04 Layer Name IS903SZQ064-4Z08-TB (RI - flashes*
%LPD*%
*
*
G04 PC Circuitry*
G04 Layer Name IS903SZQ064-4Z08-TB (RI - circuitry*
%LPD*%
*
G54D33*
G01X494313Y503947D02*
X494212Y503847D01*
X493445*
X493344Y503947*
Y504714*
X493445Y504815*
X494212*
X494313Y504714*
Y503947*
X493600Y503847D02*
Y504815D01*
X494100Y503847D02*
Y504815D01*
X497856Y503947D02*
X497755Y503847D01*
X496988*
X496887Y503947*
Y504714*
X496988Y504815*
X497755*
X497856Y504714*
Y503947*
X497100Y503847D02*
Y504815D01*
X497600Y503847D02*
Y504815D01*
X497216Y500893D02*
X497116Y500994D01*
Y501762*
X497216Y501862*
X497984*
X498084Y501762*
Y500994*
X497984Y500893*
X497216*
X497600D02*
Y501862D01*
X497216Y497350D02*
X497116Y497451D01*
Y498219*
X497216Y498319*
X497984*
X498084Y498219*
Y497451*
X497984Y497350*
X497216*
X497600D02*
Y498319D01*
X497984Y521913D02*
X498084Y521812D01*
Y521045*
X497984Y520944*
X497216*
X497116Y521045*
Y521812*
X497216Y521913*
X497984*
X497600Y520944D02*
Y521913D01*
X497984Y525456D02*
X498084Y525355D01*
Y524588*
X497984Y524487*
X497216*
X497116Y524588*
Y525355*
X497216Y525456*
X497984*
X497600Y524487D02*
Y525456D01*
X450667Y483260D02*
X449279Y483472D01*
X450367Y483260*
X449279Y483048*
X450667Y483260*
X449279Y483048D02*
X449279D01*
X449279*
Y483472D02*
X449279D01*
X450279Y483201D02*
Y483243D01*
Y483277D02*
Y483319D01*
X381500Y476600D02*
X380738Y477362D01*
X378000*
X449067Y483260D02*
X452992D01*
X453000Y483268*
X471189Y491800D02*
X467700D01*
X465000Y494500*
X459863*
X473591Y485797D02*
X472700Y486687D01*
Y486700*
X471900Y487500*
Y491800*
X471189*
X373936Y499939D02*
X373959Y499901D01*
Y500179*
X373936Y499939D02*
X373900Y500000D01*
X375117Y499016D02*
Y499021D01*
X373959Y500179*
X378000Y499016D02*
X375117D01*
X373959Y500179D02*
X373936Y500202D01*
X450000Y497047D02*
Y498500D01*
X450500Y499000*
Y499016*
X453000*
X450000Y497047D02*
X453000D01*
X449700Y495200D02*
X450000D01*
Y497047*
X445400Y496100D02*
Y497600D01*
X444200Y498800*
Y503166*
X445943Y504909*
X449101*
X453000Y504921*
Y495079D02*
X452879Y495200D01*
X450000*
X378000Y522638D02*
X376975D01*
X453000Y516732D02*
X457600D01*
X458900Y518032*
Y518800*
X453000Y516732D02*
X449846D01*
Y516752*
X449121Y517477*
Y518824*
X449062Y518883*
X459533Y403543D02*
Y398293D01*
Y403543D02*
X460805D01*
X461351Y403293*
X461714Y402793*
X461896Y402293*
X462078Y401543*
Y400293*
X461896Y399543*
X461714Y399043*
X461351Y398543*
X460805Y398293*
X459533*
X465169Y403543D02*
X463714Y398293D01*
X465169Y403543D02*
X466623Y398293D01*
X464260Y400043D02*
X466078D01*
X469533Y403543D02*
Y398293D01*
X468260Y403543D02*
X470805D01*
X472442D02*
Y398293D01*
Y403543D02*
X474805D01*
X472442Y401043D02*
X473896D01*
X472442Y398293D02*
X474805D01*
X457433Y418643D02*
Y413393D01*
Y418643D02*
X459978Y413393D01*
Y418643D02*
Y413393D01*
X463069Y418643D02*
X461614Y413393D01*
X463069Y418643D02*
X464523Y413393D01*
X462160Y415143D02*
X463978D01*
X466160Y418643D02*
Y413393D01*
Y418643D02*
X467614Y413393D01*
X469069Y418643D02*
X467614Y413393D01*
X469069Y418643D02*
Y413393D01*
X470705Y418643D02*
Y413393D01*
Y418643D02*
X473069D01*
X470705Y416143D02*
X472160D01*
X470705Y413393D02*
X473069D01*
X457133Y428543D02*
Y423293D01*
X459314*
X462405Y428543D02*
X460951Y423293D01*
X462405Y428543D02*
X463860Y423293D01*
X461496Y425043D02*
X463314D01*
X465496Y428543D02*
X466951Y426043D01*
Y423293*
X468405Y428543D02*
X466951Y426043D01*
X470042Y428543D02*
Y423293D01*
Y428543D02*
X472405D01*
X470042Y426043D02*
X471496D01*
X470042Y423293D02*
X472405D01*
X474042Y428543D02*
Y423293D01*
Y428543D02*
X475678D01*
X476223Y428293*
X476405Y428043*
X476587Y427543*
Y427043*
X476405Y426543*
X476223Y426293*
X475678Y426043*
X474042*
X475314D02*
X476587Y423293D01*
X342783Y429443D02*
Y424193D01*
Y429443D02*
X344419D01*
X344964Y429193*
X345146Y428943*
X345328Y428443*
Y427693*
X345146Y427193*
X344964Y426943*
X344419Y426693*
X342783*
X348419Y429443D02*
X346964Y424193D01*
X348419Y429443D02*
X349873Y424193D01*
X347510Y425943D02*
X349328D01*
X351510Y429443D02*
Y424193D01*
Y429443D02*
X353146D01*
X353692Y429193*
X353873Y428943*
X354055Y428443*
Y427943*
X353873Y427443*
X353692Y427193*
X353146Y426943*
X351510*
X352783D02*
X354055Y424193D01*
X356964Y429443D02*
Y424193D01*
X355692Y429443D02*
X358237D01*
X364055D02*
Y424193D01*
Y429443D02*
X366601Y424193D01*
Y429443D02*
Y424193D01*
X369692Y429443D02*
X368237Y424193D01*
X369692Y429443D02*
X371146Y424193D01*
X368783Y425943D02*
X370601D01*
X372783Y429443D02*
Y424193D01*
Y429443D02*
X374237Y424193D01*
X375692Y429443D02*
X374237Y424193D01*
X375692Y429443D02*
Y424193D01*
X377328Y429443D02*
Y424193D01*
Y429443D02*
X379692D01*
X377328Y426943D02*
X378783D01*
X377328Y424193D02*
X379692D01*
X352078Y390293D02*
X351714Y390793D01*
X351169Y391043*
X350442*
X349896Y390793*
X349533Y390293*
Y389793*
X349714Y389293*
X349896Y389043*
X350260Y388793*
X351351Y388293*
X351714Y388043*
X351896Y387793*
X352078Y387293*
Y386543*
X351714Y386043*
X351169Y385793*
X350442*
X349896Y386043*
X349533Y386543*
X353714Y388793D02*
X356987D01*
X353714Y387293D02*
X356987D01*
X366987Y391043D02*
Y385793D01*
Y391043D02*
X368260D01*
X368805Y390793*
X369169Y390293*
X369351Y389793*
X369533Y389043*
Y387793*
X369351Y387043*
X369169Y386543*
X368805Y386043*
X368260Y385793*
X366987*
X373533Y389293D02*
X373351Y388543D01*
X372987Y388043*
X372442Y387793*
X372260*
X371714Y388043*
X371351Y388543*
X371169Y389293*
Y389543*
X371351Y390293*
X371714Y390793*
X372260Y391043*
X372442*
X372987Y390793*
X373351Y390293*
X373533Y389293*
Y388043*
X373351Y386793*
X372987Y386043*
X372442Y385793*
X372078*
X371533Y386043*
X371351Y386543*
X376260Y391043D02*
X375714Y390793D01*
X375351Y390043*
X375169Y388793*
Y388043*
X375351Y386793*
X375714Y386043*
X376260Y385793*
X376623*
X377169Y386043*
X377533Y386793*
X377714Y388043*
Y388793*
X377533Y390043*
X377169Y390793*
X376623Y391043*
X376260*
X379351Y388793D02*
X382623D01*
X379351Y387293D02*
X382623D01*
X386442Y390293D02*
X386260Y390793D01*
X385714Y391043*
X385351*
X384805Y390793*
X384442Y390043*
X384260Y388793*
Y387543*
X384442Y386543*
X384805Y386043*
X385351Y385793*
X385533*
X386078Y386043*
X386442Y386543*
X386623Y387293*
Y387543*
X386442Y388293*
X386078Y388793*
X385533Y389043*
X385351*
X384805Y388793*
X384442Y388293*
X384260Y387543*
X391533Y392043D02*
X388260Y384043D01*
X395351Y390293D02*
X395169Y390793D01*
X394623Y391043*
X394260*
X393714Y390793*
X393351Y390043*
X393169Y388793*
Y387543*
X393351Y386543*
X393714Y386043*
X394260Y385793*
X394442*
X394987Y386043*
X395351Y386543*
X395533Y387293*
Y387543*
X395351Y388293*
X394987Y388793*
X394442Y389043*
X394260*
X393714Y388793*
X393351Y388293*
X393169Y387543*
X400442Y392043D02*
X397169Y384043D01*
X404260Y390293D02*
X404078Y390793D01*
X403533Y391043*
X403169*
X402623Y390793*
X402260Y390043*
X402078Y388793*
Y387543*
X402260Y386543*
X402623Y386043*
X403169Y385793*
X403351*
X403896Y386043*
X404260Y386543*
X404442Y387293*
Y387543*
X404260Y388293*
X403896Y388793*
X403351Y389043*
X403169*
X402623Y388793*
X402260Y388293*
X402078Y387543*
X409351Y392043D02*
X406078Y384043D01*
X413169Y390293D02*
X412987Y390793D01*
X412442Y391043*
X412078*
X411533Y390793*
X411169Y390043*
X410987Y388793*
Y387543*
X411169Y386543*
X411533Y386043*
X412078Y385793*
X412260*
X412805Y386043*
X413169Y386543*
X413351Y387293*
Y387543*
X413169Y388293*
X412805Y388793*
X412260Y389043*
X412078*
X411533Y388793*
X411169Y388293*
X410987Y387543*
X418260Y392043D02*
X414987Y384043D01*
X422078Y390293D02*
X421896Y390793D01*
X421351Y391043*
X420987*
X420442Y390793*
X420078Y390043*
X419896Y388793*
Y387543*
X420078Y386543*
X420442Y386043*
X420987Y385793*
X421169*
X421714Y386043*
X422078Y386543*
X422260Y387293*
Y387543*
X422078Y388293*
X421714Y388793*
X421169Y389043*
X420987*
X420442Y388793*
X420078Y388293*
X419896Y387543*
X440623Y391043D02*
Y385793D01*
Y391043D02*
X441896D01*
X442442Y390793*
X442805Y390293*
X442987Y389793*
X443169Y389043*
Y387793*
X442987Y387043*
X442805Y386543*
X442442Y386043*
X441896Y385793*
X440623*
X444805Y390043D02*
X445169Y390293D01*
X445714Y391043*
Y385793*
X448442Y391043D02*
X447896Y390793D01*
X447533Y390043*
X447351Y388793*
Y388043*
X447533Y386793*
X447896Y386043*
X448442Y385793*
X448805*
X449351Y386043*
X449714Y386793*
X449896Y388043*
Y388793*
X449714Y390043*
X449351Y390793*
X448805Y391043*
X448442*
X452623D02*
X452078Y390793D01*
X451714Y390043*
X451533Y388793*
Y388043*
X451714Y386793*
X452078Y386043*
X452623Y385793*
X452987*
X453533Y386043*
X453896Y386793*
X454078Y388043*
Y388793*
X453896Y390043*
X453533Y390793*
X452987Y391043*
X452623*
X455714Y388793D02*
X458987D01*
X455714Y387293D02*
X458987D01*
X389533Y442355D02*
Y435793D01*
X391578Y440168D02*
Y435793D01*
Y438918D02*
X392260Y439855D01*
X392714Y440168*
X393396*
X393851Y439855*
X394078Y438918*
Y435793*
X396123Y440168D02*
Y435793D01*
Y438918D02*
X396805Y439855D01*
X397260Y440168*
X397942*
X398396Y439855*
X398623Y438918*
Y435793*
X401805Y440168D02*
X401351Y439855D01*
X400896Y439230*
X400669Y438293*
Y437668*
X400896Y436730*
X401351Y436105*
X401805Y435793*
X402487*
X402942Y436105*
X403396Y436730*
X403623Y437668*
Y438293*
X403396Y439230*
X402942Y439855*
X402487Y440168*
X401805*
X408169Y439230D02*
X407942Y439855D01*
X407260Y440168*
X406578*
X405896Y439855*
X405669Y439230*
X405896Y438605*
X406351Y438293*
X407487Y437980*
X407942Y437668*
X408169Y437043*
Y436730*
X407942Y436105*
X407260Y435793*
X406578*
X405896Y436105*
X405669Y436730*
X410896Y442355D02*
Y437043D01*
X411123Y436105*
X411578Y435793*
X412033*
X410214Y440168D02*
X411805D01*
X415214D02*
X414760Y439855D01*
X414305Y439230*
X414078Y438293*
Y437668*
X414305Y436730*
X414760Y436105*
X415214Y435793*
X415896*
X416351Y436105*
X416805Y436730*
X417033Y437668*
Y438293*
X416805Y439230*
X416351Y439855*
X415896Y440168*
X415214*
X419078D02*
Y435793D01*
Y438293D02*
X419305Y439230D01*
X419760Y439855*
X420214Y440168*
X420896*
X429760Y442355D02*
Y435793D01*
X428169Y442355D02*
X431351D01*
X433396Y438293D02*
X436123D01*
Y438918*
X435896Y439543*
X435669Y439855*
X435214Y440168*
X434533*
X434078Y439855*
X433623Y439230*
X433396Y438293*
Y437668*
X433623Y436730*
X434078Y436105*
X434533Y435793*
X435214*
X435669Y436105*
X436123Y436730*
X440896Y439230D02*
X440442Y439855D01*
X439987Y440168*
X439305*
X438851Y439855*
X438396Y439230*
X438169Y438293*
Y437668*
X438396Y436730*
X438851Y436105*
X439305Y435793*
X439987*
X440442Y436105*
X440896Y436730*
X442942Y442355D02*
Y435793D01*
Y438918D02*
X443623Y439855D01*
X444078Y440168*
X444760*
X445214Y439855*
X445442Y438918*
Y435793*
X447487Y440168D02*
Y435793D01*
Y438918D02*
X448169Y439855D01*
X448623Y440168*
X449305*
X449760Y439855*
X449987Y438918*
Y435793*
X453169Y440168D02*
X452714Y439855D01*
X452260Y439230*
X452033Y438293*
Y437668*
X452260Y436730*
X452714Y436105*
X453169Y435793*
X453851*
X454305Y436105*
X454760Y436730*
X454987Y437668*
Y438293*
X454760Y439230*
X454305Y439855*
X453851Y440168*
X453169*
X457033Y442355D02*
Y435793D01*
X460214Y440168D02*
X459760Y439855D01*
X459305Y439230*
X459078Y438293*
Y437668*
X459305Y436730*
X459760Y436105*
X460214Y435793*
X460896*
X461351Y436105*
X461805Y436730*
X462033Y437668*
Y438293*
X461805Y439230*
X461351Y439855*
X460896Y440168*
X460214*
X466805D02*
Y435168D01*
X466578Y434230*
X466351Y433918*
X465896Y433605*
X465214*
X464760Y433918*
X466805Y439230D02*
X466351Y439855D01*
X465896Y440168*
X465214*
X464760Y439855*
X464305Y439230*
X464078Y438293*
Y437668*
X464305Y436730*
X464760Y436105*
X465214Y435793*
X465896*
X466351Y436105*
X466805Y436730*
X469078Y440168D02*
X470442Y435793D01*
X471805Y440168D02*
X470442Y435793D01*
X469987Y434543*
X469533Y433918*
X469078Y433605*
X468851*
X482487Y440793D02*
X482260Y441418D01*
X481805Y442043*
X481351Y442355*
X480442*
X479987Y442043*
X479533Y441418*
X479305Y440793*
X479078Y439855*
Y438293*
X479305Y437355*
X479533Y436730*
X479987Y436105*
X480442Y435793*
X481351*
X481805Y436105*
X482260Y436730*
X482487Y437355*
X485669Y440168D02*
X485214Y439855D01*
X484760Y439230*
X484533Y438293*
Y437668*
X484760Y436730*
X485214Y436105*
X485669Y435793*
X486351*
X486805Y436105*
X487260Y436730*
X487487Y437668*
Y438293*
X487260Y439230*
X486805Y439855*
X486351Y440168*
X485669*
X489533D02*
Y435793D01*
Y438293D02*
X489760Y439230D01*
X490214Y439855*
X490669Y440168*
X491351*
X493396D02*
Y433605D01*
Y439230D02*
X493851Y439855D01*
X494305Y440168*
X494987*
X495442Y439855*
X495896Y439230*
X496123Y438293*
Y437668*
X495896Y436730*
X495442Y436105*
X494987Y435793*
X494305*
X493851Y436105*
X493396Y436730*
X499305Y440168D02*
X498851Y439855D01*
X498396Y439230*
X498169Y438293*
Y437668*
X498396Y436730*
X498851Y436105*
X499305Y435793*
X499987*
X500442Y436105*
X500896Y436730*
X501123Y437668*
Y438293*
X500896Y439230*
X500442Y439855*
X499987Y440168*
X499305*
X503169D02*
Y435793D01*
Y438293D02*
X503396Y439230D01*
X503851Y439855*
X504305Y440168*
X504987*
X509760D02*
Y435793D01*
Y439230D02*
X509305Y439855D01*
X508851Y440168*
X508169*
X507714Y439855*
X507260Y439230*
X507033Y438293*
Y437668*
X507260Y436730*
X507714Y436105*
X508169Y435793*
X508851*
X509305Y436105*
X509760Y436730*
X512487Y442355D02*
Y437043D01*
X512714Y436105*
X513169Y435793*
X513623*
X511805Y440168D02*
X513396D01*
X515669Y442355D02*
X515896Y442043D01*
X516123Y442355*
X515896Y442668*
X515669Y442355*
X515896Y440168D02*
Y435793D01*
X519305Y440168D02*
X518851Y439855D01*
X518396Y439230*
X518169Y438293*
Y437668*
X518396Y436730*
X518851Y436105*
X519305Y435793*
X519987*
X520442Y436105*
X520896Y436730*
X521123Y437668*
Y438293*
X520896Y439230*
X520442Y439855*
X519987Y440168*
X519305*
X523169D02*
Y435793D01*
Y438918D02*
X523851Y439855D01*
X524305Y440168*
X524987*
X525442Y439855*
X525669Y438918*
Y435793*
X346083Y417143D02*
Y411893D01*
Y417143D02*
X347719D01*
X348264Y416893*
X348446Y416643*
X348628Y416143*
Y415393*
X348446Y414893*
X348264Y414643*
X347719Y414393*
X346083*
X351719Y417143D02*
X350264Y411893D01*
X351719Y417143D02*
X353173Y411893D01*
X350810Y413643D02*
X352628D01*
X354810Y417143D02*
Y411893D01*
Y417143D02*
X356446D01*
X356992Y416893*
X357173Y416643*
X357355Y416143*
Y415643*
X357173Y415143*
X356992Y414893*
X356446Y414643*
X354810*
X356083D02*
X357355Y411893D01*
X360264Y417143D02*
Y411893D01*
X358992Y417143D02*
X361537D01*
X367355D02*
Y411893D01*
Y417143D02*
X369901Y411893D01*
Y417143D02*
Y411893D01*
X372628Y417143D02*
X372264Y416893D01*
X371901Y416393*
X371719Y415893*
X371537Y415143*
Y413893*
X371719Y413143*
X371901Y412643*
X372264Y412143*
X372628Y411893*
X373355*
X373719Y412143*
X374083Y412643*
X374264Y413143*
X374446Y413893*
Y415143*
X374264Y415893*
X374083Y416393*
X373719Y416893*
X373355Y417143*
X372628*
X376264Y412393D02*
X376083Y412143D01*
X376264Y411893*
X376446Y412143*
X376264Y412393*
X368851Y402918D02*
X367033Y399418D01*
X369760*
X368851Y402918D02*
Y397668D01*
X375578Y402918D02*
Y397668D01*
X377760*
X380851Y402918D02*
X379396Y397668D01*
X380851Y402918D02*
X382305Y397668D01*
X379942Y399418D02*
X381760D01*
X383942Y402918D02*
X385396Y400418D01*
Y397668*
X386851Y402918D02*
X385396Y400418D01*
X388487Y402918D02*
Y397668D01*
Y402918D02*
X390851D01*
X388487Y400418D02*
X389942D01*
X388487Y397668D02*
X390851D01*
X392487Y402918D02*
Y397668D01*
Y402918D02*
X394123D01*
X394669Y402668*
X394851Y402418*
X395033Y401918*
Y401418*
X394851Y400918*
X394669Y400668*
X394123Y400418*
X392487*
X393760D02*
X395033Y397668D01*
X396669Y399918D02*
X399942D01*
X401578Y402918D02*
Y397668D01*
Y402918D02*
X403942D01*
X401578Y400418D02*
X403033D01*
X405578Y402918D02*
Y397668D01*
Y402918D02*
X407214D01*
X407760Y402668*
X407942Y402418*
X408123Y401918*
Y401418*
X407942Y400918*
X407760Y400668*
X407214Y400418*
X405578*
X406851D02*
X408123Y397668D01*
X411578Y402918D02*
X409760Y399418D01*
X412487*
X411578Y402918D02*
Y397668D01*
X414123Y399918D02*
X417396D01*
X419033Y401918D02*
X419396Y402168D01*
X419942Y402918*
Y397668*
X421760Y398168D02*
X421578Y397918D01*
X421760Y397668*
X421942Y397918*
X421760Y398168*
X424669Y402918D02*
X424123Y402668D01*
X423760Y401918*
X423578Y400668*
Y399918*
X423760Y398668*
X424123Y397918*
X424669Y397668*
X425033*
X425578Y397918*
X425942Y398668*
X426123Y399918*
Y400668*
X425942Y401918*
X425578Y402668*
X425033Y402918*
X424669*
X428305D02*
Y398668D01*
X428487Y397918*
X428851Y397668*
X429214*
X427760Y401168D02*
X429033D01*
X509714Y402293D02*
Y402543D01*
X509896Y403043*
X510078Y403293*
X510442Y403543*
X511169*
X511533Y403293*
X511714Y403043*
X511896Y402543*
Y402043*
X511714Y401543*
X511351Y400793*
X509533Y398293*
X512078*
X514805Y403543D02*
X514260Y403293D01*
X513896Y402543*
X513714Y401293*
Y400543*
X513896Y399293*
X514260Y398543*
X514805Y398293*
X515169*
X515714Y398543*
X516078Y399293*
X516260Y400543*
Y401293*
X516078Y402543*
X515714Y403293*
X515169Y403543*
X514805*
X517896Y402543D02*
X518260Y402793D01*
X518805Y403543*
Y398293*
X522260Y403543D02*
X520442Y400043D01*
X523169*
X522260Y403543D02*
Y398293D01*
X524987Y398793D02*
X524805Y398543D01*
X524987Y398293*
X525169Y398543*
X524987Y398793*
X527169Y403543D02*
X529169D01*
X528078Y401543*
X528623*
X528987Y401293*
X529169Y401043*
X529351Y400293*
Y399793*
X529169Y399043*
X528805Y398543*
X528260Y398293*
X527714*
X527169Y398543*
X526987Y398793*
X526805Y399293*
X531169Y398793D02*
X530987Y398543D01*
X531169Y398293*
X531351Y398543*
X531169Y398793*
X533169Y402293D02*
Y402543D01*
X533351Y403043*
X533533Y403293*
X533896Y403543*
X534623*
X534987Y403293*
X535169Y403043*
X535351Y402543*
Y402043*
X535169Y401543*
X534805Y400793*
X532987Y398293*
X535533*
X539533Y403543D02*
X537714D01*
X537533Y401293*
X537714Y401543*
X538260Y401793*
X538805*
X539351Y401543*
X539714Y401043*
X539896Y400293*
X539714Y399793*
X539533Y399043*
X539169Y398543*
X538623Y398293*
X538078*
X537533Y398543*
X537351Y398793*
X537169Y399293*
X484033Y422855D02*
Y416293D01*
X486760*
X491533Y420668D02*
Y416293D01*
Y419730D02*
X491078Y420355D01*
X490623Y420668*
X489942*
X489487Y420355*
X489033Y419730*
X488805Y418793*
Y418168*
X489033Y417230*
X489487Y416605*
X489942Y416293*
X490623*
X491078Y416605*
X491533Y417230*
X493805Y420668D02*
X495169Y416293D01*
X496533Y420668D02*
X495169Y416293D01*
X494714Y415043*
X494260Y414418*
X493805Y414105*
X493578*
X498578Y418793D02*
X501305D01*
Y419418*
X501078Y420043*
X500851Y420355*
X500396Y420668*
X499714*
X499260Y420355*
X498805Y419730*
X498578Y418793*
Y418168*
X498805Y417230*
X499260Y416605*
X499714Y416293*
X500396*
X500851Y416605*
X501305Y417230*
X503351Y420668D02*
Y416293D01*
Y418793D02*
X503578Y419730D01*
X504033Y420355*
X504487Y420668*
X505169*
X509487Y422855D02*
X507214Y418480D01*
X510623*
X509487Y422855D02*
Y416293D01*
X514260Y424105D02*
X513805Y423480D01*
X513351Y422543*
X512896Y421293*
X512669Y419730*
Y418480*
X512896Y416918*
X513351Y415668*
X513805Y414730*
X514260Y414105*
X516305Y422855D02*
Y416293D01*
Y422855D02*
X518351D01*
X519033Y422543*
X519260Y422230*
X519487Y421605*
Y420980*
X519260Y420355*
X519033Y420043*
X518351Y419730*
X516305D02*
X518351D01*
X519033Y419418*
X519260Y419105*
X519487Y418480*
Y417543*
X519260Y416918*
X519033Y416605*
X518351Y416293*
X516305*
X522669Y420668D02*
X522214Y420355D01*
X521760Y419730*
X521533Y418793*
Y418168*
X521760Y417230*
X522214Y416605*
X522669Y416293*
X523351*
X523805Y416605*
X524260Y417230*
X524487Y418168*
Y418793*
X524260Y419730*
X523805Y420355*
X523351Y420668*
X522669*
X527214Y422855D02*
Y417543D01*
X527442Y416605*
X527896Y416293*
X528351*
X526533Y420668D02*
X528123D01*
X531078Y422855D02*
Y417543D01*
X531305Y416605*
X531760Y416293*
X532214*
X530396Y420668D02*
X531987D01*
X535396D02*
X534942Y420355D01*
X534487Y419730*
X534260Y418793*
Y418168*
X534487Y417230*
X534942Y416605*
X535396Y416293*
X536078*
X536533Y416605*
X536987Y417230*
X537214Y418168*
Y418793*
X536987Y419730*
X536533Y420355*
X536078Y420668*
X535396*
X539260D02*
Y416293D01*
Y419418D02*
X539942Y420355D01*
X540396Y420668*
X541078*
X541533Y420355*
X541760Y419418*
Y416293*
Y419418D02*
X542442Y420355D01*
X542896Y420668*
X543578*
X544033Y420355*
X544260Y419418*
Y416293*
X546305Y424105D02*
X546760Y423480D01*
X547214Y422543*
X547669Y421293*
X547896Y419730*
Y418480*
X547669Y416918*
X547214Y415668*
X546760Y414730*
X546305Y414105*
X500000Y538583D02*
X453636D01*
X500000D02*
X490000Y536083D01*
Y541083*
X500000Y538583*
X370079D02*
X416500D01*
X370079D02*
X380079Y541083D01*
Y536083*
X370079Y538583*
X500000Y533740D02*
Y543583D01*
X370079Y533740D02*
Y543583D01*
X419955Y541363D02*
X422455D01*
X422455D02*
X421091Y538863D01*
X421091D02*
X421773D01*
X421773D02*
X422227Y538550D01*
X422455Y538238*
X422455D02*
X422682Y537300D01*
Y536675*
X422455Y535738*
X422455D02*
X422000Y535113D01*
X422000D02*
X421318Y534800D01*
X420636*
X419955Y535113*
X419955D02*
X419727Y535425D01*
X419500Y536050*
X425182Y541363D02*
X427682D01*
X427682D02*
X426318Y538863D01*
X426318D02*
X427000D01*
X427000D02*
X427455Y538550D01*
X427682Y538238*
X427682D02*
X427909Y537300D01*
Y536675*
X427682Y535738*
X427682D02*
X427227Y535113D01*
X427227D02*
X426545Y534800D01*
X425864*
X425182Y535113*
X425182D02*
X424955Y535425D01*
X424727Y536050*
X430182Y535425D02*
X429955Y535113D01*
X429955D02*
X430182Y534800D01*
X430409Y535113*
X430409D02*
X430182Y535425D01*
X433818Y541363D02*
X433136Y541050D01*
X432682Y540113*
X432682D02*
X432455Y538550D01*
Y537613*
X432455D02*
X432682Y536050D01*
X433136Y535113*
X433136D02*
X433818Y534800D01*
X434273*
X434955Y535113*
X434955D02*
X435409Y536050D01*
X435636Y537613*
X435636D02*
Y538550D01*
X435409Y540113*
X435409D02*
X434955Y541050D01*
X434273Y541363*
X434273D02*
X433818D01*
X437682Y539175D02*
Y534800D01*
Y537925D02*
X438364Y538863D01*
X438364D02*
X438818Y539175D01*
X439500*
X439955Y538863*
X439955D02*
X440182Y537925D01*
Y534800*
Y537925D02*
X440864Y538863D01*
X440864D02*
X441318Y539175D01*
X442000*
X442455Y538863*
X442455D02*
X442682Y537925D01*
Y534800*
X444727Y539175D02*
Y534800D01*
Y537925D02*
X445409Y538863D01*
X445409D02*
X445864Y539175D01*
X446545*
X447000Y538863*
X447000D02*
X447227Y537925D01*
Y534800*
Y537925D02*
X447909Y538863D01*
X447909D02*
X448364Y539175D01*
X449045*
X449500Y538863*
X449500D02*
X449727Y537925D01*
Y534800*
X466958Y547480D02*
X481958D01*
X466958D02*
X476958Y549980D01*
Y544980*
X466958Y547480*
X462158D02*
X447158D01*
X462158D02*
X452158Y544980D01*
Y549980*
X462158Y547480*
X466958Y532597D02*
Y552480D01*
X462158Y532599D02*
Y552480D01*
X451063Y561690D02*
X451518Y562003D01*
X452199Y562940*
Y556378*
X454472Y557003D02*
X454245Y556690D01*
X454472Y556378*
X454699Y556690*
X454472Y557003*
X456972Y561378D02*
Y561690D01*
X457199Y562315*
X457427Y562628*
X457881Y562940*
X458790*
X459245Y562628*
X459472Y562315*
X459699Y561690*
Y561065*
X459472Y560440*
X459018Y559503*
X456745Y556378*
X459927*
X461972Y560753D02*
Y556378D01*
Y559503D02*
X462654Y560440D01*
X463108Y560753*
X463790*
X464245Y560440*
X464472Y559503*
Y556378*
Y559503D02*
X465154Y560440D01*
X465608Y560753*
X466290*
X466745Y560440*
X466972Y559503*
Y556378*
X469018Y560753D02*
Y556378D01*
Y559503D02*
X469699Y560440D01*
X470154Y560753*
X470836*
X471290Y560440*
X471518Y559503*
Y556378*
Y559503D02*
X472199Y560440D01*
X472654Y560753*
X473336*
X473790Y560440*
X474018Y559503*
Y556378*
X464573Y476424D02*
X464576D01*
X465234Y474136D02*
X465237D01*
X465234D02*
X470411Y465222D01*
X465607Y463835*
X465234Y474136*
X469397Y459725*
X479397*
X482397Y462537D02*
Y455975D01*
Y462537D02*
X484442D01*
X485124Y462225*
X485351Y461912*
X485579Y461287*
Y460662*
X485351Y460037*
X485124Y459725*
X484442Y459412*
X482397*
X483988D02*
X485579Y455975D01*
X488988Y462537D02*
X488306Y462225D01*
X487851Y461287*
X487624Y459725*
Y458787*
X487851Y457225*
X488306Y456287*
X488988Y455975*
X489442*
X490124Y456287*
X490579Y457225*
X490806Y458787*
Y459725*
X490579Y461287*
X490124Y462225*
X489442Y462537*
X488988*
X493079Y456600D02*
X492851Y456287D01*
X493079Y455975*
X493306Y456287*
X493079Y456600*
X498079Y461600D02*
X497851Y462225D01*
X497169Y462537*
X496715*
X496033Y462225*
X495579Y461287*
X495351Y459725*
Y458162*
X495579Y456912*
X496033Y456287*
X496715Y455975*
X496942*
X497624Y456287*
X498079Y456912*
X498306Y457850*
Y458162*
X498079Y459100*
X497624Y459725*
X496942Y460037*
X496715*
X496033Y459725*
X495579Y459100*
X495351Y458162*
X500351Y460350D02*
Y455975D01*
Y459100D02*
X501033Y460037D01*
X501488Y460350*
X502169*
X502624Y460037*
X502851Y459100*
Y455975*
Y459100D02*
X503533Y460037D01*
X503988Y460350*
X504669*
X505124Y460037*
X505351Y459100*
Y455975*
X507397Y460350D02*
Y455975D01*
Y459100D02*
X508079Y460037D01*
X508533Y460350*
X509215*
X509669Y460037*
X509897Y459100*
Y455975*
Y459100D02*
X510579Y460037D01*
X511033Y460350*
X511715*
X512169Y460037*
X512397Y459100*
Y455975*
X499987Y553671D02*
X427082D01*
X499987D02*
X489987Y551171D01*
Y556171*
X499987Y553671*
X316813D02*
X389718D01*
X316813D02*
X326813Y556171D01*
Y551171*
X316813Y553671*
X499987Y505022D02*
Y558671D01*
X316813Y504841D02*
Y558671D01*
X394991Y556483D02*
X392718Y552108D01*
X396127*
X394991Y556483D02*
Y549921D01*
X400900Y555546D02*
X400672Y556171D01*
X399991Y556483*
X399536*
X398854Y556171*
X398400Y555233*
X398172Y553671*
Y552108*
X398400Y550858*
X398854Y550233*
X399536Y549921*
X399763*
X400445Y550233*
X400900Y550858*
X401127Y551796*
Y552108*
X400900Y553046*
X400445Y553671*
X399763Y553983*
X399536*
X398854Y553671*
X398400Y553046*
X398172Y552108*
X403400Y550546D02*
X403172Y550233D01*
X403400Y549921*
X403627Y550233*
X403400Y550546*
X408627Y556483D02*
X406354D01*
X406127Y553671*
X406354Y553983*
X407036Y554296*
X407718*
X408400Y553983*
X408854Y553358*
X409082Y552421*
X408854Y551796*
X408627Y550858*
X408172Y550233*
X407491Y549921*
X406809*
X406127Y550233*
X405900Y550546*
X405672Y551171*
X411127Y554296D02*
Y549921D01*
Y553046D02*
X411809Y553983D01*
X412263Y554296*
X412945*
X413400Y553983*
X413627Y553046*
Y549921*
Y553046D02*
X414309Y553983D01*
X414763Y554296*
X415445*
X415900Y553983*
X416127Y553046*
Y549921*
X418172Y554296D02*
Y549921D01*
Y553046D02*
X418854Y553983D01*
X419309Y554296*
X419991*
X420445Y553983*
X420672Y553046*
Y549921*
Y553046D02*
X421354Y553983D01*
X421809Y554296*
X422491*
X422945Y553983*
X423172Y553046*
Y549921*
G54D35*
X388933Y426918D02*
Y424621D01*
X390763Y426589D02*
X390604Y426808D01*
X390365Y426918*
X390047*
X389808Y426808*
X389649Y426589*
Y426371*
X389729Y426152*
X389808Y426043*
X389967Y425933*
X390444Y425714*
X390604Y425605*
X390683Y425496*
X390763Y425277*
Y424949*
X390604Y424730*
X390365Y424621*
X390047*
X389808Y424730*
X389649Y424949*
X392513Y426152D02*
X392433Y425824D01*
X392274Y425605*
X392035Y425496*
X391956*
X391717Y425605*
X391558Y425824*
X391479Y426152*
Y426261*
X391558Y426589*
X391717Y426808*
X391956Y426918*
X392035*
X392274Y426808*
X392433Y426589*
X392513Y426152*
Y425605*
X392433Y425058*
X392274Y424730*
X392035Y424621*
X391876*
X391638Y424730*
X391558Y424949*
X393706Y426918D02*
X393467Y426808D01*
X393308Y426480*
X393229Y425933*
Y425605*
X393308Y425058*
X393467Y424730*
X393706Y424621*
X393865*
X394104Y424730*
X394263Y425058*
X394342Y425605*
Y425933*
X394263Y426480*
X394104Y426808*
X393865Y426918*
X393706*
X395217D02*
X396092D01*
X395615Y426043*
X395854*
X396013Y425933*
X396092Y425824*
X396172Y425496*
Y425277*
X396092Y424949*
X395933Y424730*
X395694Y424621*
X395456*
X395217Y424730*
X395138Y424839*
X395058Y425058*
X398001Y426589D02*
X397842Y426808D01*
X397604Y426918*
X397285*
X397047Y426808*
X396888Y426589*
Y426371*
X396967Y426152*
X397047Y426043*
X397206Y425933*
X397683Y425714*
X397842Y425605*
X397922Y425496*
X398001Y425277*
Y424949*
X397842Y424730*
X397604Y424621*
X397285*
X397047Y424730*
X396888Y424949*
X399831Y426918D02*
X398717Y424621D01*
Y426918D02*
X399831D01*
X398717Y424621D02*
X399831D01*
X401024Y426918D02*
X400865Y426808D01*
X400706Y426589*
X400626Y426371*
X400547Y426043*
Y425496*
X400626Y425168*
X400706Y424949*
X400865Y424730*
X401024Y424621*
X401342*
X401501Y424730*
X401660Y424949*
X401740Y425168*
X401819Y425496*
Y426043*
X401740Y426371*
X401660Y426589*
X401501Y426808*
X401342Y426918*
X401024*
X401263Y425058D02*
X401740Y424402D01*
X403013Y426918D02*
X402774Y426808D01*
X402615Y426480*
X402535Y425933*
Y425605*
X402615Y425058*
X402774Y424730*
X403013Y424621*
X403172*
X403410Y424730*
X403569Y425058*
X403649Y425605*
Y425933*
X403569Y426480*
X403410Y426808*
X403172Y426918*
X403013*
X405319Y426589D02*
X405240Y426808D01*
X405001Y426918*
X404842*
X404604Y426808*
X404444Y426480*
X404365Y425933*
Y425386*
X404444Y424949*
X404604Y424730*
X404842Y424621*
X404922*
X405160Y424730*
X405319Y424949*
X405399Y425277*
Y425386*
X405319Y425714*
X405160Y425933*
X404922Y426043*
X404842*
X404604Y425933*
X404444Y425714*
X404365Y425386*
X406910Y426918D02*
X406115Y425386D01*
X407308*
X406910Y426918D02*
Y424621D01*
X408024Y425605D02*
X409456D01*
X410967Y426918D02*
X410172Y425386D01*
X411365*
X410967Y426918D02*
Y424621D01*
X413194Y426918D02*
X412081Y424621D01*
Y426918D02*
X413194D01*
X412081Y424621D02*
X413194D01*
X414388Y426918D02*
X414149Y426808D01*
X413990Y426480*
X413910Y425933*
Y425605*
X413990Y425058*
X414149Y424730*
X414388Y424621*
X414547*
X414785Y424730*
X414944Y425058*
X415024Y425605*
Y425933*
X414944Y426480*
X414785Y426808*
X414547Y426918*
X414388*
X416774Y426152D02*
X416694Y425824D01*
X416535Y425605*
X416297Y425496*
X416217*
X415979Y425605*
X415819Y425824*
X415740Y426152*
Y426261*
X415819Y426589*
X415979Y426808*
X416217Y426918*
X416297*
X416535Y426808*
X416694Y426589*
X416774Y426152*
Y425605*
X416694Y425058*
X416535Y424730*
X416297Y424621*
X416138*
X415899Y424730*
X415819Y424949*
X417490Y425605D02*
X418922D01*
X420194Y426918D02*
Y424621D01*
X419638Y426918D02*
X420751D01*
X421467D02*
Y424621D01*
Y426918D02*
X422183D01*
X422422Y426808*
X422501Y426699*
X422581Y426480*
Y426261*
X422501Y426043*
X422422Y425933*
X422183Y425824*
X421467D02*
X422183D01*
X422422Y425714*
X422501Y425605*
X422581Y425386*
Y425058*
X422501Y424839*
X422422Y424730*
X422183Y424621*
X421467*
X425683Y427355D02*
X425524Y427136D01*
X425365Y426808*
X425206Y426371*
X425126Y425824*
Y425386*
X425206Y424839*
X425365Y424402*
X425524Y424074*
X425683Y423855*
X426399Y426918D02*
Y424621D01*
Y426918D02*
X427115D01*
X427354Y426808*
X427433Y426699*
X427513Y426480*
Y426261*
X427433Y426043*
X427354Y425933*
X427115Y425824*
X426399*
X426956D02*
X427513Y424621D01*
X428229Y426918D02*
Y424621D01*
X430138Y426371D02*
X430058Y426589D01*
X429899Y426808*
X429740Y426918*
X429422*
X429263Y426808*
X429104Y426589*
X429024Y426371*
X428944Y426043*
Y425496*
X429024Y425168*
X429104Y424949*
X429263Y424730*
X429422Y424621*
X429740*
X429899Y424730*
X430058Y424949*
X430138Y425168*
X430854Y426918D02*
Y424621D01*
X431967Y426918D02*
Y424621D01*
X430854Y425824D02*
X431967D01*
X432683Y426918D02*
Y424621D01*
Y426918D02*
X433319Y424621D01*
X433956Y426918D02*
X433319Y424621D01*
X433956Y426918D02*
Y424621D01*
X435308Y426918D02*
X434672Y424621D01*
X435308Y426918D02*
X435944Y424621D01*
X434910Y425386D02*
X435706D01*
X436660Y426918D02*
X437774Y424621D01*
Y426918D02*
X436660Y424621D01*
X438490Y427355D02*
X438649Y427136D01*
X438808Y426808*
X438967Y426371*
X439047Y425824*
Y425386*
X438967Y424839*
X438808Y424402*
X438649Y424074*
X438490Y423855*
X492339Y509700D02*
X492239D01*
X492700Y509561D02*
X492900D01*
X493017Y509678*
X492700Y509561D02*
X492561Y509700D01*
X492339*
X488948Y507861D02*
X490400D01*
X492239Y509700*
X488948Y509436D02*
X487000D01*
X486100Y510336*
Y516100*
X484100Y518200*
X491300Y514800D02*
X495600D01*
X497200Y516400*
Y517784*
X491300Y514800D02*
X490350D01*
X489525Y515625*
X488350Y516800*
Y518150*
X497261Y517245D02*
X497600Y518184D01*
Y521100*
X497261Y517245D02*
X497200Y517784D01*
X371450Y507159D02*
X371804Y507513D01*
X373582*
X373936Y507159*
Y499704*
X373582Y499350*
X371804*
X371450Y499704*
Y507159*
X473050Y505796D02*
X473404Y506150D01*
X475796*
X476150Y505796*
Y501596*
X476796Y500950*
X478496*
X478850Y500596*
Y498204*
X478496Y497850*
X477196*
X476550Y497204*
Y495050*
X467404*
X467050Y495404*
Y496596*
X467404Y496950*
X472404*
X473050Y497596*
Y505796*
X475450Y525396D02*
X475804Y525750D01*
X480796*
X481150Y525396*
Y523604*
X480796Y523250*
X475804*
X475450Y523604*
Y525396*
X371450Y506999D02*
X373936D01*
X371450Y506549D02*
X373936D01*
X371450Y506099D02*
X373936D01*
X371450Y505649D02*
X373936D01*
X371450Y505199D02*
X373936D01*
X371450Y504749D02*
X373936D01*
X371450Y504299D02*
X373936D01*
X371450Y503849D02*
X373936D01*
X371450Y503399D02*
X373936D01*
X371450Y502949D02*
X373936D01*
X371450Y502499D02*
X373936D01*
X371450Y502049D02*
X373936D01*
X371450Y501599D02*
X373936D01*
X371450Y501149D02*
X373936D01*
X371450Y500699D02*
X373936D01*
X371450Y500249D02*
X373936D01*
X371450Y499799D02*
X373936D01*
X371739Y507449D02*
X373647D01*
X473050Y500449D02*
X478850D01*
X473050Y499999D02*
X478850D01*
X473050Y499549D02*
X478850D01*
X473050Y499099D02*
X478850D01*
X473050Y498649D02*
X478850D01*
X473050Y498199D02*
X478845D01*
X473050Y500899D02*
X478548D01*
X473050Y497749D02*
X477095D01*
X472752Y497299D02*
X476645D01*
X467302Y496849D02*
X476550D01*
X467050Y496399D02*
X476550D01*
X467050Y495949D02*
X476550D01*
X467050Y495499D02*
X476550D01*
X473050Y501349D02*
X476398D01*
X473050Y505399D02*
X476150D01*
X473050Y504949D02*
X476150D01*
X473050Y504499D02*
X476150D01*
X473050Y504049D02*
X476150D01*
X473050Y503599D02*
X476150D01*
X473050Y503149D02*
X476150D01*
X473050Y502699D02*
X476150D01*
X473050Y502249D02*
X476150D01*
X473050Y501799D02*
X476150D01*
X473102Y505849D02*
X476098D01*
X475450Y525049D02*
X481150D01*
X475450Y524599D02*
X481150D01*
X475450Y524149D02*
X481150D01*
X475450Y523699D02*
X481150D01*
X475552Y525499D02*
X481048D01*
X385669Y523622D02*
G75*
G03X385669I-1665J0D01*
G01X498754Y475682D02*
Y482124D01*
G03X498327Y482301I-250J-0*
G01X498323Y482297*
G03X498250Y482120I177J-177*
G01Y481200*
X497400Y480350D02*
G03X498250Y481200I0J850D01*
G01X497400Y480350D02*
X495400D01*
X494550Y481195D02*
G03X495400Y480350I850J5D01*
G01X494550Y481195D02*
G03X494050I-250J-2D01*
G01X493200Y480350D02*
G03X494050Y481195I0J850D01*
G01X493200Y480350D02*
X491200D01*
X490381Y480973D02*
G03X491200Y480350I819J227D01*
G01X490381Y480973D02*
G03X490161Y481156I-241J-66D01*
G01X490126Y484441D02*
G03X490161Y481156I174J-1641D01*
G01X490126Y484441D02*
G03X490350Y484689I-26J248D01*
G01Y486058*
G03X490009Y486291I-250J-0*
G01X489735Y486239D02*
G03X490009Y486291I0J750D01*
G01X489735Y486239D02*
X487373D01*
X486914Y486396D02*
G03X487373Y486239I459J593D01*
G01X486914Y486396D02*
G03X486792Y486446I-153J-198D01*
G01X486239Y486717D02*
G03X486792Y486446I672J672D01*
G01X486239Y486717D02*
X485130Y487827D01*
G03X484953Y487900I-177J-177*
G01X482138*
G03X482025Y487873I0J-250*
G01X482021Y487871*
G03X481928Y487789I114J-223*
G01X481887Y487728*
G03X481854Y487658I207J-140*
G01X481553Y487096D02*
G03X481854Y487658I-1187J997D01*
G01X481553Y487096D02*
G03X481744Y486685I191J-161D01*
G01X484403*
X485075Y486407D02*
G03X484403Y486685I-672J-672D01*
G01X485075Y486407D02*
X485761Y485721D01*
X485801Y485678D02*
G03X485761Y485721I-712J-629D01*
G01X485801Y485678D02*
G03X485844Y485639I188J165D01*
G01X486161Y485027D02*
G03X485844Y485639I-750J-0D01*
G01X486161Y485027D02*
Y482665D01*
X485411Y481915D02*
G03X486161Y482665I0J750D01*
G01X485411Y481915D02*
X484636D01*
G03X484386Y481665I0J-250*
G01Y480600*
X484108Y479928D02*
G03X484386Y480600I-672J672D01*
G01X484108Y479928D02*
X482108Y477928D01*
X481795Y477720D02*
G03X482108Y477928I-359J880D01*
G01X481795Y477720D02*
G03X481682Y477629I94J-231D01*
G01X478960Y477925D02*
G03X481682Y477629I1440J575D01*
G01X478960Y477925D02*
G03X478502Y477939I-232J-92D01*
G01X476136Y477386D02*
G03X478502Y477939I964J1214D01*
G01X476136Y477386D02*
G03X475844Y477400I-156J-196D01*
G01X474036Y477486D02*
G03X475844Y477400I964J1214D01*
G01X474036Y477486D02*
G03X473744Y477500I-156J-196D01*
G01X471953Y477573D02*
G03X473744Y477500I947J1227D01*
G01X471953Y477573D02*
G03X471647I-153J-198D01*
G01X469301Y479467D02*
G03X471647Y477573I1399J-667D01*
G01X469301Y479467D02*
G03X469044Y479823I-226J108D01*
G01X467530Y480551D02*
G03X469044Y479823I1322J810D01*
G01X467530Y480551D02*
G03X467140Y480597I-213J-131D01*
G01X466457Y479914*
G03X466504Y479523I177J-177*
G01X468251Y476419D02*
G03X466504Y479523I-3632J0D01*
G01X468251Y476419D02*
Y473889D01*
G03X468501Y473639I250J0*
G01X496625*
G03X496874Y473865I-0J250*
G01X498516Y475432D02*
G03X496874Y473865I84J-1732D01*
G01X498516Y475432D02*
G03X498754Y475682I-12J250D01*
G01Y489176D02*
Y494543D01*
G03X498378Y494759I-250J0*
G01X497256Y494589D02*
G03X498378Y494759I344J1511D01*
G01X497256Y494589D02*
G03X496950Y494345I-56J-244D01*
G01Y490624*
G03X497125Y490201I599J0*
G01X498327Y488999*
G03X498754Y489176I177J177*
G01Y499769D02*
Y514672D01*
G03X498488Y514921I-250J-0*
G01X498442Y514920D02*
G03X498488Y514922I-0J750D01*
G01X498442Y514920D02*
X497238D01*
G03X497061Y514847I-0J-250*
G01X496307Y514093*
X495600Y513800D02*
G03X496307Y514093I0J1000D01*
G01X495600Y513800D02*
X491300D01*
X490350*
X489643Y514093D02*
G03X490350Y513800I707J707D01*
G01X489643Y514093D02*
X488818Y514918D01*
X487643Y516093*
X487550Y516200D02*
G03X487643Y516093I800J600D01*
G01X487550Y516200D02*
G03X487100Y516050I-200J-150D01*
G01Y512411*
G03X487356Y512161I250J-0*
G01X487373D02*
G03X487356I0J-750D01*
G01X487373D02*
X489735D01*
X490101Y512066D02*
G03X489735Y512161I-366J-655D01*
G01X490101Y512066D02*
G03X490457Y512196I122J218D01*
G01X491158Y512680D02*
G03X490457Y512196I0J-750D01*
G01X491158Y512680D02*
X493520D01*
X494270Y511930D02*
G03X493520Y512680I-750J-0D01*
G01X494270Y511930D02*
Y510013D01*
G03X494344Y509836I250J-0*
G01X495642Y508537*
X495950Y507794D02*
G03X495642Y508537I-1050J0D01*
G01X495950Y507794D02*
Y505300D01*
X495642Y504558D02*
G03X495950Y505300I-742J742D01*
G01X495642Y504558D02*
X495636Y504551D01*
G03X495563Y504375I177J-176*
G01Y503740*
X495343Y503209D02*
G03X495563Y503740I-530J531D01*
G01X495343Y503209D02*
X494949Y502816D01*
X494419Y502597D02*
G03X494949Y502816I0J750D01*
G01X494419Y502597D02*
X494133D01*
G03X493956Y502170I0J-250*
G01X496530Y499596*
G03X496783Y499534I177J177*
G01X497009Y499569D02*
G03X496783Y499534I0J-750D01*
G01X497009Y499569D02*
X498191D01*
X498426Y499532D02*
G03X498191Y499569I-235J-713D01*
G01X498426Y499532D02*
G03X498754Y499769I78J237D01*
G01Y523363D02*
Y526089D01*
G03X498504Y526339I-250J-0*
G01X482191*
G03X481983Y525950I-0J-250*
G01X482150Y525396D02*
G03X481983Y525950I-1000J0D01*
G01X482150Y525396D02*
Y523604D01*
X481857Y522896D02*
G03X482150Y523604I-707J708D01*
G01X481857Y522896D02*
X481504Y522543D01*
X480796Y522250D02*
G03X481504Y522543I0J1000D01*
G01X480796Y522250D02*
X478850D01*
G03X478655Y522157I-0J-250*
G01X478072Y521878D02*
G03X478655Y522157I-0J750D01*
G01X478072Y521878D02*
X476803D01*
G03X476626Y521805I0J-250*
G01X475898Y521077*
G03X476075Y520650I177J-177*
G01X477490*
G03X477575Y520665I0J250*
G01X478371Y520952*
G03X478427Y520981I-85J235*
G01X480730Y520298D02*
G03X478427Y520981I-1430J-598D01*
G01X480730Y520298D02*
G03X480980Y520145I231J97D01*
G01X482190Y519702D02*
G03X480980Y520145I-1090J-1102D01*
G01X482190Y519702D02*
G03X482550Y519710I176J177D01*
G01X483100Y519950D02*
G03X482550Y519710I0J-750D01*
G01X483100Y519950D02*
X485100D01*
X485850Y519200D02*
G03X485100Y519950I-750J0D01*
G01X485850Y519200D02*
Y517913D01*
G03X485919Y517740I250J-0*
G01X486119Y517530*
G03X486550Y517703I181J173*
G01Y519200*
X487300Y519950D02*
G03X486550Y519200I0J-750D01*
G01X487300Y519950D02*
X489300D01*
X490050Y519200D02*
G03X489300Y519950I-750J0D01*
G01X490050Y519200D02*
Y517200D01*
X489963Y516850D02*
G03X490050Y517200I-663J350D01*
G01X489963Y516850D02*
G03X490008Y516557I221J-117D01*
G01X490232Y516332*
X490691Y515873*
G03X490868Y515800I177J177*
G01X491300*
X495080*
G03X495330Y516050I-0J250*
G01Y518820*
X496080Y519570D02*
G03X495330Y518820I-0J-750D01*
G01X496080Y519570D02*
X496219D01*
G03X496396Y519996I0J250*
G01X496085Y520308*
X495866Y520838D02*
G03X496085Y520308I750J0D01*
G01X495866Y520838D02*
Y522019D01*
X496085Y522549D02*
G03X495866Y522019I531J-530D01*
G01X496085Y522549D02*
X496478Y522943D01*
X497009Y523163D02*
G03X496478Y522943I0J-750D01*
G01X497009Y523163D02*
X498191D01*
X498426Y523125D02*
G03X498191Y523163I-235J-712D01*
G01X498426Y523125D02*
G03X498754Y523363I78J238D01*
G01X473778Y523303D02*
Y526092D01*
G03X473528Y526342I-250J0*
G01X468504*
G03X468254Y526092I-0J-250*
G01Y523579*
X464624Y519950D02*
G03X468254Y523579I0J3629D01*
G01X464624Y519950D02*
X464590D01*
X464502Y519951D02*
G03X464590Y519950I88J3635D01*
G01X464502Y519951D02*
G03X464319Y519524I-6J-250D01*
G01X466301Y517542*
G03X466478Y517469I177J177*
G01X470138*
X470662Y517311D02*
G03X470138Y517469I-524J-792D01*
G01X470662Y517311D02*
G03X471031Y517617I138J208D01*
G01X470913Y518200D02*
G03X471031Y517617I1500J0D01*
G01X470913Y518200D02*
Y519713D01*
X471352Y520773D02*
G03X470913Y519713I1061J-1060D01*
G01X471352Y520773D02*
X473139Y522561D01*
X473705Y523126*
G03X473778Y523303I-177J177*
G01X455973Y500678D02*
G03Y500872I-230J97D01*
G01X455915Y501162D02*
G03X455973Y500872I750J0D01*
G01X455915Y501162D02*
Y501467D01*
G03X455623Y501713I-250J-0*
G01X455500Y501703D02*
G03X455623Y501713I0J750D01*
G01X455500Y501703D02*
X450500D01*
X450072Y501837D02*
G03X450500Y501703I428J616D01*
G01X450072Y501837D02*
G03X449752Y501809I-143J-205D01*
G01X447560Y499617*
G03X447487Y499440I177J-177*
G01Y497797*
G03X447560Y497620I250J0*
G01X448241Y496940*
X448306Y496867D02*
G03X448241Y496940I-737J-599D01*
G01X448306Y496867D02*
G03X448750Y497025I194J158D01*
G01Y497047*
Y498500*
X449116Y499384D02*
G03X448750Y498500I884J-884D01*
G01X449116Y499384D02*
X449494Y499762D01*
G03X449514Y499785I-177J177*
G01X450500Y500266D02*
G03X449514Y499785I0J-1250D01*
G01X450500Y500266D02*
X455500D01*
X455628Y500255D02*
G03X455500Y500266I-128J-739D01*
G01X455628Y500255D02*
G03X455919Y500473I43J246D01*
G01X455973Y500678D02*
G03X455919Y500473I692J-291D01*
G01X455973Y506977D02*
G03Y507171I-230J97D01*
G01X455918Y507395D02*
G03X455973Y507171I747J66D01*
G01X455918Y507395D02*
G03X455626Y507619I-249J-23D01*
G01X455500Y507608D02*
G03X455626Y507619I0J750D01*
G01X455500Y507608D02*
X450500D01*
X449775Y508164D02*
G03X450500Y507608I725J194D01*
G01X449775Y508164D02*
G03X449534Y508350I-241J-64D01*
G01X446275*
G03X446028Y508058I-0J-250*
G01X445438Y506566D02*
G03X446028Y508058I-938J1234D01*
G01X445438Y506566D02*
G03X445648Y506124I151J-199D01*
G01X445943Y506159D02*
G03X445648Y506124I0J-1250D01*
G01X445943Y506159D02*
X449099D01*
X449099*
X450375Y506163*
G03X450406Y506165I-1J250*
G01X450500Y506171D02*
G03X450406Y506165I0J-750D01*
G01X450500Y506171D02*
X452995D01*
X455500*
X455623Y506161D02*
G03X455500Y506171I-123J-740D01*
G01X455623Y506161D02*
G03X455915Y506407I42J246D01*
G01Y506687*
X455973Y506977D02*
G03X455915Y506687I692J-290D01*
G01X457150Y518232D02*
Y519300D01*
G03X456900Y519550I-250J-0*
G01X450813*
G03X450570Y519242I0J-250*
G01X450507Y518322D02*
G03X450570Y519242I-1445J561D01*
G01X450507Y518322D02*
G03X450740Y517982I233J-90D01*
G01X453000*
X455500*
X456900*
G03X457150Y518232I-0J250*
G01X460954Y524594D02*
Y526094D01*
X460954D02*
G03X460704Y526344I-250J-0D01*
G01X460704D02*
X409983D01*
G03X409816Y525908I-0J-250*
G01X409854Y525872D02*
G03X409816Y525908I-672J-672D01*
G01X409854Y525872D02*
X411720Y524005D01*
G03X411897Y523932I177J177*
G01X429300*
X429391Y523928D02*
G03X429300Y523932I-91J-946D01*
G01X429391Y523928D02*
G03X429654Y524104I24J249D01*
G01X432890Y523342D02*
G03X429654Y524104I-1642J280D01*
G01X432890Y523342D02*
G03X433136Y523050I246J-42D01*
G01X433297*
G03X433543Y523342I-0J250*
G01X436827D02*
G03X433543I-1642J280D01*
G01X436827D02*
G03X437073Y523050I246J-42D01*
G01X437234*
G03X437480Y523342I-0J250*
G01X440764D02*
G03X437480I-1642J280D01*
G01X440764D02*
G03X441010Y523050I246J-42D01*
G01X441171*
G03X441417Y523342I-0J250*
G01X444701D02*
G03X441417I-1642J280D01*
G01X444701D02*
G03X444947Y523050I246J-42D01*
G01X445108*
G03X445354Y523342I-0J250*
G01X448633Y523314D02*
G03X445354Y523342I-1637J308D01*
G01X448633Y523314D02*
G03X448820Y523024I245J-47D01*
G01X449272Y522772D02*
G03X448820Y523024I-672J-672D01*
G01X449272Y522772D02*
X449720Y522323D01*
G03X449897Y522250I177J177*
G01X456105*
G03X456243Y522708I-0J250*
G01X458149Y525141D02*
G03X456243Y522708I-1049J-1141D01*
G01X458149Y525141D02*
G03X458197Y525107I169J184D01*
G01X458782Y524781*
G03X458903Y524750I121J219*
G01X459900*
X460503Y524445D02*
G03X459900Y524750I-603J-445D01*
G01X460503Y524445D02*
G03X460954Y524594I201J149D01*
G01X401072Y483884D02*
G03X401012Y484329I-139J207D01*
G01X400003Y485397D02*
G03X401012Y484329I1497J403D01*
G01X400003Y485397D02*
G03X399517Y485383I-241J-65D01*
G01X397744Y484171D02*
G03X399517Y485383I256J1529D01*
G01X397744Y484171D02*
G03X397456Y483967I-42J-246D01*
G01X396412Y482697D02*
G03X397456Y483967I-597J1555D01*
G01X396412Y482697D02*
G03X396325Y482641I90J-233D01*
G01X396047Y482363*
G03X396171Y481942I177J-177*
G01X397441Y479954D02*
G03X396171Y481942I-1626J361D01*
G01X397441Y479954D02*
G03X397685Y479650I244J-54D01*
G01X397882*
G03X398126Y479954I0J250*
G01X400125Y481938D02*
G03X398126Y479954I-373J-1623D01*
G01X400125Y481938D02*
G03X400424Y482239I56J244D01*
G01X401072Y483884D02*
G03X400424Y482239I861J-1290D01*
G01X403064Y514009D02*
G03X402930Y514265I-248J34D01*
G01X402044Y515491D02*
G03X402930Y514265I1645J257D01*
G01X402044Y515491D02*
G03X402027Y515549I-247J-39D01*
G01X401674Y516393*
G03X401620Y516473I-231J-97*
G01X401363Y516730*
X401085Y517402D02*
G03X401363Y516730I950J0D01*
G01X401085Y517402D02*
Y518105D01*
G03X400694Y518311I-250J0*
G01X398814Y518309D02*
G03X400694Y518311I938J1376D01*
G01X398814Y518309D02*
G03X398496Y518279I-141J-206D01*
G01X397472Y517255*
X397249Y517090D02*
G03X397472Y517255I-449J837D01*
G01X397249Y517090D02*
G03X397165Y516723I119J-220D01*
G01X397362Y515132D02*
G03X397165Y516723I-1547J616D01*
G01X397362Y515132D02*
G03X397776Y514867I232J-93D01*
G01X400449Y513746D02*
G03X397776Y514867I-1549J54D01*
G01X400449Y513746D02*
G03X400502Y513584I250J-9D01*
G01X400662Y513271D02*
G03X400502Y513584I-910J-271D01*
G01X400662Y513271D02*
G03X400752Y513143I240J72D01*
G01X401331Y511282D02*
G03X400752Y513143I-1579J529D01*
G01X401331Y511282D02*
G03X401405Y511013I237J-79D01*
G01X401455Y510967D02*
G03X401405Y511013I-672J-672D01*
G01X401455Y510967D02*
X401998Y510423D01*
G03X402175Y510350I177J177*
G01X402205*
G03X402399Y510758I0J250*
G01X402792Y513214D02*
G03X402399Y510758I897J-1403D01*
G01X402792Y513215D02*
G03X402889Y513330I-134J210D01*
G01X403004Y513534D02*
G03X402889Y513330I763J-567D01*
G01X403004Y513534D02*
G03X403053Y513699I-200J149D01*
G01X403064Y514009D02*
G03X403053Y513699I1536J-209D01*
G01X390300Y525908D02*
G03X390133Y526344I-167J186D01*
G01X373374*
G03X373125Y526120I-0J-250*
G01X370972Y524619D02*
G03X373125Y526120I428J1681D01*
G01X370972Y524619D02*
G03X370661Y524399I-62J-242D01*
G01X370381Y523498D02*
G03X370661Y524399I-1949J1100D01*
G01X370381Y523498D02*
G03X370384Y523246I217J-123D01*
G01X370457Y523115D02*
G03X370384Y523246I-1993J-1024D01*
G01X370457Y523115D02*
G03X370929Y523222I222J114D01*
G01X371679Y523950D02*
G03X370929Y523222I0J-750D01*
G01X371679Y523950D02*
X373679D01*
X374372Y523486D02*
G03X373679Y523950I-693J-286D01*
G01X374372Y523486D02*
G03X374828Y523470I232J95D01*
G01X375277Y523854D02*
G03X374828Y523470I223J-716D01*
G01X375277Y523854D02*
G03X375449Y524049I-74J239D01*
G01X378494Y524088D02*
G03X375449Y524049I-1519J-310D01*
G01X378494Y524088D02*
G03X378739Y523888I245J50D01*
G01X380500*
X381250Y523138D02*
G03X380500Y523888I-750J0D01*
G01X381250Y523138D02*
Y522138D01*
X380500Y521388D02*
G03X381250Y522138I0J750D01*
G01X380500Y521388D02*
X378000D01*
X376975*
X375500*
X375400Y521395D02*
G03X375500Y521388I100J743D01*
G01X375400Y521395D02*
G03X375189Y520970I-34J-248D01*
G01X376186Y519973*
G03X376363Y519900I177J177*
G01X379983*
G03X380147Y519961I-0J250*
G01X382041Y520070D02*
G03X380147Y519961I-877J-1278D01*
G01X382041Y520070D02*
G03X382420Y520199I141J206D01*
G01X385312Y518655D02*
G03X382420Y520199I-1308J1030D01*
G01X385312Y518655D02*
G03X385509Y518250I197J-155D01*
G01X386225*
G03X386402Y518323I0J250*
G01X386524Y518446*
G03X386555Y518761I-177J176*
G01X388122Y521341D02*
G03X386555Y518761I-181J-1656D01*
G01X388122Y521341D02*
G03X388383Y521501I27J248D01*
G01X388432Y521618D02*
G03X388383Y521501I1402J-661D01*
G01X388432Y521618D02*
G03X388171Y521973I-226J107D01*
G01X388990Y524916D02*
G03X388171Y521973I-1049J-1294D01*
G01X388990Y524916D02*
G03X389324Y524933I157J194D01*
G01X390262Y525872*
X390300Y525908D02*
G03X390262Y525872I634J-708D01*
G01X384253Y500193D02*
G03X384197Y500366I-250J16D01*
G01X383984Y500966D02*
G03X384197Y500366I950J0D01*
G01X383984Y500966D02*
Y501011D01*
G03X383703Y501259I-250J-0*
G01X382036Y502320D02*
G03X383703Y501259I1475J477D01*
G01X382036Y502320D02*
G03X381622Y502420I-238J-77D01*
G01X381483Y502281*
X381202Y502087D02*
G03X381483Y502281I-391J866D01*
G01X381202Y502087D02*
G03X381103Y502008I103J-228D01*
G01X380500Y501703D02*
G03X381103Y502008I0J750D01*
G01X380500Y501703D02*
X375500D01*
X375265Y501741D02*
G03X375500Y501703I235J712D01*
G01X375265Y501741D02*
G03X374936Y501504I-79J-237D01*
G01Y501259*
G03X375007Y501085I250J0*
G01X375327Y500604D02*
G03X375007Y501085I-1427J-604D01*
G01X375327Y500604D02*
G03X375381Y500525I231J98D01*
G01X375567Y500339*
G03X375743Y500266I176J177*
G01X378000*
X380500*
X381250Y499516D02*
G03X380500Y500266I-750J0D01*
G01X381250Y499516D02*
Y498516D01*
X381247Y498448D02*
G03X381250Y498516I-747J68D01*
G01X381247Y498448D02*
G03X381475Y498176I249J-23D01*
G01X382128Y497971D02*
G03X381475Y498176I-779J-1340D01*
G01X382128Y497971D02*
G03X382412Y497995I125J216D01*
G01X382974Y498290D02*
G03X382412Y497995I426J-1490D01*
G01X382974Y498290D02*
G03X383154Y498512I-69J241D01*
G01X384098Y499828D02*
G03X383154Y498512I602J-1428D01*
G01X384098Y499828D02*
G03X384250Y500064I-98J231D01*
G01X384253Y500193D02*
G03X384250Y500064I1547J-93D01*
G01X400494Y507436D02*
G03X400638Y507861I-33J248D01*
G01X400035Y508464*
G03X399858Y508537I-177J-177*
G01X397685*
G03X397441Y508233I0J-250*
G01X394338Y507105D02*
G03X397441Y508233I1477J769D01*
G01X394338Y507105D02*
G03X394116Y507239I-222J-116D01*
G01X394018*
G03X393863Y507185I-0J-250*
G01X391419Y507944D02*
G03X393863Y507185I1481J456D01*
G01X391419Y507944D02*
G03X391190Y508120I-239J-73D01*
G01X390274Y510868D02*
G03X391190Y508120I983J-1199D01*
G01X390274Y510868D02*
G03X390346Y511159I-158J193D01*
G01X390247Y512146D02*
G03X390346Y511159I1631J-335D01*
G01X390247Y512146D02*
G03X390002Y512446I-245J50D01*
G01X389817*
G03X389572Y512146I0J-250*
G01X388730Y510344D02*
G03X389572Y512146I-789J1467D01*
G01X388730Y510344D02*
G03X388619Y510023I118J-220D01*
G01X388742Y509242D02*
G03X388619Y510023I-1542J158D01*
G01X388742Y509242D02*
G03X388814Y509040I249J-26D01*
G01X389506Y508347*
X389785Y507675D02*
G03X389506Y508347I-950J0D01*
G01X389785Y507675D02*
Y498646D01*
X389777Y498523D02*
G03X389785Y498646I-942J123D01*
G01X389777Y498523D02*
G03X390025Y498241I248J-32D01*
G01X390403*
G03X390580Y498314I-0J250*
G01X392176Y499911*
G03X392111Y500312I-176J177*
G01X394063Y502598D02*
G03X392111Y500312I-1263J-898D01*
G01X394063Y502598D02*
G03X394480Y502612I204J145D01*
G01X396797Y502986D02*
G03X394480Y502612I-997J-1186D01*
G01X396797Y502986D02*
G03X397159Y503028I161J192D01*
G01X397918Y503573D02*
G03X397159Y503028I482J-1473D01*
G01X397918Y503573D02*
G03X398090Y503827I-77J238D01*
G01X399025Y505435D02*
G03X398090Y503827I727J-1498D01*
G01X399025Y505435D02*
G03X399164Y505694I-109J225D01*
G01X400494Y507436D02*
G03X399164Y505694I206J-1536D01*
G01X412314Y480558D02*
G03X412292Y480931I-177J176D01*
G01X411707Y482313D02*
G03X412292Y480931I1541J-162D01*
G01X411707Y482313D02*
G03X411472Y482589I-249J26D01*
G01X409903Y484381D02*
G03X411472Y482589I1660J-129D01*
G01X409903Y484381D02*
G03X409660Y484650I-250J20D01*
G01X408224Y485726D02*
G03X409660Y484651I1476J474D01*
G01X408224Y485726D02*
G03X408143Y485844I-238J-77D01*
G01X407290Y486533*
G03X407197Y486580I-157J-195*
G01X406731Y486785D02*
G03X407197Y486580I895J1404D01*
G01X406731Y486785D02*
G03X406347Y486554I-135J-211D01*
G01X406350Y486478D02*
G03X406347Y486554I-950J-0D01*
G01X406350Y486478D02*
Y484564D01*
G03X406423Y484387I250J-0*
G01X410365Y480445*
G03X410542Y480371I177J176*
G01X412024*
G03X412201Y480445I0J250*
G01X412314Y480558*
X423950Y482036D02*
Y484827D01*
G03X423582Y485047I-250J-0*
G01X421223Y486987D02*
G03X423582Y485047I1577J-487D01*
G01X421223Y486987D02*
G03X420782Y487208I-239J73D01*
G01X418147Y489243D02*
G03X420782Y487208I1290J-1054D01*
G01X418147Y489243D02*
G03X417945Y489651I-193J158D01*
G01X417911Y489650D02*
G03X417945Y489651I0J950D01*
G01X417911Y489650D02*
X417600D01*
X416984*
G03X416790Y489242I-0J-250*
G01X417022Y487512D02*
G03X416790Y489242I-1522J677D01*
G01X417022Y487512D02*
G03X417000Y487410I228J-102D01*
G01Y487100*
X416561Y486039D02*
G03X417000Y487100I-1061J1061D01*
G01X416561Y486039D02*
X416159Y485637D01*
G03X416122Y485591I176J-177*
G01X413908Y485132D02*
G03X416122Y485591I892J1268D01*
G01X413908Y485132D02*
G03X413603Y485118I-143J-204D01*
G01X413311Y484922D02*
G03X413603Y485118I-711J1378D01*
G01X413311Y484922D02*
G03X413182Y484642I114J-222D01*
G01X413206Y483980D02*
G03X413182Y484642I-1643J272D01*
G01X413206Y483980D02*
G03X413424Y483691I247J-41D01*
G01X414468Y483107D02*
G03X413424Y483691I-1220J-956D01*
G01X414468Y483107D02*
G03X414839Y483082I197J154D01*
G01X415500Y483350D02*
G03X414839Y483082I0J-950D01*
G01X415500Y483350D02*
X417636D01*
G03X417871Y483685I0J250*
G01X420558Y483021D02*
G03X417871Y483685I-1121J1231D01*
G01X420558Y483021D02*
G03X420550Y482659I169J-185D01*
G01X422020Y481189*
G03X422197Y481116I177J177*
G01X423029*
G03X423206Y481189I0J250*
G01X423877Y481859*
G03X423950Y482036I-177J177*
G01X423490Y519915D02*
G03X423733Y520227I0J250D01*
G01X423708Y520885D02*
G03X423733Y520227I1526J-273D01*
G01X423708Y520885D02*
G03X423462Y521179I-246J44D01*
G01X418761*
G03X418585Y521105I0J-250*
G01X414646Y517167*
G03X414573Y516990I177J-177*
G01Y515260*
G03X414875Y515016I250J0*
G01X416747Y513406D02*
G03X414875Y515016I-1547J94D01*
G01X416747Y513406D02*
G03X416751Y513348I250J-15D01*
G01X416841Y512840*
G03X416880Y512744I246J44*
G01X416890Y510893D02*
G03X416880Y512744I-1390J918D01*
G01X416890Y510893D02*
G03X416922Y510579I208J-137D01*
G01X418172Y509329*
X418197Y509302D02*
G03X418172Y509329I-697J-645D01*
G01X418197Y509302D02*
G03X418519Y509263I184J170D01*
G01X418818Y509420D02*
G03X418519Y509263I619J-1546D01*
G01X418818Y509420D02*
G03X418873Y509451I-93J232D01*
G01X419084Y509607*
G03X419179Y509753I-149J201*
G01X419194Y509817*
G03X419200Y509879I-244J55*
G01X419199Y509954D02*
G03X419200Y509879I1550J-29D01*
G01X419199Y509954D02*
G03X419013Y510201I-250J5D01*
G01X418885Y513382D02*
G03X419013Y510201I552J-1571D01*
G01X418885Y513382D02*
G03X419052Y513629I-83J236D01*
G01X419064Y513903D02*
G03X419052Y513629I1536J-204D01*
G01X419063Y513903D02*
G03X418897Y514173I-247J33D01*
G01X417883Y515150D02*
G03X418897Y514173I1554J598D01*
G01X417883Y515150D02*
G03X417638Y515310I-234J-89D01*
G01X417282Y518382D02*
G03X417638Y515310I288J-1523D01*
G01X417282Y518382D02*
G03X417342Y518401I-47J246D01*
G01X418108Y518761*
G03X418178Y518811I-107J226*
G01X419004Y519636*
X419675Y519915D02*
G03X419004Y519636I0J-951D01*
G01X419675Y519915D02*
X423490D01*
X433343Y514099D02*
G03X433768Y514310I177J177D01*
G01Y514311D02*
X433666Y515042D01*
G03X433649Y515105I-248J-34*
G01X433554Y515412D02*
G03X433649Y515105I1631J336D01*
G01X433554Y515412D02*
G03X433486Y515538I-245J-51D01*
G01X432445Y516578*
X432053Y517448D02*
G03X432445Y516578I1347J85D01*
G01X432053Y517448D02*
G03X432025Y517548I-250J-16D01*
G01X431899Y517876D02*
G03X432025Y517548I1501J387D01*
G01X431899Y517876D02*
G03X431604Y518058I-242J-62D01*
G01X430123Y518458D02*
G03X431604Y518058I1125J1227D01*
G01X430123Y518458D02*
G03X429821Y518485I-169J-185D01*
G01X428579Y518308D02*
G03X429821Y518485I421J1492D01*
G01X428579Y518308D02*
G03X428261Y518068I-68J-240D01*
G01Y517800*
G03X428277Y517711I250J0*
G01X428636Y516773*
G03X428666Y516717I233J89*
G01X428949Y515445D02*
G03X428666Y516717I-1638J303D01*
G01X428949Y515445D02*
G03X429195Y515150I246J-45D01*
G01X431899*
X432571Y514872D02*
G03X431899Y515150I-672J-672D01*
G01X432571Y514872D02*
X433343Y514099D01*
X436638Y473640D02*
G03X436815Y474067I0J250D01*
G01X436128Y474754*
X436104Y474779D02*
G03X436128Y474754I696J647D01*
G01X436104Y474779D02*
G03X435824Y474840I-184J-170D01*
G01X435546Y478004D02*
G03X435824Y474840I-361J-1626D01*
G01X435546Y478004D02*
G03X435850Y478248I54J244D01*
G01Y478445*
G03X435546Y478689I-250J0*
G01X433729Y481123D02*
G03X435546Y478689I1456J-808D01*
G01X433729Y481123D02*
G03X433689Y481419I-219J121D01*
G01X433578Y483454D02*
G03X433689Y481419I1222J-954D01*
G01X433578Y483454D02*
G03X433617Y483692I-197J154D01*
G01X433663Y484929D02*
G03X433617Y483692I1522J-677D01*
G01X433663Y484929D02*
G03X433685Y485030I-228J101D01*
G01Y487315*
G03X433402Y487563I-250J0*
G01X432988Y487565D02*
G03X433402Y487563I212J1535D01*
G01X432988Y487565D02*
G03X432731Y487431I-35J-248D01*
G01X431532Y486548D02*
G03X432731Y487431I-284J1641D01*
G01X431532Y486548D02*
G03X431325Y486302I43J-246D01*
G01Y485577*
X431047Y484906D02*
G03X431325Y485577I-672J671D01*
G01X431047Y484906D02*
X430723Y484582D01*
G03X430650Y484405I177J-177*
G01Y482198*
G03X430945Y481953I250J0*
G01X430834Y478702D02*
G03X430945Y481953I414J1613D01*
G01X430834Y478702D02*
G03X430548Y478572I-62J-242D01*
G01X430410Y478369D02*
G03X430548Y478572I-710J631D01*
G01X430410Y478369D02*
G03X430347Y478189I187J-166D01*
G01X430348Y478169D02*
G03X430347Y478189I-1548J-69D01*
G01X430349Y478169D02*
G03X430683Y477945I249J11D01*
G01X429583Y476378D02*
G03X430683Y477945I1665J-0D01*
G01X429583Y476378D02*
Y476380D01*
Y476381*
G03X429259Y476619I-250J-0*
G01X427325Y477622D02*
G03X429259Y476619I1475J478D01*
G01X427325Y477622D02*
G03X426956Y477758I-237J-77D01*
G01X426454Y477614D02*
G03X426956Y477758I-0J950D01*
G01X426454Y477614D02*
X422688D01*
G03X422503Y477196I-0J-250*
G01X419808Y476149D02*
G03X422503Y477196I1550J2D01*
G01X419808Y476149D02*
G03X419558Y476399I-250J0D01*
G01X414975*
G03X414798Y476326I-0J-250*
G01X414499Y476026*
X413827Y475748D02*
G03X414499Y476026I-0J950D01*
G01X413827Y475748D02*
X408587D01*
X407915Y476026D02*
G03X408587Y475748I672J672D01*
G01X407915Y476026D02*
X406567Y477375D01*
G03X406183Y477338I-177J-177*
G01X404047Y476909D02*
G03X406183Y477338I851J1296D01*
G01X404047Y476909D02*
G03X403910Y476950I-137J-209D01*
G01X401640*
G03X401394Y476658I0J-250*
G01X398110D02*
G03X401394I1642J-280D01*
G01X398110D02*
G03X397864Y476950I-246J42D01*
G01X397703*
G03X397457Y476658I0J-250*
G01X394173D02*
G03X397457I1642J-280D01*
G01X394173D02*
G03X393927Y476950I-246J42D01*
G01X393766*
G03X393520Y476658I0J-250*
G01X390242Y476692D02*
G03X393520Y476658I1636J-314D01*
G01X390242Y476692D02*
G03X390060Y476981I-245J47D01*
G01X389910Y477033D02*
G03X390060Y476981I390J867D01*
G01X389910Y477033D02*
G03X389564Y476750I-102J-228D01*
G01X388333Y477997D02*
G03X389564Y476750I-392J-1619D01*
G01X388333Y477997D02*
G03X388623Y478335I59J242D01*
G01X388573Y478494D02*
G03X388623Y478335I927J206D01*
G01X388573Y478494D02*
G03X388278Y478684I-244J-55D01*
G01X386310Y480650D02*
G03X388278Y478684I1631J-335D01*
G01X386310Y480650D02*
G03X386065Y480950I-245J50D01*
G01X385880*
G03X385635Y480650I0J-250*
G01X382454Y479705D02*
G03X385635Y480650I1550J610D01*
G01X382454Y479705D02*
G03X382222Y479863I-232J-92D01*
G01X374679*
G03X374429Y479613I0J-250*
G01Y478600*
X374414Y478453D02*
G03X374429Y478600I-735J147D01*
G01X374414Y478453D02*
G03X374435Y478293I246J-49D01*
X374309Y478193I84J-235*
G01X373679Y477850D02*
G03X374309Y478193I0J750D01*
G01X373679Y477850D02*
X371679D01*
X371081Y478147D02*
G03X371679Y477850I598J453D01*
G01X371081Y478147D02*
G03X370633Y477973I-199J-151D01*
G01X370341Y476654D02*
G03X370633Y477973I-1934J1121D01*
G01X370341Y476654D02*
G03X370342Y476401I216J-126D01*
G01X370291Y474027D02*
G03X370342Y476401I-1875J1228D01*
G01X370291Y474027D02*
G03X370500Y473640I209J-137D01*
G01X436638*
X439750Y494780D02*
Y495642D01*
G03X439403Y495872I-250J-0*
G01X437411Y496612D02*
G03X439403Y495872I1389J688D01*
G01X437411Y496612D02*
G03X437399Y496634I-224J-111D01*
G01X437368Y496685D02*
G03X437399Y496634I1302J745D01*
G01X437368Y496685D02*
G03X437328Y496738I-217J-124D01*
G01X436767Y497298*
X436328Y498359D02*
G03X436767Y497298I1500J0D01*
G01X436328Y498359D02*
Y502187D01*
G03X436078Y502437I-250J-0*
G01X435964*
G03X435862Y502415I-0J-250*
G01X434462Y502437D02*
G03X435862Y502415I723J1500D01*
G01X434462Y502437D02*
G03X434104Y502211I-108J-226D01*
G01Y495574*
X433993Y495128D02*
G03X434104Y495574I-839J446D01*
G01X433993Y495128D02*
G03X434259Y494764I220J-118D01*
G01X434430Y494780D02*
G03X434259Y494764I0J-950D01*
G01X434430Y494780D02*
X436670D01*
X437342Y494502D02*
G03X436670Y494780I-672J-672D01*
G01X437342Y494502D02*
X437979Y493865D01*
G03X438357Y493895I176J177*
G01X439515Y494530D02*
G03X438357Y493895I96J-1547D01*
G01X439515Y494530D02*
G03X439750Y494780I-15J250D01*
G01Y503674D02*
Y509933D01*
G03X439451Y510178I-250J0*
G01X438738Y510190D02*
G03X439451Y510178I384J1621D01*
G01X438738Y510190D02*
G03X438465Y510074I-57J-243D01*
G01X436697Y509375D02*
G03X438465Y510074I434J1488D01*
G01X436697Y509375D02*
G03X436439Y508970I-70J-240D01*
G01X433571Y507463D02*
G03X436439Y508970I1614J411D01*
G01X433571Y507463D02*
G03X433339Y507651I-242J-62D01*
G01X431998Y509862D02*
G03X433339Y507651I1402J-662D01*
G01X431998Y509862D02*
G03X431704Y510209I-226J107D01*
G01X431033Y510160D02*
G03X431704Y510209I215J1651D01*
G01X431033Y510160D02*
G03X430765Y509993I-32J-248D01*
G01X430077Y509159D02*
G03X430765Y509993I-777J1341D01*
G01X430077Y509159D02*
G03X429954Y508913I126J-216D01*
G01X429961Y508800D02*
G03X429954Y508913I-950J0D01*
G01X429961Y508800D02*
Y507465D01*
G03X430034Y507288I250J0*
G01X430331Y506991*
G03X430508Y506918I177J177*
G01X431654*
X432326Y506640D02*
G03X431654Y506918I-672J-672D01*
G01X432326Y506640D02*
X433756Y505210D01*
G03X434096Y505197I177J176*
G01X435862Y505459D02*
G03X434096Y505197I-677J-1522D01*
G01X435862Y505459D02*
G03X435964Y505437I102J228D01*
G01X437048*
X438109Y504998D02*
G03X437048Y505437I-1061J-1061D01*
G01X438109Y504998D02*
X438889Y504218D01*
X439261Y503600D02*
G03X438889Y504218I-1433J-443D01*
G01X439261Y503600D02*
G03X439750Y503674I239J74D01*
G01X457150Y476819D02*
Y478770D01*
G03X456847Y479015I-250J0*
G01X456646Y478993D02*
G03X456847Y479015I0J950D01*
G01X456646Y478993D02*
X451084D01*
G03X450907Y478920I-0J-250*
G01X450706Y478719*
X450247Y478465D02*
G03X450706Y478719I-212J926D01*
G01X450247Y478465D02*
G03X450113Y478384I56J-244D01*
G01X449645Y478014D02*
G03X450113Y478384I-711J1377D01*
G01X449645Y478014D02*
G03X449583Y477615I115J-223D01*
G01X450561Y476637*
G03X450738Y476563I177J176*
G01X452046*
G03X452071Y476565I0J250*
G01X452167Y476569D02*
G03X452071Y476565I-0J-950D01*
G01X452167Y476569D02*
X456900D01*
G03X457150Y476819I-0J250*
G01X460259Y485197D02*
G03X459838Y485431I-244J57D01*
G01X458972Y484564*
X458300Y484286D02*
G03X458972Y484564I-0J950D01*
G01X458300Y484286D02*
X456463D01*
G03X456223Y483969I0J-250*
G01X456250Y483768D02*
G03X456223Y483969I-750J0D01*
G01X456250Y483768D02*
Y482768D01*
X455500Y482018D02*
G03X456250Y482768I0J750D01*
G01X455500Y482018D02*
X453148D01*
G03X453122Y482017I0J-250*
G01X452992Y482010D02*
G03X453122Y482017I-0J1250D01*
G01X452992Y482010D02*
X450781D01*
G03X450743Y482007I-0J-250*
G01X449741Y481854*
G03X449680Y481836I38J-247*
G01X448528Y481807D02*
G03X449680Y481836I539J1453D01*
G01X448528Y481807D02*
G03X448253Y481408I-87J-235D01*
G01X448483Y481064D02*
G03X448253Y481408I-1487J-749D01*
G01X448483Y481064D02*
G03X448738Y480929I224J113D01*
G01X449755Y480706D02*
G03X448738Y480929I-821J-1315D01*
G01X449755Y480706D02*
G03X450033Y480715I132J212D01*
G01X450587Y480893D02*
G03X450033Y480715I-0J-950D01*
G01X450587Y480893D02*
X456149D01*
G03X456326Y480966I0J250*
G01X459483Y484124*
X460024Y484393D02*
G03X459483Y484124I131J-941D01*
G01X460024Y484393D02*
G03X460239Y484640I-35J247D01*
G01Y485027*
X460259Y485197D02*
G03X460239Y485027I730J-170D01*
G01X465072Y492243D02*
G03X465107Y492626I-142J206D01*
G01X464555Y493177*
G03X464379Y493250I-176J-177*
G01X462512*
G03X462500I0J-250*
X462488I-12J-250*
G01X459984*
G03X459745Y493072I0J-250*
G01X459027Y492538D02*
G03X459745Y493072I-0J750D01*
G01X459027Y492538D02*
X456665D01*
X455915Y493288D02*
G03X456665Y492538I750J0D01*
G01X455915Y493288D02*
Y493593D01*
G03X455623Y493839I-250J-0*
G01X455500Y493829D02*
G03X455623Y493839I0J750D01*
G01X455500Y493829D02*
X450500D01*
X450487D02*
G03X450500I13J750D01*
G01X450487D02*
G03X450374Y493804I-4J-250D01*
G01X448898Y493873D02*
G03X450374Y493804I802J1327D01*
G01X448898Y493873D02*
G03X448519Y493659I-129J-214D01*
G01Y493200*
Y493180D02*
G03Y493200I-950J20D01*
G01Y493180D02*
G03X448692Y492937I250J-5D01*
G01X449570Y492221D02*
G03X448692Y492937I-1351J-760D01*
G01X449570Y492221D02*
G03X449966Y492168I218J123D01*
G01X450500Y492392D02*
G03X449966Y492168I0J-750D01*
G01X450500Y492392D02*
X455500D01*
X456250Y491642D02*
G03X455500Y492392I-750J0D01*
G01X456250Y491642D02*
Y490642D01*
X456215Y490416D02*
G03X456250Y490642I-715J226D01*
G01X456215Y490416D02*
G03X456506Y490097I239J-75D01*
G01X456665Y490114D02*
G03X456506Y490097I-0J-750D01*
G01X456665Y490114D02*
X459027D01*
X459374Y490029D02*
G03X459027Y490114I-347J-665D01*
G01X459374Y490029D02*
G03X459666Y490074I115J221D01*
G01X460899Y491306*
Y491307D02*
G03X460969Y491444I-177J176D01*
G01X462489Y492750D02*
G03X460969Y491444I11J-1550D01*
G01X462489Y492750D02*
G03X462500I-1J250D01*
X462511I12J250*
G01X464016Y491525D02*
G03X462511Y492750I-1516J-325D01*
G01X464016Y491525D02*
G03X464495Y491493I244J52D01*
G01X465072Y492243D02*
G03X464495Y491493I882J-1274D01*
G01X482950Y498413D02*
Y501531D01*
G03X482877Y501707I-250J-0*
G01X480207Y504377*
G03X480031Y504450I-176J-177*
G01X479893*
X479080Y504787D02*
G03X479893Y504450I813J813D01*
G01X479080Y504787D02*
X477280Y506587D01*
X476943Y507400D02*
G03X477280Y506587I1150J0D01*
G01X476943Y507400D02*
Y510607D01*
X477280Y511420D02*
G03X476943Y510607I813J-813D01*
G01X477280Y511420D02*
X478125Y512265D01*
G03X478039Y512675I-177J177*
G01X478021Y512682D02*
G03X478039Y512675I291J691D01*
G01X478021Y512682D02*
G03X477828I-97J-231D01*
G01X477537Y512623D02*
G03X477828Y512682I0J750D01*
G01X477537Y512623D02*
X476737D01*
X476446Y512682D02*
G03X476737Y512623I291J691D01*
G01X476446Y512682D02*
G03X476253I-96J-231D01*
G01X475962Y512623D02*
G03X476253Y512682I0J750D01*
G01X475962Y512623D02*
X475162D01*
X474872Y512682D02*
G03X475162Y512623I290J691D01*
G01X474872Y512682D02*
G03X474678I-97J-231D01*
G01X474387Y512623D02*
G03X474678Y512682I0J750D01*
G01X474387Y512623D02*
X473587D01*
X473297Y512682D02*
G03X473587Y512623I290J691D01*
G01X473297Y512682D02*
G03X473103I-97J-231D01*
G01X472813Y512623D02*
G03X473103Y512682I-0J750D01*
G01X472813Y512623D02*
X472013D01*
X471722Y512682D02*
G03X472013Y512623I291J691D01*
G01X471722Y512682D02*
G03X471528I-97J-231D01*
G01X471238Y512623D02*
G03X471528Y512682I-0J750D01*
G01X471238Y512623D02*
X470463D01*
G03X470213Y512373I0J-250*
G01Y510934*
G03X470286Y510757I250J0*
G01X472172Y508872*
X472450Y508200D02*
G03X472172Y508872I-950J0D01*
G01X472450Y508200D02*
Y506900D01*
X472204Y506262D02*
G03X472450Y506900I-704J638D01*
G01X472204Y506262D02*
G03X472141Y506067I185J-168D01*
G01X469102Y506300D02*
G03X472141Y506067I1498J-400D01*
G01X469102Y506300D02*
G03X468991Y506578I-241J64D01*
G01X468810Y506708D02*
G03X468991Y506578I990J1192D01*
G01X468810Y506708D02*
G03X468490I-160J-193D01*
G01X467694Y506362D02*
G03X468490Y506708I-194J1538D01*
G01X467694Y506362D02*
G03X467475Y506114I31J-248D01*
G01Y500273*
G03X467502Y500160I250J-0*
G01X465770Y497947D02*
G03X467502Y500160I351J1510D01*
G01X465770Y497947D02*
G03X465464Y497717I-57J-244D01*
G01X463963Y496250D02*
G03X465464Y497717I-47J1549D01*
G01X463963Y496250D02*
G03X463916Y496244I8J-250D01*
X463869Y496250I-55J-244*
G01X462864Y496661D02*
G03X463869Y496250I1052J1138D01*
G01X462864Y496661D02*
G03X462518Y496655I-170J-183D01*
G01X461768Y496244D02*
G03X462518Y496655I-341J1512D01*
G01X461768Y496244D02*
G03X461823Y495750I55J-244D01*
G01X463861*
G03X463916Y495756I0J250*
X463971Y495750I55J244*
G01X465000*
X465884Y495384D02*
G03X465000Y495750I-884J-884D01*
G01X465884Y495384D02*
X468145Y493123D01*
G03X468321Y493050I176J177*
G01X470031*
G03X470192Y493109I-0J250*
G01X472013Y493235D02*
G03X470192Y493109I-824J-1313D01*
G01X472013Y493235D02*
G03X472272Y493230I133J211D01*
G01X473762Y493269D02*
G03X472272Y493230I-710J-1378D01*
G01X473762Y493269D02*
G03X473877Y493241I115J222D01*
G01X474025*
G03X474202Y493314I0J250*
G01X474242Y493355*
X475197Y493750D02*
G03X474242Y493355I0J-1350D01*
G01X475197Y493750D02*
X479137D01*
G03X479314Y493823I0J250*
G01X482877Y497386*
G03X482950Y497563I-177J177*
G01Y498413*
X493450Y492245D02*
Y493734D01*
G03X493003Y493887I-250J-0*
G01X490334Y493975D02*
G03X493003Y493887I1366J925D01*
G01X490334Y493975D02*
G03X490038Y494069I-207J-140D01*
G01X489735Y494013D02*
G03X490038Y494069I0J850D01*
G01X489735Y494013D02*
X487373D01*
X486523Y494863D02*
G03X487373Y494013I850J-0D01*
G01X486523Y494863D02*
Y495663D01*
X486578Y495962D02*
G03X486523Y495663I795J-299D01*
G01X486578Y495962D02*
G03Y496138I-234J88D01*
G01X486523Y496438D02*
G03X486578Y496138I850J-0D01*
G01X486523Y496438D02*
Y496813D01*
G03X486273Y497063I-250J-0*
G01X485898*
G03X485648Y496826I-0J-250*
G01X485255Y495945D02*
G03X485648Y496826I-955J955D01*
G01X485255Y495945D02*
X480755Y491445D01*
X480270Y491134D02*
G03X480755Y491445I-470J1266D01*
G01X480270Y491134D02*
G03X480357Y490650I87J-234D01*
G01X484190*
G03X484366Y490723I-0J250*
G01X486428Y492785*
X486772Y493005D02*
G03X486428Y492785I328J-892D01*
G01X486772Y493005D02*
G03X486858Y493058I-86J235D01*
G01X487373Y493263D02*
G03X486858Y493058I0J-750D01*
G01X487373Y493263D02*
X489735D01*
X490485Y492513D02*
G03X489735Y493263I-750J0D01*
G01X490485Y492513D02*
Y492373D01*
G03X490897Y492182I250J-0*
G01X493019Y492072D02*
G03X490897Y492182I-1119J-1072D01*
G01X493019Y492072D02*
G03X493450Y492245I181J173D01*
G01X385669Y523622D02*
G03X385669I-1665J0D01*
G01X382737Y475298D02*
G03X382947Y477665I1267J1080D01*
G01X382737Y475298D02*
G03X382401Y475339I-191J-163D01*
G01X380086Y475964D02*
G03X382401Y475339I1414J636D01*
G01X380086Y475964D02*
G03X379858Y476112I-228J-102D01*
G01X378000*
X375500*
X374750Y476862D02*
G03X375500Y476112I750J0D01*
G01X374750Y476862D02*
Y477862D01*
X374765Y478009D02*
G03X374750Y477862I735J-147D01*
G01X374765Y478009D02*
G03X374744Y478169I-246J49D01*
X374870Y478269I-84J235*
G01X375500Y478612D02*
G03X374870Y478269I0J-750D01*
G01X375500Y478612D02*
X380500D01*
X380738*
X381622Y478246D02*
G03X380738Y478612I-884J-884D01*
G01X381622Y478246D02*
X381680Y478187D01*
G03X381808Y478119I177J177*
G01X382609Y477683D02*
G03X381808Y478119I-1109J-1083D01*
G01X382609Y477683D02*
G03X382946Y477665I179J175D01*
G01X492485Y493449D02*
X493450D01*
X490307Y492999D02*
X493450D01*
X491964Y492549D02*
X493450D01*
X492993Y492099D02*
X493403D01*
X493012Y493899D02*
X493388D01*
X490485Y492549D02*
X491836D01*
X482758Y493449D02*
X490915D01*
X483208Y493899D02*
X490389D01*
X482308Y492999D02*
X486755D01*
X483658Y494349D02*
X486696D01*
X485422Y496149D02*
X486574D01*
X484108Y494799D02*
X486526D01*
X485008Y495699D02*
X486524D01*
X485616Y496599D02*
X486523D01*
X484558Y495249D02*
X486523D01*
X485815Y497049D02*
X486355D01*
X481858Y492549D02*
X486192D01*
X481408Y492099D02*
X485742D01*
X480958Y491649D02*
X485292D01*
X480416Y491199D02*
X484842D01*
X480158Y490749D02*
X484392D01*
X467475Y501099D02*
X482950D01*
X467475Y500649D02*
X482950D01*
X467486Y500199D02*
X482950D01*
X467643Y499749D02*
X482950D01*
X467663Y499299D02*
X482950D01*
X467547Y498849D02*
X482950D01*
X467254Y498399D02*
X482950D01*
X466479Y497949D02*
X482950D01*
X467475Y501549D02*
X482949D01*
X465437Y497499D02*
X482942D01*
X467475Y501999D02*
X482585D01*
X465272Y497049D02*
X482539D01*
X467475Y502449D02*
X482135D01*
X464896Y496599D02*
X482089D01*
X467475Y502899D02*
X481685D01*
X461622Y496149D02*
X481639D01*
X467475Y503349D02*
X481235D01*
X465355Y495699D02*
X481189D01*
X467475Y503799D02*
X480785D01*
X466019Y495249D02*
X480739D01*
X467475Y504249D02*
X480335D01*
X466469Y494799D02*
X480289D01*
X466919Y494349D02*
X479839D01*
X467369Y493899D02*
X479389D01*
X471579Y504699D02*
X479179D01*
X471956Y505149D02*
X478718D01*
X472120Y505599D02*
X478268D01*
X470213Y512349D02*
X478180D01*
X472143Y506049D02*
X477818D01*
X470213Y511899D02*
X477759D01*
X472361Y506499D02*
X477368D01*
X470213Y511449D02*
X477309D01*
X472450Y506949D02*
X477036D01*
X470213Y510999D02*
X477012D01*
X470495Y510549D02*
X476943D01*
X470945Y510099D02*
X476943D01*
X471395Y509649D02*
X476943D01*
X471845Y509199D02*
X476943D01*
X472276Y508749D02*
X476943D01*
X472445Y508299D02*
X476943D01*
X472450Y507849D02*
X476943D01*
X472450Y507399D02*
X476943D01*
X471457Y493449D02*
X474347D01*
X467819D02*
X470921D01*
X467475Y504699D02*
X469621D01*
X467475Y505149D02*
X469244D01*
X467475Y505599D02*
X469080D01*
X468162Y506499D02*
X469072D01*
X467475Y506049D02*
X469057D01*
X465665Y497949D02*
X465762D01*
X462458Y496599D02*
X462936D01*
X463264Y492549D02*
X465159D01*
X463763Y492099D02*
X464893D01*
X459719Y492999D02*
X464734D01*
X463984Y491649D02*
X464561D01*
X459152Y492549D02*
X461736D01*
X456095Y492099D02*
X461237D01*
X456250Y491649D02*
X461016D01*
X456250Y491199D02*
X460791D01*
X456250Y490749D02*
X460341D01*
X456207Y490299D02*
X459891D01*
X449323Y492549D02*
X456539D01*
X448592Y492999D02*
X455973D01*
X448519Y493449D02*
X455915D01*
X449739Y492099D02*
X449837D01*
X448697Y493899D02*
X448842D01*
X459756Y485349D02*
X460247D01*
X459306Y484899D02*
X460239D01*
X458831Y484449D02*
X460149D01*
X456216Y483999D02*
X459358D01*
X456250Y483549D02*
X458908D01*
X456250Y483099D02*
X458458D01*
X456240Y482649D02*
X458008D01*
X455988Y482199D02*
X457558D01*
X449412Y481749D02*
X457108D01*
X448340Y481299D02*
X456658D01*
X449462Y480849D02*
X450299D01*
X448264Y481749D02*
X448722D01*
X450559Y478599D02*
X457150D01*
X449861Y478149D02*
X457150D01*
X449528Y477699D02*
X457150D01*
X449949Y477249D02*
X457150D01*
X450399Y476799D02*
X457149D01*
X438094Y509649D02*
X439750D01*
X436385Y509199D02*
X439750D01*
X436602Y508749D02*
X439750D01*
X436795Y508299D02*
X439750D01*
X436850Y507849D02*
X439750D01*
X436781Y507399D02*
X439750D01*
X436570Y506949D02*
X439750D01*
X436124Y506499D02*
X439750D01*
X432917Y506049D02*
X439750D01*
X435296Y505599D02*
X439750D01*
X437932Y505149D02*
X439750D01*
X438408Y504699D02*
X439750D01*
X438858Y504249D02*
X439750D01*
X439184Y503799D02*
X439750D01*
X438482Y510099D02*
X439687D01*
X433367Y505599D02*
X435074D01*
X432467Y506499D02*
X434246D01*
X433855Y505149D02*
X434010D01*
X430388Y506949D02*
X433800D01*
X429970Y507399D02*
X433589D01*
X429961Y507849D02*
X432641D01*
X429961Y508299D02*
X432139D01*
X430835Y510099D02*
X431986D01*
X429961Y508749D02*
X431917D01*
X430595Y509649D02*
X431916D01*
X430142Y509199D02*
X431850D01*
X434047Y495249D02*
X439750D01*
X434080Y494799D02*
X439750D01*
X434104Y495699D02*
X439743D01*
X437495Y494349D02*
X438878D01*
X437945Y493899D02*
X438360D01*
X434104Y496149D02*
X437762D01*
X434104Y496599D02*
X437418D01*
X434104Y497049D02*
X437017D01*
X434104Y497499D02*
X436599D01*
X434104Y497949D02*
X436385D01*
X434104Y501999D02*
X436328D01*
X434104Y501549D02*
X436328D01*
X434104Y501099D02*
X436328D01*
X434104Y500649D02*
X436328D01*
X434104Y500199D02*
X436328D01*
X434104Y499749D02*
X436328D01*
X434104Y499299D02*
X436328D01*
X434104Y498849D02*
X436328D01*
X434104Y498399D02*
X436328D01*
X434276Y502449D02*
X434432D01*
X370335Y474099D02*
X436783D01*
X370436Y473649D02*
X436702D01*
X370543Y474549D02*
X436333D01*
X430350Y478149D02*
X435829D01*
X430564Y478599D02*
X435797D01*
X432181Y474999D02*
X434252D01*
X432262Y477699D02*
X434171D01*
X432330Y479049D02*
X434103D01*
X432630Y475449D02*
X433803D01*
X432668Y477249D02*
X433765D01*
X432592Y481299D02*
X433754D01*
X432700Y479499D02*
X433733D01*
X432549Y487149D02*
X433685D01*
X431991Y486699D02*
X433685D01*
X431325Y486249D02*
X433685D01*
X431325Y485799D02*
X433685D01*
X431297Y485349D02*
X433685D01*
X431040Y484899D02*
X433650D01*
X430650Y483549D02*
X433624D01*
X432826Y480849D02*
X433608D01*
X432843Y475899D02*
X433590D01*
X432859Y476799D02*
X433574D01*
X432873Y479949D02*
X433560D01*
X430650Y483999D02*
X433539D01*
X430654Y484449D02*
X433531D01*
X432911Y480399D02*
X433522D01*
X432913Y476349D02*
X433520D01*
X432095Y481749D02*
X433444D01*
X430650Y483099D02*
X433370D01*
X430650Y482199D02*
X433280D01*
X430650Y482649D02*
X433257D01*
X422395Y474999D02*
X430315D01*
X422740Y475449D02*
X429866D01*
X422888Y475899D02*
X429653D01*
X422896Y476349D02*
X429583D01*
X422766Y476799D02*
X427958D01*
X422466Y477249D02*
X427505D01*
X426845Y477699D02*
X427285D01*
X400685Y474999D02*
X420321D01*
X401134Y475449D02*
X419976D01*
X414340Y475899D02*
X419829D01*
X414824Y476349D02*
X419709D01*
X401347Y475899D02*
X408073D01*
X401417Y476349D02*
X407593D01*
X405550Y476799D02*
X407143D01*
X406118Y477249D02*
X406693D01*
X401410Y476799D02*
X404245D01*
X396748Y474999D02*
X398819D01*
X397197Y475449D02*
X398370D01*
X397410Y475899D02*
X398157D01*
X397473Y476799D02*
X398094D01*
X397480Y476349D02*
X398087D01*
X392811Y474999D02*
X394882D01*
X393260Y475449D02*
X394433D01*
X393473Y475899D02*
X394220D01*
X393536Y476799D02*
X394157D01*
X393543Y476349D02*
X394150D01*
X388874Y474999D02*
X390945D01*
X389323Y475449D02*
X390496D01*
X389536Y475899D02*
X390283D01*
X389558Y476799D02*
X390240D01*
X389606Y476349D02*
X390213D01*
X381730Y478149D02*
X388625D01*
X380920Y478599D02*
X388521D01*
X384937Y474999D02*
X387008D01*
X385018Y477699D02*
X386926D01*
X385086Y479049D02*
X386859D01*
X385386Y475449D02*
X386559D01*
X385424Y477249D02*
X386521D01*
X385456Y479499D02*
X386489D01*
X385599Y475899D02*
X386346D01*
X385615Y476799D02*
X386330D01*
X385629Y479949D02*
X386316D01*
X385667Y480399D02*
X386278D01*
X385669Y476349D02*
X386276D01*
X385679Y480849D02*
X386266D01*
X370642Y474999D02*
X383071D01*
X382593Y477699D02*
X382989D01*
X374429Y479049D02*
X382922D01*
X374429Y479499D02*
X382552D01*
X370649Y475449D02*
X380462D01*
X370563Y475899D02*
X380118D01*
X374429Y478599D02*
X375359D01*
X370372Y476349D02*
X374953D01*
X370418Y476799D02*
X374753D01*
X374278Y478149D02*
X374752D01*
X370641Y477699D02*
X374750D01*
X370579Y477249D02*
X374750D01*
X370685Y478149D02*
X371080D01*
X433294Y514149D02*
X433735D01*
X432844Y514599D02*
X433728D01*
X432326Y515049D02*
X433665D01*
X428958Y515499D02*
X433518D01*
X428964Y515949D02*
X433075D01*
X428844Y516399D02*
X432625D01*
X428607Y516849D02*
X432236D01*
X428435Y517299D02*
X432070D01*
X428266Y517749D02*
X431938D01*
X428298Y518199D02*
X430497D01*
X418378Y520899D02*
X423710D01*
X417928Y520449D02*
X423693D01*
X417478Y519999D02*
X423678D01*
X417402Y510099D02*
X419156D01*
X417852Y509649D02*
X419128D01*
X416737Y513699D02*
X419050D01*
X416608Y514149D02*
X418947D01*
X417028Y519549D02*
X418916D01*
X416768Y513249D02*
X418596D01*
X416578Y519099D02*
X418466D01*
X416952Y510549D02*
X418351D01*
X416293Y514599D02*
X418232D01*
X416852Y512799D02*
X418096D01*
X416954Y510999D02*
X417983D01*
X415264Y515049D02*
X417926D01*
X416128Y518649D02*
X417868D01*
X417076Y512349D02*
X417861D01*
X417125Y511449D02*
X417812D01*
X417163Y511899D02*
X417774D01*
X414573Y515499D02*
X416827D01*
X415678Y518199D02*
X416790D01*
X414573Y515949D02*
X416315D01*
X415228Y517749D02*
X416301D01*
X414573Y516399D02*
X416090D01*
X414778Y517299D02*
X416084D01*
X414573Y516849D02*
X416020D01*
X414689Y515049D02*
X415136D01*
X421091Y484449D02*
X423950D01*
X421083Y483999D02*
X423950D01*
X420947Y483549D02*
X423950D01*
X420638Y483099D02*
X423950D01*
X420560Y482649D02*
X423950D01*
X421010Y482199D02*
X423950D01*
X423198Y484899D02*
X423939D01*
X421460Y481749D02*
X423766D01*
X421910Y481299D02*
X423316D01*
X420972Y484899D02*
X422402D01*
X420690Y485349D02*
X421618D01*
X420054Y485799D02*
X421306D01*
X420737Y487149D02*
X421218D01*
X416735Y486249D02*
X421169D01*
X420180Y486699D02*
X421162D01*
X416320Y485799D02*
X418820D01*
X416945Y486699D02*
X418694D01*
X416734Y489399D02*
X418204D01*
X415939Y485349D02*
X418184D01*
X417000Y487149D02*
X418137D01*
X416982Y488949D02*
X417955D01*
X415186Y484899D02*
X417902D01*
X413918Y483549D02*
X417881D01*
X417057Y487599D02*
X417880D01*
X417136Y488499D02*
X417801D01*
X413209Y483999D02*
X417791D01*
X413217Y484449D02*
X417783D01*
X417159Y488049D02*
X417778D01*
X414475Y483099D02*
X414856D01*
X413273Y484899D02*
X414414D01*
X409961Y480849D02*
X412360D01*
X410429Y480399D02*
X412138D01*
X409511Y481299D02*
X411953D01*
X409061Y481749D02*
X411751D01*
X408611Y482199D02*
X411699D01*
X408161Y482649D02*
X411112D01*
X407711Y483099D02*
X410362D01*
X407261Y483549D02*
X410053D01*
X406811Y483999D02*
X409917D01*
X406378Y484449D02*
X409899D01*
X406350Y484899D02*
X408858D01*
X406350Y485349D02*
X408405D01*
X406350Y485799D02*
X408187D01*
X406350Y486249D02*
X407642D01*
X406379Y486699D02*
X406883D01*
X397480Y507849D02*
X400649D01*
X397411Y507399D02*
X400304D01*
X397436Y508299D02*
X400200D01*
X397200Y506949D02*
X399559D01*
X396754Y506499D02*
X399270D01*
X389785Y505599D02*
X399158D01*
X389785Y506049D02*
X399157D01*
X389785Y505149D02*
X398609D01*
X389785Y504699D02*
X398271D01*
X389785Y504249D02*
X398116D01*
X389785Y503799D02*
X398090D01*
X395864Y503349D02*
X397482D01*
X389785D02*
X395736D01*
X389785Y506499D02*
X394876D01*
X393783Y502899D02*
X394707D01*
X393444Y506949D02*
X394430D01*
X389785D02*
X392356D01*
X389785Y500199D02*
X392224D01*
X389785Y499749D02*
X392014D01*
X389785Y502899D02*
X391817D01*
X389785Y507399D02*
X391717D01*
X389785Y500649D02*
X391661D01*
X389785Y499299D02*
X391564D01*
X389769Y507849D02*
X391451D01*
X389785Y502449D02*
X391443D01*
X389785Y501099D02*
X391371D01*
X389785Y501999D02*
X391279D01*
X389785Y501549D02*
X391257D01*
X389785Y498849D02*
X391114D01*
X389792Y498399D02*
X390664D01*
X389552Y508299D02*
X390533D01*
X389395Y510999D02*
X390358D01*
X389566Y511449D02*
X390252D01*
X389604Y511899D02*
X390215D01*
X389619Y512349D02*
X390200D01*
X389105Y508749D02*
X390010D01*
X389027Y510549D02*
X389981D01*
X388741Y509199D02*
X389780D01*
X388599Y510099D02*
X389768D01*
X388730Y509649D02*
X389707D01*
X380811Y500199D02*
X384253D01*
X375308Y500649D02*
X384039D01*
X374995Y501099D02*
X383968D01*
X381213Y499749D02*
X383936D01*
X381250Y499299D02*
X383437D01*
X381250Y498849D02*
X383216D01*
X381247Y498399D02*
X383117D01*
X374940Y501549D02*
X382592D01*
X382179Y497949D02*
X382327D01*
X381097Y501999D02*
X382182D01*
X381656Y502449D02*
X381941D01*
X373230Y526299D02*
X390276D01*
X373075Y525849D02*
X390239D01*
X372882Y525399D02*
X389789D01*
X388948Y524949D02*
X389339D01*
X381169Y521799D02*
X388445D01*
X388017Y521349D02*
X388217D01*
X384080D02*
X387865D01*
X384946Y522249D02*
X386999D01*
X385011Y524949D02*
X386934D01*
X385144Y520899D02*
X386801D01*
X385308Y518649D02*
X386596D01*
X385390Y522699D02*
X386555D01*
X385420Y524499D02*
X386525D01*
X385484Y520449D02*
X386461D01*
X385563Y519099D02*
X386382D01*
X385601Y523149D02*
X386344D01*
X385614Y524049D02*
X386331D01*
X385640Y519999D02*
X386305D01*
X385664Y519549D02*
X386281D01*
X385669Y523599D02*
X386276D01*
X375218Y521349D02*
X383928D01*
X381250Y522249D02*
X383062D01*
X377991Y524949D02*
X382997D01*
X375261Y520899D02*
X382864D01*
X381250Y522699D02*
X382618D01*
X378347Y524499D02*
X382588D01*
X375711Y520449D02*
X382524D01*
X381250Y523149D02*
X382407D01*
X378505Y524049D02*
X382394D01*
X381092Y523599D02*
X382339D01*
X376161Y519999D02*
X380191D01*
X372487Y524949D02*
X375959D01*
X370691Y524499D02*
X375603D01*
X370601Y524049D02*
X375449D01*
X374314Y523599D02*
X374908D01*
X370434D02*
X371044D01*
X370439Y523149D02*
X370916D01*
X400452Y513699D02*
X403053D01*
X400410Y514149D02*
X403043D01*
X400670Y513249D02*
X402835D01*
X400228Y514599D02*
X402484D01*
X401873Y510549D02*
X402450D01*
X401093Y512799D02*
X402348D01*
X401421Y510999D02*
X402235D01*
X399818Y515049D02*
X402178D01*
X401328Y512349D02*
X402113D01*
X401377Y511449D02*
X402063D01*
X397462Y515499D02*
X402042D01*
X401415Y511899D02*
X402026D01*
X397468Y515949D02*
X401860D01*
X397348Y516399D02*
X401672D01*
X397118Y516849D02*
X401263D01*
X397515Y517299D02*
X401091D01*
X397965Y517749D02*
X401085D01*
X400503Y518199D02*
X401067D01*
X398415D02*
X399001D01*
X397344Y515049D02*
X397982D01*
X397463Y483999D02*
X401166D01*
X398915Y484449D02*
X400741D01*
X397325Y483549D02*
X400712D01*
X397016Y483099D02*
X400467D01*
X395974Y482199D02*
X400430D01*
X396333Y482649D02*
X400384D01*
X399327Y484899D02*
X400239D01*
X399510Y485349D02*
X400017D01*
X396662Y481749D02*
X398905D01*
X397159Y481299D02*
X398408D01*
X397392Y480849D02*
X398174D01*
X397440Y479949D02*
X398127D01*
X397478Y480399D02*
X398089D01*
X409877Y525849D02*
X460954D01*
X457768Y525399D02*
X460954D01*
X458481Y524949D02*
X460954D01*
X460460Y524499D02*
X460936D01*
X409840Y526299D02*
X460848D01*
X410327Y525399D02*
X456432D01*
X449345Y522699D02*
X456257D01*
X448003Y524949D02*
X455874D01*
X448658Y523149D02*
X455805D01*
X448412Y524499D02*
X455632D01*
X448661Y523599D02*
X455603D01*
X448606Y524049D02*
X455551D01*
X444066Y524949D02*
X445989D01*
X444475Y524499D02*
X445580D01*
X444669Y524049D02*
X445386D01*
X444724Y523599D02*
X445331D01*
X444748Y523149D02*
X445307D01*
X440129Y524949D02*
X442052D01*
X440538Y524499D02*
X441643D01*
X440732Y524049D02*
X441449D01*
X440787Y523599D02*
X441394D01*
X440811Y523149D02*
X441370D01*
X436192Y524949D02*
X438115D01*
X436601Y524499D02*
X437706D01*
X436795Y524049D02*
X437512D01*
X436850Y523599D02*
X437457D01*
X436874Y523149D02*
X437433D01*
X432255Y524949D02*
X434178D01*
X432664Y524499D02*
X433769D01*
X432858Y524049D02*
X433575D01*
X432913Y523599D02*
X433520D01*
X432937Y523149D02*
X433496D01*
X410777Y524949D02*
X430241D01*
X411227Y524499D02*
X429832D01*
X411677Y524049D02*
X429630D01*
X450597Y519099D02*
X457150D01*
X450594Y518649D02*
X457150D01*
X450492Y518199D02*
X457148D01*
X450788Y519549D02*
X456925D01*
X445795Y506949D02*
X455962D01*
X445997Y507399D02*
X455917D01*
X445377Y506499D02*
X455915D01*
X446049Y507849D02*
X449949D01*
X446123Y508299D02*
X449686D01*
X448592Y500649D02*
X455962D01*
X449042Y501099D02*
X455917D01*
X449492Y501549D02*
X455901D01*
X448142Y500199D02*
X450095D01*
X447692Y499749D02*
X449481D01*
X447487Y499299D02*
X449038D01*
X447487Y498849D02*
X448800D01*
X447487Y498399D02*
X448750D01*
X447487Y497949D02*
X448750D01*
X447682Y497499D02*
X448750D01*
X448132Y497049D02*
X448750D01*
X468254Y525849D02*
X473778D01*
X468254Y525399D02*
X473778D01*
X468254Y524949D02*
X473778D01*
X468254Y524499D02*
X473778D01*
X468254Y524049D02*
X473778D01*
X468254Y523599D02*
X473778D01*
X468228Y523149D02*
X473725D01*
X468363Y526299D02*
X473670D01*
X468145Y522699D02*
X473277D01*
X468001Y522249D02*
X472827D01*
X467787Y521799D02*
X472377D01*
X467487Y521349D02*
X471927D01*
X467071Y520899D02*
X471477D01*
X466461Y520449D02*
X471106D01*
X466095Y517749D02*
X470982D01*
X465217Y519999D02*
X470940D01*
X470683Y517299D02*
X470918D01*
X464298Y519549D02*
X470913D01*
X464745Y519099D02*
X470913D01*
X465195Y518649D02*
X470913D01*
X465645Y518199D02*
X470913D01*
X482042Y525849D02*
X498754D01*
X482150Y525399D02*
X498754D01*
X482150Y524949D02*
X498754D01*
X482150Y524499D02*
X498754D01*
X482150Y524049D02*
X498754D01*
X482150Y523599D02*
X498754D01*
X482055Y526299D02*
X498640D01*
X498337Y523149D02*
X498633D01*
X482041D02*
X496863D01*
X481768Y519999D02*
X496394D01*
X481659Y522699D02*
X496235D01*
X480657Y520449D02*
X495975D01*
X489964Y519549D02*
X495903D01*
X478824Y522249D02*
X495902D01*
X476620Y521799D02*
X495866D01*
X476170Y521349D02*
X495866D01*
X480283Y520899D02*
X495866D01*
X490050Y519099D02*
X495383D01*
X490050Y518649D02*
X495330D01*
X490050Y518199D02*
X495330D01*
X490050Y517749D02*
X495330D01*
X490050Y517299D02*
X495330D01*
X489963Y516849D02*
X495330D01*
X490166Y516399D02*
X495330D01*
X490616Y515949D02*
X495308D01*
X485764Y519549D02*
X486636D01*
X485850Y519099D02*
X486550D01*
X485850Y518649D02*
X486550D01*
X485850Y518199D02*
X486550D01*
X485911Y517749D02*
X486550D01*
X475825Y520899D02*
X478223D01*
X496813Y514599D02*
X498754D01*
X496363Y514149D02*
X498754D01*
X487100Y513699D02*
X498754D01*
X487100Y513249D02*
X498754D01*
X487100Y512799D02*
X498754D01*
X494143Y512349D02*
X498754D01*
X494270Y511899D02*
X498754D01*
X494270Y511449D02*
X498754D01*
X494270Y510999D02*
X498754D01*
X494270Y510549D02*
X498754D01*
X494270Y510099D02*
X498754D01*
X494531Y509649D02*
X498754D01*
X494981Y509199D02*
X498754D01*
X495431Y508749D02*
X498754D01*
X495821Y508299D02*
X498754D01*
X495949Y507849D02*
X498754D01*
X495950Y507399D02*
X498754D01*
X495950Y506949D02*
X498754D01*
X495950Y506499D02*
X498754D01*
X495950Y506049D02*
X498754D01*
X495950Y505599D02*
X498754D01*
X495939Y505149D02*
X498754D01*
X495761Y504699D02*
X498754D01*
X495563Y504249D02*
X498754D01*
X495563Y503799D02*
X498754D01*
X495453Y503349D02*
X498754D01*
X495032Y502899D02*
X498754D01*
X493905Y502449D02*
X498754D01*
X494128Y501999D02*
X498754D01*
X494578Y501549D02*
X498754D01*
X495028Y501099D02*
X498754D01*
X495478Y500649D02*
X498754D01*
X495928Y500199D02*
X498754D01*
X496378Y499749D02*
X498753D01*
X487108Y512349D02*
X490536D01*
X487100Y514149D02*
X489587D01*
X487100Y514599D02*
X489137D01*
X487100Y515049D02*
X488687D01*
X487100Y515499D02*
X488237D01*
X487100Y515949D02*
X487787D01*
X496950Y494349D02*
X498754D01*
X496950Y493899D02*
X498754D01*
X496950Y493449D02*
X498754D01*
X496950Y492999D02*
X498754D01*
X496950Y492549D02*
X498754D01*
X496950Y492099D02*
X498754D01*
X496950Y491649D02*
X498754D01*
X496950Y491199D02*
X498754D01*
X496950Y490749D02*
X498754D01*
X497046Y490299D02*
X498754D01*
X497478Y489849D02*
X498754D01*
X497928Y489399D02*
X498754D01*
X498400Y488949D02*
X498607D01*
X498250Y481749D02*
X498754D01*
X498250Y481299D02*
X498754D01*
X498174Y480849D02*
X498754D01*
X497684Y480399D02*
X498754D01*
X484128Y479949D02*
X498754D01*
X483678Y479499D02*
X498754D01*
X483228Y479049D02*
X498754D01*
X482778Y478599D02*
X498754D01*
X482328Y478149D02*
X498754D01*
X481753Y477699D02*
X498754D01*
X481315Y477249D02*
X498754D01*
X468231Y476799D02*
X498754D01*
X468251Y476349D02*
X498754D01*
X468251Y475899D02*
X498754D01*
X498263Y482199D02*
X498742D01*
X468251Y475449D02*
X498594D01*
X468251Y474999D02*
X497451D01*
X468251Y474549D02*
X497088D01*
X468251Y474099D02*
X496912D01*
X468432Y473649D02*
X496694D01*
X493484Y480399D02*
X495116D01*
X493974Y480849D02*
X494626D01*
X494073Y481299D02*
X494527D01*
X484365Y480399D02*
X490916D01*
X484386Y480849D02*
X490426D01*
X485683Y485799D02*
X490350D01*
X486088Y485349D02*
X490350D01*
X486161Y484899D02*
X490350D01*
X489856Y486249D02*
X490261D01*
X486161Y484449D02*
X490167D01*
X484386Y481299D02*
X489615D01*
X486161Y483999D02*
X489166D01*
X484401Y481749D02*
X489028D01*
X486161Y483549D02*
X488830D01*
X485999Y482199D02*
X488763D01*
X486161Y483099D02*
X488677D01*
X486161Y482649D02*
X488657D01*
X485233Y486249D02*
X487253D01*
X481663Y486699D02*
X486258D01*
X481595Y487149D02*
X485808D01*
X481835Y487599D02*
X485358D01*
X477859Y477249D02*
X479485D01*
X478361Y477699D02*
X479073D01*
X475544Y477249D02*
X476341D01*
X468155D02*
X474456D01*
X468018Y477699D02*
X469609D01*
X466545Y479499D02*
X469313D01*
X467813Y478149D02*
X469293D01*
X467125Y479049D02*
X469170D01*
X467524Y478599D02*
X469163D01*
X466492Y479949D02*
X468213D01*
X466942Y480399D02*
X467636D01*
G54D37*
X464252Y491200D02*
X464606Y492187D01*
X464252Y491441*
X463898Y492187*
X464252Y491200*
X464252*
X464037Y491800D02*
X464082D01*
X464422D02*
X464467D01*
X463898Y492187D02*
X463898D01*
X464498Y491888D02*
Y491961D01*
X378000Y489173D02*
Y487205D01*
Y485236*
Y483268D02*
Y485236D01*
X461400Y488400D02*
X461450Y488450D01*
Y488850*
X462300Y489700*
X463652*
X464252Y490300*
Y492541*
X494600Y490124D02*
Y494976D01*
Y490124D02*
G03X495112Y488888I1749J0D01*
G01X496488Y487512D02*
X495112Y488888D01*
X497025Y486215D02*
G03X496488Y487512I-1834J0D01*
G01X498300Y486676D02*
G03X497788Y487912I-1749J-0D01*
G01X496312Y489388*
X495800Y490624D02*
G03X496312Y489388I1749J0D01*
G01X495800Y490624D02*
Y495576D01*
X498300Y484241D02*
Y486676D01*
X498059Y483659D02*
G03X498300Y484241I-583J582D01*
G01X492950Y487050D02*
X492900Y487100D01*
X490300Y482800D02*
X490538Y482869D01*
X496400Y482200D02*
X496516Y482416D01*
X496666*
X496783Y482533*
X496933*
X498059Y483659*
X492200Y482200D02*
X490538Y482869D01*
X496400Y485400D02*
X497025Y486025D01*
Y486215*
X492200Y485400D02*
G03X492950Y487050I-1825J1825D01*
G01X492700Y509994D02*
X492339Y510355D01*
X490815Y504941D02*
X490841D01*
X490900Y505000*
X493828Y504331D02*
X493949Y504451D01*
X494051*
X494900Y505300*
Y507794*
X493017Y509678*
X483424Y507063D02*
G03X480679Y508200I-2745J-2745D01*
G01X480100*
X483424Y507063D02*
G03X485298Y506287I1874J1874D01*
G01X489681Y500199D02*
G03X489200Y500100I0J-1218D01*
G01X490542Y499842D02*
G03X489681Y500199I-861J-861D01*
G01X494028Y496357D02*
X490542Y499842D01*
X494600Y494976D02*
G03X494028Y496357I-1953J-0D01*
G01X495800Y495576D02*
G03X495288Y496812I-1749J-0D01*
G01X491500Y500600*
G03X489161Y501569I-2339J-2339*
G01X493017Y509678D02*
X492700Y509994D01*
X491700Y494900D02*
X491337Y495263D01*
X488948*
Y496838D02*
X490808D01*
X490959Y496989*
X491000Y497000*
X488948Y499987D02*
Y500100D01*
X489200*
X489161Y501569D02*
G03X488948Y501562I-0J-3309D01*
G01Y504712D02*
G03X490815Y504941I0J7713D01*
G01X488948Y506287D02*
X485298D01*
X339533Y420593D02*
X453233D01*
X569533Y408293D02*
X339533D01*
Y433293D02*
X569533D01*
X480233D02*
Y395793D01*
X454533Y433293D02*
Y395793D01*
X569533Y445793D02*
Y383293D01*
X339533*
Y445793*
X569533*
Y395793D02*
X339533D01*
X381533Y433293D02*
Y408293D01*
G54D84*
X435185Y513642D02*
X434962Y512034D01*
X435185Y513326*
X435408Y512034*
X435185Y513642*
X435124Y513200D02*
X435163D01*
X435207D02*
X435246D01*
X434962Y512034D02*
X434962D01*
X435185Y513917D02*
X435408Y515525D01*
X435185Y514233*
X434962Y515525*
X435185Y513917*
X435118Y514400D02*
X435156D01*
X435214D02*
X435252D01*
X434962Y515525D02*
X434962D01*
X471900Y491800D02*
X472300D01*
X472987Y491883*
X473052Y491891D02*
X474688D01*
X475197Y492400*
X479800*
X484300Y496900*
Y498413*
X435185Y511811D02*
Y515748D01*
X486600Y498413D02*
X484300D01*
Y502193*
X481047Y505447*
X497600Y496100D02*
Y497834D01*
X435185Y515748D02*
X433400Y517533D01*
Y518263*
X435185Y515748D02*
X435200Y515763D01*
Y516572*
X437099Y518471*
G54D85*
X393860Y483282D02*
X394845D01*
X395815Y484252*
X392300Y493000D02*
X392510Y493210D01*
Y493988*
X394600Y496063*
X395815*
Y484252D02*
Y488189D01*
X409700Y486200D02*
Y486515D01*
X407626Y488189*
X414800Y486400D02*
X415500Y487100D01*
Y488189*
X422800Y486500D02*
X422885Y486585D01*
Y487700*
X423374Y488189*
X434800Y482500D02*
X435185Y482885D01*
Y488189*
X463200Y488100D02*
X465200D01*
X395815Y511811D02*
Y514785D01*
X394200Y516400*
X415500Y511811D02*
X415200Y513500D01*
X407626Y511811D02*
X407613Y513449D01*
X437543Y495300D02*
X436300D01*
X435537Y496063*
X435185*
X438800Y497300D02*
X438670Y497430D01*
Y497517*
X437828Y498359*
Y503157*
X437048Y503937*
X435185*
X423374Y511811D02*
X422500D01*
X420600Y513699*
X497372Y504331D02*
X497700Y504659D01*
Y510361*
X497261Y510800*
Y513539*
X497200Y513600*
X497261Y510355D02*
Y510800D01*
X458900Y523000D02*
X457100Y524000D01*
X476300Y523600D02*
X476950Y524250D01*
X474200Y521500D02*
X475950Y523250D01*
X476300Y523600*
X472413Y518200D02*
Y519713D01*
X474200Y521500*
G54D86*
X398549Y483049D02*
X399752Y483737D01*
X398822Y483322*
X399237Y484252*
X398549Y483049*
X398549*
X399006Y483849D02*
X399057D01*
X398549Y483049D02*
X398549D01*
X399349Y483506D02*
Y483557D01*
X432543Y493420D02*
X431248Y492641D01*
X432178Y493056*
X431763Y492126*
X432543Y493420*
X431763Y492126D02*
X431763D01*
X431721Y492926D02*
X431886D01*
X432120D02*
X432245D01*
X431248Y492641D02*
X431248D01*
X432048Y492599D02*
Y492764D01*
Y492998D02*
Y493123D01*
X451250Y481299D02*
X449932Y481582D01*
X450850Y481299*
X449932Y481016*
X451250Y481299*
X449932Y481016D02*
X449932D01*
X449932*
Y481582D02*
X449932D01*
X450732Y481188D02*
Y481263D01*
Y481335D02*
Y481410D01*
X397109Y505232D02*
X395815Y504452D01*
X396745Y504867*
X396330Y503937*
X397109Y505232*
X396358Y504000D02*
X396368D01*
X396393Y504800D02*
X396595D01*
X396715D02*
X396850D01*
X395815Y504452D02*
X395815D01*
X396615Y504410D02*
Y504575D01*
Y504809D02*
Y504934D01*
X471300Y525200D02*
X472517Y524917D01*
X471600Y525200*
X472517Y525483*
X471300Y525200*
X471300*
X472100Y525014D02*
Y525046D01*
Y525354D02*
Y525386D01*
X393900Y474900D02*
X394700Y474100D01*
X402400*
X402500Y474200*
Y474300*
X377200Y474700D02*
X376500Y475400D01*
X372679*
X396800Y482200D02*
X397700D01*
X399752Y484252*
X385900Y478300D02*
X382731D01*
X381700Y479331*
X378000*
X385900Y478300D02*
X386100Y478400D01*
Y478600*
X411500Y481000D02*
Y481478D01*
X409900Y483078*
X408800*
X407626Y484252*
X399752Y492126D02*
Y492648D01*
X398100Y494300*
X422800Y481600D02*
X423374Y482427D01*
Y484252*
X432000Y482400D02*
X432200D01*
Y483300*
X431248Y484252*
Y492126D02*
X435042Y495920D01*
Y496063*
X435185*
X456290Y477102D02*
X456030Y477362D01*
X453000*
Y481299D02*
X455899D01*
X461400Y486800*
Y488400*
X453000Y481299D02*
X453000D01*
X449650*
X453000Y493110D02*
X451200D01*
X451110Y493200*
X449700*
X457452Y492113D02*
X459600D01*
X460073Y492586*
X460813*
X457452Y490539D02*
X459600D01*
X460813Y491752*
Y492586*
X464252Y492541D02*
Y492648D01*
X463900Y493000*
X460813Y492586D02*
X461227Y493000D01*
X463900*
X464539Y483452D02*
Y487339D01*
X465200Y488100*
X473987Y483452D02*
Y485400D01*
X473595Y485792*
X492800Y492900D02*
X491088D01*
X490300Y493688*
X488948*
X481900Y481300D02*
X481861Y481400D01*
Y483452*
X398379Y507047D02*
X399752Y507874D01*
X381800Y498900D02*
Y499968D01*
X380784Y500984*
X378000*
X398300Y507000D02*
X398331D01*
X398379Y507047*
X391500Y500000D02*
X390600Y500900D01*
Y504600*
X391900Y505900*
X397200*
X398300Y507000*
X395815Y503937D02*
X398678Y506800D01*
X398626*
X398379Y507047*
X417800Y514200D02*
X417048D01*
X415500Y515748*
X433000Y507200D02*
X434300Y505900D01*
X437500*
X439100Y507500*
X433000Y507200D02*
X431700D01*
Y507422*
X431248Y507874*
X448000Y498100D02*
Y499741D01*
X447978Y499762*
X449200Y500984*
X453000*
X459661Y507200D02*
X461600D01*
X463000Y508600*
X459661Y507200D02*
X459000Y507861D01*
X457452*
X453000Y506890D02*
X449450D01*
X448840Y507500*
X446700*
X459863Y494500D02*
X459100Y495263D01*
X457452*
X467050Y496000D02*
X460145D01*
X459308Y496838*
X457452*
X467400Y495800D02*
X471946D01*
X473200Y497054*
Y499200*
X467400Y495800D02*
X467200Y496000D01*
X467050*
Y495800D02*
X467400D01*
X497600Y497834D02*
X497367Y498067D01*
X496433*
X491400Y503100*
X488985*
X488948Y503137*
X497600Y501378D02*
Y504100D01*
X498000*
X486600Y498413D02*
X488948D01*
X481047Y505447D02*
X480893Y505600D01*
X479893*
X478093Y507400*
Y510607*
X480287Y512800*
Y514948*
X378000Y520669D02*
X381000D01*
X381631Y521300*
X382000Y521100D02*
X381800Y521300D01*
X381631*
X409300Y514900D02*
X408700D01*
X408026Y515574*
X407826*
X407652Y515748*
X407626*
X399752D02*
X399800Y515796D01*
Y516900*
X399000Y517700*
X431248Y515748D02*
X431300Y515800D01*
Y516585*
X430210Y517675*
X423374Y515748D02*
X423131D01*
Y517173*
X422841Y517463*
X453000Y518701D02*
X456400D01*
X456300Y518800*
X453000Y522638D02*
X450900D01*
Y522700*
X449600Y524000*
X470100Y524400D02*
Y525200D01*
X472800*
X472413Y514948D02*
Y518200D01*
G54D95*
X500000Y528740D02*
X500003D01*
X370079D02*
X370081D01*
X499987Y500022D02*
X499990D01*
X316813Y499841D02*
X316815D01*
G54D104*
X422800Y486500D03*
G54D164*
X402500Y474300D03*
X377200Y474700D03*
X381755Y485932D03*
X381702Y483828D03*
X396800Y482200D03*
X398000Y485700D03*
X393400Y486300D03*
X386000Y485300D03*
X382900Y490200D03*
X387000Y491300D03*
X388600Y493000D03*
X398100Y494300D03*
X386100Y478600D03*
X393900Y474900D03*
X393800Y489100D03*
X393860Y483282D03*
X381500Y476600D03*
X392300Y493000D03*
X412600Y486300D03*
X416900Y479000D03*
X401933Y482594D03*
X404800Y494100D03*
X405600Y490200D03*
X401000Y494300D03*
X412500Y494100D03*
X415800D03*
X401812Y479340D03*
X411500Y481000D03*
X413248Y482151D03*
X405205Y482143D03*
X404898Y478205D03*
X401500Y485800D03*
X410300Y494200D03*
X418000D03*
X406800Y494100D03*
X409700Y486200D03*
X414800Y486400D03*
X421358Y476151D03*
X428800Y478100D03*
X439611Y492983D03*
X433200Y489100D03*
X424978Y486664D03*
X422800Y481600D03*
X428800Y486100D03*
X425300Y489600D03*
X425971Y480465D03*
X423171Y474692D03*
X432000Y482400D03*
X437200Y491100D03*
X429300D03*
X427300Y482100D03*
X421206Y494442D03*
X434800Y482500D03*
X449650Y481299D03*
X446004Y482273D03*
X443950Y482243D03*
X449067Y483260D03*
X445000Y489200D03*
X441638Y492917D03*
X449700Y493200D03*
X446169Y490959D03*
X456290Y477102D03*
X441058Y489151D03*
X448219Y491461D03*
X448934Y479391D03*
X445051Y477320D03*
X476012Y486678D03*
X462500Y491200D03*
X476448Y488816D03*
X478963Y486552D03*
X475000Y478700D03*
X472900Y478800D03*
X468700Y487300D03*
X465954Y490969D03*
X477100Y478600D03*
X471189Y491922D03*
X463200Y488100D03*
X464252Y492541D03*
X474219Y476265D03*
X460813Y492586D03*
X477696Y490413D03*
X470700Y478800D03*
X468852Y481361D03*
X479500Y480500D03*
X473052Y491891D03*
X465200Y488100D03*
X480366Y488093D03*
X480400Y478500D03*
X483600Y487300D03*
X497800Y493500D03*
Y491200D03*
X496800Y477600D03*
X492800Y492900D03*
X490300Y482800D03*
X492900Y487100D03*
X491900Y491000D03*
X492900Y489200D03*
X481900Y481300D03*
X374231Y511922D03*
X371880Y506978D03*
X373218Y505708D03*
X373900Y500000D03*
X372000D03*
X386700Y507400D03*
X383511Y502797D03*
X386365Y503317D03*
X398400Y502100D03*
X383400Y496800D03*
X392900Y508400D03*
X392800Y501700D03*
X391257Y509669D03*
X387200Y509400D03*
X382058Y504200D03*
X397800Y497000D03*
X381800Y498900D03*
X381349Y496631D03*
X382424Y506198D03*
X385800Y500100D03*
X385000Y509500D03*
X398900Y513800D03*
X398300Y507000D03*
X395800Y501800D03*
X384700Y498400D03*
X390300Y494500D03*
X391500Y500000D03*
X412400Y505900D03*
X415500Y505800D03*
X410300Y509800D03*
X409600Y512800D03*
X400700Y505900D03*
X404600Y513800D03*
X417500Y506900D03*
X400500Y501700D03*
X405658Y506781D03*
X402800Y505900D03*
X405700Y502900D03*
X417973Y499043D03*
X409581Y504953D03*
X417500Y504900D03*
X409600Y497200D03*
X417800Y514200D03*
X407613Y513449D03*
X415200Y513500D03*
X437131Y510863D03*
X433400Y509200D03*
X424299Y509835D03*
X429300Y510500D03*
X431596Y498201D03*
X420749Y509925D03*
X429400Y502800D03*
X425216Y505796D03*
X421420Y504841D03*
X429500Y498300D03*
X426400D03*
X437543Y495300D03*
X439100Y507500D03*
X433000Y507200D03*
X424000Y498300D03*
X421396Y506938D03*
X420900Y497700D03*
X438800Y497300D03*
X420600Y513699D03*
X446700Y507500D03*
X444500Y507800D03*
X449300Y512000D03*
X449700Y495200D03*
X448000Y498100D03*
X445400Y496100D03*
X471899Y502517D03*
X461427Y497756D03*
X462383Y504814D03*
X470596Y500226D03*
X470600Y505900D03*
X462613Y499552D03*
X469800Y507900D03*
X460303Y504701D03*
X460694Y500756D03*
X467500Y507900D03*
X464211Y503768D03*
X476856Y501190D03*
X477100Y505200D03*
X476589Y496630D03*
X476908Y499062D03*
X478327Y496780D03*
X462709Y501709D03*
X460600Y508800D03*
X463916Y497799D03*
X466121Y499457D03*
X463000Y508600D03*
X481000Y500300D03*
X498000Y504100D03*
X497200Y513600D03*
X493200Y506700D03*
X490900Y505000D03*
X480100Y508200D03*
X491700Y494900D03*
X491000Y497000D03*
X497600Y496100D03*
X376975Y523778D03*
X399000Y517700D03*
X381800Y515700D03*
X382000Y521100D03*
X389834Y520957D03*
X393855Y520565D03*
X381164Y518792D03*
X389000Y525600D03*
X394200Y516400D03*
X409300Y514900D03*
X417570Y516859D03*
X408500Y523500D03*
X409600Y517000D03*
X401900Y521100D03*
X414000Y525400D03*
X430210Y517675D03*
X420748Y517501D03*
X425234Y520612D03*
X427000Y519100D03*
X429000Y519800D03*
X422841Y517463D03*
X433400Y518263D03*
X437099Y518471D03*
X454000Y525400D03*
X457100Y524000D03*
X449062Y518883D03*
X445000Y525200D03*
X456300Y518800D03*
X449600Y524000D03*
X479300Y519700D03*
X478600Y517800D03*
X476500Y518000D03*
X472800Y525200D03*
X469200Y518800D03*
X478800Y524800D03*
X481100Y518600D03*
X495800Y525600D03*
X494400Y519200D03*
X480600Y524800D03*
G54D213*
X399424Y500624D02*
X400500Y501100D01*
X399793Y500993*
X399900Y501700*
X399424Y500624*
X399502Y500800D02*
X399822D01*
X399679Y501200D02*
X399824D01*
X399856Y501600D02*
X399885D01*
X399424Y500624D02*
X399424D01*
X399824Y500801D02*
Y500998D01*
Y501200D02*
Y501529D01*
X400224Y500978D02*
Y501058D01*
X384500Y490200D02*
X383324Y490624D01*
X383900Y490200*
X383324Y489776*
X384500Y490200*
X383324Y489776D02*
X383324D01*
X383867Y490176D02*
X384433D01*
X383390Y490576D02*
X383459D01*
X383324Y489776D02*
X383324D01*
Y490624D02*
X383324D01*
X383724Y489920D02*
Y490071D01*
Y490329D02*
Y490480D01*
X384124Y490064D02*
Y490336D01*
X398000Y487300D02*
X397576Y486124D01*
X398000Y486700*
X398424Y486124*
X398000Y487300*
X397576Y486124D02*
X397576D01*
X398424D02*
X398424D01*
X397720Y486524D02*
X397871D01*
X398129D02*
X398280D01*
X397864Y486924D02*
X398136D01*
X397576Y486124D02*
X397576D01*
X397976Y486667D02*
Y487233D01*
X398376Y486190D02*
Y486259D01*
X403689Y482421D02*
X404195Y483746D01*
X403689Y483137*
X403183Y483746*
X403689Y482421*
X403689*
X403536Y482821D02*
X403842D01*
X403384Y483221D02*
X403619D01*
X403759D02*
X403994D01*
X403231Y483621D02*
X403287D01*
X404091D02*
X404147D01*
X403183Y483746D02*
X403183D01*
X403583Y482698D02*
Y483264D01*
X403983Y483192D02*
Y483491D01*
X404976Y486902D02*
X404404Y488189D01*
X404478Y487400*
X403689Y487474*
X404976Y486902*
X404976*
X404075Y487302D02*
X404798D01*
X404450Y487702D02*
X404620D01*
X404412Y488102D02*
X404443D01*
X403689Y487474D02*
X403689D01*
X404089Y487296D02*
Y487436D01*
X404489Y487118D02*
Y487998D01*
X404889Y486941D02*
Y487098D01*
X402131Y495431D02*
X401000Y494900D01*
X401707Y495007*
X401600Y494300*
X402131Y495431*
X401600Y494300D02*
X401600D01*
X401661Y494700D02*
X401788D01*
X401426Y495100D02*
X401976D01*
X401000Y494900D02*
X401000D01*
X401400Y494961D02*
Y495088D01*
X401800Y494726D02*
Y495276D01*
X415500Y494500D02*
X416006Y495557D01*
X415500Y494948*
X414994Y495557*
X415500Y494500*
X415500*
X415309Y494900D02*
X415691D01*
X415117Y495300D02*
X415208D01*
X415792D02*
X415883D01*
X414994Y495557D02*
X414994D01*
X415394Y494721D02*
Y495075D01*
X415794Y495115D02*
Y495302D01*
X413476Y493124D02*
X413100Y494100D01*
X413207Y493393*
X412500Y493500*
X413476Y493124*
X413476*
X413187Y493524D02*
X413322D01*
X413127Y493924D02*
X413168D01*
X412500Y493500D02*
X412500D01*
X412900Y493346D02*
Y493439D01*
X413300Y493192D02*
Y493581D01*
X415500Y493300D02*
X415167Y492759D01*
X415500Y493241*
X415833Y492759*
X415500Y493300*
X415167Y492759D02*
X415167D01*
X415833D02*
X415833D01*
X415413Y493159D02*
X415443D01*
X415557D02*
X415587D01*
X415167Y492759D02*
X415167D01*
X415567Y493144D02*
Y493191D01*
X401046Y489483D02*
X399752Y488904D01*
X400541Y488978*
X400467Y488189*
X401046Y489483*
X400467Y488189D02*
X400467D01*
X400505Y488589D02*
X400646D01*
X399941Y488989D02*
X400825D01*
X400835Y489389D02*
X401004D01*
X399752Y488904D02*
X399752D01*
X400152Y488942D02*
Y489083D01*
X400552Y488378D02*
Y489262D01*
X400952Y489272D02*
Y489441D01*
X404000Y490200D02*
X405176Y489776D01*
X404600Y490200*
X405176Y490624*
X404000Y490200*
X405176Y489776D02*
X405176D01*
X404067Y490176D02*
X404633D01*
X405041Y490576D02*
X405110D01*
X404000Y490200D02*
X404000D01*
X404400Y490056D02*
Y490344D01*
X404800Y489911D02*
Y490053D01*
Y490347D02*
Y490489D01*
X420584Y476925D02*
X420775Y476290D01*
X420651Y476858*
X421219Y476734*
X420584Y476925*
X420775Y476290D02*
X420775D01*
X420655Y476690D02*
X420688D01*
X420584Y476925D02*
X420584D01*
X420984Y476786D02*
Y476805D01*
X430028Y494909D02*
X431228Y495348D01*
X430438Y495297*
X430533Y496083*
X430028Y494909*
X430028*
X430200Y495309D02*
X430439D01*
X430634D02*
X431123D01*
X430372Y495709D02*
X430488D01*
X430028Y494909D02*
X430028D01*
X430428Y495056D02*
Y495840D01*
X430828Y495202D02*
Y495322D01*
X427300Y483641D02*
X426876Y482524D01*
X427300Y483100*
X427724Y482524*
X427300Y483641*
X426876Y482524D02*
X426876D01*
X427724D02*
X427724D01*
X427028Y482924D02*
X427171D01*
X427429D02*
X427572D01*
X427180Y483324D02*
X427420D01*
X426876Y482524D02*
X426876D01*
X427276Y483067D02*
Y483577D01*
X427676Y482590D02*
Y482652D01*
X446004Y483425D02*
X445662Y482766D01*
X446004Y483273*
X446346Y482766*
X446004Y483425*
X445662Y482766D02*
X445662D01*
X446346D02*
X446346D01*
X445869Y483166D02*
X445932D01*
X446076D02*
X446139D01*
X445662Y482766D02*
X445662D01*
X446062Y483188D02*
Y483314D01*
X469821Y486179D02*
X469300Y487300D01*
X469407Y486593*
X468700Y486700*
X469821Y486179*
X469821*
X468960Y486579D02*
X469635D01*
X469349Y486979D02*
X469449D01*
X468700Y486700D02*
X468700D01*
X469100Y486514D02*
Y486639D01*
X469500Y486328D02*
Y486870D01*
X481316Y488577D02*
X480693Y488596D01*
X481257Y488548*
X480965Y488063*
X481316Y488577*
X480965Y488063D02*
X480965D01*
X481206Y488463D02*
X481237D01*
X480693Y488596D02*
X480693D01*
X481093Y488251D02*
Y488275D01*
Y488562D02*
Y488584D01*
X381235Y503377D02*
X381958Y503608D01*
X381351Y503493*
X381466Y504100*
X381235Y503377*
X381306Y503600D02*
X381371D01*
X381915D02*
X381932D01*
X381434Y504000D02*
X381447D01*
X381235Y503377D02*
X381235D01*
X381635Y503505D02*
Y503547D01*
X387476Y506624D02*
X387284Y507262D01*
X387407Y506693*
X386838Y506816*
X387476Y506624*
X386891Y506800D02*
X386912D01*
X387384D02*
X387423D01*
X387297Y507200D02*
X387303D01*
X386838Y506816D02*
X386838D01*
X387238Y506696D02*
Y506730D01*
X401246Y500954D02*
X401078Y501538D01*
X401207Y500993*
X400662Y501122*
X401246Y500954*
X401158Y501200D02*
X401175D01*
X400662Y501122D02*
X400662D01*
X401062Y501007D02*
Y501027D01*
X421430Y503510D02*
X421847Y504419D01*
X421428Y503841*
X421000Y504413*
X421430Y503510*
X421387Y503600D02*
X421471D01*
X421197Y504000D02*
X421309D01*
X421543D02*
X421655D01*
X421006Y504400D02*
X421009D01*
X421833D02*
X421838D01*
X421000Y504413D02*
X421000D01*
X421400Y503573D02*
Y503878D01*
X421800Y504317D02*
Y504355D01*
X408817Y502746D02*
X408341Y503937D01*
X408415Y503148*
X407626Y503222*
X408817Y502746*
X408682Y502800D02*
X408795D01*
X407680Y503200D02*
X407859D01*
X408410D02*
X408636D01*
X408373Y503600D02*
X408476D01*
X407626Y503222D02*
X407626D01*
X408026Y503062D02*
Y503184D01*
X408426Y502902D02*
Y503725D01*
X426023Y502636D02*
X427315Y503222D01*
X426527Y503144*
X426596Y503933*
X426023Y502636*
X426096Y502800D02*
X426386D01*
X426272Y503200D02*
X426531D01*
X427095D02*
X427267D01*
X426449Y503600D02*
X426567D01*
X426023Y502636D02*
X426023D01*
X426423Y502817D02*
Y503543D01*
X426823Y502999D02*
Y503173D01*
X427223Y503180D02*
Y503213D01*
X415500Y507274D02*
X415076Y506224D01*
X415500Y506800*
X415924Y506224*
X415500Y507274*
X415147Y506400D02*
X415205D01*
X415795D02*
X415853D01*
X415308Y506800D02*
X415500D01*
X415692*
X415470Y507200D02*
X415530D01*
X415076Y506224D02*
X415076D01*
X415476Y506767D02*
Y507214D01*
X415876Y506290D02*
Y506344D01*
X415500Y506400D02*
X415983Y507346D01*
X415500Y506759*
X415017Y507346*
X415500Y506400*
X415500*
X415296Y506800D02*
X415466D01*
X415534D02*
X415704D01*
X415092Y507200D02*
X415137D01*
X415863D02*
X415908D01*
X415017Y507346D02*
X415017D01*
X415417Y506563D02*
Y506860D01*
X415817Y507021D02*
Y507144D01*
X417500Y508057D02*
X417155Y507391D01*
X417500Y507900*
X417845Y507391*
X417500Y508057*
X417263Y507600D02*
X417297D01*
X417703D02*
X417737D01*
X417471Y508000D02*
X417529D01*
X417155Y507391D02*
X417155D01*
X417555Y507819D02*
Y507950D01*
X406476Y503676D02*
X405838Y503484D01*
X406407Y503607*
X406284Y503038*
X406476Y503676*
X406319Y503200D02*
X406333D01*
X406224Y503600D02*
X406374D01*
X406406D02*
X406453D01*
X405838Y503484D02*
X405838D01*
X406238Y503570D02*
Y503604D01*
X419011Y504612D02*
X417996Y505237D01*
X418482Y504713*
X417837Y504404*
X419011Y504612*
X418402Y504800D02*
X418706D01*
X418031Y505200D02*
X418057D01*
X417837Y504404D02*
X417837D01*
X418237Y504475D02*
Y504596D01*
Y504977D02*
Y505089D01*
X418637Y504546D02*
Y504842D01*
X420424Y509416D02*
X419283Y508573D01*
X420038Y508814*
X420136Y508028*
X420424Y509416*
X420089Y508400D02*
X420213D01*
X419591Y508800D02*
X419995D01*
X420040D02*
X420296D01*
X420131Y509200D02*
X420379D01*
X419283Y508573D02*
X419283D01*
X419683Y508700D02*
Y508869D01*
X420083Y508448D02*
Y509165D01*
X419887Y508577D02*
X420878Y509339D01*
X420210Y509083*
X420163Y509796*
X419887Y508577*
X419937Y508800D02*
X420177D01*
X420028Y509200D02*
X420202D01*
X420516D02*
X420697D01*
X420119Y509600D02*
X420176D01*
X419887Y508577D02*
X419887D01*
X420287Y508885D02*
Y509112D01*
X420687Y509192D02*
Y509266D01*
X414205Y497357D02*
X414785Y496063D01*
X414711Y496852*
X415500Y496778*
X414205Y497357*
X414785Y496063D02*
X414785D01*
X414606Y496463D02*
X414747D01*
X414427Y496863D02*
X415311D01*
X414248Y497263D02*
X414417D01*
X414205Y497357D02*
X414205D01*
X414605Y496463D02*
Y497179D01*
X415005Y496824D02*
Y497000D01*
X415405Y496787D02*
Y496821D01*
X415500Y505200D02*
X415120Y504543D01*
X415500Y505052*
X415880Y504543*
X415500Y505200*
X415269Y504800D02*
X415312D01*
X415688D02*
X415731D01*
X415500Y505200D02*
X415500D01*
X415120Y504543D02*
X415120D01*
X415520Y505026D02*
Y505165D01*
X415500Y504537D02*
X415894Y505347D01*
X415500Y504800*
X415106Y505347*
X415500Y504537*
X415372Y504800D02*
X415500D01*
X415628*
X415178Y505200D02*
X415212D01*
X415788D02*
X415822D01*
X415106Y505347D02*
X415106D01*
X415506Y504549D02*
Y504808D01*
X411563Y497400D02*
X411145Y496644D01*
X411563Y497178*
X411981Y496644*
X411563Y497400*
X411145Y496644D02*
X411145D01*
X411981D02*
X411981D01*
X411366Y497044D02*
X411458D01*
X411668D02*
X411760D01*
X411145Y496644D02*
X411145D01*
X411545Y497156D02*
Y497368D01*
X411945Y496689D02*
Y496708D01*
X412857Y509169D02*
X411563Y508589D01*
X412352Y508663*
X412278Y507874*
X412857Y509169*
X412290Y508000D02*
X412335D01*
X412327Y508400D02*
X412514D01*
X412034Y508800D02*
X412693D01*
X411563Y508589D02*
X411563D01*
X411963Y508627D02*
Y508768D01*
X412363Y508063D02*
Y508947D01*
X412763Y508957D02*
Y509126D01*
X400401Y505065D02*
X399701Y504651D01*
X400308Y504904*
X400394Y504252*
X400401Y505065*
X400375Y504400D02*
X400395D01*
X399954Y504800D02*
X400059D01*
X400322D02*
X400399D01*
X399701Y504651D02*
X399701D01*
X400101Y504817D02*
Y504888D01*
X430176Y503576D02*
X429538Y503384D01*
X430107Y503507*
X429984Y502938*
X430176Y503576*
X430041Y503200D02*
X430063D01*
X429538Y503384D02*
X429538D01*
X429938Y503470D02*
Y503504D01*
X425234Y519150D02*
X425658Y520188D01*
X425234Y519612*
X424810Y520188*
X425234Y519150*
X425214Y519200D02*
X425254D01*
X425050Y519600D02*
X425418D01*
X424886Y520000D02*
X424948D01*
X425520D02*
X425582D01*
X424810Y520188D02*
X424810D01*
X425210Y519209D02*
Y519645D01*
X425610Y520069D02*
Y520122D01*
X430169Y512962D02*
X430533Y511834D01*
X430485Y512625*
X431271Y512526*
X430169Y512962*
X430480Y512000D02*
X430523D01*
X430351Y512400D02*
X430499D01*
X430222Y512800D02*
X430579D01*
X430169Y512962D02*
X430169D01*
X430569Y512614D02*
Y512804D01*
X430969Y512564D02*
Y512646D01*
X426347Y504665D02*
X425816Y505796D01*
X425923Y505089*
X425216Y505196*
X426347Y504665*
X426059Y504800D02*
X426284D01*
X425906Y505200D02*
X426096D01*
X425846Y505600D02*
X425908D01*
X425216Y505196D02*
X425216D01*
X425616Y505008D02*
Y505135D01*
X426016Y504820D02*
Y505370D01*
X422031Y496569D02*
X421500Y497700D01*
X421607Y496993*
X420900Y497100*
X422031Y496569*
X422031*
X421180Y496969D02*
X421844D01*
X421550Y497369D02*
X421656D01*
X420900Y497100D02*
X420900D01*
X421300Y496912D02*
Y497039D01*
X421700Y496724D02*
Y497274D01*
X389834Y522557D02*
X389410Y521381D01*
X389834Y521957*
X390258Y521381*
X389834Y522557*
X389489Y521600D02*
X389571D01*
X390097D02*
X390179D01*
X389633Y522000D02*
X390035D01*
X389777Y522400D02*
X389891D01*
X389410Y521381D02*
X389410D01*
X389810Y521924D02*
Y522490D01*
X390210Y521447D02*
Y521516D01*
X418701Y517990D02*
X417570Y517459D01*
X418277Y517566*
X418170Y516859*
X418701Y517990*
X418222Y517200D02*
X418330D01*
X417870Y517600D02*
X418518D01*
X417570Y517459D02*
X417570D01*
X417970Y517520D02*
Y517647D01*
X418370Y517285D02*
Y517835D01*
X409600Y518600D02*
X409176Y517424D01*
X409600Y518000*
X410024Y517424*
X409600Y518600*
X409239Y517600D02*
X409305D01*
X409895D02*
X409961D01*
X409383Y518000D02*
X409600D01*
X409817*
X409528Y518400D02*
X409672D01*
X409176Y517424D02*
X409176D01*
X409576Y517967D02*
Y518533D01*
X409976Y517490D02*
Y517559D01*
X408500Y521900D02*
X408924Y523076D01*
X408500Y522500*
X408076Y523076*
X408500Y521900*
X408464Y522000D02*
X408536D01*
X408320Y522400D02*
X408680D01*
X408175Y522800D02*
X408279D01*
X408721D02*
X408825D01*
X408076Y523076D02*
X408076D01*
X408476Y521967D02*
Y522533D01*
X408876Y522941D02*
Y523010D01*
X402459Y516978D02*
X402974Y515748D01*
X402900Y516537*
X403689Y516463*
X402459Y516978*
X402868Y516000D02*
X402950D01*
X402701Y516400D02*
X402913D01*
X402534Y516800D02*
X402884D01*
X402459Y516978D02*
X402459D01*
X402859Y516021D02*
Y516810D01*
X403259Y516503D02*
Y516643D01*
X403659Y516466D02*
Y516476D01*
X427311Y517579D02*
X426805Y516254D01*
X427311Y516863*
X427817Y516254*
X427311Y517579*
X426861Y516400D02*
X426926D01*
X427696D02*
X427761D01*
X427014Y516800D02*
X427258D01*
X427364D02*
X427608D01*
X427166Y517200D02*
X427456D01*
X426805Y516254D02*
X426805D01*
X427205Y516736D02*
Y517302D01*
X427605Y516509D02*
Y516808D01*
X477700Y519700D02*
X478876Y519276D01*
X478300Y519700*
X478876Y520124*
X477700Y519700*
X477977Y519600D02*
X478436D01*
X478531Y520000D02*
X478707D01*
X477700Y519700D02*
X477700D01*
X478100Y519556D02*
Y519844D01*
X478500Y519411D02*
Y519553D01*
Y519847D02*
Y519989D01*
X457707Y474000D02*
X438226D01*
X436800Y475426*
Y489175*
X435448Y490527*
X457707Y474000D02*
X458829D01*
X459700Y474871*
Y478400*
X461500Y480200*
X465400*
X467350Y482150*
Y483114*
X467688Y483452*
X372679Y479600D02*
X372734D01*
X373947Y480813*
X382233*
X383320Y481900*
X388900*
X378000Y493110D02*
X380223D01*
X381262Y494149*
X384338*
X388835Y498646*
X388835D02*
Y507675D01*
X388835D02*
X387200Y509310D01*
Y509400*
X378000Y491142D02*
X380174D01*
X382230Y493198*
X385214*
X389307Y497291*
X390900*
X393809Y500200*
X399000*
X400500Y501700*
X378000Y489173D02*
X381000D01*
X381500Y489673*
Y491000*
X382500Y492000*
X385300*
X389600Y496300*
X391300*
X394400Y499400*
X412163*
X391100Y489900D02*
X392200D01*
X394000Y491700*
Y492900*
X394800Y493700*
X396244*
X391100Y489900D02*
X385600D01*
X385300Y490200*
X382900*
X398000Y485700D02*
Y488315D01*
X395815Y490500*
Y492126*
X381514Y481900D02*
X375200D01*
X374550Y482550*
Y489529*
X372679Y491400*
X381514Y481900D02*
X382018D01*
X382818Y482700*
X389514*
X409449Y478621D02*
X412854D01*
X415733Y481500*
X419100*
X409449Y478621D02*
X405927Y482143D01*
X405205*
X408770Y477820D02*
X413185D01*
X415965Y480600*
X418800*
X408770Y477820D02*
X406060Y480531D01*
X404558*
X403689Y481400*
Y484252*
X408587Y476698D02*
X413827D01*
X414478Y477349*
X408587Y476698D02*
X405623Y479661D01*
X404244*
X401933Y481972*
Y482594*
X400600Y490550D02*
X398500D01*
X397800Y491250*
Y492400*
X396500Y493700*
X396244*
X400600Y490550D02*
X402000Y491950D01*
Y493300*
X401000Y494300*
X410045Y479421D02*
X405400Y484066D01*
Y486478*
X403689Y488189*
X410045Y479421D02*
X412487D01*
X412491Y479425*
X412525*
X415500Y482400*
X419300*
X401000Y494300D02*
X402900Y496200D01*
X403666*
X415500Y496063D02*
Y493900D01*
X415600*
X415800Y494100*
X401172Y478700D02*
X390700D01*
X390300Y479100*
Y481914*
X389514Y482700*
X401172Y478700D02*
X401812Y479340D01*
X404898Y477900D02*
X390300D01*
X389500Y478700*
Y481300*
X388900Y481900*
X404898Y477900D02*
Y478205D01*
X417600Y490600D02*
X417911D01*
X419437Y492126*
X419437*
X417600Y490600D02*
X414800D01*
X413900Y491500*
Y492700*
X412500Y494100*
X410300Y494200D02*
X410400D01*
X410500Y494300*
X415500Y492126D02*
Y493900D01*
X411563Y492126D02*
X410500Y493189D01*
Y494300*
X399752Y488189D02*
X401763Y490200D01*
X405600*
X426454Y478564D02*
X428900Y481010D01*
X428900D02*
Y486000D01*
X428800Y486100*
X426454Y478564D02*
X420836D01*
X418800Y480600*
X421358Y476151D02*
X420160Y477349D01*
X414478*
X431213Y489535D02*
X432200Y490522D01*
X433635*
X431213Y489535D02*
X430913D01*
X429300Y491148*
X433635Y490522D02*
X435442D01*
X435448Y490527*
X433635Y490522D02*
Y493035D01*
X434430Y493830*
X436670*
X425135Y479365D02*
X421235D01*
X419100Y481500*
X425135Y479365D02*
X426006Y480236D01*
Y480429*
X425971Y480465*
X428800Y478100D02*
X429700Y479000D01*
Y484902*
X429700D02*
X430375Y485577D01*
X430375D02*
Y486549D01*
X429175Y487749*
Y489159*
X429145Y489189*
Y489233*
X428323Y490055*
X427100*
X425700Y491455*
Y493146*
X426249Y493695*
X429991*
X430371Y494075*
X431655*
X433154Y495574*
Y504468*
X431654Y505968*
X430011*
X429011Y506968*
Y508800*
X427311Y510500*
Y511811*
X439611Y492983D02*
Y493000D01*
X440700Y494089*
Y513400*
X441500Y514200*
X450600*
X451164Y514764*
X453000*
X437600Y490700D02*
X443300D01*
X444254Y491654*
Y493954*
X443100Y495100*
Y508600*
X443800Y509300*
X450658*
X437600Y490700D02*
X437200Y491100D01*
X425300Y489600D02*
Y489764D01*
X424900Y490164*
Y493611*
X425786Y494497*
X429593*
X431248Y496063*
X425971Y480465D02*
X425711Y480724D01*
X425700*
Y485346*
X427311Y486957*
Y488189*
X438557Y474800D02*
X458201D01*
X458900Y475499*
Y478731*
X461169Y481000*
X464700*
X466166Y482466*
Y483452*
X466113*
X438557Y474800D02*
X437600Y475757D01*
Y490700*
X437200Y491100D02*
X436174Y492126D01*
X435185*
X429300Y491100D02*
Y491148D01*
X427300Y482100D02*
Y484241D01*
X427311Y484252*
X421700Y480165D02*
X423527D01*
X424900Y481539*
Y486586*
X424978Y486664*
X421700Y480165D02*
X419465Y482400D01*
X419300*
X431248Y488189D02*
X431213Y489535D01*
X423374Y492126D02*
Y492224D01*
X421206Y494392*
Y494442*
X445244Y477286D02*
X445051Y477320D01*
X445244Y477488D02*
X444833Y477900D01*
X441714*
X441256Y478358*
X441243*
X440700Y478901*
Y485571*
X441729Y486600*
X447923*
X448981Y487658*
Y489752*
X450371Y491142*
X453000*
X445244Y477488D02*
X445334Y477566D01*
X450241Y475613D02*
X448213Y477641D01*
X447951Y477907*
X445726*
X450241Y475613D02*
X452161D01*
X452167Y475619*
X457682*
X458100Y476037*
Y479200*
X460700Y481800*
X462464*
X462964Y482300*
Y483452*
X446996Y478800D02*
X448343D01*
X448934Y479391*
X442500Y491500D02*
X439000D01*
X436670Y493830*
X442500Y491500D02*
X443269Y492269D01*
Y493769*
X442300Y494739*
Y509200*
X443300Y510200*
X450273*
X450900Y510827*
X453000*
X458900Y488964D02*
X459900D01*
X462136Y491200*
X462500*
X458900Y488964D02*
X457452D01*
X446996Y478800D02*
X443059D01*
X442200*
X441500Y479500*
Y484872*
X442428Y485800*
X448372*
X449871Y487299*
Y488814*
X450230Y489173*
X453000*
X445334Y477270D02*
Y477398D01*
X445334D02*
X445244Y477488D01*
X445334Y477270D02*
X445244Y477286D01*
X445334Y477566D02*
X445726Y477907D01*
X446004Y482273D02*
Y484025D01*
X446936Y484957*
X448749*
X450805Y487012*
X450805D02*
Y487112D01*
X450805D02*
X452907D01*
X452907D02*
X453000Y487205D01*
X441638Y492917D02*
X441500Y493055D01*
Y512600*
X442300Y513400*
X450000*
X446169Y490959D02*
Y491718D01*
X446128Y491759*
X447569Y493200*
Y496268*
X446537Y497300*
Y499937*
X449600Y503000*
X448934Y479391D02*
X450035D01*
X450587Y479943*
X456646*
X460155Y483452*
X461389*
X445051Y477320D02*
X445244Y477488D01*
X453000Y485236D02*
X458300D01*
X459732Y486668*
Y488132*
X458900Y488964*
X453000Y487205D02*
X454616D01*
X454800Y487389*
X457452*
X473595Y485792D02*
X473591Y485797D01*
X472987Y491883D02*
X473044D01*
X473052Y491891*
X472700Y478700D02*
Y479338D01*
X475562Y482200*
Y483452*
X472700Y478700D02*
X472900Y478900D01*
X475000Y478700D02*
Y479800D01*
X477137Y481937*
Y483452*
X472900Y478800D02*
Y478900D01*
X477100Y478600D02*
X477150Y478650D01*
Y480600*
X478700Y482150*
Y483440*
X478712Y483452*
X478409Y489700D02*
X484687D01*
X487100Y492113*
X488948*
X478409Y489700D02*
X477696Y490413D01*
X470700Y478800D02*
X470838Y478938D01*
Y483452*
X468852Y481361D02*
X469263Y481772D01*
Y483452*
X479500Y480500D02*
Y481413D01*
X480287Y482200*
Y483452*
X472413D02*
Y485097D01*
X471755Y485755*
X470245*
X468700Y487300*
X475562Y483452D02*
Y483907D01*
X475576Y483921*
Y486243*
X476012Y486678*
X477137Y483452D02*
Y485577D01*
X477478Y485918*
Y487786*
X476448Y488816*
X480366Y488093D02*
X481850Y488850D01*
X482100*
X480400Y478500D02*
Y478600D01*
X481436*
X483436Y480600*
Y483452*
X485011D02*
Y484006D01*
X485089Y484084*
Y485049*
X484403Y485735*
X478700*
Y486100*
X478963Y486552*
X488948Y487389D02*
X486911D01*
X485450Y488850*
X482100*
X488948Y488964D02*
X492900D01*
Y489200*
X488948Y490539D02*
X491439D01*
X491900Y491000*
X372679Y514020D02*
X373670Y514795D01*
X380843*
X381762Y515714*
X372679Y495600D02*
X373142D01*
X373201Y495659*
X373214*
X374855Y497300*
X380700*
X378000Y512795D02*
X380933D01*
X382337Y514199*
X378000Y510827D02*
X380657D01*
X383226Y513396*
X378000Y506890D02*
X380800D01*
X381538Y507628*
X381538D02*
X383228D01*
X378000Y504921D02*
X375351D01*
Y504942*
X374891Y505402*
Y507667*
X372935Y509623*
X372917*
X372830Y509710*
X372812*
X372702Y509820*
X372679*
X378000Y504921D02*
X380494D01*
X381771Y506198*
X382307*
X382366Y506256*
X378000Y502953D02*
X380811D01*
X382058Y504200*
X378000Y495079D02*
X383979D01*
X387900Y499000*
Y506200*
X386700Y507400*
X383511Y502797D02*
X383921Y503207D01*
Y506935*
X383228Y507628*
X381349Y496631D02*
Y496651D01*
X380700Y497300*
X382424Y506198D02*
X382366Y506256D01*
X385800Y500100D02*
X384934Y500966D01*
Y507190*
X383266Y508858*
X378000*
X390300Y494500D02*
X390900D01*
X395000Y498600*
X397000*
X395815Y507874D02*
X395500Y508189D01*
X393111*
X392900Y508400*
X400500Y501700D02*
X401670Y500530D01*
X427430*
X429400Y502500*
Y502800*
X412400Y505900D02*
Y506100D01*
X412500Y506200*
Y506937*
X411563Y507874*
X409241Y502322D02*
X420847D01*
X421435Y502910*
X421420Y504841*
X409241Y502322D02*
X407626Y503937D01*
X413623Y509934D02*
Y517513D01*
X413649*
X418264Y522129*
X413623Y509934D02*
X413846Y510157D01*
X416000*
X406700Y510200D02*
X406100Y510800D01*
Y516700*
X406700Y517300*
Y519300*
X406650Y519350*
Y519450*
X403500Y522600*
X401000*
X406700Y510200D02*
X408204D01*
X409598Y511594*
X409600Y512800*
X411400Y501500D02*
X424900D01*
X427311Y503937*
X411400Y501500D02*
X403100D01*
X401958Y502642*
Y505058*
X402800Y505900*
X415500Y505800D02*
Y507874D01*
X417500Y506900D02*
Y508657D01*
X416000Y510157*
X405658Y506781D02*
X406757Y507880D01*
X402800Y505900D02*
Y506055D01*
X401955Y506900*
Y507887*
X400355Y509487*
X394072*
X393406Y510153*
Y512886*
X392896Y513396*
X383226*
X405700Y502900D02*
X406900Y504100D01*
X419437Y503937D02*
X419600Y504100D01*
Y504500*
X417500Y504900*
X419437Y507874D02*
X420749Y509925D01*
X415500Y496063D02*
X412163Y499400D01*
X415500Y503937D02*
Y505800D01*
X411563Y496063D02*
Y498000D01*
X410963Y498600*
X397000*
X413623Y509934D02*
X411563Y507874D01*
X409900*
X408374Y509400*
X401678*
X400783Y510295*
X394614*
X394614D02*
X394241Y510668D01*
X394241D02*
X394240Y513286D01*
X394240D02*
X393327Y514199D01*
X393327D02*
X382337D01*
X407626Y503937D02*
X407463Y504100D01*
X406900*
X407626Y507874D02*
X407620Y507880D01*
X406757*
X403689Y496063D02*
Y496177D01*
X403666Y496200*
X403689Y511811D02*
Y511908D01*
X403767Y511986*
Y512967*
X404600Y513800*
X399752Y496063D02*
X398815Y497000D01*
X397800*
X399752Y503937D02*
X400700Y505585D01*
Y505900*
X399752Y511811D02*
Y513000D01*
X398952Y513800*
X398900*
X425700Y513400D02*
X425698Y513398D01*
X424896Y514200*
Y517667*
X423599Y518964*
X423599D02*
X419675D01*
X429400Y502800D02*
X430600Y504000D01*
X435185Y507874D02*
Y509511D01*
X433006Y511690*
Y513093*
X431899Y514200*
X426150*
X425700Y514650*
Y518084*
X425234Y518550*
Y520612*
X431248Y503937D02*
X431185Y504000D01*
X430600*
X431248Y511811D02*
X429759Y513400D01*
X425700*
X427311Y503937D02*
X427000D01*
Y504012*
X425216Y505796*
X427311Y511811D02*
X427239Y511884D01*
X425773*
X425773D02*
X423928Y513728D01*
X422673*
X421183Y515218*
Y517066*
X420748Y517501*
X423374Y496063D02*
X422537D01*
X420900Y497700*
X453000Y502953D02*
X452953Y503000D01*
X449600*
X453000Y508858D02*
X451100D01*
X450658Y509300*
X453000Y512795D02*
X450605D01*
X450000Y513400*
X462383Y504814D02*
Y505407D01*
X461591Y506199*
X458443*
X458356Y506287*
X457452*
X459789Y499261D02*
X462794D01*
X462613Y499552*
X459789Y499261D02*
X459062Y499987D01*
X457452*
X470600Y505900D02*
X470500D01*
X471500Y506900*
Y508200*
X469263Y510437*
Y514948*
X469800Y507900D02*
Y508688D01*
X467688Y510800*
Y514948*
X460303Y504701D02*
X460292Y504712D01*
X457452*
X460694Y500756D02*
X459799D01*
X459002Y501562*
X457452*
X467500Y507900D02*
X467600Y508000D01*
Y509600*
X466113Y511087*
Y514948*
X464211Y503768D02*
X464500Y504085D01*
Y509235*
X462724Y511011*
X457452*
X460024Y497732D02*
X461403D01*
X461427Y497756*
X460024Y497732D02*
X460000D01*
X459319Y498413*
X457452*
X462709Y501709D02*
X462723Y501723D01*
Y502067*
X461654Y503137*
X457452*
X460600Y508800D02*
X460536D01*
X459900Y509436*
X457452*
X463916Y497799D02*
X464479Y498362D01*
Y501919*
X465700Y503140*
Y505900*
X465300Y506300*
Y509605*
X461389Y513516*
Y514948*
X466121Y499457D02*
X466525Y499861D01*
Y506541*
X466100Y506966*
Y509964*
X462964Y513100*
Y514948*
X376058Y517300D02*
X386722D01*
X387349Y517927*
X396800*
X398000Y519127*
Y520500*
X399000Y521500*
X399900*
X401000Y522600*
X376058Y517300D02*
X374629Y518729D01*
X373385*
X372679Y518000D02*
X373385Y518706D01*
Y518729*
X381800Y515700D02*
X381786Y515714D01*
X381762*
X389834Y520957D02*
Y524100D01*
X390934Y525200*
X409182*
X381164Y518792D02*
X381006Y518950D01*
X375866*
X372616Y522200*
X372679*
X417570Y516859D02*
X419675Y518964D01*
X409600Y517000D02*
Y519500D01*
X408500Y520600*
Y523500*
X403689Y515748D02*
X402035Y517402D01*
Y520965*
X401900Y521100*
X427311Y515748D02*
Y518589D01*
X427000Y519100*
X476950Y524350D02*
X477000Y524400D01*
X478900*
Y524700*
X478800Y524800*
X476950Y524400D02*
X477000D01*
X476950Y524250D02*
Y524350D01*
X476300Y524400D02*
X476950D01*
X478712Y514948D02*
Y515600D01*
X480306Y517194*
Y517806*
X481100Y518600*
X477137Y514948D02*
Y516000D01*
X478600Y517463*
Y517800*
X475562Y514948D02*
Y517100D01*
X476462Y518000*
X476500*
X473987Y514948D02*
Y518087D01*
X475600Y519700*
X479300*
X470838Y514948D02*
Y515819D01*
X470138Y516519*
X465981*
X461200Y521300*
X449400*
X448600Y522100*
X430182*
X429300Y522982*
X411400*
X409182Y525200*
X464539Y514948D02*
Y516761D01*
X460800Y520500*
X448900*
X448200Y521200*
X429700*
X428771Y522129*
X418264*
X488350Y518150D02*
X488300Y518200D01*
G54D249*
X493828Y504331D03*
X497372D03*
X497600Y501378D03*
Y497834D03*
Y521428D03*
Y524972D03*
G54D262*
X500004Y472389D02*
X467001D01*
Y476419*
G03X464619Y478801I-2382J0*
G01X464592*
G03X462204Y476413I-0J-2388*
G01Y472390*
X334043*
Y478741*
X316813*
Y520941*
X334046*
Y527594*
X462205*
Y523586*
G03X464590Y521200I2385J-0*
G01X464624*
G03X467004Y523579I0J2379*
G01Y527592*
X481073*
X481162Y527589*
X500004*
Y472389*
X369407Y475255D02*
G03X369407I-991J0D01*
G01X369392Y477775D02*
G03X369392I-985J0D01*
G01X369429Y480203D02*
G03X369429I-982J0D01*
G01X369446Y485204D02*
G03X369446I-986J0D01*
G01X369454Y487596D02*
G03X369454I-988J0D01*
G01X369459Y490109D02*
G03X369459I-989J0D01*
G01X369443Y492557D02*
G03X369443I-989J0D01*
G01X369505Y495039D02*
G03X369505I-993J0D01*
G01X369442Y497535D02*
G03X369442I-976J0D01*
G01X369449Y500054D02*
G03X369449I-986J0D01*
G01X369446Y502498D02*
G03X369446I-993J0D01*
G01X369461Y504989D02*
G03X369461I-999J0D01*
G01X369453Y507477D02*
G03X369453I-985J0D01*
G01X369441Y509994D02*
G03X369441I-975J0D01*
G01X369420Y512438D02*
G03X369420I-973J0D01*
G01X369384Y514816D02*
G03X369384I-971J0D01*
G01X369452Y519577D02*
G03X369452I-986J0D01*
G01X369455Y522091D02*
G03X369455I-991J0D01*
G01X369419Y524598D02*
G03X369419I-987J0D01*
G01X357938Y519537D02*
G03X357938I-979J0D01*
G01X357951Y522053D02*
G03X357951I-997J0D01*
G01X357922Y524558D02*
G03X357922I-993J0D01*
G01X348222Y521019D02*
G03X348222I-2294J0D01*
G01X340121Y519602D02*
G03X340121I-986J0D01*
G01X340129Y522085D02*
G03X340129I-993J0D01*
G01X340116Y524645D02*
G03X340116I-981J0D01*
G01X357050Y483839D02*
X339047D01*
Y515865*
X357050*
Y483839*
X357998Y475331D02*
G03X357998I-1001J0D01*
G01X357991Y477843D02*
G03X357991I-982J0D01*
G01X357966Y480352D02*
G03X357966I-987J0D01*
G01X348123Y478587D02*
G03X348123I-2311J0D01*
G01X340146Y475504D02*
G03X340146I-1004J0D01*
G01X340135Y477962D02*
G03X340135I-988J0D01*
G01X340124Y480318D02*
G03X340124I-989J0D01*
G54D265*
G01X470100Y524400D03*
X476300D03*
G54D266*
X473200Y499200D03*
G54D276*
X384004Y523622D03*
Y519685D03*
Y515748D03*
Y511811D03*
Y488189D03*
Y484252D03*
Y480315D03*
Y476378D03*
X387941Y523622D03*
Y519685D03*
Y515748D03*
Y511811D03*
Y488189D03*
Y484252D03*
Y480315D03*
Y476378D03*
X391878Y523622D03*
Y519685D03*
Y515748D03*
Y511811D03*
Y488189D03*
Y484252D03*
Y480315D03*
Y476378D03*
X395815Y523622D03*
Y519685D03*
Y515748D03*
Y511811D03*
Y507874D03*
Y503937D03*
Y496063D03*
Y492126D03*
Y488189D03*
Y484252D03*
Y480315D03*
Y476378D03*
X399752Y523622D03*
Y519685D03*
Y515748D03*
Y511811D03*
Y507874D03*
Y503937D03*
Y496063D03*
Y492126D03*
Y488189D03*
Y484252D03*
Y480315D03*
Y476378D03*
X403689Y515748D03*
Y511811D03*
Y507874D03*
Y503937D03*
Y496063D03*
Y492126D03*
Y488189D03*
Y484252D03*
X407626Y515748D03*
Y511811D03*
Y507874D03*
Y503937D03*
Y496063D03*
Y492126D03*
Y488189D03*
Y484252D03*
X411563Y515748D03*
Y511811D03*
Y507874D03*
Y503937D03*
Y496063D03*
Y492126D03*
Y488189D03*
Y484252D03*
X415500Y515748D03*
Y511811D03*
Y507874D03*
Y503937D03*
Y496063D03*
Y492126D03*
Y488189D03*
Y484252D03*
X419437Y515748D03*
Y511811D03*
Y507874D03*
Y503937D03*
Y496063D03*
Y492126D03*
Y488189D03*
Y484252D03*
X423374Y515748D03*
Y511811D03*
Y507874D03*
Y503937D03*
Y496063D03*
Y492126D03*
Y488189D03*
Y484252D03*
X427311Y515748D03*
Y511811D03*
Y507874D03*
Y503937D03*
Y496063D03*
Y492126D03*
Y488189D03*
Y484252D03*
X431248Y523622D03*
Y519685D03*
Y515748D03*
Y511811D03*
Y507874D03*
Y503937D03*
Y496063D03*
Y492126D03*
Y488189D03*
Y484252D03*
Y480315D03*
Y476378D03*
X435185Y523622D03*
Y519685D03*
Y515748D03*
Y511811D03*
Y507874D03*
Y503937D03*
Y496063D03*
Y492126D03*
Y488189D03*
Y484252D03*
Y480315D03*
Y476378D03*
X439122Y523622D03*
Y519685D03*
Y515748D03*
Y511811D03*
Y488189D03*
Y484252D03*
Y480315D03*
Y476378D03*
X443059Y523622D03*
Y519685D03*
Y515748D03*
Y511811D03*
Y488189D03*
Y484252D03*
Y480315D03*
Y476378D03*
X446996Y523622D03*
Y519685D03*
Y515748D03*
Y511811D03*
Y488189D03*
Y480315D03*
Y476378D03*
G54D290*
X378000Y477362D03*
Y479331D03*
Y483268D03*
Y485236D03*
Y487205D03*
Y489173D03*
Y491142D03*
Y493110D03*
Y495079D03*
Y499016D03*
Y500984D03*
Y502953D03*
Y504921D03*
Y506890D03*
Y508858D03*
Y510827D03*
Y512795D03*
Y520669D03*
Y522638D03*
X453000D03*
Y518701D03*
Y516732D03*
Y514764D03*
Y512795D03*
Y510827D03*
Y508858D03*
Y506890D03*
Y504921D03*
Y502953D03*
Y500984D03*
Y499016D03*
Y497047D03*
Y495079D03*
Y493110D03*
Y491142D03*
Y489173D03*
Y487205D03*
Y485236D03*
Y483268D03*
Y481299D03*
Y477362D03*
G54D291*
X458900Y523000D03*
Y518800D03*
X492200Y485400D03*
X496400D03*
X492200Y482200D03*
X496400D03*
X488300Y518200D03*
X484100D03*
X372679Y495600D03*
Y491400D03*
Y509820D03*
Y514020D03*
Y522200D03*
Y518000D03*
Y479600D03*
Y475400D03*
G54D293*
X490157Y476772D03*
G54D294*
X498600Y473700D03*
X371400Y526300D03*
G54D295*
X457846Y487389D03*
Y488964D03*
Y490539D03*
Y492113D03*
Y493688D03*
Y495263D03*
Y496838D03*
Y498413D03*
Y499987D03*
Y501562D03*
Y503137D03*
Y504712D03*
Y506287D03*
Y507861D03*
Y509436D03*
Y511011D03*
X488554D03*
Y509436D03*
Y507861D03*
Y506287D03*
Y504712D03*
Y503137D03*
Y501562D03*
Y499987D03*
Y498413D03*
Y496838D03*
Y495263D03*
Y493688D03*
Y492113D03*
Y490539D03*
Y488964D03*
Y487389D03*
G54D296*
X461389Y514554D03*
X462964D03*
X464539D03*
X466113D03*
X467688D03*
X469263D03*
X470838D03*
X472413D03*
X473987D03*
X475562D03*
X477137D03*
X478712D03*
X480287D03*
X481861D03*
X483436D03*
X485011D03*
Y483846D03*
X483436D03*
X481861D03*
X480287D03*
X478712D03*
X477137D03*
X475562D03*
X473987D03*
X472413D03*
X470838D03*
X469263D03*
X467688D03*
X466113D03*
X464539D03*
X462964D03*
X461389D03*
G54D297*
X492339Y510355D03*
Y517245D03*
X497261D03*
Y510355D03*
G54D298*
X490157Y523228D03*
G54D312*
X376975Y522638D02*
Y523778D01*
G74*
X0Y0D02*
M02*
