*
*
G04 PADS 9.2 Build Number: 406656 generated Gerber (RS-274-X) file*
G04 PC Version=2.1*
*
%IN "IS903SZQ064-4Z08-TB (RI"*%
*
%MOIN*%
*
%FSLAX35Y35*%
*
*
*
*
G04 PC Standard Apertures*
*
*
G04 Thermal Relief Aperture macro.*
%AMTER*
1,1,$1,0,0*
1,0,$1-$2,0,0*
21,0,$3,$4,0,0,45*
21,0,$3,$4,0,0,135*
%
*
*
G04 Annular Aperture macro.*
%AMANN*
1,1,$1,0,0*
1,0,$2,0,0*
%
*
*
G04 Odd Aperture macro.*
%AMODD*
1,1,$1,0,0*
1,0,$1-0.005,0,0*
%
*
*
G04 PC Custom Aperture Macros*
*
*
*
*
*
*
G04 PC Aperture Table*
*
%ADD033C,0.01*%
%ADD035C,0.005*%
%ADD037C,0.006*%
%ADD095C,0.001*%
%ADD104C,0.018*%
%ADD164C,0.016*%
%ADD213C,0.004*%
%ADD262C,0.00118*%
%ADD293O,0.10236X0.05906*%
*
*
*
*
G04 PC Circuitry*
G04 Layer Name IS903SZQ064-4Z08-TB (RI - circuitry*
%LPD*%
*
*
G04 PC Custom Flashes*
G04 Layer Name IS903SZQ064-4Z08-TB (RI - flashes*
%LPD*%
*
*
G04 PC Circuitry*
G04 Layer Name IS903SZQ064-4Z08-TB (RI - circuitry*
%LPD*%
*
G54D33*
G01X459533Y403543D02*
Y398293D01*
Y403543D02*
X460805D01*
X461351Y403293*
X461714Y402793*
X461896Y402293*
X462078Y401543*
Y400293*
X461896Y399543*
X461714Y399043*
X461351Y398543*
X460805Y398293*
X459533*
X465169Y403543D02*
X463714Y398293D01*
X465169Y403543D02*
X466623Y398293D01*
X464260Y400043D02*
X466078D01*
X469533Y403543D02*
Y398293D01*
X468260Y403543D02*
X470805D01*
X472442D02*
Y398293D01*
Y403543D02*
X474805D01*
X472442Y401043D02*
X473896D01*
X472442Y398293D02*
X474805D01*
X457433Y418643D02*
Y413393D01*
Y418643D02*
X459978Y413393D01*
Y418643D02*
Y413393D01*
X463069Y418643D02*
X461614Y413393D01*
X463069Y418643D02*
X464523Y413393D01*
X462160Y415143D02*
X463978D01*
X466160Y418643D02*
Y413393D01*
Y418643D02*
X467614Y413393D01*
X469069Y418643D02*
X467614Y413393D01*
X469069Y418643D02*
Y413393D01*
X470705Y418643D02*
Y413393D01*
Y418643D02*
X473069D01*
X470705Y416143D02*
X472160D01*
X470705Y413393D02*
X473069D01*
X457133Y428543D02*
Y423293D01*
X459314*
X462405Y428543D02*
X460951Y423293D01*
X462405Y428543D02*
X463860Y423293D01*
X461496Y425043D02*
X463314D01*
X465496Y428543D02*
X466951Y426043D01*
Y423293*
X468405Y428543D02*
X466951Y426043D01*
X470042Y428543D02*
Y423293D01*
Y428543D02*
X472405D01*
X470042Y426043D02*
X471496D01*
X470042Y423293D02*
X472405D01*
X474042Y428543D02*
Y423293D01*
Y428543D02*
X475678D01*
X476223Y428293*
X476405Y428043*
X476587Y427543*
Y427043*
X476405Y426543*
X476223Y426293*
X475678Y426043*
X474042*
X475314D02*
X476587Y423293D01*
X342783Y429443D02*
Y424193D01*
Y429443D02*
X344419D01*
X344964Y429193*
X345146Y428943*
X345328Y428443*
Y427693*
X345146Y427193*
X344964Y426943*
X344419Y426693*
X342783*
X348419Y429443D02*
X346964Y424193D01*
X348419Y429443D02*
X349873Y424193D01*
X347510Y425943D02*
X349328D01*
X351510Y429443D02*
Y424193D01*
Y429443D02*
X353146D01*
X353692Y429193*
X353873Y428943*
X354055Y428443*
Y427943*
X353873Y427443*
X353692Y427193*
X353146Y426943*
X351510*
X352783D02*
X354055Y424193D01*
X356964Y429443D02*
Y424193D01*
X355692Y429443D02*
X358237D01*
X364055D02*
Y424193D01*
Y429443D02*
X366601Y424193D01*
Y429443D02*
Y424193D01*
X369692Y429443D02*
X368237Y424193D01*
X369692Y429443D02*
X371146Y424193D01*
X368783Y425943D02*
X370601D01*
X372783Y429443D02*
Y424193D01*
Y429443D02*
X374237Y424193D01*
X375692Y429443D02*
X374237Y424193D01*
X375692Y429443D02*
Y424193D01*
X377328Y429443D02*
Y424193D01*
Y429443D02*
X379692D01*
X377328Y426943D02*
X378783D01*
X377328Y424193D02*
X379692D01*
X352078Y390293D02*
X351714Y390793D01*
X351169Y391043*
X350442*
X349896Y390793*
X349533Y390293*
Y389793*
X349714Y389293*
X349896Y389043*
X350260Y388793*
X351351Y388293*
X351714Y388043*
X351896Y387793*
X352078Y387293*
Y386543*
X351714Y386043*
X351169Y385793*
X350442*
X349896Y386043*
X349533Y386543*
X353714Y388793D02*
X356987D01*
X353714Y387293D02*
X356987D01*
X366987Y391043D02*
Y385793D01*
Y391043D02*
X368260D01*
X368805Y390793*
X369169Y390293*
X369351Y389793*
X369533Y389043*
Y387793*
X369351Y387043*
X369169Y386543*
X368805Y386043*
X368260Y385793*
X366987*
X373533Y389293D02*
X373351Y388543D01*
X372987Y388043*
X372442Y387793*
X372260*
X371714Y388043*
X371351Y388543*
X371169Y389293*
Y389543*
X371351Y390293*
X371714Y390793*
X372260Y391043*
X372442*
X372987Y390793*
X373351Y390293*
X373533Y389293*
Y388043*
X373351Y386793*
X372987Y386043*
X372442Y385793*
X372078*
X371533Y386043*
X371351Y386543*
X376260Y391043D02*
X375714Y390793D01*
X375351Y390043*
X375169Y388793*
Y388043*
X375351Y386793*
X375714Y386043*
X376260Y385793*
X376623*
X377169Y386043*
X377533Y386793*
X377714Y388043*
Y388793*
X377533Y390043*
X377169Y390793*
X376623Y391043*
X376260*
X379351Y388793D02*
X382623D01*
X379351Y387293D02*
X382623D01*
X386442Y390293D02*
X386260Y390793D01*
X385714Y391043*
X385351*
X384805Y390793*
X384442Y390043*
X384260Y388793*
Y387543*
X384442Y386543*
X384805Y386043*
X385351Y385793*
X385533*
X386078Y386043*
X386442Y386543*
X386623Y387293*
Y387543*
X386442Y388293*
X386078Y388793*
X385533Y389043*
X385351*
X384805Y388793*
X384442Y388293*
X384260Y387543*
X391533Y392043D02*
X388260Y384043D01*
X395351Y390293D02*
X395169Y390793D01*
X394623Y391043*
X394260*
X393714Y390793*
X393351Y390043*
X393169Y388793*
Y387543*
X393351Y386543*
X393714Y386043*
X394260Y385793*
X394442*
X394987Y386043*
X395351Y386543*
X395533Y387293*
Y387543*
X395351Y388293*
X394987Y388793*
X394442Y389043*
X394260*
X393714Y388793*
X393351Y388293*
X393169Y387543*
X400442Y392043D02*
X397169Y384043D01*
X404260Y390293D02*
X404078Y390793D01*
X403533Y391043*
X403169*
X402623Y390793*
X402260Y390043*
X402078Y388793*
Y387543*
X402260Y386543*
X402623Y386043*
X403169Y385793*
X403351*
X403896Y386043*
X404260Y386543*
X404442Y387293*
Y387543*
X404260Y388293*
X403896Y388793*
X403351Y389043*
X403169*
X402623Y388793*
X402260Y388293*
X402078Y387543*
X409351Y392043D02*
X406078Y384043D01*
X413169Y390293D02*
X412987Y390793D01*
X412442Y391043*
X412078*
X411533Y390793*
X411169Y390043*
X410987Y388793*
Y387543*
X411169Y386543*
X411533Y386043*
X412078Y385793*
X412260*
X412805Y386043*
X413169Y386543*
X413351Y387293*
Y387543*
X413169Y388293*
X412805Y388793*
X412260Y389043*
X412078*
X411533Y388793*
X411169Y388293*
X410987Y387543*
X418260Y392043D02*
X414987Y384043D01*
X422078Y390293D02*
X421896Y390793D01*
X421351Y391043*
X420987*
X420442Y390793*
X420078Y390043*
X419896Y388793*
Y387543*
X420078Y386543*
X420442Y386043*
X420987Y385793*
X421169*
X421714Y386043*
X422078Y386543*
X422260Y387293*
Y387543*
X422078Y388293*
X421714Y388793*
X421169Y389043*
X420987*
X420442Y388793*
X420078Y388293*
X419896Y387543*
X440623Y391043D02*
Y385793D01*
Y391043D02*
X441896D01*
X442442Y390793*
X442805Y390293*
X442987Y389793*
X443169Y389043*
Y387793*
X442987Y387043*
X442805Y386543*
X442442Y386043*
X441896Y385793*
X440623*
X444805Y390043D02*
X445169Y390293D01*
X445714Y391043*
Y385793*
X448442Y391043D02*
X447896Y390793D01*
X447533Y390043*
X447351Y388793*
Y388043*
X447533Y386793*
X447896Y386043*
X448442Y385793*
X448805*
X449351Y386043*
X449714Y386793*
X449896Y388043*
Y388793*
X449714Y390043*
X449351Y390793*
X448805Y391043*
X448442*
X452623D02*
X452078Y390793D01*
X451714Y390043*
X451533Y388793*
Y388043*
X451714Y386793*
X452078Y386043*
X452623Y385793*
X452987*
X453533Y386043*
X453896Y386793*
X454078Y388043*
Y388793*
X453896Y390043*
X453533Y390793*
X452987Y391043*
X452623*
X455714Y388793D02*
X458987D01*
X455714Y387293D02*
X458987D01*
X389533Y442355D02*
Y435793D01*
X391578Y440168D02*
Y435793D01*
Y438918D02*
X392260Y439855D01*
X392714Y440168*
X393396*
X393851Y439855*
X394078Y438918*
Y435793*
X396123Y440168D02*
Y435793D01*
Y438918D02*
X396805Y439855D01*
X397260Y440168*
X397942*
X398396Y439855*
X398623Y438918*
Y435793*
X401805Y440168D02*
X401351Y439855D01*
X400896Y439230*
X400669Y438293*
Y437668*
X400896Y436730*
X401351Y436105*
X401805Y435793*
X402487*
X402942Y436105*
X403396Y436730*
X403623Y437668*
Y438293*
X403396Y439230*
X402942Y439855*
X402487Y440168*
X401805*
X408169Y439230D02*
X407942Y439855D01*
X407260Y440168*
X406578*
X405896Y439855*
X405669Y439230*
X405896Y438605*
X406351Y438293*
X407487Y437980*
X407942Y437668*
X408169Y437043*
Y436730*
X407942Y436105*
X407260Y435793*
X406578*
X405896Y436105*
X405669Y436730*
X410896Y442355D02*
Y437043D01*
X411123Y436105*
X411578Y435793*
X412033*
X410214Y440168D02*
X411805D01*
X415214D02*
X414760Y439855D01*
X414305Y439230*
X414078Y438293*
Y437668*
X414305Y436730*
X414760Y436105*
X415214Y435793*
X415896*
X416351Y436105*
X416805Y436730*
X417033Y437668*
Y438293*
X416805Y439230*
X416351Y439855*
X415896Y440168*
X415214*
X419078D02*
Y435793D01*
Y438293D02*
X419305Y439230D01*
X419760Y439855*
X420214Y440168*
X420896*
X429760Y442355D02*
Y435793D01*
X428169Y442355D02*
X431351D01*
X433396Y438293D02*
X436123D01*
Y438918*
X435896Y439543*
X435669Y439855*
X435214Y440168*
X434533*
X434078Y439855*
X433623Y439230*
X433396Y438293*
Y437668*
X433623Y436730*
X434078Y436105*
X434533Y435793*
X435214*
X435669Y436105*
X436123Y436730*
X440896Y439230D02*
X440442Y439855D01*
X439987Y440168*
X439305*
X438851Y439855*
X438396Y439230*
X438169Y438293*
Y437668*
X438396Y436730*
X438851Y436105*
X439305Y435793*
X439987*
X440442Y436105*
X440896Y436730*
X442942Y442355D02*
Y435793D01*
Y438918D02*
X443623Y439855D01*
X444078Y440168*
X444760*
X445214Y439855*
X445442Y438918*
Y435793*
X447487Y440168D02*
Y435793D01*
Y438918D02*
X448169Y439855D01*
X448623Y440168*
X449305*
X449760Y439855*
X449987Y438918*
Y435793*
X453169Y440168D02*
X452714Y439855D01*
X452260Y439230*
X452033Y438293*
Y437668*
X452260Y436730*
X452714Y436105*
X453169Y435793*
X453851*
X454305Y436105*
X454760Y436730*
X454987Y437668*
Y438293*
X454760Y439230*
X454305Y439855*
X453851Y440168*
X453169*
X457033Y442355D02*
Y435793D01*
X460214Y440168D02*
X459760Y439855D01*
X459305Y439230*
X459078Y438293*
Y437668*
X459305Y436730*
X459760Y436105*
X460214Y435793*
X460896*
X461351Y436105*
X461805Y436730*
X462033Y437668*
Y438293*
X461805Y439230*
X461351Y439855*
X460896Y440168*
X460214*
X466805D02*
Y435168D01*
X466578Y434230*
X466351Y433918*
X465896Y433605*
X465214*
X464760Y433918*
X466805Y439230D02*
X466351Y439855D01*
X465896Y440168*
X465214*
X464760Y439855*
X464305Y439230*
X464078Y438293*
Y437668*
X464305Y436730*
X464760Y436105*
X465214Y435793*
X465896*
X466351Y436105*
X466805Y436730*
X469078Y440168D02*
X470442Y435793D01*
X471805Y440168D02*
X470442Y435793D01*
X469987Y434543*
X469533Y433918*
X469078Y433605*
X468851*
X482487Y440793D02*
X482260Y441418D01*
X481805Y442043*
X481351Y442355*
X480442*
X479987Y442043*
X479533Y441418*
X479305Y440793*
X479078Y439855*
Y438293*
X479305Y437355*
X479533Y436730*
X479987Y436105*
X480442Y435793*
X481351*
X481805Y436105*
X482260Y436730*
X482487Y437355*
X485669Y440168D02*
X485214Y439855D01*
X484760Y439230*
X484533Y438293*
Y437668*
X484760Y436730*
X485214Y436105*
X485669Y435793*
X486351*
X486805Y436105*
X487260Y436730*
X487487Y437668*
Y438293*
X487260Y439230*
X486805Y439855*
X486351Y440168*
X485669*
X489533D02*
Y435793D01*
Y438293D02*
X489760Y439230D01*
X490214Y439855*
X490669Y440168*
X491351*
X493396D02*
Y433605D01*
Y439230D02*
X493851Y439855D01*
X494305Y440168*
X494987*
X495442Y439855*
X495896Y439230*
X496123Y438293*
Y437668*
X495896Y436730*
X495442Y436105*
X494987Y435793*
X494305*
X493851Y436105*
X493396Y436730*
X499305Y440168D02*
X498851Y439855D01*
X498396Y439230*
X498169Y438293*
Y437668*
X498396Y436730*
X498851Y436105*
X499305Y435793*
X499987*
X500442Y436105*
X500896Y436730*
X501123Y437668*
Y438293*
X500896Y439230*
X500442Y439855*
X499987Y440168*
X499305*
X503169D02*
Y435793D01*
Y438293D02*
X503396Y439230D01*
X503851Y439855*
X504305Y440168*
X504987*
X509760D02*
Y435793D01*
Y439230D02*
X509305Y439855D01*
X508851Y440168*
X508169*
X507714Y439855*
X507260Y439230*
X507033Y438293*
Y437668*
X507260Y436730*
X507714Y436105*
X508169Y435793*
X508851*
X509305Y436105*
X509760Y436730*
X512487Y442355D02*
Y437043D01*
X512714Y436105*
X513169Y435793*
X513623*
X511805Y440168D02*
X513396D01*
X515669Y442355D02*
X515896Y442043D01*
X516123Y442355*
X515896Y442668*
X515669Y442355*
X515896Y440168D02*
Y435793D01*
X519305Y440168D02*
X518851Y439855D01*
X518396Y439230*
X518169Y438293*
Y437668*
X518396Y436730*
X518851Y436105*
X519305Y435793*
X519987*
X520442Y436105*
X520896Y436730*
X521123Y437668*
Y438293*
X520896Y439230*
X520442Y439855*
X519987Y440168*
X519305*
X523169D02*
Y435793D01*
Y438918D02*
X523851Y439855D01*
X524305Y440168*
X524987*
X525442Y439855*
X525669Y438918*
Y435793*
X346083Y417143D02*
Y411893D01*
Y417143D02*
X347719D01*
X348264Y416893*
X348446Y416643*
X348628Y416143*
Y415393*
X348446Y414893*
X348264Y414643*
X347719Y414393*
X346083*
X351719Y417143D02*
X350264Y411893D01*
X351719Y417143D02*
X353173Y411893D01*
X350810Y413643D02*
X352628D01*
X354810Y417143D02*
Y411893D01*
Y417143D02*
X356446D01*
X356992Y416893*
X357173Y416643*
X357355Y416143*
Y415643*
X357173Y415143*
X356992Y414893*
X356446Y414643*
X354810*
X356083D02*
X357355Y411893D01*
X360264Y417143D02*
Y411893D01*
X358992Y417143D02*
X361537D01*
X367355D02*
Y411893D01*
Y417143D02*
X369901Y411893D01*
Y417143D02*
Y411893D01*
X372628Y417143D02*
X372264Y416893D01*
X371901Y416393*
X371719Y415893*
X371537Y415143*
Y413893*
X371719Y413143*
X371901Y412643*
X372264Y412143*
X372628Y411893*
X373355*
X373719Y412143*
X374083Y412643*
X374264Y413143*
X374446Y413893*
Y415143*
X374264Y415893*
X374083Y416393*
X373719Y416893*
X373355Y417143*
X372628*
X376264Y412393D02*
X376083Y412143D01*
X376264Y411893*
X376446Y412143*
X376264Y412393*
X368851Y402918D02*
X367033Y399418D01*
X369760*
X368851Y402918D02*
Y397668D01*
X375578Y402918D02*
Y397668D01*
X377760*
X380851Y402918D02*
X379396Y397668D01*
X380851Y402918D02*
X382305Y397668D01*
X379942Y399418D02*
X381760D01*
X383942Y402918D02*
X385396Y400418D01*
Y397668*
X386851Y402918D02*
X385396Y400418D01*
X388487Y402918D02*
Y397668D01*
Y402918D02*
X390851D01*
X388487Y400418D02*
X389942D01*
X388487Y397668D02*
X390851D01*
X392487Y402918D02*
Y397668D01*
Y402918D02*
X394123D01*
X394669Y402668*
X394851Y402418*
X395033Y401918*
Y401418*
X394851Y400918*
X394669Y400668*
X394123Y400418*
X392487*
X393760D02*
X395033Y397668D01*
X396669Y399918D02*
X399942D01*
X401578Y402918D02*
Y397668D01*
Y402918D02*
X403942D01*
X401578Y400418D02*
X403033D01*
X405578Y402918D02*
Y397668D01*
Y402918D02*
X407214D01*
X407760Y402668*
X407942Y402418*
X408123Y401918*
Y401418*
X407942Y400918*
X407760Y400668*
X407214Y400418*
X405578*
X406851D02*
X408123Y397668D01*
X411578Y402918D02*
X409760Y399418D01*
X412487*
X411578Y402918D02*
Y397668D01*
X414123Y399918D02*
X417396D01*
X419033Y401918D02*
X419396Y402168D01*
X419942Y402918*
Y397668*
X421760Y398168D02*
X421578Y397918D01*
X421760Y397668*
X421942Y397918*
X421760Y398168*
X424669Y402918D02*
X424123Y402668D01*
X423760Y401918*
X423578Y400668*
Y399918*
X423760Y398668*
X424123Y397918*
X424669Y397668*
X425033*
X425578Y397918*
X425942Y398668*
X426123Y399918*
Y400668*
X425942Y401918*
X425578Y402668*
X425033Y402918*
X424669*
X428305D02*
Y398668D01*
X428487Y397918*
X428851Y397668*
X429214*
X427760Y401168D02*
X429033D01*
X509714Y402293D02*
Y402543D01*
X509896Y403043*
X510078Y403293*
X510442Y403543*
X511169*
X511533Y403293*
X511714Y403043*
X511896Y402543*
Y402043*
X511714Y401543*
X511351Y400793*
X509533Y398293*
X512078*
X514805Y403543D02*
X514260Y403293D01*
X513896Y402543*
X513714Y401293*
Y400543*
X513896Y399293*
X514260Y398543*
X514805Y398293*
X515169*
X515714Y398543*
X516078Y399293*
X516260Y400543*
Y401293*
X516078Y402543*
X515714Y403293*
X515169Y403543*
X514805*
X517896Y402543D02*
X518260Y402793D01*
X518805Y403543*
Y398293*
X522260Y403543D02*
X520442Y400043D01*
X523169*
X522260Y403543D02*
Y398293D01*
X524987Y398793D02*
X524805Y398543D01*
X524987Y398293*
X525169Y398543*
X524987Y398793*
X527169Y403543D02*
X529169D01*
X528078Y401543*
X528623*
X528987Y401293*
X529169Y401043*
X529351Y400293*
Y399793*
X529169Y399043*
X528805Y398543*
X528260Y398293*
X527714*
X527169Y398543*
X526987Y398793*
X526805Y399293*
X531169Y398793D02*
X530987Y398543D01*
X531169Y398293*
X531351Y398543*
X531169Y398793*
X533169Y402293D02*
Y402543D01*
X533351Y403043*
X533533Y403293*
X533896Y403543*
X534623*
X534987Y403293*
X535169Y403043*
X535351Y402543*
Y402043*
X535169Y401543*
X534805Y400793*
X532987Y398293*
X535533*
X539533Y403543D02*
X537714D01*
X537533Y401293*
X537714Y401543*
X538260Y401793*
X538805*
X539351Y401543*
X539714Y401043*
X539896Y400293*
X539714Y399793*
X539533Y399043*
X539169Y398543*
X538623Y398293*
X538078*
X537533Y398543*
X537351Y398793*
X537169Y399293*
X484033Y422855D02*
Y416293D01*
X486760*
X491533Y420668D02*
Y416293D01*
Y419730D02*
X491078Y420355D01*
X490623Y420668*
X489942*
X489487Y420355*
X489033Y419730*
X488805Y418793*
Y418168*
X489033Y417230*
X489487Y416605*
X489942Y416293*
X490623*
X491078Y416605*
X491533Y417230*
X493805Y420668D02*
X495169Y416293D01*
X496533Y420668D02*
X495169Y416293D01*
X494714Y415043*
X494260Y414418*
X493805Y414105*
X493578*
X498578Y418793D02*
X501305D01*
Y419418*
X501078Y420043*
X500851Y420355*
X500396Y420668*
X499714*
X499260Y420355*
X498805Y419730*
X498578Y418793*
Y418168*
X498805Y417230*
X499260Y416605*
X499714Y416293*
X500396*
X500851Y416605*
X501305Y417230*
X503351Y420668D02*
Y416293D01*
Y418793D02*
X503578Y419730D01*
X504033Y420355*
X504487Y420668*
X505169*
X507442Y421293D02*
Y421605D01*
X507669Y422230*
X507896Y422543*
X508351Y422855*
X509260*
X509714Y422543*
X509942Y422230*
X510169Y421605*
Y420980*
X509942Y420355*
X509487Y419418*
X507214Y416293*
X510396*
X514033Y424105D02*
X513578Y423480D01*
X513123Y422543*
X512669Y421293*
X512442Y419730*
Y418480*
X512669Y416918*
X513123Y415668*
X513578Y414730*
X514033Y414105*
X516078Y422855D02*
X517896Y416293D01*
X519714Y422855D02*
X517896Y416293D01*
X525169Y421293D02*
X524942Y421918D01*
X524487Y422543*
X524033Y422855*
X523123*
X522669Y422543*
X522214Y421918*
X521987Y421293*
X521760Y420355*
Y418793*
X521987Y417855*
X522214Y417230*
X522669Y416605*
X523123Y416293*
X524033*
X524487Y416605*
X524942Y417230*
X525169Y417855*
X530623Y421293D02*
X530396Y421918D01*
X529942Y422543*
X529487Y422855*
X528578*
X528123Y422543*
X527669Y421918*
X527442Y421293*
X527214Y420355*
Y418793*
X527442Y417855*
X527669Y417230*
X528123Y416605*
X528578Y416293*
X529487*
X529942Y416605*
X530396Y417230*
X530623Y417855*
X532669Y424105D02*
X533123Y423480D01*
X533578Y422543*
X534033Y421293*
X534260Y419730*
Y418480*
X534033Y416918*
X533578Y415668*
X533123Y414730*
X532669Y414105*
X500000Y538583D02*
X453636D01*
X500000D02*
X490000Y536083D01*
Y541083*
X500000Y538583*
X370079D02*
X416500D01*
X370079D02*
X380079Y541083D01*
Y536083*
X370079Y538583*
X500000Y533740D02*
Y543583D01*
X370079Y533740D02*
Y543583D01*
X419955Y541363D02*
X422455D01*
X422455D02*
X421091Y538863D01*
X421091D02*
X421773D01*
X421773D02*
X422227Y538550D01*
X422455Y538238*
X422455D02*
X422682Y537300D01*
Y536675*
X422455Y535738*
X422455D02*
X422000Y535113D01*
X422000D02*
X421318Y534800D01*
X420636*
X419955Y535113*
X419955D02*
X419727Y535425D01*
X419500Y536050*
X425182Y541363D02*
X427682D01*
X427682D02*
X426318Y538863D01*
X426318D02*
X427000D01*
X427000D02*
X427455Y538550D01*
X427682Y538238*
X427682D02*
X427909Y537300D01*
Y536675*
X427682Y535738*
X427682D02*
X427227Y535113D01*
X427227D02*
X426545Y534800D01*
X425864*
X425182Y535113*
X425182D02*
X424955Y535425D01*
X424727Y536050*
X430182Y535425D02*
X429955Y535113D01*
X429955D02*
X430182Y534800D01*
X430409Y535113*
X430409D02*
X430182Y535425D01*
X433818Y541363D02*
X433136Y541050D01*
X432682Y540113*
X432682D02*
X432455Y538550D01*
Y537613*
X432455D02*
X432682Y536050D01*
X433136Y535113*
X433136D02*
X433818Y534800D01*
X434273*
X434955Y535113*
X434955D02*
X435409Y536050D01*
X435636Y537613*
X435636D02*
Y538550D01*
X435409Y540113*
X435409D02*
X434955Y541050D01*
X434273Y541363*
X434273D02*
X433818D01*
X437682Y539175D02*
Y534800D01*
Y537925D02*
X438364Y538863D01*
X438364D02*
X438818Y539175D01*
X439500*
X439955Y538863*
X439955D02*
X440182Y537925D01*
Y534800*
Y537925D02*
X440864Y538863D01*
X440864D02*
X441318Y539175D01*
X442000*
X442455Y538863*
X442455D02*
X442682Y537925D01*
Y534800*
X444727Y539175D02*
Y534800D01*
Y537925D02*
X445409Y538863D01*
X445409D02*
X445864Y539175D01*
X446545*
X447000Y538863*
X447000D02*
X447227Y537925D01*
Y534800*
Y537925D02*
X447909Y538863D01*
X447909D02*
X448364Y539175D01*
X449045*
X449500Y538863*
X449500D02*
X449727Y537925D01*
Y534800*
X466958Y547480D02*
X481958D01*
X466958D02*
X476958Y549980D01*
Y544980*
X466958Y547480*
X462158D02*
X447158D01*
X462158D02*
X452158Y544980D01*
Y549980*
X462158Y547480*
X466958Y532597D02*
Y552480D01*
X462158Y532599D02*
Y552480D01*
X451063Y561690D02*
X451518Y562003D01*
X452199Y562940*
Y556378*
X454472Y557003D02*
X454245Y556690D01*
X454472Y556378*
X454699Y556690*
X454472Y557003*
X456972Y561378D02*
Y561690D01*
X457199Y562315*
X457427Y562628*
X457881Y562940*
X458790*
X459245Y562628*
X459472Y562315*
X459699Y561690*
Y561065*
X459472Y560440*
X459018Y559503*
X456745Y556378*
X459927*
X461972Y560753D02*
Y556378D01*
Y559503D02*
X462654Y560440D01*
X463108Y560753*
X463790*
X464245Y560440*
X464472Y559503*
Y556378*
Y559503D02*
X465154Y560440D01*
X465608Y560753*
X466290*
X466745Y560440*
X466972Y559503*
Y556378*
X469018Y560753D02*
Y556378D01*
Y559503D02*
X469699Y560440D01*
X470154Y560753*
X470836*
X471290Y560440*
X471518Y559503*
Y556378*
Y559503D02*
X472199Y560440D01*
X472654Y560753*
X473336*
X473790Y560440*
X474018Y559503*
Y556378*
X464573Y476424D02*
X464576D01*
X465234Y474136D02*
X465237D01*
X465234D02*
X470411Y465222D01*
X465607Y463835*
X465234Y474136*
X469397Y459725*
X479397*
X482397Y462537D02*
Y455975D01*
Y462537D02*
X484442D01*
X485124Y462225*
X485351Y461912*
X485579Y461287*
Y460662*
X485351Y460037*
X485124Y459725*
X484442Y459412*
X482397*
X483988D02*
X485579Y455975D01*
X488988Y462537D02*
X488306Y462225D01*
X487851Y461287*
X487624Y459725*
Y458787*
X487851Y457225*
X488306Y456287*
X488988Y455975*
X489442*
X490124Y456287*
X490579Y457225*
X490806Y458787*
Y459725*
X490579Y461287*
X490124Y462225*
X489442Y462537*
X488988*
X493079Y456600D02*
X492851Y456287D01*
X493079Y455975*
X493306Y456287*
X493079Y456600*
X498079Y461600D02*
X497851Y462225D01*
X497169Y462537*
X496715*
X496033Y462225*
X495579Y461287*
X495351Y459725*
Y458162*
X495579Y456912*
X496033Y456287*
X496715Y455975*
X496942*
X497624Y456287*
X498079Y456912*
X498306Y457850*
Y458162*
X498079Y459100*
X497624Y459725*
X496942Y460037*
X496715*
X496033Y459725*
X495579Y459100*
X495351Y458162*
X500351Y460350D02*
Y455975D01*
Y459100D02*
X501033Y460037D01*
X501488Y460350*
X502169*
X502624Y460037*
X502851Y459100*
Y455975*
Y459100D02*
X503533Y460037D01*
X503988Y460350*
X504669*
X505124Y460037*
X505351Y459100*
Y455975*
X507397Y460350D02*
Y455975D01*
Y459100D02*
X508079Y460037D01*
X508533Y460350*
X509215*
X509669Y460037*
X509897Y459100*
Y455975*
Y459100D02*
X510579Y460037D01*
X511033Y460350*
X511715*
X512169Y460037*
X512397Y459100*
Y455975*
X499987Y553671D02*
X427082D01*
X499987D02*
X489987Y551171D01*
Y556171*
X499987Y553671*
X316813D02*
X389718D01*
X316813D02*
X326813Y556171D01*
Y551171*
X316813Y553671*
X499987Y505022D02*
Y558671D01*
X316813Y504841D02*
Y558671D01*
X394991Y556483D02*
X392718Y552108D01*
X396127*
X394991Y556483D02*
Y549921D01*
X400900Y555546D02*
X400672Y556171D01*
X399991Y556483*
X399536*
X398854Y556171*
X398400Y555233*
X398172Y553671*
Y552108*
X398400Y550858*
X398854Y550233*
X399536Y549921*
X399763*
X400445Y550233*
X400900Y550858*
X401127Y551796*
Y552108*
X400900Y553046*
X400445Y553671*
X399763Y553983*
X399536*
X398854Y553671*
X398400Y553046*
X398172Y552108*
X403400Y550546D02*
X403172Y550233D01*
X403400Y549921*
X403627Y550233*
X403400Y550546*
X408627Y556483D02*
X406354D01*
X406127Y553671*
X406354Y553983*
X407036Y554296*
X407718*
X408400Y553983*
X408854Y553358*
X409082Y552421*
X408854Y551796*
X408627Y550858*
X408172Y550233*
X407491Y549921*
X406809*
X406127Y550233*
X405900Y550546*
X405672Y551171*
X411127Y554296D02*
Y549921D01*
Y553046D02*
X411809Y553983D01*
X412263Y554296*
X412945*
X413400Y553983*
X413627Y553046*
Y549921*
Y553046D02*
X414309Y553983D01*
X414763Y554296*
X415445*
X415900Y553983*
X416127Y553046*
Y549921*
X418172Y554296D02*
Y549921D01*
Y553046D02*
X418854Y553983D01*
X419309Y554296*
X419991*
X420445Y553983*
X420672Y553046*
Y549921*
Y553046D02*
X421354Y553983D01*
X421809Y554296*
X422491*
X422945Y553983*
X423172Y553046*
Y549921*
G54D35*
X388933Y426918D02*
Y424621D01*
X390763Y426589D02*
X390604Y426808D01*
X390365Y426918*
X390047*
X389808Y426808*
X389649Y426589*
Y426371*
X389729Y426152*
X389808Y426043*
X389967Y425933*
X390444Y425714*
X390604Y425605*
X390683Y425496*
X390763Y425277*
Y424949*
X390604Y424730*
X390365Y424621*
X390047*
X389808Y424730*
X389649Y424949*
X392513Y426152D02*
X392433Y425824D01*
X392274Y425605*
X392035Y425496*
X391956*
X391717Y425605*
X391558Y425824*
X391479Y426152*
Y426261*
X391558Y426589*
X391717Y426808*
X391956Y426918*
X392035*
X392274Y426808*
X392433Y426589*
X392513Y426152*
Y425605*
X392433Y425058*
X392274Y424730*
X392035Y424621*
X391876*
X391638Y424730*
X391558Y424949*
X393706Y426918D02*
X393467Y426808D01*
X393308Y426480*
X393229Y425933*
Y425605*
X393308Y425058*
X393467Y424730*
X393706Y424621*
X393865*
X394104Y424730*
X394263Y425058*
X394342Y425605*
Y425933*
X394263Y426480*
X394104Y426808*
X393865Y426918*
X393706*
X395217D02*
X396092D01*
X395615Y426043*
X395854*
X396013Y425933*
X396092Y425824*
X396172Y425496*
Y425277*
X396092Y424949*
X395933Y424730*
X395694Y424621*
X395456*
X395217Y424730*
X395138Y424839*
X395058Y425058*
X398001Y426589D02*
X397842Y426808D01*
X397604Y426918*
X397285*
X397047Y426808*
X396888Y426589*
Y426371*
X396967Y426152*
X397047Y426043*
X397206Y425933*
X397683Y425714*
X397842Y425605*
X397922Y425496*
X398001Y425277*
Y424949*
X397842Y424730*
X397604Y424621*
X397285*
X397047Y424730*
X396888Y424949*
X399831Y426918D02*
X398717Y424621D01*
Y426918D02*
X399831D01*
X398717Y424621D02*
X399831D01*
X401024Y426918D02*
X400865Y426808D01*
X400706Y426589*
X400626Y426371*
X400547Y426043*
Y425496*
X400626Y425168*
X400706Y424949*
X400865Y424730*
X401024Y424621*
X401342*
X401501Y424730*
X401660Y424949*
X401740Y425168*
X401819Y425496*
Y426043*
X401740Y426371*
X401660Y426589*
X401501Y426808*
X401342Y426918*
X401024*
X401263Y425058D02*
X401740Y424402D01*
X403013Y426918D02*
X402774Y426808D01*
X402615Y426480*
X402535Y425933*
Y425605*
X402615Y425058*
X402774Y424730*
X403013Y424621*
X403172*
X403410Y424730*
X403569Y425058*
X403649Y425605*
Y425933*
X403569Y426480*
X403410Y426808*
X403172Y426918*
X403013*
X405319Y426589D02*
X405240Y426808D01*
X405001Y426918*
X404842*
X404604Y426808*
X404444Y426480*
X404365Y425933*
Y425386*
X404444Y424949*
X404604Y424730*
X404842Y424621*
X404922*
X405160Y424730*
X405319Y424949*
X405399Y425277*
Y425386*
X405319Y425714*
X405160Y425933*
X404922Y426043*
X404842*
X404604Y425933*
X404444Y425714*
X404365Y425386*
X406910Y426918D02*
X406115Y425386D01*
X407308*
X406910Y426918D02*
Y424621D01*
X408024Y425605D02*
X409456D01*
X410967Y426918D02*
X410172Y425386D01*
X411365*
X410967Y426918D02*
Y424621D01*
X413194Y426918D02*
X412081Y424621D01*
Y426918D02*
X413194D01*
X412081Y424621D02*
X413194D01*
X414388Y426918D02*
X414149Y426808D01*
X413990Y426480*
X413910Y425933*
Y425605*
X413990Y425058*
X414149Y424730*
X414388Y424621*
X414547*
X414785Y424730*
X414944Y425058*
X415024Y425605*
Y425933*
X414944Y426480*
X414785Y426808*
X414547Y426918*
X414388*
X416774Y426152D02*
X416694Y425824D01*
X416535Y425605*
X416297Y425496*
X416217*
X415979Y425605*
X415819Y425824*
X415740Y426152*
Y426261*
X415819Y426589*
X415979Y426808*
X416217Y426918*
X416297*
X416535Y426808*
X416694Y426589*
X416774Y426152*
Y425605*
X416694Y425058*
X416535Y424730*
X416297Y424621*
X416138*
X415899Y424730*
X415819Y424949*
X417490Y425605D02*
X418922D01*
X420194Y426918D02*
Y424621D01*
X419638Y426918D02*
X420751D01*
X421467D02*
Y424621D01*
Y426918D02*
X422183D01*
X422422Y426808*
X422501Y426699*
X422581Y426480*
Y426261*
X422501Y426043*
X422422Y425933*
X422183Y425824*
X421467D02*
X422183D01*
X422422Y425714*
X422501Y425605*
X422581Y425386*
Y425058*
X422501Y424839*
X422422Y424730*
X422183Y424621*
X421467*
X425683Y427355D02*
X425524Y427136D01*
X425365Y426808*
X425206Y426371*
X425126Y425824*
Y425386*
X425206Y424839*
X425365Y424402*
X425524Y424074*
X425683Y423855*
X426399Y426918D02*
Y424621D01*
Y426918D02*
X427115D01*
X427354Y426808*
X427433Y426699*
X427513Y426480*
Y426261*
X427433Y426043*
X427354Y425933*
X427115Y425824*
X426399*
X426956D02*
X427513Y424621D01*
X428229Y426918D02*
Y424621D01*
X430138Y426371D02*
X430058Y426589D01*
X429899Y426808*
X429740Y426918*
X429422*
X429263Y426808*
X429104Y426589*
X429024Y426371*
X428944Y426043*
Y425496*
X429024Y425168*
X429104Y424949*
X429263Y424730*
X429422Y424621*
X429740*
X429899Y424730*
X430058Y424949*
X430138Y425168*
X430854Y426918D02*
Y424621D01*
X431967Y426918D02*
Y424621D01*
X430854Y425824D02*
X431967D01*
X432683Y426918D02*
Y424621D01*
Y426918D02*
X433319Y424621D01*
X433956Y426918D02*
X433319Y424621D01*
X433956Y426918D02*
Y424621D01*
X435308Y426918D02*
X434672Y424621D01*
X435308Y426918D02*
X435944Y424621D01*
X434910Y425386D02*
X435706D01*
X436660Y426918D02*
X437774Y424621D01*
Y426918D02*
X436660Y424621D01*
X438490Y427355D02*
X438649Y427136D01*
X438808Y426808*
X438967Y426371*
X439047Y425824*
Y425386*
X438967Y424839*
X438808Y424402*
X438649Y424074*
X438490Y423855*
X491950Y482800D02*
G75*
G03X491950I-1650J0D01*
G01X451150Y524000D02*
G03X451150I-1550J0D01*
G01X410050Y523500D02*
G03X410050I-1550J0D01*
G01X375781Y511922D02*
G03X375781I-1550J0D01*
G01X384450Y490200D02*
G03X384450I-1550J0D01*
G01X387650Y478600D02*
G03X387650I-1550J0D01*
G01X418450Y479000D02*
G03X418450I-1550J0D01*
G01X446601Y477320D02*
G03X446601I-1550J0D01*
G01X457840Y477102D02*
G03X457840I-1550J0D01*
G01X482550Y500300D02*
G03X482550I-1550J0D01*
G01X478650Y505200D02*
G03X478650I-1550J0D01*
G01X481750Y508200D02*
G03X481750I-1650J0D01*
G01X498754Y514841D02*
Y526089D01*
G03X498504Y526339I-250J-0*
G01X497532*
G03X497292Y526021I0J-250*
G01X496167Y524094D02*
G03X497292Y526021I-367J1506D01*
G01X496167Y524094D02*
G03X495979Y523812I59J-243D01*
G01X495180Y520873D02*
G03X495979Y523812I-2857J2355D01*
G01X495180Y520873D02*
G03X495238Y520504I193J-159D01*
G01X492852Y519274D02*
G03X495238Y520504I1548J-74D01*
G01X492852Y519274D02*
G03X492584Y519535I-250J11D01*
G01X492323Y519526D02*
G03X492584Y519535I-0J3702D01*
G01X492323Y519526D02*
X487992D01*
X485437Y525908D02*
G03X487992Y519526I2555J-2680D01*
G01X485437Y525908D02*
G03X485264Y526339I-173J181D01*
G01X481162*
X481114Y526340D02*
G03X481162Y526339I48J1249D01*
G01X481114Y526340D02*
X481054Y526342D01*
G03X481044I-10J-250*
G01X474363*
G03X474146Y525968I0J-250*
G01X471454D02*
G03X474146I1346J-768D01*
G01X471454D02*
G03X471237Y526342I-217J124D01*
G01X468504*
G03X468254Y526092I-0J-250*
G01Y523579*
X464624Y519950D02*
G03X468254Y523579I0J3629D01*
G01X464624Y519950D02*
X464590D01*
X460954Y523586D02*
G03X464590Y519950I3636J-0D01*
G01X460954Y523586D02*
Y526094D01*
X460954D02*
G03X460704Y526344I-250J-0D01*
G01X460704D02*
X455661D01*
G03X455430Y525997I-0J-250*
G01X452570D02*
G03X455430I1430J-597D01*
G01X452570D02*
G03X452339Y526344I-231J97D01*
G01X446562*
G03X446345Y525970I0J-250*
G01X443655D02*
G03X446345I1345J-770D01*
G01X443655D02*
G03X443438Y526344I-217J124D01*
G01X415661*
G03X415430Y525997I-0J-250*
G01X412570D02*
G03X415430I1430J-597D01*
G01X412570D02*
G03X412339Y526344I-231J97D01*
G01X390731*
G03X390491Y526025I-0J-250*
G01X387509D02*
G03X390491I1491J-425D01*
G01X387509D02*
G03X387269Y526344I-240J69D01*
G01X370419*
G03X370220Y525943I0J-250*
G01X370381Y523498D02*
G03X370220Y525943I-1949J1100D01*
G01X370381Y523498D02*
G03X370384Y523246I217J-123D01*
G01X370397Y520957D02*
G03X370384Y523246I-1933J1134D01*
G01X370397Y520957D02*
G03Y520705I215J-126D01*
G01X369911Y517870D02*
G03X370397Y520705I-1445J1707D01*
G01X369911Y517870D02*
G03X369823Y517680I162J-190D01*
G01Y516646*
G03X369905Y516460I250J-0*
G01X370376Y513777D02*
G03X369905Y516460I-1963J1039D01*
G01X370376Y513777D02*
G03X370379Y513536I221J-117D01*
G01X370389Y511356D02*
G03X370379Y513536I-1942J1082D01*
G01X370389Y511356D02*
G03X370391Y511109I219J-121D01*
G01X370388Y508873D02*
G03X370391Y511109I-1922J1121D01*
G01X370388Y508873D02*
G03X370389Y508619I216J-126D01*
G01X370407Y506366D02*
G03X370389Y508619I-1939J1111D01*
G01X370407Y506366D02*
G03X370408Y506116I217J-125D01*
G01X370405Y503856D02*
G03X370408Y506116I-1943J1133D01*
G01X370405Y503856D02*
G03X370403Y503606I216J-126D01*
G01X370409Y501400D02*
G03X370403Y503606I-1956J1098D01*
G01X370409Y501400D02*
G03X370410Y501155I218J-122D01*
G01X370387Y498915D02*
G03X370410Y501155I-1924J1139D01*
G01X370387Y498915D02*
G03X370386Y498661I215J-128D01*
G01X370418Y496464D02*
G03X370386Y498661I-1952J1071D01*
G01X370418Y496464D02*
G03X370424Y496213I219J-120D01*
G01X370429Y493873D02*
G03X370424Y496213I-1917J1166D01*
G01X370429Y493873D02*
G03X370422Y493624I213J-130D01*
G01X370411Y491469D02*
G03X370422Y493624I-1957J1088D01*
G01X370411Y491469D02*
G03X370413Y491224I218J-121D01*
G01X370400Y488974D02*
G03X370413Y491223I-1930J1135D01*
G01X370400Y488974D02*
G03Y488722I216J-126D01*
G01X370424Y486514D02*
G03X370400Y488722I-1958J1082D01*
G01X370424Y486514D02*
G03X370423Y486273I219J-121D01*
G01X369911Y483503D02*
G03X370423Y486273I-1451J1701D01*
G01X369911Y483503D02*
G03X369823Y483313I162J-190D01*
G01Y482077*
G03X369909Y481889I250J0*
G01X370377Y479082D02*
G03X369909Y481889I-1930J1121D01*
G01X370377Y479082D02*
G03X370373Y478838I216J-125D01*
G01X370341Y476654D02*
G03X370373Y478838I-1934J1121D01*
G01X370341Y476654D02*
G03X370342Y476401I216J-126D01*
G01X370291Y474027D02*
G03X370342Y476401I-1875J1228D01*
G01X370291Y474027D02*
G03X370500Y473640I209J-137D01*
G01X375592*
G03X375816Y474003I0J250*
G01X378584D02*
G03X375816I-1384J697D01*
G01X378584D02*
G03X378808Y473640I224J-113D01*
G01X392410*
G03X392617Y474031I-0J250*
G01X395183D02*
G03X392617I-1283J869D01*
G01X395183D02*
G03X395390Y473640I207J-141D01*
G01X400747*
G03X400991Y473947I0J250*
G01X404009D02*
G03X400991I-1509J353D01*
G01X404009D02*
G03X404253Y473640I244J-57D01*
G01X421559*
G03X421783Y474002I-0J250*
G01X421649Y474399D02*
G03X421783Y474002I1522J293D01*
G01X421649Y474399D02*
G03X421397Y474601I-246J-48D01*
G01X422880Y476444D02*
G03X421397Y474601I-1522J-293D01*
G01X422880Y476444D02*
G03X423132Y476241I246J47D01*
G01X424559Y474002D02*
G03X423132Y476241I-1388J690D01*
G01X424559Y474002D02*
G03X424782Y473640I223J-112D01*
G01X460704*
G03X460954Y473890I-0J250*
G01Y476413*
X464592Y480051D02*
G03X460954Y476413I-0J-3638D01*
G01X464592Y480051D02*
X464619D01*
X468251Y476419D02*
G03X464619Y480051I-3632J0D01*
G01X468251Y476419D02*
Y473889D01*
G03X468501Y473639I250J0*
G01X485288*
G03X485459Y474071I-0J250*
G01X487992Y480474D02*
G03X485459Y474071I0J-3702D01*
G01X487992Y480474D02*
X492323D01*
X495409Y478818D02*
G03X492323Y480474I-3086J-2046D01*
G01X495409Y478818D02*
G03X495781Y478768I208J139D01*
G01X498267Y478100D02*
G03X495781Y478768I-1467J-500D01*
G01X498267Y478100D02*
G03X498754Y478181I237J81D01*
G01Y489543*
G03X498406Y489773I-250J0*
G01X496608Y492190D02*
G03X498406Y489773I1192J-990D01*
G01X496608Y492190D02*
G03Y492510I-193J160D01*
G01X498406Y494927D02*
G03X496608Y492510I-606J-1427D01*
G01X498406Y494927D02*
G03X498754Y495157I98J230D01*
G01Y502372*
G03X498434Y502612I-250J-0*
G01Y505588D02*
G03Y502612I-434J-1488D01*
G01Y505588D02*
G03X498754Y505828I70J240D01*
G01Y512359*
G03X498323Y512531I-250J-0*
G01Y514669D02*
G03Y512531I-1123J-1069D01*
G01Y514669D02*
G03X498754Y514841I181J172D01*
G01X491950Y482800D02*
G03X491950I-1650J0D01*
G01X492855Y505189D02*
G03X491654Y506813I345J1511D01*
G01X492855Y505189D02*
G03X492549Y504952I-56J-244D01*
G01X490553Y503387D02*
G03X492549Y504952I347J1613D01*
G01X490553Y503387D02*
G03X490250Y503143I-53J-244D01*
G01Y498833*
G03X490566Y498592I250J0*
G01X492576Y496512D02*
G03X490566Y498592I-1576J488D01*
G01X492576Y496512D02*
G03X492668Y496236I239J-74D01*
G01X493318Y494579D02*
G03X492668Y496236I-1618J321D01*
G01X493318Y494579D02*
G03X493458Y494304I246J-49D01*
G01X493550Y491543D02*
G03X493458Y494304I-750J1357D01*
G01X493550Y491543D02*
G03X493425Y491279I121J-219D01*
G01X493442Y490842D02*
G03X493425Y491279I-1542J158D01*
G01X493442Y490842D02*
G03X493581Y490592I249J-25D01*
G01X494210Y488372D02*
G03X493581Y490592I-1310J828D01*
G01X494210Y488372D02*
G03X494221Y488088I211J-134D01*
G01X491471Y487926D02*
G03X494221Y488088I1429J-826D01*
G01X491471Y487926D02*
G03X491327Y488290I-216J125D01*
G01X490928Y488528D02*
G03X491327Y488290I672J672D01*
G01X490928Y488528D02*
X488727Y490729D01*
G03X488367Y490722I-177J-177*
G01X488340Y490694D02*
G03X488367Y490722I-672J672D01*
G01X488340Y490694D02*
X485813Y488167D01*
X485317Y487905D02*
G03X485813Y488167I-176J934D01*
G01X485317Y487905D02*
G03X485119Y487610I47J-245D01*
G01X482067Y487069D02*
G03X485119Y487610I1533J231D01*
G01X482067Y487069D02*
G03X481618Y487179I-247J-37D01*
G01X480697Y486579D02*
G03X481618Y487179I-331J1514D01*
G01X480697Y486579D02*
G03X480502Y486365I53J-244D01*
G01X477655Y485722D02*
G03X480502Y486365I1308J830D01*
G01X477655Y485722D02*
G03X477245Y485739I-211J-134D01*
G01X474487Y486402D02*
G03X477245Y485739I1525J276D01*
G01X474487Y486402D02*
G03X474469Y486460I-246J-45D01*
G01X474148Y487176*
G03X474096Y487250I-228J-102*
G01X473828Y487519*
X473550Y488190D02*
G03X473828Y487519I950J0D01*
G01X473550Y488190D02*
Y490108D01*
G03X473266Y490356I-250J0*
G01X472228Y490578D02*
G03X473266Y490356I824J1313D01*
G01X472228Y490578D02*
G03X471969Y490583I-133J-211D01*
G01X472013Y493235D02*
G03X471969Y490583I-824J-1313D01*
G01X472013Y493235D02*
G03X472272Y493230I133J211D01*
G01X474366Y492713D02*
G03X472272Y493230I-1314J-822D01*
G01X474366Y492713D02*
G03X474755Y492669I212J133D01*
G01X475728Y493643*
X476400Y493921D02*
G03X475728Y493643I0J-950D01*
G01X476400Y493921D02*
X478700D01*
X479372Y493643D02*
G03X478700Y493921I-672J-672D01*
G01X479372Y493643D02*
X480091Y492923D01*
G03X480268Y492850I177J177*
G01X483897*
G03X484074Y492923I-0J250*
G01X484211Y493060*
G03X484284Y493237I-177J177*
G01Y509692*
G03X484211Y509869I-250J-0*
G01X483036Y511044*
G03X482859Y511117I-177J-177*
G01X452654*
G03X452477Y511044I0J-250*
G01X452393Y510959*
G03X452462Y510557I177J-176*
G01X452724Y510372D02*
G03X452462Y510557I-672J-672D01*
G01X452724Y510372D02*
X453720Y509375D01*
G03X453897Y509302I177J177*
G01X458965*
G03X459192Y509448I-0J250*
G01X462090Y508374D02*
G03X459192Y509448I-1490J426D01*
G01X462090Y508374D02*
G03X462178Y508107I241J-69D01*
G01X462272Y508025D02*
G03X462178Y508107I-672J-672D01*
G01X462272Y508025D02*
X462350Y507947D01*
G03X462527Y507873I177J176*
G01X463908*
X464579Y507595D02*
G03X463908Y507873I-671J-672D01*
G01X464579Y507595D02*
X468369Y503806D01*
X468647Y503134D02*
G03X468369Y503806I-950J0D01*
G01X468647Y503134D02*
Y500820D01*
G03X469133Y500738I250J0*
G01X470239Y501734D02*
G03X469133Y500738I357J-1508D01*
G01X470239Y501734D02*
G03X470420Y502052I-57J243D01*
G01X472256Y501009D02*
G03X470420Y502052I-357J1508D01*
G01X472256Y501009D02*
G03X472075Y500690I57J-244D01*
G01X469133Y499714D02*
G03X472075Y500690I1463J512D01*
G01X469133Y499714D02*
G03X468647Y499631I-236J-83D01*
G01Y499101*
Y497573*
X468369Y496902D02*
G03X468647Y497573I-672J671D01*
G01X468369Y496902D02*
X465402Y493935D01*
G03X465394Y493589I176J-177*
G01X465790Y492735D02*
G03X465394Y493589I-1538J-194D01*
G01X465790Y492735D02*
G03X466026Y492517I248J32D01*
G01X464438Y490644D02*
G03X466026Y492517I1516J325D01*
G01X464438Y490644D02*
G03X463959Y490676I-244J-53D01*
G01X460991Y490844D02*
G03X463959Y490676I1509J356D01*
G01X460991Y490844D02*
G03X460757Y491037I-243J-57D01*
G01X459754Y493718D02*
G03X460757Y491037I1059J-1132D01*
G01X459754Y493718D02*
G03X459714Y494113I-171J182D01*
G01X459541Y494250D02*
G03X459714Y494113I672J672D01*
G01X459541Y494250D02*
X454314Y499477D01*
G03X454137Y499550I-177J-177*
G01X449342*
G03X449155Y499133I-0J-250*
G01X446845D02*
G03X449155I1155J-1033D01*
G01X446845D02*
G03X446658Y499550I-187J167D01*
G01X439997*
G03X439820Y499477I0J-250*
G01X437604Y497261*
G03X437748Y496836I177J-177*
G01X438821Y496177D02*
G03X437748Y496836I-1278J-877D01*
G01X438821Y496177D02*
G03X439188Y496127I206J141D01*
G01X439800Y496350D02*
G03X439188Y496127I0J-950D01*
G01X439800Y496350D02*
X442900D01*
X443572Y496072D02*
G03X442900Y496350I-672J-672D01*
G01X443572Y496072D02*
X445920Y493723D01*
G03X446097Y493650I177J177*
G01X446980*
X447652Y493372D02*
G03X446980Y493650I-672J-672D01*
G01X447652Y493372D02*
X447742Y493282D01*
G03X448166Y493423I177J176*
G01X450085Y491699D02*
G03X448166Y493423I-385J1501D01*
G01X450085Y491699D02*
G03X449921Y491350I62J-243D01*
G01X450121Y490923*
G03X450171Y490853I226J107*
G01X454100Y486923*
G03X454277Y486850I177J177*
G01X466911*
G03X467160Y487128I0J250*
G01X470240D02*
G03X467160I-1540J172D01*
G01X470240D02*
G03X470489Y486850I249J-28D01*
G01X470500*
X471172Y486572D02*
G03X470500Y486850I-672J-672D01*
G01X471172Y486572D02*
X475820Y481923D01*
G03X475997Y481850I177J177*
G01X477030*
X477702Y481572D02*
G03X477030Y481850I-672J-672D01*
G01X477702Y481572D02*
X477878Y481396D01*
G03X478255Y481424I177J177*
G01X481008Y480143D02*
G03X478255Y481424I-1508J357D01*
G01X481008Y480143D02*
G03X481133Y479866I244J-57D01*
G01X479032Y477772D02*
G03X481133Y479866I1368J728D01*
G01X479032Y477772D02*
G03X478874Y477896I-221J-118D01*
G01X478756Y477936D02*
G03X478874Y477896I359J879D01*
G01X478756Y477936D02*
G03X478444Y477829I-95J-232D01*
G01X476136Y477386D02*
G03X478444Y477829I964J1214D01*
G01X476136Y477386D02*
G03X475844Y477400I-156J-196D01*
G01X475703Y477318D02*
G03X475844Y477400I-703J1382D01*
G01X475703Y477318D02*
G03X475594Y476980I113J-222D01*
G01X472815Y476921D02*
G03X475594Y476980I1404J-656D01*
G01X472815Y476921D02*
G03X472632Y477273I-227J106D01*
G01X471953Y477573D02*
G03X472632Y477273I947J1227D01*
G01X471953Y477573D02*
G03X471647I-153J-198D01*
G01X469301Y479467D02*
G03X471647Y477573I1399J-667D01*
G01X469301Y479467D02*
G03X469044Y479823I-226J108D01*
G01X467313Y481172D02*
G03X469044Y479823I1539J189D01*
G01X467313Y481172D02*
G03X467301Y481225I-248J-30D01*
G01X467174Y481583*
G03X466938Y481750I-236J-83*
G01X452000*
X451537Y481871D02*
G03X452000Y481750I463J829D01*
G01X451537Y481871D02*
G03X451169Y481603I-122J-219D01*
G01X450538Y480029D02*
G03X451169Y481603I-888J1270D01*
G01X450538Y480029D02*
G03X450439Y479764I143J-205D01*
G01X448046Y480661D02*
G03X450439Y479764I888J-1270D01*
G01X448046Y480661D02*
G03X448145Y480926I-143J205D01*
G01X448176Y481780D02*
G03X448145Y480926I1474J-481D01*
G01X448176Y481780D02*
G03X448095Y482052I-238J78D01*
G01X447961Y482174D02*
G03X448095Y482052I1106J1086D01*
G01X447961Y482174D02*
G03X447536Y482036I-178J-176D01*
G01X445138Y480987D02*
G03X447536Y482036I866J1286D01*
G01X445138Y480987D02*
G03X444853Y480983I-139J-207D01*
G01X444816Y483529D02*
G03X444853Y480983I-866J-1286D01*
G01X444816Y483529D02*
G03X445101Y483533I139J207D01*
G01X447110Y483359D02*
G03X445101Y483533I-1106J-1086D01*
G01X447110Y483359D02*
G03X447535Y483496I178J176D01*
G01X447696Y483983D02*
G03X447535Y483496I1371J-723D01*
G01X447696Y483983D02*
G03X447475Y484350I-221J117D01*
G01X433166*
G03X432989Y484277I0J-250*
G01X432801Y484088*
G03X432842Y483702I177J-177*
G01X430698Y481558D02*
G03X432842Y483702I1302J842D01*
G01X430698Y481558D02*
G03X430312Y481599I-209J-136D01*
G01X428782Y480070*
G03X428937Y479644I177J-177*
G01X427697Y479189D02*
G03X428937Y479644I1103J-1089D01*
G01X427697Y479189D02*
G03X427519Y479614I-178J175D01*
G01X427396*
G03X427198Y479517I-0J-250*
G01X424421Y480438D02*
G03X427198Y479517I1550J27D01*
G01X424421Y480438D02*
G03X423981Y480596I-250J-4D01*
G01X424156Y482350D02*
G03X423981Y480596I-1356J-750D01*
G01X424156Y482350D02*
G03X424624Y482450I219J121D01*
G01X424899Y483043D02*
G03X424624Y482450I672J-672D01*
G01X424899Y483043D02*
X425427Y483571D01*
G03X425501Y483748I-176J177*
G01Y484885*
G03X425213Y485132I-250J-0*
G01X424236Y488025D02*
G03X425213Y485132I742J-1361D01*
G01X424236Y488025D02*
G03X424280Y488432I-120J219D01*
G01X423772Y489858D02*
G03X424280Y488433I1528J-258D01*
G01X423772Y489858D02*
G03X423525Y490150I-247J42D01*
G01X413897*
G03X413720Y490077I0J-250*
G01X412272Y488628*
X412181Y488548D02*
G03X412272Y488628I-581J752D01*
G01X412181Y488548D02*
G03X412228Y488124I153J-197D01*
G01X412828Y487842*
G03X412888Y487823I107J227*
G01X411077Y486012D02*
G03X412888Y487823I1523J288D01*
G01X411077Y486012D02*
G03X411058Y486072I-246J-47D01*
G01X410698Y486838*
G03X410648Y486908I-226J-107*
G01X410380Y487177*
G03X410203Y487250I-177J-177*
G01X409697*
G03X409520Y487177I0J-250*
G01X406105Y483762*
G03X406132Y483385I177J-177*
G01X403712Y481726D02*
G03X406132Y483385I1493J417D01*
G01X403712Y481726D02*
G03X403257Y481789I-241J-67D01*
G01X402541Y481169D02*
G03X403257Y481789I-608J1425D01*
G01X402541Y481169D02*
G03X402524Y480717I98J-230D01*
G01X403359Y479444D02*
G03X402524Y480717I-1547J-104D01*
G01X403359Y479444D02*
G03X403787Y479286I249J17D01*
G01X403351Y478101D02*
G03X403787Y479286I1547J104D01*
G01X403351Y478101D02*
G03X402923Y478258I-249J-17D01*
G01X401204Y480766D02*
G03X402923Y478258I608J-1426D01*
G01X401204Y480766D02*
G03X401221Y481218I-98J230D01*
G01X400526Y481945D02*
G03X401221Y481218I1407J649D01*
G01X400526Y481945D02*
G03X400299Y482091I-227J-104D01*
G01X400299D02*
X398564D01*
G03X398319Y481891I-0J-250*
G01X395783Y483370D02*
G03X398319Y481891I1017J-1170D01*
G01X395783Y483370D02*
G03X395619Y483809I-164J189D01*
G01X393267*
G03X393091Y483735I0J-250*
G01X392512Y483156*
X391840Y482878D02*
G03X392512Y483156I-0J950D01*
G01X391840Y482878D02*
X383512D01*
G03X383427Y482863I-0J-250*
G01X382631Y482576*
G03X382575Y482547I85J-235*
G01Y485109D02*
G03Y482547I-873J-1281D01*
G01Y485109D02*
G03X382631Y485080I141J206D01*
G01X383427Y484793*
G03X383512Y484778I85J235*
G01X384221*
G03X384468Y485066I-0J250*
G01X386873Y486581D02*
G03X384468Y485066I-873J-1281D01*
G01X386873Y486581D02*
G03X386929Y486552I141J206D01*
G01X387725Y486265*
G03X387810Y486250I85J235*
G01X388703*
G03X388880Y486323I-0J250*
G01X390177Y487620*
G03X390250Y487797I-177J177*
G01Y489900*
X390528Y490572D02*
G03X390250Y489900I672J-672D01*
G01X390528Y490572D02*
X392128Y492172D01*
X392800Y492450D02*
G03X392128Y492172I0J-950D01*
G01X392800Y492450D02*
X393403D01*
G03X393580Y492877I-0J250*
G01X392222Y494235*
G03X391803Y494119I-177J-177*
G01X390365Y492951D02*
G03X391803Y494119I-65J1549D01*
G01X390365Y492951D02*
G03X390129Y492743I10J-249D01*
G01X388770Y491459D02*
G03X390129Y492743I-170J1541D01*
G01X388770Y491459D02*
G03X388548Y491223I28J-248D01*
G01X386830Y492841D02*
G03X388548Y491223I170J-1541D01*
G01X386830Y492841D02*
G03X387052Y493077I-28J248D01*
G01X387373Y493947D02*
G03X387052Y493077I1227J-947D01*
G01X387373Y493947D02*
G03X387175Y494350I-198J153D01*
G01X382349*
X381677Y494628D02*
G03X382349Y494350I672J672D01*
G01X381677Y494628D02*
X381281Y495024D01*
G03X381138Y495095I-177J-176*
G01X380378Y497839D02*
G03X381138Y495095I971J-1208D01*
G01X380378Y497839D02*
G03X380441Y498155I-156J195D01*
G01X383200Y499565D02*
G03X380441Y498155I-1400J-665D01*
G01X383200Y499565D02*
G03X383603Y499495I226J107D01*
G01X384098Y499828D02*
G03X383603Y499495I602J-1428D01*
G01X384098Y499828D02*
G03X384250Y500064I-98J231D01*
G01X384595Y501075D02*
G03X384250Y500064I1205J-975D01*
G01X384595Y501075D02*
G03X384277Y501450I-194J157D01*
G01X381994Y502478D02*
G03X384277Y501450I1517J319D01*
G01X381994Y502478D02*
G03X381792Y502673I-245J-51D01*
G01X380957Y505291D02*
G03X381792Y502673I1101J-1091D01*
G01X380957Y505291D02*
G03X381008Y505568I-178J176D01*
G01X381143Y507071D02*
G03X381008Y505568I1281J-873D01*
G01X381143Y507071D02*
G03X381172Y507127I-206J141D01*
G01X381459Y507923*
G03X381474Y508008I-235J85*
G01Y509600*
X381752Y510272D02*
G03X381474Y509600I672J-672D01*
G01X381752Y510272D02*
X383228Y511748D01*
X383900Y512026D02*
G03X383228Y511748I0J-950D01*
G01X383900Y512026D02*
X387677D01*
X388349Y511748D02*
G03X387677Y512026I-672J-672D01*
G01X388349Y511748D02*
X391098Y508998D01*
G03X391501Y509067I177J177*
G01X394443Y508552D02*
G03X391501Y509067I-1543J-152D01*
G01X394443Y508552D02*
G03X394868Y508400I248J24D01*
G01X398417Y511948*
G03X398332Y512358I-177J177*
G01X399979Y512687D02*
G03X398332Y512358I-1079J1113D01*
G01X399979Y512687D02*
G03X400153Y512258I174J-179D01*
G01X403347*
G03X403521Y512687I-0J250*
G01X405679D02*
G03X403521I-1079J1113D01*
G01X405679D02*
G03X405853Y512258I174J-179D01*
G01X407824*
G03X408071Y512549I-0J250*
G01X408231Y513527D02*
G03X408071Y512549I1369J-727D01*
G01X408231Y513527D02*
G03X408189Y513819I-221J117D01*
G01Y515981D02*
G03Y513819I1111J-1081D01*
G01Y515981D02*
G03X408231Y516273I-179J175D01*
G01X408258Y517775D02*
G03X408231Y516273I1342J-775D01*
G01X408258Y517775D02*
G03X408041Y518150I-217J125D01*
G01X400789*
G03X400540Y517872I-0J-250*
G01X397460D02*
G03X400540I1540J-172D01*
G01X397460D02*
G03X397211Y518150I-249J28D01*
G01X382727*
G03X382510Y518024I0J-250*
G01X382168Y517611D02*
G03X382510Y518024I-1004J1181D01*
G01X382168Y517611D02*
G03X382256Y517181I162J-191D01*
G01X380796Y516881D02*
G03X382256Y517181I1004J-1181D01*
G01X380796Y516881D02*
G03X380708Y517311I-162J191D01*
G01X380458Y520172D02*
G03X380708Y517311I706J-1380D01*
G01X380458Y520172D02*
G03X380574Y520492I-114J222D01*
G01X383389Y520411D02*
G03X380574Y520492I-1389J689D01*
G01X383389Y520411D02*
G03X383612Y520050I223J-111D01*
G01X388158*
G03X388391Y520391I0J250*
G01X391277D02*
G03X388391I-1443J566D01*
G01X391277D02*
G03X391510Y520050I233J-91D01*
G01X392075*
G03X392322Y520337I-0J250*
G01X395388D02*
G03X392322I-1533J228D01*
G01X395388D02*
G03X395635Y520050I247J-37D01*
G01X400288*
G03X400511Y520411I-0J250*
G01X403289D02*
G03X400511I-1389J689D01*
G01X403289D02*
G03X403512Y520050I223J-111D01*
G01X409900*
X410572Y519772D02*
G03X409900Y520050I-672J-672D01*
G01X410572Y519772D02*
X411935Y518409D01*
X412213Y517737D02*
G03X411935Y518409I-950J0D01*
G01X412213Y517737D02*
Y513134D01*
G03X412286Y512957I250J0*
G01X414720Y510523*
G03X414897Y510450I177J177*
G01X419124*
G03X419350Y510592I0J250*
G01X421672Y511170D02*
G03X419350Y510592I-923J-1245D01*
G01X421672Y511170D02*
G03X421997Y511194I149J201D01*
G01X424514Y513711*
G03X424587Y513888I-177J177*
G01Y516463*
G03X424130Y516602I-250J-0*
G01X421917Y516219D02*
G03X424130Y516602I924J1244D01*
G01X421917Y516219D02*
G03X421626Y516224I-149J-201D01*
G01X419513Y516564D02*
G03X421626Y516224I1235J937D01*
G01X419513Y516564D02*
G03X419072Y516475I-199J-151D01*
G01X418705Y515804D02*
G03X419072Y516475I-1135J1055D01*
G01X418705Y515804D02*
G03X418737Y515434I184J-170D01*
G01X416665Y515255D02*
G03X418737Y515434I1135J-1055D01*
G01X416665Y515255D02*
G03X416633Y515625I-184J170D01*
G01X418805Y517796D02*
G03X416633Y515625I-1235J-937D01*
G01X418805Y517796D02*
G03X419246Y517885I199J151D01*
G01X421672Y518745D02*
G03X419246Y517885I-924J-1244D01*
G01X421672Y518745D02*
G03X421963Y518740I149J201D01*
G01X424302Y517980D02*
G03X421963Y518740I-1461J-517D01*
G01X424302Y517980D02*
G03X424746Y517926I236J84D01*
G01X424866Y518072D02*
G03X424746Y517926I671J-672D01*
G01X424866Y518072D02*
X425404Y518610D01*
G03X425474Y518830I-177J177*
G01X425470Y518852D02*
G03X425474Y518830I1530J248D01*
G01X425470Y518852D02*
G03X425225Y519062I-247J-40D01*
G01X426764Y520860D02*
G03X425225Y519062I-1530J-248D01*
G01X426764Y520860D02*
G03X427009Y520650I247J40D01*
G01X427447Y520584D02*
G03X427009Y520650I-447J-1484D01*
G01X427447Y520584D02*
G03X427725Y520681I72J239D01*
G01X430510Y519448D02*
G03X427725Y520681I-1510J352D01*
G01X430510Y519448D02*
G03X430678Y519153I243J-57D01*
G01X428868Y516900D02*
G03X430678Y519153I1342J775D01*
G01X428868Y516900D02*
G03X428474Y516952I-217J-125D01*
G01X427523Y516000*
G03X427450Y515824I177J-176*
G01Y511325*
G03X427922Y511210I250J-0*
G01X429879Y511938D02*
G03X427922Y511210I-579J-1438D01*
G01X429879Y511938D02*
G03X430149Y511993I94J232D01*
G01X435109Y516952*
X435781Y517231D02*
G03X435109Y516952I-0J-950D01*
G01X435781Y517231D02*
X436400D01*
X436417Y517230D02*
G03X436400Y517231I-17J-949D01*
G01X436417Y517230D02*
G03X436421I5J250D01*
G01X447939Y517226*
G03X448095Y517671I0J250*
G01X450028D02*
G03X448095I-966J1212D01*
G01X450028D02*
G03X450184Y517225I156J-196D01*
G01X455083Y517223*
G03X455252Y517658I0J250*
G01X457347Y517657D02*
G03X455252Y517658I-1047J1143D01*
G01X457347Y517657D02*
G03X457515Y517222I169J-185D01*
G01X467989Y517218*
G03X468157Y517653I-0J250*
G01X470242D02*
G03X468157I-1042J1147D01*
G01X470242D02*
G03X470410Y517218I168J-185D01*
G01X474781Y517216*
G03X475020Y517540I0J250*
G01X477372Y519282D02*
G03X475020Y517540I-872J-1282D01*
G01X477372Y519282D02*
G03X477761Y519518I140J206D01*
G01X480730Y520298D02*
G03X477761Y519518I-1430J-598D01*
G01X480730Y520298D02*
G03X480980Y520145I231J97D01*
G01X482302Y517621D02*
G03X480980Y520145I-1202J979D01*
G01X482302Y517621D02*
G03X482495Y517213I193J-158D01*
G01X485048Y517212*
X485720Y516934D02*
G03X485048Y517212I-672J-672D01*
G01X485720Y516934D02*
X489972Y512682D01*
X490250Y512010D02*
G03X489972Y512682I-950J0D01*
G01X490250Y512010D02*
Y506857D01*
G03X490553Y506613I250J0*
G01X491338Y506591D02*
G03X490553Y506613I-438J-1591D01*
G01X491338Y506591D02*
G03X491654Y506813I67J241D01*
G01X451150Y524000D02*
G03X451150I-1550J0D01*
G01X410050Y523500D02*
G03X410050I-1550J0D01*
G01X375781Y511922D02*
G03X375781I-1550J0D01*
G01X384450Y490200D02*
G03X384450I-1550J0D01*
G01X387650Y478600D02*
G03X387650I-1550J0D01*
G01X418450Y479000D02*
G03X418450I-1550J0D01*
G01X413189Y480602D02*
G03X411802Y482709I59J1549D01*
G01X413189Y480602D02*
G03X412946Y480442I-10J-250D01*
G01X411559Y482549D02*
G03X412946Y480442I-59J-1549D01*
G01X411559Y482549D02*
G03X411802Y482709I10J250D01*
G01X446601Y477320D02*
G03X446601I-1550J0D01*
G01X457840Y477102D02*
G03X457840I-1550J0D01*
G01X477695Y495364D02*
G03X478592Y498307I632J1416D01*
G01X477695Y495364D02*
G03X477453Y495343I-102J-228D01*
G01X475601Y497825D02*
G03X477453Y495343I988J-1195D01*
G01X475601Y497825D02*
G03X475646Y498162I-159J192D01*
G01X475636Y499947D02*
G03X475646Y498162I1272J-885D01*
G01X475636Y499947D02*
G03X475629Y500243I-205J143D01*
G01X478128Y500305D02*
G03X475629Y500243I-1272J885D01*
G01X478128Y500305D02*
G03X478135Y500009I205J-143D01*
G01X478395Y498624D02*
G03X478135Y500009I-1487J438D01*
G01X478395Y498624D02*
G03X478592Y498307I240J-71D01*
G01X482550Y500300D02*
G03X482550I-1550J0D01*
G01X478650Y505200D02*
G03X478650I-1550J0D01*
G01X481750Y508200D02*
G03X481750I-1650J0D01*
G01X469102Y506300D02*
G03X471409Y507222I1498J-400D01*
G01X469102Y506300D02*
G03X468991Y506578I-241J64D01*
G01X468810Y506708D02*
G03X468991Y506578I990J1192D01*
G01X468810Y506708D02*
G03X468490I-160J-193D01*
G01Y509092D02*
G03Y506708I-990J-1192D01*
G01Y509092D02*
G03X468810I160J193D01*
G01X471298Y507500D02*
G03X468810Y509092I-1498J400D01*
G01X471298Y507500D02*
G03X471409Y507222I241J-64D01*
G01X497310Y525952D02*
X498754D01*
X497347Y525502D02*
X498754D01*
X497250Y525052D02*
X498754D01*
X496986Y524602D02*
X498754D01*
X496352Y524152D02*
X498754D01*
X495995Y523702D02*
X498754D01*
X496026Y523252D02*
X498754D01*
X496001Y522802D02*
X498754D01*
X495920Y522352D02*
X498754D01*
X495780Y521902D02*
X498754D01*
X495571Y521452D02*
X498754D01*
X495281Y521002D02*
X498754D01*
X495183Y520552D02*
X498754D01*
X495661Y520102D02*
X498754D01*
X495883Y519652D02*
X498754D01*
X495950Y519202D02*
X498754D01*
X495884Y518752D02*
X498754D01*
X495663Y518302D02*
X498754D01*
X495164Y517852D02*
X498754D01*
X482253Y517402D02*
X498754D01*
X485701Y516952D02*
X498754D01*
X486152Y516502D02*
X498754D01*
X486602Y516052D02*
X498754D01*
X487052Y515602D02*
X498754D01*
X487502Y515152D02*
X498754D01*
X490250Y512002D02*
X498754D01*
X490250Y511552D02*
X498754D01*
X490250Y511102D02*
X498754D01*
X490250Y510652D02*
X498754D01*
X490250Y510202D02*
X498754D01*
X490250Y509752D02*
X498754D01*
X490250Y509302D02*
X498754D01*
X490250Y508852D02*
X498754D01*
X490250Y508402D02*
X498754D01*
X494114Y507952D02*
X498754D01*
X494527Y507502D02*
X498754D01*
X494710Y507052D02*
X498754D01*
X494747Y506602D02*
X498754D01*
X494650Y506152D02*
X498754D01*
X490250Y502102D02*
X498754D01*
X490250Y501652D02*
X498754D01*
X490250Y501202D02*
X498754D01*
X490250Y500752D02*
X498754D01*
X490250Y500302D02*
X498754D01*
X490250Y499852D02*
X498754D01*
X490250Y499402D02*
X498754D01*
X490250Y498952D02*
X498754D01*
X491684Y498502D02*
X498754D01*
X492272Y498052D02*
X498754D01*
X492536Y497602D02*
X498754D01*
X492643Y497152D02*
X498754D01*
X492623Y496702D02*
X498754D01*
X492649Y496252D02*
X498754D01*
X493082Y495802D02*
X498754D01*
X493287Y495352D02*
X498754D01*
X494420Y489502D02*
X498754D01*
X494443Y489052D02*
X498754D01*
X494330Y488602D02*
X498754D01*
X494187Y488152D02*
X498754D01*
X494436Y487702D02*
X498754D01*
X494543Y487252D02*
X498754D01*
X494523Y486802D02*
X498754D01*
X494371Y486352D02*
X498754D01*
X494034Y485902D02*
X498754D01*
X492972Y485452D02*
X498754D01*
X472742Y485002D02*
X498754D01*
X473192Y484552D02*
X498754D01*
X491314Y484102D02*
X498754D01*
X491713Y483652D02*
X498754D01*
X491900Y483202D02*
X498754D01*
X491949Y482752D02*
X498754D01*
X491873Y482302D02*
X498754D01*
X491650Y481852D02*
X498754D01*
X491176Y481402D02*
X498754D01*
X480983Y480952D02*
X498754D01*
X481050Y480502D02*
X498754D01*
X494041Y480052D02*
X498754D01*
X494711Y479602D02*
X498754D01*
X495159Y479152D02*
X498754D01*
X497890Y478702D02*
X498754D01*
X498206Y478252D02*
X498754D01*
X498241Y512452D02*
X498736D01*
X494386Y505702D02*
X498719D01*
X498290Y514702D02*
X498711D01*
X498070Y502552D02*
X498678D01*
X490250D02*
X497930D01*
X493350Y494902D02*
X497138D01*
X493752Y505252D02*
X496962D01*
X490250Y503002D02*
X496906D01*
X494256Y489952D02*
X496881D01*
X492538Y504802D02*
X496618D01*
X494184Y492202D02*
X496616D01*
X491470Y503452D02*
X496592D01*
X493326Y494452D02*
X496576D01*
X494330Y492652D02*
X496503D01*
X493879Y490402D02*
X496471D01*
X492417Y504352D02*
X496471D01*
X492131Y503902D02*
X496463D01*
X493841Y491752D02*
X496351D01*
X493890Y494002D02*
X496333D01*
X494337Y493102D02*
X496302D01*
X493443Y490852D02*
X496290D01*
X493422Y491302D02*
X496253D01*
X494206Y493552D02*
X496251D01*
X490141Y512452D02*
X496159D01*
X487952Y514702D02*
X496110D01*
X489752Y512902D02*
X495816D01*
X488402Y514252D02*
X495794D01*
X489302Y513352D02*
X495670D01*
X488852Y513802D02*
X495663D01*
X482457Y517852D02*
X493636D01*
X482621Y518302D02*
X493137D01*
X482643Y518752D02*
X492916D01*
X482529Y519202D02*
X492850D01*
X480054Y485452D02*
X492828D01*
X490250Y507952D02*
X492286D01*
X490250Y507502D02*
X491873D01*
X484269Y485902D02*
X491766D01*
X490250Y507052D02*
X491690D01*
X491297Y506602D02*
X491502D01*
X485797Y488152D02*
X491484D01*
X484826Y486352D02*
X491429D01*
X485117Y487702D02*
X491364D01*
X485068Y486802D02*
X491277D01*
X485149Y487252D02*
X491257D01*
X486247Y488602D02*
X490855D01*
X486697Y489052D02*
X490405D01*
X487147Y489502D02*
X489955D01*
X487597Y489952D02*
X489505D01*
X480761Y481402D02*
X489424D01*
X473642Y484102D02*
X489286D01*
X488047Y490402D02*
X489055D01*
X480259Y481852D02*
X488950D01*
X474092Y483652D02*
X488887D01*
X475442Y482302D02*
X488727D01*
X474542Y483202D02*
X488700D01*
X474992Y482752D02*
X488651D01*
X482239Y519652D02*
X487034D01*
X481004Y480052D02*
X486274D01*
X481485Y520102D02*
X486009D01*
X481490Y479602D02*
X485604D01*
X468292Y473752D02*
X485496D01*
X474156Y525952D02*
X485473D01*
X480595Y520552D02*
X485434D01*
X468251Y474202D02*
X485327D01*
X481806Y479152D02*
X485155D01*
X474320Y525502D02*
X485069D01*
X480142Y521002D02*
X485034D01*
X468251Y474652D02*
X484956D01*
X481937Y478702D02*
X484832D01*
X474343Y525052D02*
X484769D01*
X467565Y521452D02*
X484743D01*
X475243Y475102D02*
X484687D01*
X481930Y478252D02*
X484598D01*
X474230Y524602D02*
X484553D01*
X467843Y521902D02*
X484535D01*
X475595Y475552D02*
X484496D01*
X481784Y477802D02*
X484435D01*
X473942Y524152D02*
X484406D01*
X468040Y522352D02*
X484395D01*
X475747Y476002D02*
X484370D01*
X481441Y477352D02*
X484335D01*
X473197Y523702D02*
X484320D01*
X468169Y522802D02*
X484314D01*
X475758Y476452D02*
X484303D01*
X475632Y476902D02*
X484292D01*
X468239Y523252D02*
X484289D01*
X481328Y509302D02*
X484284D01*
X481616Y508852D02*
X484284D01*
X481738Y508402D02*
X484284D01*
X481731Y507952D02*
X484284D01*
X481595Y507502D02*
X484284D01*
X481285Y507052D02*
X484284D01*
X480509Y506602D02*
X484284D01*
X478324Y506152D02*
X484284D01*
X478567Y505702D02*
X484284D01*
X478649Y505252D02*
X484284D01*
X478598Y504802D02*
X484284D01*
X478397Y504352D02*
X484284D01*
X477947Y503902D02*
X484284D01*
X473136Y503452D02*
X484284D01*
X473371Y503002D02*
X484284D01*
X477597Y502552D02*
X484284D01*
X478109Y502102D02*
X484284D01*
X481759Y501652D02*
X484284D01*
X482261Y501202D02*
X484284D01*
X482483Y500752D02*
X484284D01*
X482550Y500302D02*
X484284D01*
X482484Y499852D02*
X484284D01*
X482263Y499402D02*
X484284D01*
X481764Y498952D02*
X484284D01*
X478390Y498502D02*
X484284D01*
X479212Y498052D02*
X484284D01*
X479641Y497602D02*
X484284D01*
X479831Y497152D02*
X484284D01*
X479875Y496702D02*
X484284D01*
X479784Y496252D02*
X484284D01*
X479529Y495802D02*
X484284D01*
X478930Y495352D02*
X484284D01*
X466368Y494902D02*
X484284D01*
X465918Y494452D02*
X484284D01*
X465468Y494002D02*
X484284D01*
X479463Y493552D02*
X484284D01*
X480661Y509752D02*
X484277D01*
X479913Y493102D02*
X484244D01*
X461262Y510202D02*
X483878D01*
X452357Y510652D02*
X483428D01*
X452568Y511102D02*
X482945D01*
X480370Y485902D02*
X482931D01*
X480500Y486352D02*
X482374D01*
X481223Y486802D02*
X482132D01*
X481701Y487252D02*
X481939D01*
X478335Y501652D02*
X480241D01*
X478454Y498952D02*
X480236D01*
X478406Y501202D02*
X479739D01*
X478420Y499402D02*
X479737D01*
X477762Y506602D02*
X479691D01*
X461824Y509752D02*
X479539D01*
X478342Y500752D02*
X479517D01*
X478242Y499852D02*
X479516D01*
X478126Y500302D02*
X479450D01*
X478019Y477352D02*
X479359D01*
X478429Y477802D02*
X479013D01*
X471638Y507052D02*
X478915D01*
X470462Y509302D02*
X478872D01*
X475969Y481852D02*
X478741D01*
X471298Y507502D02*
X478605D01*
X471024Y508852D02*
X478584D01*
X471349Y507952D02*
X478469D01*
X471267Y508402D02*
X478462D01*
X467179Y521002D02*
X478458D01*
X477872Y481402D02*
X478237D01*
X466626Y520552D02*
X478005D01*
X476959Y485452D02*
X477872D01*
X470042Y520102D02*
X477803D01*
X470495Y519652D02*
X477751D01*
X477466Y495352D02*
X477724D01*
X471982Y506602D02*
X476438D01*
X472596Y503902D02*
X476253D01*
X475764Y477352D02*
X476181D01*
X473449Y502552D02*
X476114D01*
X472129Y506152D02*
X475876D01*
X470670Y504352D02*
X475803D01*
X466818Y495352D02*
X475713D01*
X468647Y498052D02*
X475690D01*
X465427Y493552D02*
X475637D01*
X472137Y505702D02*
X475633D01*
X471694Y504802D02*
X475602D01*
X473392Y502102D02*
X475602D01*
X472144Y500302D02*
X475586D01*
X472100Y499852D02*
X475574D01*
X472008Y505252D02*
X475551D01*
X470697Y519202D02*
X475521D01*
X468647Y498502D02*
X475463D01*
X471909Y499402D02*
X475396D01*
X468647Y497602D02*
X475381D01*
X473185Y501652D02*
X475376D01*
X472063Y500752D02*
X475369D01*
X471478Y498952D02*
X475362D01*
X472719Y501202D02*
X475306D01*
X467268Y495802D02*
X475279D01*
X474020Y493102D02*
X475187D01*
X470749Y518752D02*
X475144D01*
X468548Y497152D02*
X475129D01*
X467718Y496252D02*
X475086D01*
X472292Y485452D02*
X475065D01*
X468168Y496702D02*
X475041D01*
X470169Y517402D02*
X475023D01*
X470668Y518302D02*
X474980D01*
X470426Y517852D02*
X474957D01*
X474421Y492652D02*
X474735D01*
X471842Y485902D02*
X474671D01*
X471392Y486352D02*
X474497D01*
X470800Y486802D02*
X474316D01*
X470249Y487252D02*
X474095D01*
X470197Y487702D02*
X473685D01*
X469995Y488152D02*
X473551D01*
X467124Y489952D02*
X473550D01*
X466455Y489502D02*
X473550D01*
X451972Y489052D02*
X473550D01*
X469542Y488602D02*
X473550D01*
X468251Y475102D02*
X473195D01*
X468251Y475552D02*
X472843D01*
X468219Y476902D02*
X472806D01*
X468251Y476002D02*
X472692D01*
X468251Y476452D02*
X472680D01*
X471490Y490402D02*
X472623D01*
X468254Y523702D02*
X472403D01*
X471252Y477352D02*
X472348D01*
X468254Y524152D02*
X471658D01*
X468254Y525952D02*
X471444D01*
X468254Y524602D02*
X471370D01*
X468254Y525502D02*
X471280D01*
X468254Y525052D02*
X471257D01*
X468273Y503902D02*
X471202D01*
X467397Y490402D02*
X470888D01*
X468592Y503452D02*
X470662D01*
X467823Y504352D02*
X470530D01*
X468647Y503002D02*
X470427D01*
X468647Y502102D02*
X470406D01*
X468647Y502552D02*
X470349D01*
X465697Y493102D02*
X470183D01*
X468129Y477352D02*
X470148D01*
X467500Y490852D02*
X470068D01*
X468647Y501652D02*
X469988D01*
X465816Y492652D02*
X469821D01*
X467468Y491302D02*
X469769D01*
X468647Y498952D02*
X469713D01*
X466893Y492202D02*
X469664D01*
X467292Y491752D02*
X469648D01*
X467978Y477802D02*
X469514D01*
X467373Y504802D02*
X469506D01*
X468647Y501202D02*
X469392D01*
X466369Y479602D02*
X469324D01*
X468647Y499402D02*
X469283D01*
X467755Y478252D02*
X469250D01*
X466923Y505252D02*
X469192D01*
X467012Y479152D02*
X469190D01*
X467444Y478702D02*
X469153D01*
X468162Y509302D02*
X469138D01*
X468657Y500752D02*
X469138D01*
X466023Y506152D02*
X469071D01*
X466473Y505702D02*
X469063D01*
X468779Y499852D02*
X469015D01*
X468347Y506602D02*
X468953D01*
X465662Y520102D02*
X468358D01*
X457276Y517402D02*
X468230D01*
X450569Y480052D02*
X468022D01*
X457526Y517852D02*
X467974D01*
X457595Y519652D02*
X467905D01*
X452422Y488602D02*
X467858D01*
X457768Y518302D02*
X467732D01*
X457797Y519202D02*
X467703D01*
X457849Y518752D02*
X467651D01*
X450979Y480502D02*
X467562D01*
X452872Y488152D02*
X467405D01*
X451160Y480952D02*
X467357D01*
X451196Y481402D02*
X467238D01*
X453322Y487702D02*
X467203D01*
X453772Y487252D02*
X467151D01*
X462067Y509302D02*
X466838D01*
X465573Y506602D02*
X466653D01*
X462149Y508852D02*
X466276D01*
X465123Y507052D02*
X466203D01*
X462098Y508402D02*
X466033D01*
X464673Y507502D02*
X466002D01*
X462345Y507952D02*
X465951D01*
X451522Y489502D02*
X465453D01*
X463419Y489952D02*
X464784D01*
X463829Y490402D02*
X464511D01*
X457142Y520102D02*
X463552D01*
X450470Y479602D02*
X462840D01*
X430356Y520552D02*
X462587D01*
X450466Y479152D02*
X462197D01*
X429979Y521002D02*
X462033D01*
X450323Y478702D02*
X461764D01*
X426537Y521452D02*
X461647D01*
X451072Y489952D02*
X461581D01*
X457330Y478252D02*
X461452D01*
X426094Y521902D02*
X461368D01*
X457673Y477802D02*
X461229D01*
X450622Y490402D02*
X461171D01*
X409541Y522352D02*
X461170D01*
X457820Y477352D02*
X461077D01*
X450583Y522802D02*
X461040D01*
X450172Y490852D02*
X460990D01*
X457827Y476902D02*
X460987D01*
X450957Y523252D02*
X460970D01*
X455449Y525952D02*
X460954D01*
X455547Y525502D02*
X460954D01*
X455510Y525052D02*
X460954D01*
X455329Y524602D02*
X460954D01*
X454919Y524152D02*
X460954D01*
X451121Y523702D02*
X460954D01*
X457697Y476452D02*
X460954D01*
X457381Y476002D02*
X460954D01*
X424460Y475552D02*
X460954D01*
X424665Y475102D02*
X460954D01*
X424720Y474652D02*
X460954D01*
X424641Y474202D02*
X460954D01*
X424574Y473752D02*
X460912D01*
X449943Y491302D02*
X459945D01*
X452894Y510202D02*
X459938D01*
X451027Y494002D02*
X459812D01*
X451210Y493552D02*
X459600D01*
X450252Y491752D02*
X459507D01*
X453344Y509752D02*
X459376D01*
X451247Y493102D02*
X459351D01*
X450614Y494452D02*
X459339D01*
X450886Y492202D02*
X459311D01*
X451150Y492652D02*
X459264D01*
X444742Y494902D02*
X458889D01*
X444292Y495352D02*
X458439D01*
X443842Y495802D02*
X457989D01*
X443321Y496252D02*
X457539D01*
X448669Y496702D02*
X457089D01*
X449226Y497152D02*
X456639D01*
X449468Y497602D02*
X456189D01*
X449549Y498052D02*
X455739D01*
X450020Y520102D02*
X455458D01*
X449945Y517402D02*
X455323D01*
X449497Y498502D02*
X455289D01*
X449985Y478252D02*
X455250D01*
X445866Y476002D02*
X455199D01*
X450219Y517852D02*
X455074D01*
X450408Y519652D02*
X455005D01*
X446525Y477802D02*
X454907D01*
X446335Y476452D02*
X454883D01*
X449295Y498952D02*
X454839D01*
X450499Y518302D02*
X454832D01*
X450579Y519202D02*
X454803D01*
X446601Y477352D02*
X454760D01*
X446544Y476902D02*
X454753D01*
X450606Y518752D02*
X454751D01*
X449113Y499402D02*
X454389D01*
X451143Y524152D02*
X453081D01*
X451029Y524602D02*
X452671D01*
X446356Y525952D02*
X452551D01*
X450739Y525052D02*
X452490D01*
X449985Y525502D02*
X452453D01*
X451263Y481852D02*
X451573D01*
X446520Y525502D02*
X449215D01*
X445192Y494452D02*
X448786D01*
X409884Y522802D02*
X448617D01*
X446543Y525052D02*
X448461D01*
X445642Y494002D02*
X448373D01*
X410030Y523252D02*
X448243D01*
X447401Y493552D02*
X448190D01*
X447496Y481852D02*
X448188D01*
X431736Y517402D02*
X448178D01*
X446430Y524602D02*
X448171D01*
X446814Y480952D02*
X448139D01*
X430520Y520102D02*
X448104D01*
X447286Y481402D02*
X448103D01*
X445397Y523702D02*
X448079D01*
X446142Y524152D02*
X448057D01*
X431750Y517852D02*
X447905D01*
X446290Y478252D02*
X447884D01*
X429214Y480502D02*
X447853D01*
X432814Y484102D02*
X447725D01*
X430543Y519652D02*
X447716D01*
X431628Y518302D02*
X447625D01*
X446713Y483652D02*
X447567D01*
X445754Y478702D02*
X447546D01*
X430590Y519202D02*
X447545D01*
X428766Y480052D02*
X447532D01*
X431325Y518752D02*
X447518D01*
X429939Y479152D02*
X447403D01*
X429185Y479602D02*
X447399D01*
X438205Y496702D02*
X447331D01*
X439745Y499402D02*
X446887D01*
X437541Y497152D02*
X446774D01*
X439295Y498952D02*
X446705D01*
X437945Y497602D02*
X446532D01*
X438845Y498502D02*
X446503D01*
X438395Y498052D02*
X446451D01*
X444597Y483652D02*
X445295D01*
X444807Y480952D02*
X445194D01*
X410037Y523702D02*
X444603D01*
X430229Y478702D02*
X444348D01*
X423999Y476002D02*
X444236D01*
X414919Y524152D02*
X443858D01*
X430343Y478252D02*
X443812D01*
X422879Y476452D02*
X443767D01*
X415449Y525952D02*
X443644D01*
X430321Y477802D02*
X443578D01*
X415329Y524602D02*
X443570D01*
X429783Y476902D02*
X443559D01*
X430157Y477352D02*
X443501D01*
X415547Y525502D02*
X443480D01*
X415510Y525052D02*
X443457D01*
X432914Y483652D02*
X443303D01*
X432552Y480952D02*
X443093D01*
X433327Y483202D02*
X442732D01*
X433186Y481402D02*
X442648D01*
X433510Y482752D02*
X442486D01*
X433450Y481852D02*
X442450D01*
X433547Y482302D02*
X442401D01*
X438767Y496252D02*
X439379D01*
X431581Y516952D02*
X435108D01*
X431223Y516502D02*
X434658D01*
X427575Y516052D02*
X434208D01*
X427450Y515602D02*
X433758D01*
X427450Y515152D02*
X433308D01*
X427450Y514702D02*
X432858D01*
X427450Y514252D02*
X432408D01*
X427450Y513802D02*
X431958D01*
X427450Y513352D02*
X431508D01*
X429664Y480952D02*
X431448D01*
X427450Y512902D02*
X431058D01*
X430114Y481402D02*
X430814D01*
X427450Y512452D02*
X430608D01*
X429685Y512002D02*
X430158D01*
X428025Y516502D02*
X429197D01*
X427450Y512002D02*
X428915D01*
X428475Y516952D02*
X428828D01*
X427450Y511552D02*
X428161D01*
X426734Y521002D02*
X428021D01*
X422714Y476902D02*
X427817D01*
X427587Y511102D02*
X427813D01*
X426795Y479152D02*
X427661D01*
X427317Y479602D02*
X427598D01*
X422339Y477352D02*
X427443D01*
X418421Y478702D02*
X427371D01*
X417883Y477802D02*
X427279D01*
X418257Y478252D02*
X427257D01*
X406895Y484552D02*
X425501D01*
X406445Y484102D02*
X425501D01*
X413636Y483652D02*
X425481D01*
X423702Y518752D02*
X425475D01*
X413447Y485002D02*
X425472D01*
X418443Y479152D02*
X425147D01*
X424145Y518302D02*
X425096D01*
X414388Y483202D02*
X425058D01*
X423838Y482752D02*
X424700D01*
X418329Y479602D02*
X424684D01*
X424406Y517852D02*
X424670D01*
X411142Y519202D02*
X424591D01*
X423482Y516052D02*
X424587D01*
X418641Y515602D02*
X424587D01*
X419024Y515152D02*
X424587D01*
X419267Y514702D02*
X424587D01*
X419349Y514252D02*
X424587D01*
X424057Y516502D02*
X424584D01*
X419298Y513802D02*
X424572D01*
X424192Y482302D02*
X424559D01*
X422870Y480052D02*
X424477D01*
X423894Y480502D02*
X424412D01*
X403227Y521902D02*
X424374D01*
X412183Y488152D02*
X424348D01*
X419097Y513352D02*
X424155D01*
X412244Y488602D02*
X424114D01*
X410692Y519652D02*
X424017D01*
X413897Y485452D02*
X424012D01*
X403410Y521452D02*
X423931D01*
X412695Y489052D02*
X423850D01*
X413262Y487702D02*
X423826D01*
X403360Y520102D02*
X423770D01*
X413595Y489952D02*
X423770D01*
X413145Y489502D02*
X423753D01*
X403447Y521002D02*
X423734D01*
X418647Y512902D02*
X423705D01*
X403350Y520552D02*
X423685D01*
X414098Y485902D02*
X423628D01*
X413824Y487252D02*
X423544D01*
X414149Y486352D02*
X423460D01*
X414067Y486802D02*
X423434D01*
X412792Y512452D02*
X423255D01*
X413242Y512002D02*
X422805D01*
X418039Y480052D02*
X422730D01*
X413692Y511552D02*
X422355D01*
X421297Y516052D02*
X422200D01*
X421664Y518752D02*
X421980D01*
X404045Y473752D02*
X421767D01*
X414677Y482752D02*
X421762D01*
X417285Y480502D02*
X421706D01*
X404047Y474202D02*
X421700D01*
X414791Y482302D02*
X421418D01*
X414230Y480952D02*
X421392D01*
X414769Y481852D02*
X421271D01*
X414605Y481402D02*
X421263D01*
X404010Y474652D02*
X420965D01*
X406192Y477352D02*
X420378D01*
X403827Y475102D02*
X420217D01*
X418893Y516052D02*
X420199D01*
X405737Y476902D02*
X420002D01*
X403414Y475552D02*
X419929D01*
X370319Y476452D02*
X419838D01*
X411592Y518752D02*
X419832D01*
X394990Y476002D02*
X419815D01*
X414142Y511102D02*
X419740D01*
X419080Y516502D02*
X419563D01*
X418137Y518302D02*
X419421D01*
X414592Y510652D02*
X419380D01*
X418761Y517852D02*
X419235D01*
X412027Y518302D02*
X417003D01*
X412342Y512902D02*
X416953D01*
X412213Y515602D02*
X416659D01*
X412213Y515152D02*
X416576D01*
X412979Y480502D02*
X416515D01*
X412213Y513352D02*
X416503D01*
X412206Y517852D02*
X416379D01*
X412213Y514702D02*
X416333D01*
X412213Y513802D02*
X416302D01*
X412213Y514252D02*
X416251D01*
X412213Y516052D02*
X416247D01*
X412213Y517402D02*
X416118D01*
X412213Y516502D02*
X416062D01*
X412213Y516952D02*
X416023D01*
X406394Y477802D02*
X415917D01*
X412726Y480052D02*
X415761D01*
X406447Y478252D02*
X415543D01*
X412169Y479602D02*
X415471D01*
X406366Y478702D02*
X415379D01*
X406125Y479152D02*
X415357D01*
X409906Y524152D02*
X413081D01*
X406041Y483652D02*
X412860D01*
X409590Y524602D02*
X412671D01*
X390510Y525952D02*
X412551D01*
X390450Y525052D02*
X412490D01*
X390547Y525502D02*
X412453D01*
X406337Y483202D02*
X412108D01*
X406630Y482752D02*
X411819D01*
X407345Y485002D02*
X411753D01*
X407795Y485452D02*
X411303D01*
X408245Y485902D02*
X411102D01*
X408695Y486352D02*
X410926D01*
X405569Y479602D02*
X410831D01*
X409145Y486802D02*
X410715D01*
X406747Y482302D02*
X410658D01*
X403189Y480052D02*
X410274D01*
X406727Y481852D02*
X410205D01*
X402839Y480502D02*
X410032D01*
X406566Y481402D02*
X410003D01*
X406196Y480952D02*
X409951D01*
X400543Y517852D02*
X408286D01*
X383310Y516052D02*
X408238D01*
X406150Y513802D02*
X408205D01*
X406084Y513352D02*
X408151D01*
X399983Y516502D02*
X408132D01*
X400521Y517402D02*
X408103D01*
X405610Y512452D02*
X408067D01*
X405863Y512902D02*
X408053D01*
X400357Y516952D02*
X408051D01*
X383347Y515602D02*
X407918D01*
X406083Y514252D02*
X407892D01*
X405359Y515152D02*
X407771D01*
X405861Y514702D02*
X407763D01*
X402814Y522352D02*
X407459D01*
X390186Y524602D02*
X407410D01*
X370589Y522802D02*
X407116D01*
X389552Y524152D02*
X407094D01*
X370381Y523252D02*
X406970D01*
X370482Y523702D02*
X406963D01*
X403340Y479602D02*
X404226D01*
X402390Y480952D02*
X404213D01*
X370464Y476902D02*
X404058D01*
X402923Y481402D02*
X403844D01*
X399659Y515152D02*
X403841D01*
X403311Y481852D02*
X403631D01*
X387019Y477352D02*
X403604D01*
X399910Y512452D02*
X403590D01*
X402002Y477802D02*
X403401D01*
X400161Y514702D02*
X403339D01*
X400163Y512902D02*
X403337D01*
X402916Y478252D02*
X403287D01*
X400383Y514252D02*
X403117D01*
X400384Y513352D02*
X403116D01*
X400450Y513802D02*
X403050D01*
X387429Y477802D02*
X401622D01*
X395306Y475552D02*
X401586D01*
X397719Y480952D02*
X401352D01*
X395437Y475102D02*
X401173D01*
X395430Y474652D02*
X400990D01*
X390511Y522352D02*
X400986D01*
X395182Y473752D02*
X400955D01*
X395284Y474202D02*
X400953D01*
X398129Y481402D02*
X400943D01*
X370659Y480502D02*
X400786D01*
X387610Y478252D02*
X400709D01*
X394640Y521902D02*
X400573D01*
X398310Y481852D02*
X400573D01*
X395405Y520552D02*
X400450D01*
X395483Y520102D02*
X400440D01*
X386644Y480052D02*
X400435D01*
X387647Y478702D02*
X400400D01*
X395126Y521452D02*
X400390D01*
X395342Y521002D02*
X400353D01*
X387283Y479602D02*
X400285D01*
X387549Y479152D02*
X400274D01*
X387891Y512002D02*
X398457D01*
X383250Y515152D02*
X398141D01*
X375688Y512452D02*
X398136D01*
X388545Y511552D02*
X398020D01*
X383127Y516502D02*
X398017D01*
X382714Y516952D02*
X397643D01*
X382986Y514702D02*
X397639D01*
X375432Y512902D02*
X397637D01*
X388995Y511102D02*
X397570D01*
X382080Y517402D02*
X397479D01*
X382396Y517852D02*
X397457D01*
X382352Y514252D02*
X397417D01*
X374830Y513352D02*
X397416D01*
X370389Y513802D02*
X397350D01*
X389445Y510652D02*
X397120D01*
X389895Y510202D02*
X396670D01*
X393659Y509752D02*
X396220D01*
X370549Y480952D02*
X395881D01*
X393007Y483652D02*
X395851D01*
X394161Y509302D02*
X395770D01*
X392557Y483202D02*
X395617D01*
X370329Y481402D02*
X395471D01*
X383118Y482752D02*
X395351D01*
X394383Y508852D02*
X395320D01*
X369951Y481852D02*
X395290D01*
X381971Y482302D02*
X395253D01*
X394513Y508402D02*
X394870D01*
X390110Y492652D02*
X393648D01*
X390969Y493102D02*
X393355D01*
X391063Y521902D02*
X393070D01*
X391526Y493552D02*
X392905D01*
X378042Y476002D02*
X392810D01*
X378600Y473752D02*
X392618D01*
X391303Y521452D02*
X392584D01*
X378668Y474202D02*
X392516D01*
X378495Y475552D02*
X392494D01*
X391768Y494002D02*
X392455D01*
X378749Y474652D02*
X392370D01*
X391383Y521002D02*
X392368D01*
X378697Y475102D02*
X392363D01*
X391330Y520552D02*
X392305D01*
X391358Y520102D02*
X392227D01*
X389929Y492202D02*
X392159D01*
X390345Y509752D02*
X392141D01*
X389519Y491752D02*
X391708D01*
X390795Y509302D02*
X391639D01*
X388565Y491302D02*
X391258D01*
X388484Y490852D02*
X390808D01*
X388263Y490402D02*
X390393D01*
X387764Y489952D02*
X390251D01*
X384284Y489502D02*
X390250D01*
X383941Y489052D02*
X390250D01*
X370465Y488602D02*
X390250D01*
X370634Y488152D02*
X390250D01*
X370701Y487702D02*
X390231D01*
X370677Y487252D02*
X389808D01*
X386385Y486802D02*
X389358D01*
X382914Y522352D02*
X389157D01*
X387485Y486352D02*
X388908D01*
X383327Y521902D02*
X388605D01*
X370625Y524152D02*
X388448D01*
X383510Y521452D02*
X388365D01*
X383450Y520552D02*
X388338D01*
X383460Y520102D02*
X388310D01*
X383547Y521002D02*
X388285D01*
X370670Y524602D02*
X387814D01*
X370623Y525052D02*
X387550D01*
X370214Y525952D02*
X387490D01*
X370479Y525502D02*
X387453D01*
X370501Y494002D02*
X387405D01*
X370460Y493552D02*
X387151D01*
X370626Y493102D02*
X387053D01*
X370691Y492652D02*
X386241D01*
X384430Y489952D02*
X386236D01*
X370664Y492202D02*
X385739D01*
X384437Y490402D02*
X385737D01*
X370558Y486802D02*
X385615D01*
X370674Y480052D02*
X385556D01*
X370543Y491752D02*
X385517D01*
X384306Y490852D02*
X385516D01*
X383990Y491302D02*
X385450D01*
X370602Y477352D02*
X385181D01*
X370596Y479602D02*
X384917D01*
X370396Y486352D02*
X384861D01*
X370642Y477802D02*
X384771D01*
X370416Y479152D02*
X384651D01*
X370389Y501202D02*
X384649D01*
X370591Y478252D02*
X384590D01*
X370584Y485902D02*
X384571D01*
X370441Y478702D02*
X384553D01*
X382849Y485002D02*
X384469D01*
X370682Y485452D02*
X384457D01*
X370588Y500752D02*
X384394D01*
X382462Y500302D02*
X384263D01*
X383024Y499852D02*
X384141D01*
X375779Y512002D02*
X383686D01*
X375736Y511552D02*
X383032D01*
X375546Y511102D02*
X382582D01*
X370530Y501652D02*
X382467D01*
X375119Y510652D02*
X382132D01*
X370661Y502102D02*
X382126D01*
X370695Y502552D02*
X381966D01*
X370677Y494452D02*
X381922D01*
X370444Y489052D02*
X381859D01*
X370384Y491302D02*
X381810D01*
X370681Y510202D02*
X381689D01*
X370625Y489502D02*
X381516D01*
X370583Y490852D02*
X381494D01*
X370678Y509752D02*
X381486D01*
X370581Y509302D02*
X381474D01*
X370377Y508852D02*
X381474D01*
X370503Y508402D02*
X381474D01*
X370652Y507952D02*
X381468D01*
X369823Y482302D02*
X381433D01*
X370751Y494902D02*
X381404D01*
X370704Y489952D02*
X381370D01*
X370690Y490402D02*
X381363D01*
X370703Y507502D02*
X381307D01*
X370561Y514252D02*
X381248D01*
X370686Y500302D02*
X381138D01*
X370662Y507052D02*
X381130D01*
X370690Y522352D02*
X381086D01*
X370639Y503002D02*
X381075D01*
X370595Y505702D02*
X380956D01*
X370525Y506602D02*
X380927D01*
X370696Y505252D02*
X380919D01*
X370391Y506152D02*
X380875D01*
X369823Y516952D02*
X380854D01*
X370483Y503452D02*
X380701D01*
X370687Y485002D02*
X380689D01*
X370697Y521902D02*
X380673D01*
X370703Y504802D02*
X380629D01*
X370631Y514702D02*
X380614D01*
X369823Y482752D02*
X380587D01*
X370690Y499852D02*
X380576D01*
X370478Y520552D02*
X380550D01*
X370431Y503902D02*
X380537D01*
X370619Y504352D02*
X380515D01*
X370612Y521452D02*
X380490D01*
X369823Y517402D02*
X380479D01*
X370734Y495352D02*
X380474D01*
X369869Y516502D02*
X380473D01*
X370631Y498052D02*
X380471D01*
X370422Y521002D02*
X380453D01*
X370608Y515152D02*
X380350D01*
X370640Y520102D02*
X380335D01*
X370602Y499402D02*
X380333D01*
X370598Y484552D02*
X380331D01*
X370471Y498502D02*
X380302D01*
X370258Y516052D02*
X380290D01*
X369823Y483202D02*
X380284D01*
X370490Y515602D02*
X380253D01*
X370408Y498952D02*
X380251D01*
X370405Y484102D02*
X380176D01*
X370069Y483652D02*
X380162D01*
X370691Y497602D02*
X380140D01*
X370622Y495802D02*
X380040D01*
X369892Y517852D02*
X379932D01*
X370659Y497152D02*
X379889D01*
X370701Y519652D02*
X379874D01*
X370404Y496252D02*
X379846D01*
X370530Y496702D02*
X379801D01*
X370303Y518302D02*
X379694D01*
X370670Y519202D02*
X379669D01*
X370544Y518752D02*
X379615D01*
X370529Y476002D02*
X376358D01*
X370637Y475552D02*
X375905D01*
X370292Y473752D02*
X375800D01*
X370394Y474202D02*
X375732D01*
X370652Y475102D02*
X375703D01*
X370574Y474652D02*
X375651D01*
X370473Y513352D02*
X373632D01*
X370592Y510652D02*
X373343D01*
X370621Y512902D02*
X373030D01*
X370396Y511102D02*
X372916D01*
X370670Y512452D02*
X372774D01*
X370486Y511552D02*
X372726D01*
X370627Y512002D02*
X372683D01*
G54D37*
X339533Y420593D02*
X453233D01*
X569533Y408293D02*
X339533D01*
Y433293D02*
X569533D01*
X480233D02*
Y395793D01*
X454533Y433293D02*
Y395793D01*
X569533Y445793D02*
Y383293D01*
X339533*
Y445793*
X569533*
Y395793D02*
X339533D01*
X381533Y433293D02*
Y408293D01*
G54D95*
X500000Y528740D02*
X500003D01*
X370079D02*
X370081D01*
X499987Y500022D02*
X499990D01*
X316813Y499841D02*
X316815D01*
G54D104*
X422800Y486500D03*
G54D164*
X402500Y474300D03*
X377200Y474700D03*
X381755Y485932D03*
X381702Y483828D03*
X396800Y482200D03*
X398000Y485700D03*
X393400Y486300D03*
X386000Y485300D03*
X382900Y490200D03*
X387000Y491300D03*
X388600Y493000D03*
X398100Y494300D03*
X386100Y478600D03*
X393900Y474900D03*
X393800Y489100D03*
X393860Y483282D03*
X381500Y476600D03*
X392300Y493000D03*
X412600Y486300D03*
X416900Y479000D03*
X401933Y482594D03*
X404800Y494100D03*
X405600Y490200D03*
X401000Y494300D03*
X412500Y494100D03*
X415800D03*
X401812Y479340D03*
X411500Y481000D03*
X413248Y482151D03*
X405205Y482143D03*
X404898Y478205D03*
X401500Y485800D03*
X410300Y494200D03*
X418000D03*
X406800Y494100D03*
X409700Y486200D03*
X414800Y486400D03*
X421358Y476151D03*
X428800Y478100D03*
X439611Y492983D03*
X433200Y489100D03*
X424978Y486664D03*
X422800Y481600D03*
X428800Y486100D03*
X425300Y489600D03*
X425971Y480465D03*
X423171Y474692D03*
X432000Y482400D03*
X437200Y491100D03*
X429300D03*
X427300Y482100D03*
X421206Y494442D03*
X434800Y482500D03*
X449650Y481299D03*
X446004Y482273D03*
X443950Y482243D03*
X449067Y483260D03*
X445000Y489200D03*
X441638Y492917D03*
X449700Y493200D03*
X446169Y490959D03*
X456290Y477102D03*
X441058Y489151D03*
X448219Y491461D03*
X448934Y479391D03*
X445051Y477320D03*
X476012Y486678D03*
X462500Y491200D03*
X476448Y488816D03*
X478963Y486552D03*
X475000Y478700D03*
X472900Y478800D03*
X468700Y487300D03*
X465954Y490969D03*
X477100Y478600D03*
X471189Y491922D03*
X463200Y488100D03*
X464252Y492541D03*
X474219Y476265D03*
X460813Y492586D03*
X477696Y490413D03*
X470700Y478800D03*
X468852Y481361D03*
X479500Y480500D03*
X473052Y491891D03*
X465200Y488100D03*
X480366Y488093D03*
X480400Y478500D03*
X483600Y487300D03*
X497800Y493500D03*
Y491200D03*
X496800Y477600D03*
X492800Y492900D03*
X490300Y482800D03*
X492900Y487100D03*
X491900Y491000D03*
X492900Y489200D03*
X481900Y481300D03*
X374231Y511922D03*
X371880Y506978D03*
X373218Y505708D03*
X373900Y500000D03*
X372000D03*
X386700Y507400D03*
X383511Y502797D03*
X386365Y503317D03*
X398400Y502100D03*
X383400Y496800D03*
X392900Y508400D03*
X392800Y501700D03*
X391257Y509669D03*
X387200Y509400D03*
X382058Y504200D03*
X397800Y497000D03*
X381800Y498900D03*
X381349Y496631D03*
X382424Y506198D03*
X385800Y500100D03*
X385000Y509500D03*
X398900Y513800D03*
X398300Y507000D03*
X395800Y501800D03*
X384700Y498400D03*
X390300Y494500D03*
X391500Y500000D03*
X412400Y505900D03*
X415500Y505800D03*
X410300Y509800D03*
X409600Y512800D03*
X400700Y505900D03*
X404600Y513800D03*
X417500Y506900D03*
X400500Y501700D03*
X405658Y506781D03*
X402800Y505900D03*
X405700Y502900D03*
X417973Y499043D03*
X409581Y504953D03*
X417500Y504900D03*
X409600Y497200D03*
X417800Y514200D03*
X407613Y513449D03*
X415200Y513500D03*
X437131Y510863D03*
X433400Y509200D03*
X424299Y509835D03*
X429300Y510500D03*
X431596Y498201D03*
X420749Y509925D03*
X429400Y502800D03*
X425216Y505796D03*
X421420Y504841D03*
X429500Y498300D03*
X426400D03*
X437543Y495300D03*
X439100Y507500D03*
X433000Y507200D03*
X424000Y498300D03*
X421396Y506938D03*
X420900Y497700D03*
X438800Y497300D03*
X420600Y513699D03*
X446700Y507500D03*
X444500Y507800D03*
X449300Y512000D03*
X449700Y495200D03*
X448000Y498100D03*
X445400Y496100D03*
X471899Y502517D03*
X461427Y497756D03*
X462383Y504814D03*
X470596Y500226D03*
X470600Y505900D03*
X462613Y499552D03*
X469800Y507900D03*
X460303Y504701D03*
X460694Y500756D03*
X467500Y507900D03*
X464211Y503768D03*
X476856Y501190D03*
X477100Y505200D03*
X476589Y496630D03*
X476908Y499062D03*
X478327Y496780D03*
X462709Y501709D03*
X460600Y508800D03*
X463916Y497799D03*
X466121Y499457D03*
X463000Y508600D03*
X481000Y500300D03*
X498000Y504100D03*
X497200Y513600D03*
X493200Y506700D03*
X490900Y505000D03*
X480100Y508200D03*
X491700Y494900D03*
X491000Y497000D03*
X497600Y496100D03*
X376975Y523778D03*
X399000Y517700D03*
X381800Y515700D03*
X382000Y521100D03*
X389834Y520957D03*
X393855Y520565D03*
X381164Y518792D03*
X389000Y525600D03*
X394200Y516400D03*
X409300Y514900D03*
X417570Y516859D03*
X408500Y523500D03*
X409600Y517000D03*
X401900Y521100D03*
X414000Y525400D03*
X430210Y517675D03*
X420748Y517501D03*
X425234Y520612D03*
X427000Y519100D03*
X429000Y519800D03*
X422841Y517463D03*
X433400Y518263D03*
X437099Y518471D03*
X454000Y525400D03*
X457100Y524000D03*
X449062Y518883D03*
X445000Y525200D03*
X456300Y518800D03*
X449600Y524000D03*
X479300Y519700D03*
X478600Y517800D03*
X476500Y518000D03*
X472800Y525200D03*
X469200Y518800D03*
X478800Y524800D03*
X481100Y518600D03*
X495800Y525600D03*
X494400Y519200D03*
X480600Y524800D03*
G54D213*
X383302Y483828D02*
X382126Y484252D01*
X382702Y483828*
X382126Y483404*
X383302Y483828*
X382126Y483404D02*
X382126D01*
X382669Y483804D02*
X383235D01*
X382192Y484204D02*
X382261D01*
X382126Y483404D02*
X382126D01*
Y484252D02*
X382126D01*
X382526Y483548D02*
Y483699D01*
Y483957D02*
Y484108D01*
X382926Y483692D02*
Y483964D01*
X399126Y484574D02*
X398600Y485700D01*
X398707Y484993*
X398000Y485100*
X399126Y484574*
X399126*
X398269Y484974D02*
X398939D01*
X398649Y485374D02*
X398752D01*
X398000Y485100D02*
X398000D01*
X398400Y484913D02*
Y485039D01*
X398800Y484726D02*
Y485272D01*
X411469Y487431D02*
X412000Y486300D01*
X411893Y487007*
X412600Y486900*
X411469Y487431*
X412000Y486300D02*
X412000D01*
X411812Y486700D02*
X411939D01*
X411624Y487100D02*
X412174D01*
X411469Y487431D02*
X411469D01*
X411869Y486580D02*
Y487244D01*
X412269Y486950D02*
Y487056D01*
X387600Y485300D02*
X386424Y485724D01*
X387000Y485300*
X386424Y484876*
X387600Y485300*
X386424Y484876D02*
X386424D01*
X386967Y485276D02*
X387533D01*
X386490Y485676D02*
X386559D01*
X386424Y484876D02*
X386424D01*
Y485724D02*
X386424D01*
X386824Y485020D02*
Y485171D01*
Y485429D02*
Y485580D01*
X387224Y485164D02*
Y485436D01*
X392624Y487076D02*
X392816Y486438D01*
X392693Y487007*
X393262Y486884*
X392624Y487076*
X392816Y486438D02*
X392816D01*
X392696Y486838D02*
X392730D01*
X392624Y487076D02*
X392624D01*
X393024Y486935D02*
Y486955D01*
X447404Y492276D02*
X447628Y491567D01*
X447512Y492168*
X448113Y492052*
X447404Y492276*
X447628Y491567D02*
X447628D01*
X447502Y491967D02*
X447551D01*
X447404Y492276D02*
X447404D01*
X447804Y492111D02*
Y492149D01*
X436069Y492231D02*
X436600Y491100D01*
X436493Y491807*
X437200Y491700*
X436069Y492231*
X436600Y491100D02*
X436600D01*
X436412Y491500D02*
X436539D01*
X436224Y491900D02*
X436774D01*
X436069Y492231D02*
X436069D01*
X436469Y491380D02*
Y492044D01*
X436869Y491750D02*
Y491856D01*
X425269Y499431D02*
X425800Y498300D01*
X425693Y499007*
X426400Y498900*
X425269Y499431*
X425800Y498300D02*
X425800D01*
X425612Y498700D02*
X425739D01*
X425424Y499100D02*
X425974D01*
X425269Y499431D02*
X425269D01*
X425669Y498580D02*
Y499244D01*
X426069Y498950D02*
Y499056D01*
X427700Y491100D02*
X428876Y490676D01*
X428300Y491100*
X428876Y491524*
X427700Y491100*
X428876Y490676D02*
X428876D01*
X427767Y491076D02*
X428333D01*
X428741Y491476D02*
X428810D01*
X427700Y491100D02*
X427700D01*
X428100Y490956D02*
Y491244D01*
X428500Y490811D02*
Y490953D01*
Y491247D02*
Y491389D01*
X407931Y495231D02*
X406800Y494700D01*
X407507Y494807*
X407400Y494100*
X407931Y495231*
X407400Y494100D02*
X407400D01*
X407461Y494500D02*
X407588D01*
X407226Y494900D02*
X407776D01*
X406800Y494700D02*
X406800D01*
X407200Y494761D02*
Y494888D01*
X407600Y494526D02*
Y495076D01*
X420372Y495276D02*
X420613Y494533D01*
X420499Y495149*
X421115Y495035*
X420372Y495276*
X420613Y494533D02*
X420613D01*
X420483Y494933D02*
X420539D01*
X420372Y495276D02*
X420372D01*
X420772Y495099D02*
Y495146D01*
X434176Y488124D02*
X433800Y489100D01*
X433907Y488393*
X433200Y488500*
X434176Y488124*
X434176*
X433887Y488524D02*
X434022D01*
X433827Y488924D02*
X433868D01*
X433200Y488500D02*
X433200D01*
X433600Y488346D02*
Y488439D01*
X434000Y488192D02*
Y488581D01*
X472900Y480400D02*
X472476Y479224D01*
X472900Y479800*
X473324Y479224*
X472900Y480400*
X472476Y479224D02*
X472476D01*
X473324D02*
X473324D01*
X472620Y479624D02*
X472771D01*
X473029D02*
X473180D01*
X472764Y480024D02*
X473036D01*
X472476Y479224D02*
X472476D01*
X472876Y479767D02*
Y480333D01*
X473276Y479290D02*
Y479359D01*
X467937Y482276D02*
X468252Y481384D01*
X468145Y482068*
X468828Y481960*
X467937Y482276*
X468252Y481384D02*
X468252D01*
X468111Y481784D02*
X468189D01*
X467969Y482184D02*
X468196D01*
X467937Y482276D02*
X467937D01*
X468337Y482038D02*
Y482134D01*
X468737Y481975D02*
Y481993D01*
X449350Y490330D02*
X448819Y491461D01*
X448926Y490754*
X448219Y490861*
X449350Y490330*
X449350*
X448499Y490730D02*
X449163D01*
X448869Y491130D02*
X448975D01*
X448219Y490861D02*
X448219D01*
X448619Y490673D02*
Y490800D01*
X449019Y490485D02*
Y491035D01*
X470700Y480400D02*
X470276Y479224D01*
X470700Y479800*
X471124Y479224*
X470700Y480400*
X470276Y479224D02*
X470276D01*
X471124D02*
X471124D01*
X470420Y479624D02*
X470571D01*
X470829D02*
X470980D01*
X470564Y480024D02*
X470836D01*
X470276Y479224D02*
X470276D01*
X470676Y479767D02*
Y480333D01*
X471076Y479290D02*
Y479359D01*
X474924Y487766D02*
X475412Y486678D01*
X475305Y487386*
X476012Y487278*
X474924Y487766*
X475412Y486678D02*
X475412D01*
X475232Y487078D02*
X475351D01*
X475053Y487478D02*
X475566D01*
X474924Y487766D02*
X474924D01*
X475324Y486874D02*
Y487256D01*
Y487383D02*
Y487587D01*
X475724Y487322D02*
Y487407D01*
X462500Y492589D02*
X462076Y491624D01*
X462500Y492200*
X462924Y491624*
X462500Y492589*
X462076Y491624D02*
X462076D01*
X462924D02*
X462924D01*
X462252Y492024D02*
X462371D01*
X462629D02*
X462748D01*
X462428Y492424D02*
X462572D01*
X462076Y491624D02*
X462076D01*
X462476Y492167D02*
Y492534D01*
X462876Y491690D02*
Y491735D01*
X481304Y488568D02*
X480702Y488590D01*
X481258Y488545*
X480966Y488070*
X481304Y488568*
X480966Y488070D02*
X480966D01*
X481212Y488470D02*
X481237D01*
X480702Y488590D02*
X480702D01*
X481102Y488270D02*
Y488291D01*
Y488558D02*
Y488575D01*
X423224Y499076D02*
X423416Y498438D01*
X423293Y499007*
X423862Y498884*
X423224Y499076*
X423416Y498438D02*
X423416D01*
X423296Y498838D02*
X423330D01*
X423224Y499076D02*
X423224D01*
X423624Y498935D02*
Y498955D01*
X396669Y498131D02*
X397200Y497000D01*
X397093Y497707*
X397800Y497600*
X396669Y498131*
X397200Y497000D02*
X397200D01*
X397012Y497400D02*
X397139D01*
X396824Y497800D02*
X397374D01*
X396669Y498131D02*
X396669D01*
X397069Y497280D02*
Y497944D01*
X397469Y497650D02*
Y497756D01*
X388331Y508269D02*
X387800Y509400D01*
X387907Y508693*
X387200Y508800*
X388331Y508269*
X388052Y508400D02*
X388270D01*
X387200Y508800D02*
X387200D01*
X387891D02*
X388082D01*
X387830Y509200D02*
X387894D01*
X387200Y508800D02*
X387200D01*
X387600Y508612D02*
Y508739D01*
X388000Y508424D02*
Y508974D01*
X408700Y509800D02*
X409876Y509376D01*
X409300Y509800*
X409876Y510224*
X408700Y509800*
X409254Y509600D02*
X409571D01*
X409254Y510000D02*
X409571D01*
X408700Y509800D02*
X408700D01*
X409100Y509656D02*
Y509944D01*
X409500Y509511D02*
Y509653D01*
Y509947D02*
Y510089D01*
X399400Y497000D02*
X398224Y497424D01*
X398800Y497000*
X398224Y496576*
X399400Y497000*
X398224Y496576D02*
X398224D01*
X398767Y496976D02*
X399333D01*
X398290Y497376D02*
X398359D01*
X398224Y496576D02*
X398224D01*
Y497424D02*
X398224D01*
X398624Y496720D02*
Y496871D01*
Y497129D02*
Y497280D01*
X399024Y496864D02*
Y497136D01*
X428369Y499431D02*
X428900Y498300D01*
X428793Y499007*
X429500Y498900*
X428369Y499431*
X428900Y498300D02*
X428900D01*
X428712Y498700D02*
X428839D01*
X428524Y499100D02*
X429074D01*
X428369Y499431D02*
X428369D01*
X428769Y498580D02*
Y499244D01*
X429169Y498950D02*
Y499056D01*
X409169Y493069D02*
X410300Y493600D01*
X409593Y493493*
X409700Y494200*
X409169Y493069*
X409169*
X409356Y493469D02*
X410020D01*
X409544Y493869D02*
X409650D01*
X409169Y493069D02*
X409169D01*
X409569Y493256D02*
Y493920D01*
X409969Y493444D02*
Y493550D01*
X382424Y507798D02*
X382000Y506622D01*
X382424Y507198*
X382848Y506622*
X382424Y507798*
X382064Y506800D02*
X382131D01*
X382717D02*
X382784D01*
X382208Y507200D02*
X382640D01*
X382353Y507600D02*
X382495D01*
X382000Y506622D02*
X382000D01*
X382400Y507165D02*
Y507731D01*
X382800Y506688D02*
Y506757D01*
X386300Y498400D02*
X385124Y498824D01*
X385700Y498400*
X385124Y497976*
X386300Y498400*
X385124Y497976D02*
X385124D01*
X385667Y498376D02*
X386233D01*
X385190Y498776D02*
X385259D01*
X385124Y497976D02*
X385124D01*
Y498824D02*
X385124D01*
X385524Y498120D02*
Y498271D01*
Y498529D02*
Y498680D01*
X385924Y498264D02*
Y498536D01*
X407258Y506781D02*
X406082Y507205D01*
X406658Y506781*
X406082Y506357*
X407258Y506781*
X406141Y506400D02*
X406202D01*
X406632Y506800D02*
X407205D01*
X406089Y507200D02*
X406097D01*
X406082Y506357D02*
X406082D01*
Y507205D02*
X406082D01*
X406482Y506501D02*
Y506652D01*
Y506910D02*
Y507061D01*
X406882Y506645D02*
Y506917D01*
X411200Y497200D02*
X410024Y497624D01*
X410600Y497200*
X410024Y496776*
X411200Y497200*
X410024Y496776D02*
X410024D01*
X410567Y497176D02*
X411133D01*
X410090Y497576D02*
X410159D01*
X410024Y496776D02*
X410024D01*
Y497624D02*
X410024D01*
X410424Y496920D02*
Y497071D01*
Y497329D02*
Y497480D01*
X410824Y497064D02*
Y497336D01*
X425430Y508704D02*
X424899Y509835D01*
X425006Y509128*
X424299Y509235*
X425430Y508704*
X425225Y508800D02*
X425385D01*
X424374Y509200D02*
X424530D01*
X424995D02*
X425197D01*
X424935Y509600D02*
X425009D01*
X424299Y509235D02*
X424299D01*
X424699Y509047D02*
Y509174D01*
X425099Y508859D02*
Y509409D01*
X430276Y501924D02*
X429997Y502744D01*
X430107Y502093*
X429456Y502203*
X430276Y501924*
X430053Y502000D02*
X430250D01*
X430055Y502400D02*
X430114D01*
X429456Y502203D02*
X429456D01*
X429856Y502067D02*
Y502135D01*
X430256Y501931D02*
Y501983D01*
X422551Y503710D02*
X422020Y504841D01*
X422127Y504134*
X421420Y504241*
X422551Y503710*
X421933Y504000D02*
X422415D01*
X422087Y504400D02*
X422227D01*
X422026Y504800D02*
X422039D01*
X421420Y504241D02*
X421420D01*
X421820Y504053D02*
Y504180D01*
X422220Y503865D02*
Y504415D01*
X429500Y499500D02*
X429135Y498776D01*
X429500Y499300*
X429865Y498776*
X429500Y499500*
X429135Y498776D02*
X429135D01*
X429865D02*
X429865D01*
X429337Y499176D02*
X429414D01*
X429586D02*
X429663D01*
X429135Y498776D02*
X429135D01*
X429535Y499250D02*
Y499431D01*
X427531Y497169D02*
X427000Y498300D01*
X427107Y497593*
X426400Y497700*
X427531Y497169*
X427531*
X426680Y497569D02*
X427344D01*
X427050Y497969D02*
X427156D01*
X426400Y497700D02*
X426400D01*
X426800Y497512D02*
Y497639D01*
X427200Y497324D02*
Y497874D01*
X459094Y500756D02*
X460270Y500332D01*
X459694Y500756*
X460270Y501180*
X459094Y500756*
X460081Y500400D02*
X460177D01*
X459216Y500800D02*
X459754D01*
X459094Y500756D02*
X459094D01*
X459494Y500612D02*
Y500900D01*
X459894Y500467D02*
Y500609D01*
Y500903D02*
Y501045D01*
X425131Y497169D02*
X424600Y498300D01*
X424707Y497593*
X424000Y497700*
X425131Y497169*
X425131*
X424280Y497569D02*
X424944D01*
X424650Y497969D02*
X424756D01*
X424000Y497700D02*
X424000D01*
X424400Y497512D02*
Y497639D01*
X424800Y497324D02*
Y497874D01*
X422031Y496569D02*
X421500Y497700D01*
X421607Y496993*
X420900Y497100*
X422031Y496569*
X422031*
X421180Y496969D02*
X421844D01*
X421550Y497369D02*
X421656D01*
X420900Y497100D02*
X420900D01*
X421300Y496912D02*
Y497039D01*
X421700Y496724D02*
Y497274D01*
X440400Y497300D02*
X439224Y497724D01*
X439800Y497300*
X439224Y496876*
X440400Y497300*
X439224Y496876D02*
X439224D01*
X439767Y497276D02*
X440333D01*
X439290Y497676D02*
X439359D01*
X439224Y496876D02*
X439224D01*
Y497724D02*
X439224D01*
X439624Y497020D02*
Y497171D01*
Y497429D02*
Y497580D01*
X440024Y497164D02*
Y497436D01*
X381702Y483828D02*
X391840D01*
X392770Y484759*
X396650*
X398365Y483043*
Y483041*
X401487*
X401933Y482594*
X398000Y485700D02*
X399550Y484150D01*
X405150*
X409200Y488200*
X410700*
X412600Y486300*
X386000Y485300D02*
X389200D01*
X391200Y487300*
Y489900*
X392800Y491500*
X394789*
X396544Y489745*
X396544D02*
X402845D01*
X402845D02*
X404800Y491700D01*
X410000*
X412400Y494100*
X412500*
X392200Y489700D02*
Y487500D01*
X393400Y486300*
X392200Y489700D02*
X393100Y490600D01*
X394400*
X396492Y488508*
X405908*
X408300Y490900*
X410657*
X412457Y492700*
X421557*
X422357Y493500*
X437900*
X439800Y495400*
X442900*
X445600Y492700*
X446980*
X448219Y491461*
X393800Y489100D02*
X393900Y489000D01*
Y488800*
X395500Y487200*
X405800*
X408700Y490100*
X411116*
X411116D02*
X412916Y491900D01*
X412916D02*
X421983D01*
X421983D02*
X422752Y492669D01*
X432084*
X434372Y492673*
X434800*
X435626Y492674*
X437200Y491100*
X401000Y494300D02*
Y495000D01*
X405650Y499650*
X405650*
X407200Y501200*
X419350*
X420200Y500350*
X424350*
X426400Y498300*
X401500Y485800D02*
X401600Y485900D01*
X405700*
X409100Y489300*
X411600*
X413400Y491100*
X429300*
X406800Y494100D02*
X408400Y495700D01*
X419948*
X421206Y494442*
X425571Y481312D02*
Y480904D01*
X425971Y480504*
Y480465*
X425571Y481312D02*
Y482371D01*
X426451Y483251*
Y487151*
X428300Y489000*
X429900*
X432393Y491493*
X432393D02*
X434367D01*
X434367D02*
X436160Y489700D01*
X438200*
X439962Y491462*
X441238*
X441638Y491862*
Y492917*
X439611Y492983D02*
Y492993D01*
X441079Y494461*
X442300*
X443140Y493621*
X433200Y489100D02*
X434600Y487700D01*
X450800*
X453400Y485100*
X470000*
X475000Y480100*
X476400*
X477100Y479400*
Y478600*
X428800Y486100D02*
X429600Y486900D01*
X450150*
X452750Y484300*
X469600*
X472900Y481000*
Y478800*
X427300Y482300D02*
Y486800D01*
X428700Y488200*
X430258*
X432700Y490642*
X433976*
X435718Y488900*
X438600*
X440345Y490645*
X442023*
X443140Y491762*
Y493621*
X427300Y482300D02*
X427750D01*
X431550Y486100*
X449800*
X452400Y483500*
X469100*
X470700Y481900*
Y481600*
X425971Y480465D02*
X426071Y480564D01*
X426071D02*
X427933D01*
X427933D02*
X432669Y485300D01*
X449400*
X452000Y482700*
X467513*
X468852Y481361*
X427300Y482100D02*
Y482300D01*
X421206Y494442D02*
X421358D01*
X421500Y494300*
X433300*
X439466Y500466*
X439534*
X439568Y500500*
X454635*
X460213Y494922*
X463176*
X465998Y497744*
Y499334*
X466121Y499457*
X448219Y491461D02*
X453780Y485900D01*
X470500*
X475500Y480900*
X477030*
X479115Y478815*
X480085*
X480400Y478500*
X470700Y478800D02*
Y481361D01*
Y481600*
X475600Y489906D02*
Y490900D01*
X476825Y492125*
X478200*
X479448Y490877*
X484878*
X486059Y492058*
X475600Y489906D02*
Y489664D01*
X476448Y488816*
X474500Y488190D02*
Y491071D01*
X476400Y492971*
X478700*
X479771Y491900*
X484394*
X485234Y492740*
X474500Y488190D02*
X476012Y486678D01*
X462500Y491200D02*
Y493189D01*
X463484Y494173*
X464297*
X467697Y497573*
Y499101*
X478538Y488977D02*
Y487503D01*
X478963Y487077*
Y486552*
X478538Y488977D02*
X479200Y489639D01*
X484809*
X486868Y491698*
Y511046*
X480366Y488093D02*
X481839Y488839D01*
X485141*
X487668Y491366*
Y511378*
X488468Y492600D02*
Y492332D01*
X488468D02*
X491600Y489200D01*
X492900*
X488468Y492600D02*
Y511700D01*
X488468D02*
X488473Y511705D01*
X386700Y507400D02*
X386748D01*
X389684Y504464*
X409092*
X409581Y504953*
X383400Y496800D02*
X383600Y497000D01*
X392000*
X397200Y491800*
X402196*
X403200Y492804*
Y494800*
X407600Y499200*
X415354*
X416987Y497567*
X418641*
X420574Y499500*
X422800*
X424000Y498300*
X384900Y506802D02*
Y509168D01*
X385032Y509300*
X384900Y506802D02*
X388402Y503300D01*
X393900*
X394400Y502800*
Y500400*
X397800Y497000*
X387200Y509400D02*
X390900Y505700D01*
X394743*
X398843Y509800*
X410300*
X397800Y497000D02*
X401800D01*
X406366Y501566*
X406372*
X406906Y502100*
X419750*
X420700Y501150*
X426650*
X429500Y498300*
X381349Y496631D02*
Y496300D01*
X382349Y495300*
X387300*
X388000Y496000*
X391800*
X397150Y490650*
X402450*
X404400Y492600*
X408700*
X410300Y494200*
X382424Y506198D02*
Y509600D01*
X383900Y511076*
X387677*
X392153Y506600*
X394412*
X399120Y511308*
X411400*
X414100Y508608*
X418054*
X419022Y507640*
X385000Y509500D02*
X385032Y509468D01*
Y509300*
X384700Y498400D02*
X392000D01*
X397694Y492706*
Y492675*
X401600*
X402400Y493475*
Y495200*
X407300Y500100*
X416916*
X417973Y499043*
X405658Y506781D02*
X411000D01*
X411759Y507540*
X411759D02*
X413100D01*
X413100D02*
X413800Y506840D01*
X413800D02*
Y504600D01*
X415100Y503300*
X417887*
X421291Y506704*
X421900Y506695*
X421948Y506648*
X423000Y505600*
Y504832*
X424532Y503300*
X426300*
X428100Y505100*
X430348*
X431948Y503500*
X434298*
X436898Y506100*
X461727*
X462383Y505444*
Y504814*
X417500Y504900D02*
X417869Y505395D01*
X417869D02*
X418440D01*
X418440D02*
X419022Y505978D01*
Y507640*
X409600Y497200D02*
X415800D01*
X416400Y496600*
X419800*
X420900Y497700*
X422509Y508300D02*
Y510363D01*
X422509D02*
X425537Y513391D01*
X425537D02*
Y517400D01*
X425537D02*
X427000Y518863D01*
X427000D02*
Y519100D01*
X422509Y508300D02*
X423800Y507009D01*
Y505200*
X424800Y504200*
X426000*
X427700Y505900*
X430800*
X432300Y504400*
X433900*
X439100Y509600*
X446677*
X446677D02*
X447476Y508800D01*
X451630*
X451630D02*
X453077Y507353D01*
X453077D02*
X461600D01*
X462030Y506923*
X463908*
X467697Y503134*
Y499101*
X437131Y510863D02*
X437768Y511500D01*
X447526*
X448500Y510526*
X450616*
X452157Y512067*
X483356*
X485234Y510189*
Y492740*
X433400Y509200D02*
X433438D01*
X438100Y513862*
X484052*
X486868Y511046*
X424299Y509835D02*
X426138Y507996D01*
X430136*
X436802Y514662*
X484384*
X487668Y511378*
X429300Y510500D02*
X430000D01*
X435781Y516281*
X436400*
Y516280*
X485048Y516262*
X489300Y512010*
Y493775*
X491900Y491175*
Y491000*
X429400Y502800D02*
X430700Y501500D01*
X434562*
X437562Y504500*
X457764*
X459078Y503186*
X463164*
X463745Y503768*
X464211*
X425216Y505796D02*
X426320Y506900D01*
X431200*
X432600Y505500*
X433800*
X438700Y510400*
X447201*
X447901Y509700*
X452052*
X453400Y508352*
X460152*
X460600Y508800*
X421420Y504841D02*
X424000Y502261D01*
X426700*
X428739Y504300*
X430016*
X431716Y502600*
X434530*
X437230Y505300*
X459246*
X459846Y504701*
X460303*
X429500Y498300D02*
Y500100D01*
X430000Y500600*
X434794*
X437894Y503700*
X456371*
X456943Y503692*
X458367Y502268*
X462237*
X462709Y501709*
X426400Y498300D02*
X428000Y496700D01*
X432095*
X438295Y502900*
X456039*
X458183Y500756*
X460694*
X424000Y498300D02*
X426400Y495900D01*
X432450*
X433713Y497163*
X433713D02*
X438627Y502100D01*
X455707*
X458522Y499284*
X462790Y499266*
X421396Y506938D02*
X421800D01*
X420900Y497700D02*
X423500Y495100D01*
X432900*
X439100Y501300*
X455188*
X460459Y496028*
X462146*
X463916Y497799*
X463916*
X438800Y497300D02*
X443772D01*
X445072Y496000*
X445400Y496100*
X449300Y512000D02*
Y511900D01*
X449500*
X450600Y513000*
X483724*
X486059Y510665*
Y492058*
X462613Y499552D02*
X462790Y499266D01*
X381164Y518792D02*
X381300D01*
Y519100*
X409900*
X411263Y517737*
Y512637*
X414400Y509500*
X420000*
X420425Y509925*
X420749*
X426500Y516321D02*
Y510394D01*
X428098Y508796*
X429804*
X436485Y515477*
X436500Y515462*
X484716*
X488473Y511705*
X426500Y516321D02*
X428720Y518541D01*
Y519820*
X429000Y519800*
G54D262*
X500004Y472389D02*
X467001D01*
Y476419*
G03X464619Y478801I-2382J0*
G01X464592*
G03X462204Y476413I-0J-2388*
G01Y472390*
X334043*
Y478741*
X316813*
Y520941*
X334046*
Y527594*
X462205*
Y523586*
G03X464590Y521200I2385J-0*
G01X464624*
G03X467004Y523579I0J2379*
G01Y527592*
X481073*
X481162Y527589*
X500004*
Y472389*
X369407Y475255D02*
G03X369407I-991J0D01*
G01X369392Y477775D02*
G03X369392I-985J0D01*
G01X369429Y480203D02*
G03X369429I-982J0D01*
G01X369446Y485204D02*
G03X369446I-986J0D01*
G01X369454Y487596D02*
G03X369454I-988J0D01*
G01X369459Y490109D02*
G03X369459I-989J0D01*
G01X369443Y492557D02*
G03X369443I-989J0D01*
G01X369505Y495039D02*
G03X369505I-993J0D01*
G01X369442Y497535D02*
G03X369442I-976J0D01*
G01X369449Y500054D02*
G03X369449I-986J0D01*
G01X369446Y502498D02*
G03X369446I-993J0D01*
G01X369461Y504989D02*
G03X369461I-999J0D01*
G01X369453Y507477D02*
G03X369453I-985J0D01*
G01X369441Y509994D02*
G03X369441I-975J0D01*
G01X369420Y512438D02*
G03X369420I-973J0D01*
G01X369384Y514816D02*
G03X369384I-971J0D01*
G01X369452Y519577D02*
G03X369452I-986J0D01*
G01X369455Y522091D02*
G03X369455I-991J0D01*
G01X369419Y524598D02*
G03X369419I-987J0D01*
G01X357938Y519537D02*
G03X357938I-979J0D01*
G01X357951Y522053D02*
G03X357951I-997J0D01*
G01X357922Y524558D02*
G03X357922I-993J0D01*
G01X348222Y521019D02*
G03X348222I-2294J0D01*
G01X340121Y519602D02*
G03X340121I-986J0D01*
G01X340129Y522085D02*
G03X340129I-993J0D01*
G01X340116Y524645D02*
G03X340116I-981J0D01*
G01X357050Y483839D02*
X339047D01*
Y515865*
X357050*
Y483839*
X357998Y475331D02*
G03X357998I-1001J0D01*
G01X357991Y477843D02*
G03X357991I-982J0D01*
G01X357966Y480352D02*
G03X357966I-987J0D01*
G01X348123Y478587D02*
G03X348123I-2311J0D01*
G01X340146Y475504D02*
G03X340146I-1004J0D01*
G01X340135Y477962D02*
G03X340135I-988J0D01*
G01X340124Y480318D02*
G03X340124I-989J0D01*
G54D293*
G01X490157Y523228D03*
Y476772D03*
G74*
X0Y0D02*
M02*
