*
*
G04 PADS 9.2 Build Number: 406656 generated Gerber (RS-274-X) file*
G04 PC Version=2.1*
*
%IN "IS903SZQ064-4Z08-TB (RI"*%
*
%MOIN*%
*
%FSLAX35Y35*%
*
*
*
*
G04 PC Standard Apertures*
*
*
G04 Thermal Relief Aperture macro.*
%AMTER*
1,1,$1,0,0*
1,0,$1-$2,0,0*
21,0,$3,$4,0,0,45*
21,0,$3,$4,0,0,135*
%
*
*
G04 Annular Aperture macro.*
%AMANN*
1,1,$1,0,0*
1,0,$2,0,0*
%
*
*
G04 Odd Aperture macro.*
%AMODD*
1,1,$1,0,0*
1,0,$1-0.005,0,0*
%
*
*
G04 PC Custom Aperture Macros*
*
*
*
*
*
*
G04 PC Aperture Table*
*
%ADD033C,0.01*%
%ADD035C,0.005*%
%ADD037C,0.006*%
%ADD095C,0.001*%
%ADD152R,0.024X0.024*%
%ADD165C,0.026*%
%ADD262C,0.00118*%
%ADD280R,0.04543X0.04543*%
%ADD281C,0.02831*%
%ADD284R,0.12X0.12*%
%ADD302R,0.06X0.02*%
%ADD303R,0.03X0.03*%
%ADD305O,0.11236X0.06906*%
%ADD306C,0.02969*%
%ADD307R,0.03362X0.018*%
%ADD308R,0.018X0.03362*%
%ADD309R,0.03362X0.0415*%
%ADD310O,0.11236X0.05331*%
*
*
*
*
G04 PC Circuitry*
G04 Layer Name IS903SZQ064-4Z08-TB (RI - circuitry*
%LPD*%
*
*
G04 PC Custom Flashes*
G04 Layer Name IS903SZQ064-4Z08-TB (RI - flashes*
%LPD*%
*
*
G04 PC Circuitry*
G04 Layer Name IS903SZQ064-4Z08-TB (RI - circuitry*
%LPD*%
*
G54D33*
G01X493238Y503347D02*
X492844Y503740D01*
Y504922*
X493238Y505315*
X494419*
X494813Y504922*
Y503740*
X494419Y503347*
X493238*
X493100Y503484D02*
Y505177D01*
X493600Y503347D02*
Y505315D01*
X494100Y503347D02*
Y505315D01*
X494600Y503527D02*
Y505134D01*
X496781Y503347D02*
X496387Y503740D01*
Y504922*
X496781Y505315*
X497962*
X498356Y504922*
Y503740*
X497962Y503347*
X496781*
X496600Y503527D02*
Y505134D01*
X497100Y503347D02*
Y505315D01*
X497600Y503347D02*
Y505315D01*
X498100Y503484D02*
Y505177D01*
X496616Y501968D02*
X497009Y502362D01*
X498191*
X498584Y501968*
Y500787*
X498191Y500393*
X497009*
X496616Y500787*
Y501968*
X497100Y500393D02*
Y502362D01*
X497600Y500393D02*
Y502362D01*
X498100Y500393D02*
Y502362D01*
X496616Y498425D02*
X497009Y498819D01*
X498191*
X498584Y498425*
Y497244*
X498191Y496850*
X497009*
X496616Y497244*
Y498425*
X497100Y496850D02*
Y498819D01*
X497600Y496850D02*
Y498819D01*
X498100Y496850D02*
Y498819D01*
X498584Y520838D02*
X498191Y520444D01*
X497009*
X496616Y520838*
Y522019*
X497009Y522413*
X498191*
X498584Y522019*
Y520838*
X497100Y520444D02*
Y522413D01*
X497600Y520444D02*
Y522413D01*
X498100Y520444D02*
Y522413D01*
X498584Y524381D02*
X498191Y523987D01*
X497009*
X496616Y524381*
Y525562*
X497009Y525956*
X498191*
X498584Y525562*
Y524381*
X497100Y523987D02*
Y525956D01*
X497600Y523987D02*
Y525956D01*
X498100Y523987D02*
Y525956D01*
X459533Y403543D02*
Y398293D01*
Y403543D02*
X460805D01*
X461351Y403293*
X461714Y402793*
X461896Y402293*
X462078Y401543*
Y400293*
X461896Y399543*
X461714Y399043*
X461351Y398543*
X460805Y398293*
X459533*
X465169Y403543D02*
X463714Y398293D01*
X465169Y403543D02*
X466623Y398293D01*
X464260Y400043D02*
X466078D01*
X469533Y403543D02*
Y398293D01*
X468260Y403543D02*
X470805D01*
X472442D02*
Y398293D01*
Y403543D02*
X474805D01*
X472442Y401043D02*
X473896D01*
X472442Y398293D02*
X474805D01*
X457433Y418643D02*
Y413393D01*
Y418643D02*
X459978Y413393D01*
Y418643D02*
Y413393D01*
X463069Y418643D02*
X461614Y413393D01*
X463069Y418643D02*
X464523Y413393D01*
X462160Y415143D02*
X463978D01*
X466160Y418643D02*
Y413393D01*
Y418643D02*
X467614Y413393D01*
X469069Y418643D02*
X467614Y413393D01*
X469069Y418643D02*
Y413393D01*
X470705Y418643D02*
Y413393D01*
Y418643D02*
X473069D01*
X470705Y416143D02*
X472160D01*
X470705Y413393D02*
X473069D01*
X457133Y428543D02*
Y423293D01*
X459314*
X462405Y428543D02*
X460951Y423293D01*
X462405Y428543D02*
X463860Y423293D01*
X461496Y425043D02*
X463314D01*
X465496Y428543D02*
X466951Y426043D01*
Y423293*
X468405Y428543D02*
X466951Y426043D01*
X470042Y428543D02*
Y423293D01*
Y428543D02*
X472405D01*
X470042Y426043D02*
X471496D01*
X470042Y423293D02*
X472405D01*
X474042Y428543D02*
Y423293D01*
Y428543D02*
X475678D01*
X476223Y428293*
X476405Y428043*
X476587Y427543*
Y427043*
X476405Y426543*
X476223Y426293*
X475678Y426043*
X474042*
X475314D02*
X476587Y423293D01*
X342783Y429443D02*
Y424193D01*
Y429443D02*
X344419D01*
X344964Y429193*
X345146Y428943*
X345328Y428443*
Y427693*
X345146Y427193*
X344964Y426943*
X344419Y426693*
X342783*
X348419Y429443D02*
X346964Y424193D01*
X348419Y429443D02*
X349873Y424193D01*
X347510Y425943D02*
X349328D01*
X351510Y429443D02*
Y424193D01*
Y429443D02*
X353146D01*
X353692Y429193*
X353873Y428943*
X354055Y428443*
Y427943*
X353873Y427443*
X353692Y427193*
X353146Y426943*
X351510*
X352783D02*
X354055Y424193D01*
X356964Y429443D02*
Y424193D01*
X355692Y429443D02*
X358237D01*
X364055D02*
Y424193D01*
Y429443D02*
X366601Y424193D01*
Y429443D02*
Y424193D01*
X369692Y429443D02*
X368237Y424193D01*
X369692Y429443D02*
X371146Y424193D01*
X368783Y425943D02*
X370601D01*
X372783Y429443D02*
Y424193D01*
Y429443D02*
X374237Y424193D01*
X375692Y429443D02*
X374237Y424193D01*
X375692Y429443D02*
Y424193D01*
X377328Y429443D02*
Y424193D01*
Y429443D02*
X379692D01*
X377328Y426943D02*
X378783D01*
X377328Y424193D02*
X379692D01*
X352078Y390293D02*
X351714Y390793D01*
X351169Y391043*
X350442*
X349896Y390793*
X349533Y390293*
Y389793*
X349714Y389293*
X349896Y389043*
X350260Y388793*
X351351Y388293*
X351714Y388043*
X351896Y387793*
X352078Y387293*
Y386543*
X351714Y386043*
X351169Y385793*
X350442*
X349896Y386043*
X349533Y386543*
X353714Y388793D02*
X356987D01*
X353714Y387293D02*
X356987D01*
X366987Y391043D02*
Y385793D01*
Y391043D02*
X368260D01*
X368805Y390793*
X369169Y390293*
X369351Y389793*
X369533Y389043*
Y387793*
X369351Y387043*
X369169Y386543*
X368805Y386043*
X368260Y385793*
X366987*
X373533Y389293D02*
X373351Y388543D01*
X372987Y388043*
X372442Y387793*
X372260*
X371714Y388043*
X371351Y388543*
X371169Y389293*
Y389543*
X371351Y390293*
X371714Y390793*
X372260Y391043*
X372442*
X372987Y390793*
X373351Y390293*
X373533Y389293*
Y388043*
X373351Y386793*
X372987Y386043*
X372442Y385793*
X372078*
X371533Y386043*
X371351Y386543*
X376260Y391043D02*
X375714Y390793D01*
X375351Y390043*
X375169Y388793*
Y388043*
X375351Y386793*
X375714Y386043*
X376260Y385793*
X376623*
X377169Y386043*
X377533Y386793*
X377714Y388043*
Y388793*
X377533Y390043*
X377169Y390793*
X376623Y391043*
X376260*
X379351Y388793D02*
X382623D01*
X379351Y387293D02*
X382623D01*
X386442Y390293D02*
X386260Y390793D01*
X385714Y391043*
X385351*
X384805Y390793*
X384442Y390043*
X384260Y388793*
Y387543*
X384442Y386543*
X384805Y386043*
X385351Y385793*
X385533*
X386078Y386043*
X386442Y386543*
X386623Y387293*
Y387543*
X386442Y388293*
X386078Y388793*
X385533Y389043*
X385351*
X384805Y388793*
X384442Y388293*
X384260Y387543*
X391533Y392043D02*
X388260Y384043D01*
X395351Y390293D02*
X395169Y390793D01*
X394623Y391043*
X394260*
X393714Y390793*
X393351Y390043*
X393169Y388793*
Y387543*
X393351Y386543*
X393714Y386043*
X394260Y385793*
X394442*
X394987Y386043*
X395351Y386543*
X395533Y387293*
Y387543*
X395351Y388293*
X394987Y388793*
X394442Y389043*
X394260*
X393714Y388793*
X393351Y388293*
X393169Y387543*
X400442Y392043D02*
X397169Y384043D01*
X404260Y390293D02*
X404078Y390793D01*
X403533Y391043*
X403169*
X402623Y390793*
X402260Y390043*
X402078Y388793*
Y387543*
X402260Y386543*
X402623Y386043*
X403169Y385793*
X403351*
X403896Y386043*
X404260Y386543*
X404442Y387293*
Y387543*
X404260Y388293*
X403896Y388793*
X403351Y389043*
X403169*
X402623Y388793*
X402260Y388293*
X402078Y387543*
X409351Y392043D02*
X406078Y384043D01*
X413169Y390293D02*
X412987Y390793D01*
X412442Y391043*
X412078*
X411533Y390793*
X411169Y390043*
X410987Y388793*
Y387543*
X411169Y386543*
X411533Y386043*
X412078Y385793*
X412260*
X412805Y386043*
X413169Y386543*
X413351Y387293*
Y387543*
X413169Y388293*
X412805Y388793*
X412260Y389043*
X412078*
X411533Y388793*
X411169Y388293*
X410987Y387543*
X418260Y392043D02*
X414987Y384043D01*
X422078Y390293D02*
X421896Y390793D01*
X421351Y391043*
X420987*
X420442Y390793*
X420078Y390043*
X419896Y388793*
Y387543*
X420078Y386543*
X420442Y386043*
X420987Y385793*
X421169*
X421714Y386043*
X422078Y386543*
X422260Y387293*
Y387543*
X422078Y388293*
X421714Y388793*
X421169Y389043*
X420987*
X420442Y388793*
X420078Y388293*
X419896Y387543*
X440623Y391043D02*
Y385793D01*
Y391043D02*
X441896D01*
X442442Y390793*
X442805Y390293*
X442987Y389793*
X443169Y389043*
Y387793*
X442987Y387043*
X442805Y386543*
X442442Y386043*
X441896Y385793*
X440623*
X444805Y390043D02*
X445169Y390293D01*
X445714Y391043*
Y385793*
X448442Y391043D02*
X447896Y390793D01*
X447533Y390043*
X447351Y388793*
Y388043*
X447533Y386793*
X447896Y386043*
X448442Y385793*
X448805*
X449351Y386043*
X449714Y386793*
X449896Y388043*
Y388793*
X449714Y390043*
X449351Y390793*
X448805Y391043*
X448442*
X452623D02*
X452078Y390793D01*
X451714Y390043*
X451533Y388793*
Y388043*
X451714Y386793*
X452078Y386043*
X452623Y385793*
X452987*
X453533Y386043*
X453896Y386793*
X454078Y388043*
Y388793*
X453896Y390043*
X453533Y390793*
X452987Y391043*
X452623*
X455714Y388793D02*
X458987D01*
X455714Y387293D02*
X458987D01*
X389533Y442355D02*
Y435793D01*
X391578Y440168D02*
Y435793D01*
Y438918D02*
X392260Y439855D01*
X392714Y440168*
X393396*
X393851Y439855*
X394078Y438918*
Y435793*
X396123Y440168D02*
Y435793D01*
Y438918D02*
X396805Y439855D01*
X397260Y440168*
X397942*
X398396Y439855*
X398623Y438918*
Y435793*
X401805Y440168D02*
X401351Y439855D01*
X400896Y439230*
X400669Y438293*
Y437668*
X400896Y436730*
X401351Y436105*
X401805Y435793*
X402487*
X402942Y436105*
X403396Y436730*
X403623Y437668*
Y438293*
X403396Y439230*
X402942Y439855*
X402487Y440168*
X401805*
X408169Y439230D02*
X407942Y439855D01*
X407260Y440168*
X406578*
X405896Y439855*
X405669Y439230*
X405896Y438605*
X406351Y438293*
X407487Y437980*
X407942Y437668*
X408169Y437043*
Y436730*
X407942Y436105*
X407260Y435793*
X406578*
X405896Y436105*
X405669Y436730*
X410896Y442355D02*
Y437043D01*
X411123Y436105*
X411578Y435793*
X412033*
X410214Y440168D02*
X411805D01*
X415214D02*
X414760Y439855D01*
X414305Y439230*
X414078Y438293*
Y437668*
X414305Y436730*
X414760Y436105*
X415214Y435793*
X415896*
X416351Y436105*
X416805Y436730*
X417033Y437668*
Y438293*
X416805Y439230*
X416351Y439855*
X415896Y440168*
X415214*
X419078D02*
Y435793D01*
Y438293D02*
X419305Y439230D01*
X419760Y439855*
X420214Y440168*
X420896*
X429760Y442355D02*
Y435793D01*
X428169Y442355D02*
X431351D01*
X433396Y438293D02*
X436123D01*
Y438918*
X435896Y439543*
X435669Y439855*
X435214Y440168*
X434533*
X434078Y439855*
X433623Y439230*
X433396Y438293*
Y437668*
X433623Y436730*
X434078Y436105*
X434533Y435793*
X435214*
X435669Y436105*
X436123Y436730*
X440896Y439230D02*
X440442Y439855D01*
X439987Y440168*
X439305*
X438851Y439855*
X438396Y439230*
X438169Y438293*
Y437668*
X438396Y436730*
X438851Y436105*
X439305Y435793*
X439987*
X440442Y436105*
X440896Y436730*
X442942Y442355D02*
Y435793D01*
Y438918D02*
X443623Y439855D01*
X444078Y440168*
X444760*
X445214Y439855*
X445442Y438918*
Y435793*
X447487Y440168D02*
Y435793D01*
Y438918D02*
X448169Y439855D01*
X448623Y440168*
X449305*
X449760Y439855*
X449987Y438918*
Y435793*
X453169Y440168D02*
X452714Y439855D01*
X452260Y439230*
X452033Y438293*
Y437668*
X452260Y436730*
X452714Y436105*
X453169Y435793*
X453851*
X454305Y436105*
X454760Y436730*
X454987Y437668*
Y438293*
X454760Y439230*
X454305Y439855*
X453851Y440168*
X453169*
X457033Y442355D02*
Y435793D01*
X460214Y440168D02*
X459760Y439855D01*
X459305Y439230*
X459078Y438293*
Y437668*
X459305Y436730*
X459760Y436105*
X460214Y435793*
X460896*
X461351Y436105*
X461805Y436730*
X462033Y437668*
Y438293*
X461805Y439230*
X461351Y439855*
X460896Y440168*
X460214*
X466805D02*
Y435168D01*
X466578Y434230*
X466351Y433918*
X465896Y433605*
X465214*
X464760Y433918*
X466805Y439230D02*
X466351Y439855D01*
X465896Y440168*
X465214*
X464760Y439855*
X464305Y439230*
X464078Y438293*
Y437668*
X464305Y436730*
X464760Y436105*
X465214Y435793*
X465896*
X466351Y436105*
X466805Y436730*
X469078Y440168D02*
X470442Y435793D01*
X471805Y440168D02*
X470442Y435793D01*
X469987Y434543*
X469533Y433918*
X469078Y433605*
X468851*
X482487Y440793D02*
X482260Y441418D01*
X481805Y442043*
X481351Y442355*
X480442*
X479987Y442043*
X479533Y441418*
X479305Y440793*
X479078Y439855*
Y438293*
X479305Y437355*
X479533Y436730*
X479987Y436105*
X480442Y435793*
X481351*
X481805Y436105*
X482260Y436730*
X482487Y437355*
X485669Y440168D02*
X485214Y439855D01*
X484760Y439230*
X484533Y438293*
Y437668*
X484760Y436730*
X485214Y436105*
X485669Y435793*
X486351*
X486805Y436105*
X487260Y436730*
X487487Y437668*
Y438293*
X487260Y439230*
X486805Y439855*
X486351Y440168*
X485669*
X489533D02*
Y435793D01*
Y438293D02*
X489760Y439230D01*
X490214Y439855*
X490669Y440168*
X491351*
X493396D02*
Y433605D01*
Y439230D02*
X493851Y439855D01*
X494305Y440168*
X494987*
X495442Y439855*
X495896Y439230*
X496123Y438293*
Y437668*
X495896Y436730*
X495442Y436105*
X494987Y435793*
X494305*
X493851Y436105*
X493396Y436730*
X499305Y440168D02*
X498851Y439855D01*
X498396Y439230*
X498169Y438293*
Y437668*
X498396Y436730*
X498851Y436105*
X499305Y435793*
X499987*
X500442Y436105*
X500896Y436730*
X501123Y437668*
Y438293*
X500896Y439230*
X500442Y439855*
X499987Y440168*
X499305*
X503169D02*
Y435793D01*
Y438293D02*
X503396Y439230D01*
X503851Y439855*
X504305Y440168*
X504987*
X509760D02*
Y435793D01*
Y439230D02*
X509305Y439855D01*
X508851Y440168*
X508169*
X507714Y439855*
X507260Y439230*
X507033Y438293*
Y437668*
X507260Y436730*
X507714Y436105*
X508169Y435793*
X508851*
X509305Y436105*
X509760Y436730*
X512487Y442355D02*
Y437043D01*
X512714Y436105*
X513169Y435793*
X513623*
X511805Y440168D02*
X513396D01*
X515669Y442355D02*
X515896Y442043D01*
X516123Y442355*
X515896Y442668*
X515669Y442355*
X515896Y440168D02*
Y435793D01*
X519305Y440168D02*
X518851Y439855D01*
X518396Y439230*
X518169Y438293*
Y437668*
X518396Y436730*
X518851Y436105*
X519305Y435793*
X519987*
X520442Y436105*
X520896Y436730*
X521123Y437668*
Y438293*
X520896Y439230*
X520442Y439855*
X519987Y440168*
X519305*
X523169D02*
Y435793D01*
Y438918D02*
X523851Y439855D01*
X524305Y440168*
X524987*
X525442Y439855*
X525669Y438918*
Y435793*
X346083Y417143D02*
Y411893D01*
Y417143D02*
X347719D01*
X348264Y416893*
X348446Y416643*
X348628Y416143*
Y415393*
X348446Y414893*
X348264Y414643*
X347719Y414393*
X346083*
X351719Y417143D02*
X350264Y411893D01*
X351719Y417143D02*
X353173Y411893D01*
X350810Y413643D02*
X352628D01*
X354810Y417143D02*
Y411893D01*
Y417143D02*
X356446D01*
X356992Y416893*
X357173Y416643*
X357355Y416143*
Y415643*
X357173Y415143*
X356992Y414893*
X356446Y414643*
X354810*
X356083D02*
X357355Y411893D01*
X360264Y417143D02*
Y411893D01*
X358992Y417143D02*
X361537D01*
X367355D02*
Y411893D01*
Y417143D02*
X369901Y411893D01*
Y417143D02*
Y411893D01*
X372628Y417143D02*
X372264Y416893D01*
X371901Y416393*
X371719Y415893*
X371537Y415143*
Y413893*
X371719Y413143*
X371901Y412643*
X372264Y412143*
X372628Y411893*
X373355*
X373719Y412143*
X374083Y412643*
X374264Y413143*
X374446Y413893*
Y415143*
X374264Y415893*
X374083Y416393*
X373719Y416893*
X373355Y417143*
X372628*
X376264Y412393D02*
X376083Y412143D01*
X376264Y411893*
X376446Y412143*
X376264Y412393*
X368851Y402918D02*
X367033Y399418D01*
X369760*
X368851Y402918D02*
Y397668D01*
X375578Y402918D02*
Y397668D01*
X377760*
X380851Y402918D02*
X379396Y397668D01*
X380851Y402918D02*
X382305Y397668D01*
X379942Y399418D02*
X381760D01*
X383942Y402918D02*
X385396Y400418D01*
Y397668*
X386851Y402918D02*
X385396Y400418D01*
X388487Y402918D02*
Y397668D01*
Y402918D02*
X390851D01*
X388487Y400418D02*
X389942D01*
X388487Y397668D02*
X390851D01*
X392487Y402918D02*
Y397668D01*
Y402918D02*
X394123D01*
X394669Y402668*
X394851Y402418*
X395033Y401918*
Y401418*
X394851Y400918*
X394669Y400668*
X394123Y400418*
X392487*
X393760D02*
X395033Y397668D01*
X396669Y399918D02*
X399942D01*
X401578Y402918D02*
Y397668D01*
Y402918D02*
X403942D01*
X401578Y400418D02*
X403033D01*
X405578Y402918D02*
Y397668D01*
Y402918D02*
X407214D01*
X407760Y402668*
X407942Y402418*
X408123Y401918*
Y401418*
X407942Y400918*
X407760Y400668*
X407214Y400418*
X405578*
X406851D02*
X408123Y397668D01*
X411578Y402918D02*
X409760Y399418D01*
X412487*
X411578Y402918D02*
Y397668D01*
X414123Y399918D02*
X417396D01*
X419033Y401918D02*
X419396Y402168D01*
X419942Y402918*
Y397668*
X421760Y398168D02*
X421578Y397918D01*
X421760Y397668*
X421942Y397918*
X421760Y398168*
X424669Y402918D02*
X424123Y402668D01*
X423760Y401918*
X423578Y400668*
Y399918*
X423760Y398668*
X424123Y397918*
X424669Y397668*
X425033*
X425578Y397918*
X425942Y398668*
X426123Y399918*
Y400668*
X425942Y401918*
X425578Y402668*
X425033Y402918*
X424669*
X428305D02*
Y398668D01*
X428487Y397918*
X428851Y397668*
X429214*
X427760Y401168D02*
X429033D01*
X509714Y402293D02*
Y402543D01*
X509896Y403043*
X510078Y403293*
X510442Y403543*
X511169*
X511533Y403293*
X511714Y403043*
X511896Y402543*
Y402043*
X511714Y401543*
X511351Y400793*
X509533Y398293*
X512078*
X514805Y403543D02*
X514260Y403293D01*
X513896Y402543*
X513714Y401293*
Y400543*
X513896Y399293*
X514260Y398543*
X514805Y398293*
X515169*
X515714Y398543*
X516078Y399293*
X516260Y400543*
Y401293*
X516078Y402543*
X515714Y403293*
X515169Y403543*
X514805*
X517896Y402543D02*
X518260Y402793D01*
X518805Y403543*
Y398293*
X522260Y403543D02*
X520442Y400043D01*
X523169*
X522260Y403543D02*
Y398293D01*
X524987Y398793D02*
X524805Y398543D01*
X524987Y398293*
X525169Y398543*
X524987Y398793*
X527169Y403543D02*
X529169D01*
X528078Y401543*
X528623*
X528987Y401293*
X529169Y401043*
X529351Y400293*
Y399793*
X529169Y399043*
X528805Y398543*
X528260Y398293*
X527714*
X527169Y398543*
X526987Y398793*
X526805Y399293*
X531169Y398793D02*
X530987Y398543D01*
X531169Y398293*
X531351Y398543*
X531169Y398793*
X533169Y402293D02*
Y402543D01*
X533351Y403043*
X533533Y403293*
X533896Y403543*
X534623*
X534987Y403293*
X535169Y403043*
X535351Y402543*
Y402043*
X535169Y401543*
X534805Y400793*
X532987Y398293*
X535533*
X539533Y403543D02*
X537714D01*
X537533Y401293*
X537714Y401543*
X538260Y401793*
X538805*
X539351Y401543*
X539714Y401043*
X539896Y400293*
X539714Y399793*
X539533Y399043*
X539169Y398543*
X538623Y398293*
X538078*
X537533Y398543*
X537351Y398793*
X537169Y399293*
X487214Y421918D02*
X486760Y422543D01*
X486078Y422855*
X485169*
X484487Y422543*
X484033Y421918*
Y421293*
X484260Y420668*
X484487Y420355*
X484942Y420043*
X486305Y419418*
X486760Y419105*
X486987Y418793*
X487214Y418168*
Y417230*
X486760Y416605*
X486078Y416293*
X485169*
X484487Y416605*
X484033Y417230*
X490396Y420668D02*
X489942Y420355D01*
X489487Y419730*
X489260Y418793*
Y418168*
X489487Y417230*
X489942Y416605*
X490396Y416293*
X491078*
X491533Y416605*
X491987Y417230*
X492214Y418168*
Y418793*
X491987Y419730*
X491533Y420355*
X491078Y420668*
X490396*
X494260Y422855D02*
Y416293D01*
X499033Y422855D02*
Y416293D01*
Y419730D02*
X498578Y420355D01*
X498123Y420668*
X497442*
X496987Y420355*
X496533Y419730*
X496305Y418793*
Y418168*
X496533Y417230*
X496987Y416605*
X497442Y416293*
X498123*
X498578Y416605*
X499033Y417230*
X501078Y418793D02*
X503805D01*
Y419418*
X503578Y420043*
X503351Y420355*
X502896Y420668*
X502214*
X501760Y420355*
X501305Y419730*
X501078Y418793*
Y418168*
X501305Y417230*
X501760Y416605*
X502214Y416293*
X502896*
X503351Y416605*
X503805Y417230*
X505851Y420668D02*
Y416293D01*
Y418793D02*
X506078Y419730D01*
X506533Y420355*
X506987Y420668*
X507669*
X514942Y422855D02*
Y416293D01*
Y422855D02*
X516760Y416293D01*
X518578Y422855D02*
X516760Y416293D01*
X518578Y422855D02*
Y416293D01*
X523351Y420668D02*
Y416293D01*
Y419730D02*
X522896Y420355D01*
X522442Y420668*
X521760*
X521305Y420355*
X520851Y419730*
X520623Y418793*
Y418168*
X520851Y417230*
X521305Y416605*
X521760Y416293*
X522442*
X522896Y416605*
X523351Y417230*
X527896Y419730D02*
X527669Y420355D01*
X526987Y420668*
X526305*
X525623Y420355*
X525396Y419730*
X525623Y419105*
X526078Y418793*
X527214Y418480*
X527669Y418168*
X527896Y417543*
Y417230*
X527669Y416605*
X526987Y416293*
X526305*
X525623Y416605*
X525396Y417230*
X529942Y422855D02*
Y416293D01*
X532214Y420668D02*
X529942Y417543D01*
X530851Y418793D02*
X532442Y416293D01*
X539714Y422855D02*
Y416293D01*
Y422855D02*
X541760D01*
X542442Y422543*
X542669Y422230*
X542896Y421605*
Y420980*
X542669Y420355*
X542442Y420043*
X541760Y419730*
X539714D02*
X541760D01*
X542442Y419418*
X542669Y419105*
X542896Y418480*
Y417543*
X542669Y416918*
X542442Y416605*
X541760Y416293*
X539714*
X546078Y420668D02*
X545623Y420355D01*
X545169Y419730*
X544942Y418793*
Y418168*
X545169Y417230*
X545623Y416605*
X546078Y416293*
X546760*
X547214Y416605*
X547669Y417230*
X547896Y418168*
Y418793*
X547669Y419730*
X547214Y420355*
X546760Y420668*
X546078*
X550623Y422855D02*
Y417543D01*
X550851Y416605*
X551305Y416293*
X551760*
X549942Y420668D02*
X551533D01*
X554487Y422855D02*
Y417543D01*
X554714Y416605*
X555169Y416293*
X555623*
X553805Y420668D02*
X555396D01*
X558805D02*
X558351Y420355D01*
X557896Y419730*
X557669Y418793*
Y418168*
X557896Y417230*
X558351Y416605*
X558805Y416293*
X559487*
X559942Y416605*
X560396Y417230*
X560623Y418168*
Y418793*
X560396Y419730*
X559942Y420355*
X559487Y420668*
X558805*
X562669D02*
Y416293D01*
Y419418D02*
X563351Y420355D01*
X563805Y420668*
X564487*
X564942Y420355*
X565169Y419418*
Y416293*
Y419418D02*
X565851Y420355D01*
X566305Y420668*
X566987*
X567442Y420355*
X567669Y419418*
Y416293*
X500000Y538583D02*
X453636D01*
X500000D02*
X490000Y536083D01*
Y541083*
X500000Y538583*
X370079D02*
X416500D01*
X370079D02*
X380079Y541083D01*
Y536083*
X370079Y538583*
X500000Y533740D02*
Y543583D01*
X370079Y533740D02*
Y543583D01*
X419955Y541363D02*
X422455D01*
X422455D02*
X421091Y538863D01*
X421091D02*
X421773D01*
X421773D02*
X422227Y538550D01*
X422455Y538238*
X422455D02*
X422682Y537300D01*
Y536675*
X422455Y535738*
X422455D02*
X422000Y535113D01*
X422000D02*
X421318Y534800D01*
X420636*
X419955Y535113*
X419955D02*
X419727Y535425D01*
X419500Y536050*
X425182Y541363D02*
X427682D01*
X427682D02*
X426318Y538863D01*
X426318D02*
X427000D01*
X427000D02*
X427455Y538550D01*
X427682Y538238*
X427682D02*
X427909Y537300D01*
Y536675*
X427682Y535738*
X427682D02*
X427227Y535113D01*
X427227D02*
X426545Y534800D01*
X425864*
X425182Y535113*
X425182D02*
X424955Y535425D01*
X424727Y536050*
X430182Y535425D02*
X429955Y535113D01*
X429955D02*
X430182Y534800D01*
X430409Y535113*
X430409D02*
X430182Y535425D01*
X433818Y541363D02*
X433136Y541050D01*
X432682Y540113*
X432682D02*
X432455Y538550D01*
Y537613*
X432455D02*
X432682Y536050D01*
X433136Y535113*
X433136D02*
X433818Y534800D01*
X434273*
X434955Y535113*
X434955D02*
X435409Y536050D01*
X435636Y537613*
X435636D02*
Y538550D01*
X435409Y540113*
X435409D02*
X434955Y541050D01*
X434273Y541363*
X434273D02*
X433818D01*
X437682Y539175D02*
Y534800D01*
Y537925D02*
X438364Y538863D01*
X438364D02*
X438818Y539175D01*
X439500*
X439955Y538863*
X439955D02*
X440182Y537925D01*
Y534800*
Y537925D02*
X440864Y538863D01*
X440864D02*
X441318Y539175D01*
X442000*
X442455Y538863*
X442455D02*
X442682Y537925D01*
Y534800*
X444727Y539175D02*
Y534800D01*
Y537925D02*
X445409Y538863D01*
X445409D02*
X445864Y539175D01*
X446545*
X447000Y538863*
X447000D02*
X447227Y537925D01*
Y534800*
Y537925D02*
X447909Y538863D01*
X447909D02*
X448364Y539175D01*
X449045*
X449500Y538863*
X449500D02*
X449727Y537925D01*
Y534800*
X466958Y547480D02*
X481958D01*
X466958D02*
X476958Y549980D01*
Y544980*
X466958Y547480*
X462158D02*
X447158D01*
X462158D02*
X452158Y544980D01*
Y549980*
X462158Y547480*
X466958Y532597D02*
Y552480D01*
X462158Y532599D02*
Y552480D01*
X451063Y561690D02*
X451518Y562003D01*
X452199Y562940*
Y556378*
X454472Y557003D02*
X454245Y556690D01*
X454472Y556378*
X454699Y556690*
X454472Y557003*
X456972Y561378D02*
Y561690D01*
X457199Y562315*
X457427Y562628*
X457881Y562940*
X458790*
X459245Y562628*
X459472Y562315*
X459699Y561690*
Y561065*
X459472Y560440*
X459018Y559503*
X456745Y556378*
X459927*
X461972Y560753D02*
Y556378D01*
Y559503D02*
X462654Y560440D01*
X463108Y560753*
X463790*
X464245Y560440*
X464472Y559503*
Y556378*
Y559503D02*
X465154Y560440D01*
X465608Y560753*
X466290*
X466745Y560440*
X466972Y559503*
Y556378*
X469018Y560753D02*
Y556378D01*
Y559503D02*
X469699Y560440D01*
X470154Y560753*
X470836*
X471290Y560440*
X471518Y559503*
Y556378*
Y559503D02*
X472199Y560440D01*
X472654Y560753*
X473336*
X473790Y560440*
X474018Y559503*
Y556378*
X464573Y476424D02*
X464576D01*
X465234Y474136D02*
X465237D01*
X465234D02*
X470411Y465222D01*
X465607Y463835*
X465234Y474136*
X469397Y459725*
X479397*
X482397Y462537D02*
Y455975D01*
Y462537D02*
X484442D01*
X485124Y462225*
X485351Y461912*
X485579Y461287*
Y460662*
X485351Y460037*
X485124Y459725*
X484442Y459412*
X482397*
X483988D02*
X485579Y455975D01*
X488988Y462537D02*
X488306Y462225D01*
X487851Y461287*
X487624Y459725*
Y458787*
X487851Y457225*
X488306Y456287*
X488988Y455975*
X489442*
X490124Y456287*
X490579Y457225*
X490806Y458787*
Y459725*
X490579Y461287*
X490124Y462225*
X489442Y462537*
X488988*
X493079Y456600D02*
X492851Y456287D01*
X493079Y455975*
X493306Y456287*
X493079Y456600*
X498079Y461600D02*
X497851Y462225D01*
X497169Y462537*
X496715*
X496033Y462225*
X495579Y461287*
X495351Y459725*
Y458162*
X495579Y456912*
X496033Y456287*
X496715Y455975*
X496942*
X497624Y456287*
X498079Y456912*
X498306Y457850*
Y458162*
X498079Y459100*
X497624Y459725*
X496942Y460037*
X496715*
X496033Y459725*
X495579Y459100*
X495351Y458162*
X500351Y460350D02*
Y455975D01*
Y459100D02*
X501033Y460037D01*
X501488Y460350*
X502169*
X502624Y460037*
X502851Y459100*
Y455975*
Y459100D02*
X503533Y460037D01*
X503988Y460350*
X504669*
X505124Y460037*
X505351Y459100*
Y455975*
X507397Y460350D02*
Y455975D01*
Y459100D02*
X508079Y460037D01*
X508533Y460350*
X509215*
X509669Y460037*
X509897Y459100*
Y455975*
Y459100D02*
X510579Y460037D01*
X511033Y460350*
X511715*
X512169Y460037*
X512397Y459100*
Y455975*
X499987Y553671D02*
X427082D01*
X499987D02*
X489987Y551171D01*
Y556171*
X499987Y553671*
X316813D02*
X389718D01*
X316813D02*
X326813Y556171D01*
Y551171*
X316813Y553671*
X499987Y505022D02*
Y558671D01*
X316813Y504841D02*
Y558671D01*
X394991Y556483D02*
X392718Y552108D01*
X396127*
X394991Y556483D02*
Y549921D01*
X400900Y555546D02*
X400672Y556171D01*
X399991Y556483*
X399536*
X398854Y556171*
X398400Y555233*
X398172Y553671*
Y552108*
X398400Y550858*
X398854Y550233*
X399536Y549921*
X399763*
X400445Y550233*
X400900Y550858*
X401127Y551796*
Y552108*
X400900Y553046*
X400445Y553671*
X399763Y553983*
X399536*
X398854Y553671*
X398400Y553046*
X398172Y552108*
X403400Y550546D02*
X403172Y550233D01*
X403400Y549921*
X403627Y550233*
X403400Y550546*
X408627Y556483D02*
X406354D01*
X406127Y553671*
X406354Y553983*
X407036Y554296*
X407718*
X408400Y553983*
X408854Y553358*
X409082Y552421*
X408854Y551796*
X408627Y550858*
X408172Y550233*
X407491Y549921*
X406809*
X406127Y550233*
X405900Y550546*
X405672Y551171*
X411127Y554296D02*
Y549921D01*
Y553046D02*
X411809Y553983D01*
X412263Y554296*
X412945*
X413400Y553983*
X413627Y553046*
Y549921*
Y553046D02*
X414309Y553983D01*
X414763Y554296*
X415445*
X415900Y553983*
X416127Y553046*
Y549921*
X418172Y554296D02*
Y549921D01*
Y553046D02*
X418854Y553983D01*
X419309Y554296*
X419991*
X420445Y553983*
X420672Y553046*
Y549921*
Y553046D02*
X421354Y553983D01*
X421809Y554296*
X422491*
X422945Y553983*
X423172Y553046*
Y549921*
G54D35*
X388933Y426918D02*
Y424621D01*
X390763Y426589D02*
X390604Y426808D01*
X390365Y426918*
X390047*
X389808Y426808*
X389649Y426589*
Y426371*
X389729Y426152*
X389808Y426043*
X389967Y425933*
X390444Y425714*
X390604Y425605*
X390683Y425496*
X390763Y425277*
Y424949*
X390604Y424730*
X390365Y424621*
X390047*
X389808Y424730*
X389649Y424949*
X392513Y426152D02*
X392433Y425824D01*
X392274Y425605*
X392035Y425496*
X391956*
X391717Y425605*
X391558Y425824*
X391479Y426152*
Y426261*
X391558Y426589*
X391717Y426808*
X391956Y426918*
X392035*
X392274Y426808*
X392433Y426589*
X392513Y426152*
Y425605*
X392433Y425058*
X392274Y424730*
X392035Y424621*
X391876*
X391638Y424730*
X391558Y424949*
X393706Y426918D02*
X393467Y426808D01*
X393308Y426480*
X393229Y425933*
Y425605*
X393308Y425058*
X393467Y424730*
X393706Y424621*
X393865*
X394104Y424730*
X394263Y425058*
X394342Y425605*
Y425933*
X394263Y426480*
X394104Y426808*
X393865Y426918*
X393706*
X395217D02*
X396092D01*
X395615Y426043*
X395854*
X396013Y425933*
X396092Y425824*
X396172Y425496*
Y425277*
X396092Y424949*
X395933Y424730*
X395694Y424621*
X395456*
X395217Y424730*
X395138Y424839*
X395058Y425058*
X398001Y426589D02*
X397842Y426808D01*
X397604Y426918*
X397285*
X397047Y426808*
X396888Y426589*
Y426371*
X396967Y426152*
X397047Y426043*
X397206Y425933*
X397683Y425714*
X397842Y425605*
X397922Y425496*
X398001Y425277*
Y424949*
X397842Y424730*
X397604Y424621*
X397285*
X397047Y424730*
X396888Y424949*
X399831Y426918D02*
X398717Y424621D01*
Y426918D02*
X399831D01*
X398717Y424621D02*
X399831D01*
X401024Y426918D02*
X400865Y426808D01*
X400706Y426589*
X400626Y426371*
X400547Y426043*
Y425496*
X400626Y425168*
X400706Y424949*
X400865Y424730*
X401024Y424621*
X401342*
X401501Y424730*
X401660Y424949*
X401740Y425168*
X401819Y425496*
Y426043*
X401740Y426371*
X401660Y426589*
X401501Y426808*
X401342Y426918*
X401024*
X401263Y425058D02*
X401740Y424402D01*
X403013Y426918D02*
X402774Y426808D01*
X402615Y426480*
X402535Y425933*
Y425605*
X402615Y425058*
X402774Y424730*
X403013Y424621*
X403172*
X403410Y424730*
X403569Y425058*
X403649Y425605*
Y425933*
X403569Y426480*
X403410Y426808*
X403172Y426918*
X403013*
X405319Y426589D02*
X405240Y426808D01*
X405001Y426918*
X404842*
X404604Y426808*
X404444Y426480*
X404365Y425933*
Y425386*
X404444Y424949*
X404604Y424730*
X404842Y424621*
X404922*
X405160Y424730*
X405319Y424949*
X405399Y425277*
Y425386*
X405319Y425714*
X405160Y425933*
X404922Y426043*
X404842*
X404604Y425933*
X404444Y425714*
X404365Y425386*
X406910Y426918D02*
X406115Y425386D01*
X407308*
X406910Y426918D02*
Y424621D01*
X408024Y425605D02*
X409456D01*
X410967Y426918D02*
X410172Y425386D01*
X411365*
X410967Y426918D02*
Y424621D01*
X413194Y426918D02*
X412081Y424621D01*
Y426918D02*
X413194D01*
X412081Y424621D02*
X413194D01*
X414388Y426918D02*
X414149Y426808D01*
X413990Y426480*
X413910Y425933*
Y425605*
X413990Y425058*
X414149Y424730*
X414388Y424621*
X414547*
X414785Y424730*
X414944Y425058*
X415024Y425605*
Y425933*
X414944Y426480*
X414785Y426808*
X414547Y426918*
X414388*
X416774Y426152D02*
X416694Y425824D01*
X416535Y425605*
X416297Y425496*
X416217*
X415979Y425605*
X415819Y425824*
X415740Y426152*
Y426261*
X415819Y426589*
X415979Y426808*
X416217Y426918*
X416297*
X416535Y426808*
X416694Y426589*
X416774Y426152*
Y425605*
X416694Y425058*
X416535Y424730*
X416297Y424621*
X416138*
X415899Y424730*
X415819Y424949*
X417490Y425605D02*
X418922D01*
X420194Y426918D02*
Y424621D01*
X419638Y426918D02*
X420751D01*
X421467D02*
Y424621D01*
Y426918D02*
X422183D01*
X422422Y426808*
X422501Y426699*
X422581Y426480*
Y426261*
X422501Y426043*
X422422Y425933*
X422183Y425824*
X421467D02*
X422183D01*
X422422Y425714*
X422501Y425605*
X422581Y425386*
Y425058*
X422501Y424839*
X422422Y424730*
X422183Y424621*
X421467*
X425683Y427355D02*
X425524Y427136D01*
X425365Y426808*
X425206Y426371*
X425126Y425824*
Y425386*
X425206Y424839*
X425365Y424402*
X425524Y424074*
X425683Y423855*
X426399Y426918D02*
Y424621D01*
Y426918D02*
X427115D01*
X427354Y426808*
X427433Y426699*
X427513Y426480*
Y426261*
X427433Y426043*
X427354Y425933*
X427115Y425824*
X426399*
X426956D02*
X427513Y424621D01*
X428229Y426918D02*
Y424621D01*
X430138Y426371D02*
X430058Y426589D01*
X429899Y426808*
X429740Y426918*
X429422*
X429263Y426808*
X429104Y426589*
X429024Y426371*
X428944Y426043*
Y425496*
X429024Y425168*
X429104Y424949*
X429263Y424730*
X429422Y424621*
X429740*
X429899Y424730*
X430058Y424949*
X430138Y425168*
X430854Y426918D02*
Y424621D01*
X431967Y426918D02*
Y424621D01*
X430854Y425824D02*
X431967D01*
X432683Y426918D02*
Y424621D01*
Y426918D02*
X433319Y424621D01*
X433956Y426918D02*
X433319Y424621D01*
X433956Y426918D02*
Y424621D01*
X435308Y426918D02*
X434672Y424621D01*
X435308Y426918D02*
X435944Y424621D01*
X434910Y425386D02*
X435706D01*
X436660Y426918D02*
X437774Y424621D01*
Y426918D02*
X436660Y424621D01*
X438490Y427355D02*
X438649Y427136D01*
X438808Y426808*
X438967Y426371*
X439047Y425824*
Y425386*
X438967Y424839*
X438808Y424402*
X438649Y424074*
X438490Y423855*
G54D37*
X339533Y420593D02*
X453233D01*
X569533Y408293D02*
X339533D01*
Y433293D02*
X569533D01*
X480233D02*
Y395793D01*
X454533Y433293D02*
Y395793D01*
X569533Y445793D02*
Y383293D01*
X339533*
Y445793*
X569533*
Y395793D02*
X339533D01*
X381533Y433293D02*
Y408293D01*
G54D95*
X500000Y528740D02*
X500003D01*
X370079D02*
X370081D01*
X499987Y500022D02*
X499990D01*
X316813Y499841D02*
X316815D01*
G54D152*
X493828Y504331D03*
X497372D03*
X497600Y501378D03*
Y497834D03*
Y521428D03*
Y524972D03*
G54D165*
X422800Y481600D03*
X432000Y482400D03*
G54D262*
X500004Y472389D02*
X467001D01*
Y476419*
G75*
G03X464619Y478801I-2382J0D01*
G01X464592*
G03X462204Y476413I-0J-2388*
G01Y472390*
X334043*
Y478741*
X316813*
Y520941*
X334046*
Y527594*
X462205*
Y523586*
G03X464590Y521200I2385J-0*
G01X464624*
G03X467004Y523579I0J2379*
G01Y527592*
X481073*
X481162Y527589*
X500004*
Y472389*
X369407Y475255D02*
G03X369407I-991J0D01*
G01X369392Y477775D02*
G03X369392I-985J0D01*
G01X369429Y480203D02*
G03X369429I-982J0D01*
G01X369446Y485204D02*
G03X369446I-986J0D01*
G01X369454Y487596D02*
G03X369454I-988J0D01*
G01X369459Y490109D02*
G03X369459I-989J0D01*
G01X369443Y492557D02*
G03X369443I-989J0D01*
G01X369505Y495039D02*
G03X369505I-993J0D01*
G01X369442Y497535D02*
G03X369442I-976J0D01*
G01X369449Y500054D02*
G03X369449I-986J0D01*
G01X369446Y502498D02*
G03X369446I-993J0D01*
G01X369461Y504989D02*
G03X369461I-999J0D01*
G01X369453Y507477D02*
G03X369453I-985J0D01*
G01X369441Y509994D02*
G03X369441I-975J0D01*
G01X369420Y512438D02*
G03X369420I-973J0D01*
G01X369384Y514816D02*
G03X369384I-971J0D01*
G01X369452Y519577D02*
G03X369452I-986J0D01*
G01X369455Y522091D02*
G03X369455I-991J0D01*
G01X369419Y524598D02*
G03X369419I-987J0D01*
G01X357938Y519537D02*
G03X357938I-979J0D01*
G01X357951Y522053D02*
G03X357951I-997J0D01*
G01X357922Y524558D02*
G03X357922I-993J0D01*
G01X348222Y521019D02*
G03X348222I-2294J0D01*
G01X340121Y519602D02*
G03X340121I-986J0D01*
G01X340129Y522085D02*
G03X340129I-993J0D01*
G01X340116Y524645D02*
G03X340116I-981J0D01*
G01X357050Y483839D02*
X339047D01*
Y515865*
X357050*
Y483839*
X357998Y475331D02*
G03X357998I-1001J0D01*
G01X357991Y477843D02*
G03X357991I-982J0D01*
G01X357966Y480352D02*
G03X357966I-987J0D01*
G01X348123Y478587D02*
G03X348123I-2311J0D01*
G01X340146Y475504D02*
G03X340146I-1004J0D01*
G01X340135Y477962D02*
G03X340135I-988J0D01*
G01X340124Y480318D02*
G03X340124I-989J0D01*
G54D280*
G01X470100Y524400D03*
X476300D03*
G54D281*
X384004Y523622D03*
Y519685D03*
Y515748D03*
Y511811D03*
Y488189D03*
Y484252D03*
Y480315D03*
Y476378D03*
X387941Y523622D03*
Y519685D03*
Y515748D03*
Y511811D03*
Y488189D03*
Y484252D03*
Y480315D03*
Y476378D03*
X391878Y523622D03*
Y519685D03*
Y515748D03*
Y511811D03*
Y488189D03*
Y484252D03*
Y480315D03*
Y476378D03*
X395815Y523622D03*
Y519685D03*
Y515748D03*
Y511811D03*
Y507874D03*
Y503937D03*
Y496063D03*
Y492126D03*
Y488189D03*
Y484252D03*
Y480315D03*
Y476378D03*
X399752Y523622D03*
Y519685D03*
Y515748D03*
Y511811D03*
Y507874D03*
Y503937D03*
Y496063D03*
Y492126D03*
Y488189D03*
Y484252D03*
Y480315D03*
Y476378D03*
X403689Y515748D03*
Y511811D03*
Y507874D03*
Y503937D03*
Y496063D03*
Y492126D03*
Y488189D03*
Y484252D03*
X407626Y515748D03*
Y511811D03*
Y507874D03*
Y503937D03*
Y496063D03*
Y492126D03*
Y488189D03*
Y484252D03*
X411563Y515748D03*
Y511811D03*
Y507874D03*
Y503937D03*
Y496063D03*
Y492126D03*
Y488189D03*
Y484252D03*
X415500Y515748D03*
Y511811D03*
Y507874D03*
Y503937D03*
Y496063D03*
Y492126D03*
Y488189D03*
Y484252D03*
X419437Y515748D03*
Y511811D03*
Y507874D03*
Y503937D03*
Y496063D03*
Y492126D03*
Y488189D03*
Y484252D03*
X423374Y515748D03*
Y511811D03*
Y507874D03*
Y503937D03*
Y496063D03*
Y492126D03*
Y488189D03*
Y484252D03*
X427311Y515748D03*
Y511811D03*
Y507874D03*
Y503937D03*
Y496063D03*
Y492126D03*
Y488189D03*
Y484252D03*
X431248Y523622D03*
Y519685D03*
Y515748D03*
Y511811D03*
Y507874D03*
Y503937D03*
Y496063D03*
Y492126D03*
Y488189D03*
Y484252D03*
Y480315D03*
Y476378D03*
X435185Y523622D03*
Y519685D03*
Y515748D03*
Y511811D03*
Y507874D03*
Y503937D03*
Y496063D03*
Y492126D03*
Y488189D03*
Y484252D03*
Y480315D03*
Y476378D03*
X439122Y523622D03*
Y519685D03*
Y515748D03*
Y511811D03*
Y488189D03*
Y484252D03*
Y480315D03*
Y476378D03*
X443059Y523622D03*
Y519685D03*
Y515748D03*
Y511811D03*
Y488189D03*
Y484252D03*
Y480315D03*
Y476378D03*
X446996Y523622D03*
Y519685D03*
Y515748D03*
Y511811D03*
Y488189D03*
Y480315D03*
Y476378D03*
G54D284*
X473200Y499200D03*
G54D302*
X378000Y477362D03*
Y479331D03*
Y483268D03*
Y485236D03*
Y487205D03*
Y489173D03*
Y491142D03*
Y493110D03*
Y495079D03*
Y499016D03*
Y500984D03*
Y502953D03*
Y504921D03*
Y506890D03*
Y508858D03*
Y510827D03*
Y512795D03*
Y520669D03*
Y522638D03*
X453000D03*
Y518701D03*
Y516732D03*
Y514764D03*
Y512795D03*
Y510827D03*
Y508858D03*
Y506890D03*
Y504921D03*
Y502953D03*
Y500984D03*
Y499016D03*
Y497047D03*
Y495079D03*
Y493110D03*
Y491142D03*
Y489173D03*
Y487205D03*
Y485236D03*
Y483268D03*
Y481299D03*
Y477362D03*
G54D303*
X458900Y523000D03*
Y518800D03*
X492200Y485400D03*
X496400D03*
X492200Y482200D03*
X496400D03*
X488300Y518200D03*
X484100D03*
X372679Y495600D03*
Y491400D03*
Y509820D03*
Y514020D03*
Y522200D03*
Y518000D03*
Y479600D03*
Y475400D03*
G54D305*
X490157Y476772D03*
G54D306*
X498600Y473700D03*
X371400Y526300D03*
G54D307*
X457846Y487389D03*
Y488964D03*
Y490539D03*
Y492113D03*
Y493688D03*
Y495263D03*
Y496838D03*
Y498413D03*
Y499987D03*
Y501562D03*
Y503137D03*
Y504712D03*
Y506287D03*
Y507861D03*
Y509436D03*
Y511011D03*
X488554D03*
Y509436D03*
Y507861D03*
Y506287D03*
Y504712D03*
Y503137D03*
Y501562D03*
Y499987D03*
Y498413D03*
Y496838D03*
Y495263D03*
Y493688D03*
Y492113D03*
Y490539D03*
Y488964D03*
Y487389D03*
G54D308*
X461389Y514554D03*
X462964D03*
X464539D03*
X466113D03*
X467688D03*
X469263D03*
X470838D03*
X472413D03*
X473987D03*
X475562D03*
X477137D03*
X478712D03*
X480287D03*
X481861D03*
X483436D03*
X485011D03*
Y483846D03*
X483436D03*
X481861D03*
X480287D03*
X478712D03*
X477137D03*
X475562D03*
X473987D03*
X472413D03*
X470838D03*
X469263D03*
X467688D03*
X466113D03*
X464539D03*
X462964D03*
X461389D03*
G54D309*
X492339Y510355D03*
Y517245D03*
X497261D03*
Y510355D03*
G54D310*
X490157Y523228D03*
G74*
X0Y0D02*
M02*
