*
*
G04 PADS 9.2 Build Number: 406656 generated Gerber (RS-274-X) file*
G04 PC Version=2.1*
*
%IN "IS903SZQ064-4Z08-TB (RI"*%
*
%MOIN*%
*
%FSLAX35Y35*%
*
*
*
*
G04 PC Standard Apertures*
*
*
G04 Thermal Relief Aperture macro.*
%AMTER*
1,1,$1,0,0*
1,0,$1-$2,0,0*
21,0,$3,$4,0,0,45*
21,0,$3,$4,0,0,135*
%
*
*
G04 Annular Aperture macro.*
%AMANN*
1,1,$1,0,0*
1,0,$2,0,0*
%
*
*
G04 Odd Aperture macro.*
%AMODD*
1,1,$1,0,0*
1,0,$1-0.005,0,0*
%
*
*
G04 PC Custom Aperture Macros*
*
*
*
*
*
*
G04 PC Aperture Table*
*
%ADD033C,0.01*%
%ADD035C,0.005*%
%ADD037C,0.006*%
%ADD095C,0.001*%
%ADD213C,0.004*%
%ADD262C,0.00118*%
*
*
*
*
G04 PC Circuitry*
G04 Layer Name IS903SZQ064-4Z08-TB (RI - circuitry*
%LPD*%
*
*
G04 PC Custom Flashes*
G04 Layer Name IS903SZQ064-4Z08-TB (RI - flashes*
%LPD*%
*
*
G04 PC Circuitry*
G04 Layer Name IS903SZQ064-4Z08-TB (RI - circuitry*
%LPD*%
*
G54D33*
G01X376650Y525735D02*
X382361Y527266D01*
Y523525*
X376694Y525757*
X377854D02*
X381989Y526719D01*
X381967Y523897*
X377985Y525779*
X379145Y525604D02*
X381529Y526194D01*
X381507Y524291*
X379210Y525625*
X379626Y525516D02*
X381135Y525910D01*
X381114Y524663*
X379713Y525538*
X459533Y403543D02*
Y398293D01*
Y403543D02*
X460805D01*
X461351Y403293*
X461714Y402793*
X461896Y402293*
X462078Y401543*
Y400293*
X461896Y399543*
X461714Y399043*
X461351Y398543*
X460805Y398293*
X459533*
X465169Y403543D02*
X463714Y398293D01*
X465169Y403543D02*
X466623Y398293D01*
X464260Y400043D02*
X466078D01*
X469533Y403543D02*
Y398293D01*
X468260Y403543D02*
X470805D01*
X472442D02*
Y398293D01*
Y403543D02*
X474805D01*
X472442Y401043D02*
X473896D01*
X472442Y398293D02*
X474805D01*
X457433Y418643D02*
Y413393D01*
Y418643D02*
X459978Y413393D01*
Y418643D02*
Y413393D01*
X463069Y418643D02*
X461614Y413393D01*
X463069Y418643D02*
X464523Y413393D01*
X462160Y415143D02*
X463978D01*
X466160Y418643D02*
Y413393D01*
Y418643D02*
X467614Y413393D01*
X469069Y418643D02*
X467614Y413393D01*
X469069Y418643D02*
Y413393D01*
X470705Y418643D02*
Y413393D01*
Y418643D02*
X473069D01*
X470705Y416143D02*
X472160D01*
X470705Y413393D02*
X473069D01*
X457133Y428543D02*
Y423293D01*
X459314*
X462405Y428543D02*
X460951Y423293D01*
X462405Y428543D02*
X463860Y423293D01*
X461496Y425043D02*
X463314D01*
X465496Y428543D02*
X466951Y426043D01*
Y423293*
X468405Y428543D02*
X466951Y426043D01*
X470042Y428543D02*
Y423293D01*
Y428543D02*
X472405D01*
X470042Y426043D02*
X471496D01*
X470042Y423293D02*
X472405D01*
X474042Y428543D02*
Y423293D01*
Y428543D02*
X475678D01*
X476223Y428293*
X476405Y428043*
X476587Y427543*
Y427043*
X476405Y426543*
X476223Y426293*
X475678Y426043*
X474042*
X475314D02*
X476587Y423293D01*
X342783Y429443D02*
Y424193D01*
Y429443D02*
X344419D01*
X344964Y429193*
X345146Y428943*
X345328Y428443*
Y427693*
X345146Y427193*
X344964Y426943*
X344419Y426693*
X342783*
X348419Y429443D02*
X346964Y424193D01*
X348419Y429443D02*
X349873Y424193D01*
X347510Y425943D02*
X349328D01*
X351510Y429443D02*
Y424193D01*
Y429443D02*
X353146D01*
X353692Y429193*
X353873Y428943*
X354055Y428443*
Y427943*
X353873Y427443*
X353692Y427193*
X353146Y426943*
X351510*
X352783D02*
X354055Y424193D01*
X356964Y429443D02*
Y424193D01*
X355692Y429443D02*
X358237D01*
X364055D02*
Y424193D01*
Y429443D02*
X366601Y424193D01*
Y429443D02*
Y424193D01*
X369692Y429443D02*
X368237Y424193D01*
X369692Y429443D02*
X371146Y424193D01*
X368783Y425943D02*
X370601D01*
X372783Y429443D02*
Y424193D01*
Y429443D02*
X374237Y424193D01*
X375692Y429443D02*
X374237Y424193D01*
X375692Y429443D02*
Y424193D01*
X377328Y429443D02*
Y424193D01*
Y429443D02*
X379692D01*
X377328Y426943D02*
X378783D01*
X377328Y424193D02*
X379692D01*
X352078Y390293D02*
X351714Y390793D01*
X351169Y391043*
X350442*
X349896Y390793*
X349533Y390293*
Y389793*
X349714Y389293*
X349896Y389043*
X350260Y388793*
X351351Y388293*
X351714Y388043*
X351896Y387793*
X352078Y387293*
Y386543*
X351714Y386043*
X351169Y385793*
X350442*
X349896Y386043*
X349533Y386543*
X353714Y388793D02*
X356987D01*
X353714Y387293D02*
X356987D01*
X366987Y391043D02*
Y385793D01*
Y391043D02*
X368260D01*
X368805Y390793*
X369169Y390293*
X369351Y389793*
X369533Y389043*
Y387793*
X369351Y387043*
X369169Y386543*
X368805Y386043*
X368260Y385793*
X366987*
X373533Y389293D02*
X373351Y388543D01*
X372987Y388043*
X372442Y387793*
X372260*
X371714Y388043*
X371351Y388543*
X371169Y389293*
Y389543*
X371351Y390293*
X371714Y390793*
X372260Y391043*
X372442*
X372987Y390793*
X373351Y390293*
X373533Y389293*
Y388043*
X373351Y386793*
X372987Y386043*
X372442Y385793*
X372078*
X371533Y386043*
X371351Y386543*
X376260Y391043D02*
X375714Y390793D01*
X375351Y390043*
X375169Y388793*
Y388043*
X375351Y386793*
X375714Y386043*
X376260Y385793*
X376623*
X377169Y386043*
X377533Y386793*
X377714Y388043*
Y388793*
X377533Y390043*
X377169Y390793*
X376623Y391043*
X376260*
X379351Y388793D02*
X382623D01*
X379351Y387293D02*
X382623D01*
X386442Y390293D02*
X386260Y390793D01*
X385714Y391043*
X385351*
X384805Y390793*
X384442Y390043*
X384260Y388793*
Y387543*
X384442Y386543*
X384805Y386043*
X385351Y385793*
X385533*
X386078Y386043*
X386442Y386543*
X386623Y387293*
Y387543*
X386442Y388293*
X386078Y388793*
X385533Y389043*
X385351*
X384805Y388793*
X384442Y388293*
X384260Y387543*
X391533Y392043D02*
X388260Y384043D01*
X395351Y390293D02*
X395169Y390793D01*
X394623Y391043*
X394260*
X393714Y390793*
X393351Y390043*
X393169Y388793*
Y387543*
X393351Y386543*
X393714Y386043*
X394260Y385793*
X394442*
X394987Y386043*
X395351Y386543*
X395533Y387293*
Y387543*
X395351Y388293*
X394987Y388793*
X394442Y389043*
X394260*
X393714Y388793*
X393351Y388293*
X393169Y387543*
X400442Y392043D02*
X397169Y384043D01*
X404260Y390293D02*
X404078Y390793D01*
X403533Y391043*
X403169*
X402623Y390793*
X402260Y390043*
X402078Y388793*
Y387543*
X402260Y386543*
X402623Y386043*
X403169Y385793*
X403351*
X403896Y386043*
X404260Y386543*
X404442Y387293*
Y387543*
X404260Y388293*
X403896Y388793*
X403351Y389043*
X403169*
X402623Y388793*
X402260Y388293*
X402078Y387543*
X409351Y392043D02*
X406078Y384043D01*
X413169Y390293D02*
X412987Y390793D01*
X412442Y391043*
X412078*
X411533Y390793*
X411169Y390043*
X410987Y388793*
Y387543*
X411169Y386543*
X411533Y386043*
X412078Y385793*
X412260*
X412805Y386043*
X413169Y386543*
X413351Y387293*
Y387543*
X413169Y388293*
X412805Y388793*
X412260Y389043*
X412078*
X411533Y388793*
X411169Y388293*
X410987Y387543*
X418260Y392043D02*
X414987Y384043D01*
X422078Y390293D02*
X421896Y390793D01*
X421351Y391043*
X420987*
X420442Y390793*
X420078Y390043*
X419896Y388793*
Y387543*
X420078Y386543*
X420442Y386043*
X420987Y385793*
X421169*
X421714Y386043*
X422078Y386543*
X422260Y387293*
Y387543*
X422078Y388293*
X421714Y388793*
X421169Y389043*
X420987*
X420442Y388793*
X420078Y388293*
X419896Y387543*
X440623Y391043D02*
Y385793D01*
Y391043D02*
X441896D01*
X442442Y390793*
X442805Y390293*
X442987Y389793*
X443169Y389043*
Y387793*
X442987Y387043*
X442805Y386543*
X442442Y386043*
X441896Y385793*
X440623*
X444805Y390043D02*
X445169Y390293D01*
X445714Y391043*
Y385793*
X448442Y391043D02*
X447896Y390793D01*
X447533Y390043*
X447351Y388793*
Y388043*
X447533Y386793*
X447896Y386043*
X448442Y385793*
X448805*
X449351Y386043*
X449714Y386793*
X449896Y388043*
Y388793*
X449714Y390043*
X449351Y390793*
X448805Y391043*
X448442*
X452623D02*
X452078Y390793D01*
X451714Y390043*
X451533Y388793*
Y388043*
X451714Y386793*
X452078Y386043*
X452623Y385793*
X452987*
X453533Y386043*
X453896Y386793*
X454078Y388043*
Y388793*
X453896Y390043*
X453533Y390793*
X452987Y391043*
X452623*
X455714Y388793D02*
X458987D01*
X455714Y387293D02*
X458987D01*
X389533Y442355D02*
Y435793D01*
X391578Y440168D02*
Y435793D01*
Y438918D02*
X392260Y439855D01*
X392714Y440168*
X393396*
X393851Y439855*
X394078Y438918*
Y435793*
X396123Y440168D02*
Y435793D01*
Y438918D02*
X396805Y439855D01*
X397260Y440168*
X397942*
X398396Y439855*
X398623Y438918*
Y435793*
X401805Y440168D02*
X401351Y439855D01*
X400896Y439230*
X400669Y438293*
Y437668*
X400896Y436730*
X401351Y436105*
X401805Y435793*
X402487*
X402942Y436105*
X403396Y436730*
X403623Y437668*
Y438293*
X403396Y439230*
X402942Y439855*
X402487Y440168*
X401805*
X408169Y439230D02*
X407942Y439855D01*
X407260Y440168*
X406578*
X405896Y439855*
X405669Y439230*
X405896Y438605*
X406351Y438293*
X407487Y437980*
X407942Y437668*
X408169Y437043*
Y436730*
X407942Y436105*
X407260Y435793*
X406578*
X405896Y436105*
X405669Y436730*
X410896Y442355D02*
Y437043D01*
X411123Y436105*
X411578Y435793*
X412033*
X410214Y440168D02*
X411805D01*
X415214D02*
X414760Y439855D01*
X414305Y439230*
X414078Y438293*
Y437668*
X414305Y436730*
X414760Y436105*
X415214Y435793*
X415896*
X416351Y436105*
X416805Y436730*
X417033Y437668*
Y438293*
X416805Y439230*
X416351Y439855*
X415896Y440168*
X415214*
X419078D02*
Y435793D01*
Y438293D02*
X419305Y439230D01*
X419760Y439855*
X420214Y440168*
X420896*
X429760Y442355D02*
Y435793D01*
X428169Y442355D02*
X431351D01*
X433396Y438293D02*
X436123D01*
Y438918*
X435896Y439543*
X435669Y439855*
X435214Y440168*
X434533*
X434078Y439855*
X433623Y439230*
X433396Y438293*
Y437668*
X433623Y436730*
X434078Y436105*
X434533Y435793*
X435214*
X435669Y436105*
X436123Y436730*
X440896Y439230D02*
X440442Y439855D01*
X439987Y440168*
X439305*
X438851Y439855*
X438396Y439230*
X438169Y438293*
Y437668*
X438396Y436730*
X438851Y436105*
X439305Y435793*
X439987*
X440442Y436105*
X440896Y436730*
X442942Y442355D02*
Y435793D01*
Y438918D02*
X443623Y439855D01*
X444078Y440168*
X444760*
X445214Y439855*
X445442Y438918*
Y435793*
X447487Y440168D02*
Y435793D01*
Y438918D02*
X448169Y439855D01*
X448623Y440168*
X449305*
X449760Y439855*
X449987Y438918*
Y435793*
X453169Y440168D02*
X452714Y439855D01*
X452260Y439230*
X452033Y438293*
Y437668*
X452260Y436730*
X452714Y436105*
X453169Y435793*
X453851*
X454305Y436105*
X454760Y436730*
X454987Y437668*
Y438293*
X454760Y439230*
X454305Y439855*
X453851Y440168*
X453169*
X457033Y442355D02*
Y435793D01*
X460214Y440168D02*
X459760Y439855D01*
X459305Y439230*
X459078Y438293*
Y437668*
X459305Y436730*
X459760Y436105*
X460214Y435793*
X460896*
X461351Y436105*
X461805Y436730*
X462033Y437668*
Y438293*
X461805Y439230*
X461351Y439855*
X460896Y440168*
X460214*
X466805D02*
Y435168D01*
X466578Y434230*
X466351Y433918*
X465896Y433605*
X465214*
X464760Y433918*
X466805Y439230D02*
X466351Y439855D01*
X465896Y440168*
X465214*
X464760Y439855*
X464305Y439230*
X464078Y438293*
Y437668*
X464305Y436730*
X464760Y436105*
X465214Y435793*
X465896*
X466351Y436105*
X466805Y436730*
X469078Y440168D02*
X470442Y435793D01*
X471805Y440168D02*
X470442Y435793D01*
X469987Y434543*
X469533Y433918*
X469078Y433605*
X468851*
X482487Y440793D02*
X482260Y441418D01*
X481805Y442043*
X481351Y442355*
X480442*
X479987Y442043*
X479533Y441418*
X479305Y440793*
X479078Y439855*
Y438293*
X479305Y437355*
X479533Y436730*
X479987Y436105*
X480442Y435793*
X481351*
X481805Y436105*
X482260Y436730*
X482487Y437355*
X485669Y440168D02*
X485214Y439855D01*
X484760Y439230*
X484533Y438293*
Y437668*
X484760Y436730*
X485214Y436105*
X485669Y435793*
X486351*
X486805Y436105*
X487260Y436730*
X487487Y437668*
Y438293*
X487260Y439230*
X486805Y439855*
X486351Y440168*
X485669*
X489533D02*
Y435793D01*
Y438293D02*
X489760Y439230D01*
X490214Y439855*
X490669Y440168*
X491351*
X493396D02*
Y433605D01*
Y439230D02*
X493851Y439855D01*
X494305Y440168*
X494987*
X495442Y439855*
X495896Y439230*
X496123Y438293*
Y437668*
X495896Y436730*
X495442Y436105*
X494987Y435793*
X494305*
X493851Y436105*
X493396Y436730*
X499305Y440168D02*
X498851Y439855D01*
X498396Y439230*
X498169Y438293*
Y437668*
X498396Y436730*
X498851Y436105*
X499305Y435793*
X499987*
X500442Y436105*
X500896Y436730*
X501123Y437668*
Y438293*
X500896Y439230*
X500442Y439855*
X499987Y440168*
X499305*
X503169D02*
Y435793D01*
Y438293D02*
X503396Y439230D01*
X503851Y439855*
X504305Y440168*
X504987*
X509760D02*
Y435793D01*
Y439230D02*
X509305Y439855D01*
X508851Y440168*
X508169*
X507714Y439855*
X507260Y439230*
X507033Y438293*
Y437668*
X507260Y436730*
X507714Y436105*
X508169Y435793*
X508851*
X509305Y436105*
X509760Y436730*
X512487Y442355D02*
Y437043D01*
X512714Y436105*
X513169Y435793*
X513623*
X511805Y440168D02*
X513396D01*
X515669Y442355D02*
X515896Y442043D01*
X516123Y442355*
X515896Y442668*
X515669Y442355*
X515896Y440168D02*
Y435793D01*
X519305Y440168D02*
X518851Y439855D01*
X518396Y439230*
X518169Y438293*
Y437668*
X518396Y436730*
X518851Y436105*
X519305Y435793*
X519987*
X520442Y436105*
X520896Y436730*
X521123Y437668*
Y438293*
X520896Y439230*
X520442Y439855*
X519987Y440168*
X519305*
X523169D02*
Y435793D01*
Y438918D02*
X523851Y439855D01*
X524305Y440168*
X524987*
X525442Y439855*
X525669Y438918*
Y435793*
X346083Y417143D02*
Y411893D01*
Y417143D02*
X347719D01*
X348264Y416893*
X348446Y416643*
X348628Y416143*
Y415393*
X348446Y414893*
X348264Y414643*
X347719Y414393*
X346083*
X351719Y417143D02*
X350264Y411893D01*
X351719Y417143D02*
X353173Y411893D01*
X350810Y413643D02*
X352628D01*
X354810Y417143D02*
Y411893D01*
Y417143D02*
X356446D01*
X356992Y416893*
X357173Y416643*
X357355Y416143*
Y415643*
X357173Y415143*
X356992Y414893*
X356446Y414643*
X354810*
X356083D02*
X357355Y411893D01*
X360264Y417143D02*
Y411893D01*
X358992Y417143D02*
X361537D01*
X367355D02*
Y411893D01*
Y417143D02*
X369901Y411893D01*
Y417143D02*
Y411893D01*
X372628Y417143D02*
X372264Y416893D01*
X371901Y416393*
X371719Y415893*
X371537Y415143*
Y413893*
X371719Y413143*
X371901Y412643*
X372264Y412143*
X372628Y411893*
X373355*
X373719Y412143*
X374083Y412643*
X374264Y413143*
X374446Y413893*
Y415143*
X374264Y415893*
X374083Y416393*
X373719Y416893*
X373355Y417143*
X372628*
X376264Y412393D02*
X376083Y412143D01*
X376264Y411893*
X376446Y412143*
X376264Y412393*
X368851Y402918D02*
X367033Y399418D01*
X369760*
X368851Y402918D02*
Y397668D01*
X375578Y402918D02*
Y397668D01*
X377760*
X380851Y402918D02*
X379396Y397668D01*
X380851Y402918D02*
X382305Y397668D01*
X379942Y399418D02*
X381760D01*
X383942Y402918D02*
X385396Y400418D01*
Y397668*
X386851Y402918D02*
X385396Y400418D01*
X388487Y402918D02*
Y397668D01*
Y402918D02*
X390851D01*
X388487Y400418D02*
X389942D01*
X388487Y397668D02*
X390851D01*
X392487Y402918D02*
Y397668D01*
Y402918D02*
X394123D01*
X394669Y402668*
X394851Y402418*
X395033Y401918*
Y401418*
X394851Y400918*
X394669Y400668*
X394123Y400418*
X392487*
X393760D02*
X395033Y397668D01*
X396669Y399918D02*
X399942D01*
X401578Y402918D02*
Y397668D01*
Y402918D02*
X403942D01*
X401578Y400418D02*
X403033D01*
X405578Y402918D02*
Y397668D01*
Y402918D02*
X407214D01*
X407760Y402668*
X407942Y402418*
X408123Y401918*
Y401418*
X407942Y400918*
X407760Y400668*
X407214Y400418*
X405578*
X406851D02*
X408123Y397668D01*
X411578Y402918D02*
X409760Y399418D01*
X412487*
X411578Y402918D02*
Y397668D01*
X414123Y399918D02*
X417396D01*
X419033Y401918D02*
X419396Y402168D01*
X419942Y402918*
Y397668*
X421760Y398168D02*
X421578Y397918D01*
X421760Y397668*
X421942Y397918*
X421760Y398168*
X424669Y402918D02*
X424123Y402668D01*
X423760Y401918*
X423578Y400668*
Y399918*
X423760Y398668*
X424123Y397918*
X424669Y397668*
X425033*
X425578Y397918*
X425942Y398668*
X426123Y399918*
Y400668*
X425942Y401918*
X425578Y402668*
X425033Y402918*
X424669*
X428305D02*
Y398668D01*
X428487Y397918*
X428851Y397668*
X429214*
X427760Y401168D02*
X429033D01*
X509714Y402293D02*
Y402543D01*
X509896Y403043*
X510078Y403293*
X510442Y403543*
X511169*
X511533Y403293*
X511714Y403043*
X511896Y402543*
Y402043*
X511714Y401543*
X511351Y400793*
X509533Y398293*
X512078*
X514805Y403543D02*
X514260Y403293D01*
X513896Y402543*
X513714Y401293*
Y400543*
X513896Y399293*
X514260Y398543*
X514805Y398293*
X515169*
X515714Y398543*
X516078Y399293*
X516260Y400543*
Y401293*
X516078Y402543*
X515714Y403293*
X515169Y403543*
X514805*
X517896Y402543D02*
X518260Y402793D01*
X518805Y403543*
Y398293*
X522260Y403543D02*
X520442Y400043D01*
X523169*
X522260Y403543D02*
Y398293D01*
X524987Y398793D02*
X524805Y398543D01*
X524987Y398293*
X525169Y398543*
X524987Y398793*
X527169Y403543D02*
X529169D01*
X528078Y401543*
X528623*
X528987Y401293*
X529169Y401043*
X529351Y400293*
Y399793*
X529169Y399043*
X528805Y398543*
X528260Y398293*
X527714*
X527169Y398543*
X526987Y398793*
X526805Y399293*
X531169Y398793D02*
X530987Y398543D01*
X531169Y398293*
X531351Y398543*
X531169Y398793*
X533169Y402293D02*
Y402543D01*
X533351Y403043*
X533533Y403293*
X533896Y403543*
X534623*
X534987Y403293*
X535169Y403043*
X535351Y402543*
Y402043*
X535169Y401543*
X534805Y400793*
X532987Y398293*
X535533*
X539533Y403543D02*
X537714D01*
X537533Y401293*
X537714Y401543*
X538260Y401793*
X538805*
X539351Y401543*
X539714Y401043*
X539896Y400293*
X539714Y399793*
X539533Y399043*
X539169Y398543*
X538623Y398293*
X538078*
X537533Y398543*
X537351Y398793*
X537169Y399293*
X487214Y421918D02*
X486760Y422543D01*
X486078Y422855*
X485169*
X484487Y422543*
X484033Y421918*
Y421293*
X484260Y420668*
X484487Y420355*
X484942Y420043*
X486305Y419418*
X486760Y419105*
X486987Y418793*
X487214Y418168*
Y417230*
X486760Y416605*
X486078Y416293*
X485169*
X484487Y416605*
X484033Y417230*
X489260Y422855D02*
X489487Y422543D01*
X489714Y422855*
X489487Y423168*
X489260Y422855*
X489487Y420668D02*
Y416293D01*
X491760Y422855D02*
Y416293D01*
X493805Y422855D02*
Y416293D01*
X496078Y420668D02*
X493805Y417543D01*
X494714Y418793D02*
X496305Y416293D01*
X500851Y419730D02*
X500623Y420355D01*
X499942Y420668*
X499260*
X498578Y420355*
X498351Y419730*
X498578Y419105*
X499033Y418793*
X500169Y418480*
X500623Y418168*
X500851Y417543*
Y417230*
X500623Y416605*
X499942Y416293*
X499260*
X498578Y416605*
X498351Y417230*
X505623Y419730D02*
X505169Y420355D01*
X504714Y420668*
X504033*
X503578Y420355*
X503123Y419730*
X502896Y418793*
Y418168*
X503123Y417230*
X503578Y416605*
X504033Y416293*
X504714*
X505169Y416605*
X505623Y417230*
X507669Y420668D02*
Y416293D01*
Y418793D02*
X507896Y419730D01*
X508351Y420355*
X508805Y420668*
X509487*
X511533Y418793D02*
X514260D01*
Y419418*
X514033Y420043*
X513805Y420355*
X513351Y420668*
X512669*
X512214Y420355*
X511760Y419730*
X511533Y418793*
Y418168*
X511760Y417230*
X512214Y416605*
X512669Y416293*
X513351*
X513805Y416605*
X514260Y417230*
X516305Y418793D02*
X519033D01*
Y419418*
X518805Y420043*
X518578Y420355*
X518123Y420668*
X517442*
X516987Y420355*
X516533Y419730*
X516305Y418793*
Y418168*
X516533Y417230*
X516987Y416605*
X517442Y416293*
X518123*
X518578Y416605*
X519033Y417230*
X521078Y420668D02*
Y416293D01*
Y419418D02*
X521760Y420355D01*
X522214Y420668*
X522896*
X523351Y420355*
X523578Y419418*
Y416293*
X530851Y422855D02*
Y416293D01*
Y422855D02*
X532896D01*
X533578Y422543*
X533805Y422230*
X534033Y421605*
Y420980*
X533805Y420355*
X533578Y420043*
X532896Y419730*
X530851D02*
X532896D01*
X533578Y419418*
X533805Y419105*
X534033Y418480*
Y417543*
X533805Y416918*
X533578Y416605*
X532896Y416293*
X530851*
X537214Y420668D02*
X536760Y420355D01*
X536305Y419730*
X536078Y418793*
Y418168*
X536305Y417230*
X536760Y416605*
X537214Y416293*
X537896*
X538351Y416605*
X538805Y417230*
X539033Y418168*
Y418793*
X538805Y419730*
X538351Y420355*
X537896Y420668*
X537214*
X541760Y422855D02*
Y417543D01*
X541987Y416605*
X542442Y416293*
X542896*
X541078Y420668D02*
X542669D01*
X545623Y422855D02*
Y417543D01*
X545851Y416605*
X546305Y416293*
X546760*
X544942Y420668D02*
X546533D01*
X549942D02*
X549487Y420355D01*
X549033Y419730*
X548805Y418793*
Y418168*
X549033Y417230*
X549487Y416605*
X549942Y416293*
X550623*
X551078Y416605*
X551533Y417230*
X551760Y418168*
Y418793*
X551533Y419730*
X551078Y420355*
X550623Y420668*
X549942*
X553805D02*
Y416293D01*
Y419418D02*
X554487Y420355D01*
X554942Y420668*
X555623*
X556078Y420355*
X556305Y419418*
Y416293*
Y419418D02*
X556987Y420355D01*
X557442Y420668*
X558123*
X558578Y420355*
X558805Y419418*
Y416293*
X500000Y538583D02*
X453636D01*
X500000D02*
X490000Y536083D01*
Y541083*
X500000Y538583*
X370079D02*
X416500D01*
X370079D02*
X380079Y541083D01*
Y536083*
X370079Y538583*
X500000Y533740D02*
Y543583D01*
X370079Y533740D02*
Y543583D01*
X419955Y541363D02*
X422455D01*
X422455D02*
X421091Y538863D01*
X421091D02*
X421773D01*
X421773D02*
X422227Y538550D01*
X422455Y538238*
X422455D02*
X422682Y537300D01*
Y536675*
X422455Y535738*
X422455D02*
X422000Y535113D01*
X422000D02*
X421318Y534800D01*
X420636*
X419955Y535113*
X419955D02*
X419727Y535425D01*
X419500Y536050*
X425182Y541363D02*
X427682D01*
X427682D02*
X426318Y538863D01*
X426318D02*
X427000D01*
X427000D02*
X427455Y538550D01*
X427682Y538238*
X427682D02*
X427909Y537300D01*
Y536675*
X427682Y535738*
X427682D02*
X427227Y535113D01*
X427227D02*
X426545Y534800D01*
X425864*
X425182Y535113*
X425182D02*
X424955Y535425D01*
X424727Y536050*
X430182Y535425D02*
X429955Y535113D01*
X429955D02*
X430182Y534800D01*
X430409Y535113*
X430409D02*
X430182Y535425D01*
X433818Y541363D02*
X433136Y541050D01*
X432682Y540113*
X432682D02*
X432455Y538550D01*
Y537613*
X432455D02*
X432682Y536050D01*
X433136Y535113*
X433136D02*
X433818Y534800D01*
X434273*
X434955Y535113*
X434955D02*
X435409Y536050D01*
X435636Y537613*
X435636D02*
Y538550D01*
X435409Y540113*
X435409D02*
X434955Y541050D01*
X434273Y541363*
X434273D02*
X433818D01*
X437682Y539175D02*
Y534800D01*
Y537925D02*
X438364Y538863D01*
X438364D02*
X438818Y539175D01*
X439500*
X439955Y538863*
X439955D02*
X440182Y537925D01*
Y534800*
Y537925D02*
X440864Y538863D01*
X440864D02*
X441318Y539175D01*
X442000*
X442455Y538863*
X442455D02*
X442682Y537925D01*
Y534800*
X444727Y539175D02*
Y534800D01*
Y537925D02*
X445409Y538863D01*
X445409D02*
X445864Y539175D01*
X446545*
X447000Y538863*
X447000D02*
X447227Y537925D01*
Y534800*
Y537925D02*
X447909Y538863D01*
X447909D02*
X448364Y539175D01*
X449045*
X449500Y538863*
X449500D02*
X449727Y537925D01*
Y534800*
X466958Y547480D02*
X481958D01*
X466958D02*
X476958Y549980D01*
Y544980*
X466958Y547480*
X462158D02*
X447158D01*
X462158D02*
X452158Y544980D01*
Y549980*
X462158Y547480*
X466958Y532597D02*
Y552480D01*
X462158Y532599D02*
Y552480D01*
X451063Y561690D02*
X451518Y562003D01*
X452199Y562940*
Y556378*
X454472Y557003D02*
X454245Y556690D01*
X454472Y556378*
X454699Y556690*
X454472Y557003*
X456972Y561378D02*
Y561690D01*
X457199Y562315*
X457427Y562628*
X457881Y562940*
X458790*
X459245Y562628*
X459472Y562315*
X459699Y561690*
Y561065*
X459472Y560440*
X459018Y559503*
X456745Y556378*
X459927*
X461972Y560753D02*
Y556378D01*
Y559503D02*
X462654Y560440D01*
X463108Y560753*
X463790*
X464245Y560440*
X464472Y559503*
Y556378*
Y559503D02*
X465154Y560440D01*
X465608Y560753*
X466290*
X466745Y560440*
X466972Y559503*
Y556378*
X469018Y560753D02*
Y556378D01*
Y559503D02*
X469699Y560440D01*
X470154Y560753*
X470836*
X471290Y560440*
X471518Y559503*
Y556378*
Y559503D02*
X472199Y560440D01*
X472654Y560753*
X473336*
X473790Y560440*
X474018Y559503*
Y556378*
X464573Y476424D02*
X464576D01*
X465234Y474136D02*
X465237D01*
X465234D02*
X470411Y465222D01*
X465607Y463835*
X465234Y474136*
X469397Y459725*
X479397*
X482397Y462537D02*
Y455975D01*
Y462537D02*
X484442D01*
X485124Y462225*
X485351Y461912*
X485579Y461287*
Y460662*
X485351Y460037*
X485124Y459725*
X484442Y459412*
X482397*
X483988D02*
X485579Y455975D01*
X488988Y462537D02*
X488306Y462225D01*
X487851Y461287*
X487624Y459725*
Y458787*
X487851Y457225*
X488306Y456287*
X488988Y455975*
X489442*
X490124Y456287*
X490579Y457225*
X490806Y458787*
Y459725*
X490579Y461287*
X490124Y462225*
X489442Y462537*
X488988*
X493079Y456600D02*
X492851Y456287D01*
X493079Y455975*
X493306Y456287*
X493079Y456600*
X498079Y461600D02*
X497851Y462225D01*
X497169Y462537*
X496715*
X496033Y462225*
X495579Y461287*
X495351Y459725*
Y458162*
X495579Y456912*
X496033Y456287*
X496715Y455975*
X496942*
X497624Y456287*
X498079Y456912*
X498306Y457850*
Y458162*
X498079Y459100*
X497624Y459725*
X496942Y460037*
X496715*
X496033Y459725*
X495579Y459100*
X495351Y458162*
X500351Y460350D02*
Y455975D01*
Y459100D02*
X501033Y460037D01*
X501488Y460350*
X502169*
X502624Y460037*
X502851Y459100*
Y455975*
Y459100D02*
X503533Y460037D01*
X503988Y460350*
X504669*
X505124Y460037*
X505351Y459100*
Y455975*
X507397Y460350D02*
Y455975D01*
Y459100D02*
X508079Y460037D01*
X508533Y460350*
X509215*
X509669Y460037*
X509897Y459100*
Y455975*
Y459100D02*
X510579Y460037D01*
X511033Y460350*
X511715*
X512169Y460037*
X512397Y459100*
Y455975*
X499987Y553671D02*
X427082D01*
X499987D02*
X489987Y551171D01*
Y556171*
X499987Y553671*
X316813D02*
X389718D01*
X316813D02*
X326813Y556171D01*
Y551171*
X316813Y553671*
X499987Y505022D02*
Y558671D01*
X316813Y504841D02*
Y558671D01*
X394991Y556483D02*
X392718Y552108D01*
X396127*
X394991Y556483D02*
Y549921D01*
X400900Y555546D02*
X400672Y556171D01*
X399991Y556483*
X399536*
X398854Y556171*
X398400Y555233*
X398172Y553671*
Y552108*
X398400Y550858*
X398854Y550233*
X399536Y549921*
X399763*
X400445Y550233*
X400900Y550858*
X401127Y551796*
Y552108*
X400900Y553046*
X400445Y553671*
X399763Y553983*
X399536*
X398854Y553671*
X398400Y553046*
X398172Y552108*
X403400Y550546D02*
X403172Y550233D01*
X403400Y549921*
X403627Y550233*
X403400Y550546*
X408627Y556483D02*
X406354D01*
X406127Y553671*
X406354Y553983*
X407036Y554296*
X407718*
X408400Y553983*
X408854Y553358*
X409082Y552421*
X408854Y551796*
X408627Y550858*
X408172Y550233*
X407491Y549921*
X406809*
X406127Y550233*
X405900Y550546*
X405672Y551171*
X411127Y554296D02*
Y549921D01*
Y553046D02*
X411809Y553983D01*
X412263Y554296*
X412945*
X413400Y553983*
X413627Y553046*
Y549921*
Y553046D02*
X414309Y553983D01*
X414763Y554296*
X415445*
X415900Y553983*
X416127Y553046*
Y549921*
X418172Y554296D02*
Y549921D01*
Y553046D02*
X418854Y553983D01*
X419309Y554296*
X419991*
X420445Y553983*
X420672Y553046*
Y549921*
Y553046D02*
X421354Y553983D01*
X421809Y554296*
X422491*
X422945Y553983*
X423172Y553046*
Y549921*
G54D35*
X456200Y516200D02*
X490200D01*
Y482200*
X456200*
Y516200*
X456469Y482469D02*
X458969D01*
Y484469*
X456469*
Y482469*
X459400Y485900D02*
X459900Y485400D01*
X486500*
X487000Y485900*
Y512500*
X486500Y513000*
X459900*
X459400Y512500*
Y485900*
X456669Y482669D02*
X458669D01*
Y483169*
X456669*
Y483669*
X458669*
Y484169*
X456669*
X486192Y483452D02*
X487198D01*
X488948Y485202*
Y486208*
Y512192D02*
Y513198D01*
X487198Y514948*
X486192*
X460208D02*
X459202D01*
X457452Y513198*
Y512192*
X460208Y483452D02*
X459202D01*
X457452Y485202*
Y486208*
X379280Y523622D02*
X451720D01*
X379280Y476378D02*
X451720D01*
X375710Y475551D02*
G75*
G03X375710I-984J0D01*
G01X410500Y476500D02*
X420500D01*
Y479000*
X410500*
Y476500*
X478339Y522038D02*
X468095D01*
Y526762D02*
G03Y522038I2281J-2362D01*
G01Y526762D02*
X478339D01*
X478342Y522041D02*
G03X478338Y526763I-2418J2359D01*
G01X457424Y522150D02*
Y524837D01*
X460376*
Y522150*
X457424Y519650D02*
Y516963D01*
X460376*
Y519650*
X498737Y512619D02*
Y514981D01*
X495587Y508879D02*
X494013D01*
X490863Y512619D02*
Y514981D01*
X495587Y518721D02*
X494013D01*
X492481Y508240D02*
X490643D01*
Y510430*
X495875Y513415D02*
Y514209D01*
X493687*
Y513415*
X495875*
X496086Y514939D02*
X493460D01*
X496119Y512653D02*
X493509D01*
X494774Y515118D02*
Y517240D01*
X495616*
X494822Y512573D02*
Y510190D01*
X493963*
X376709Y524400D02*
X376569Y524195D01*
X376147Y523889*
X379100*
X445045Y531290D02*
X447154D01*
X447576Y531187*
X447857Y530983*
X447998Y530676*
Y530472*
X447857Y530165*
X447576Y529960*
X447154Y529858*
X445045*
X441108Y530574D02*
X444061D01*
X441108Y531290D02*
Y529858D01*
X437170Y531290D02*
X440124D01*
X437170D02*
Y530369D01*
X437311Y530062*
X437452Y529960*
X437733Y529858*
X438014*
X438295Y529960*
X438436Y530062*
X438577Y530369*
Y531290*
Y530574D02*
X440124Y529858D01*
X433233Y531290D02*
X436187D01*
X433233D02*
Y530369D01*
X433374Y530062*
X433515Y529960*
X433796Y529858*
X434218*
X434499Y529960*
X434640Y530062*
X434780Y530369*
Y531290*
X429296D02*
X432250D01*
X429296D02*
X432250Y529858D01*
X429296D02*
X432250D01*
X425359Y531290D02*
X428313D01*
X425359D02*
X428313Y530472D01*
X425359Y529653D02*
X428313Y530472D01*
X425359Y529653D02*
X428313D01*
X421422Y531290D02*
X424376D01*
Y530062*
X417485Y531290D02*
X420439D01*
X417485Y529858D02*
X419454Y531290D01*
X418751Y530778D02*
X420439Y529858D01*
X413548Y530267D02*
X415798D01*
X416220Y530369*
X416361Y530472*
X416502Y530676*
Y530881*
X416361Y531085*
X416220Y531187*
X415798Y531290*
X415517*
X409611D02*
X412565D01*
X409611Y529858D02*
X412565D01*
X411018Y531290D02*
Y529858D01*
X406378Y529756D02*
X406096Y529858D01*
X405815Y530062*
X405674Y530267*
Y530676*
X405815Y530881*
X406096Y531085*
X406378Y531187*
X406799Y531290*
X407503*
X407924Y531187*
X408206Y531085*
X408487Y530881*
X408628Y530676*
Y530267*
X408487Y530062*
X408206Y529858*
X407924Y529756*
X407503*
Y530267D02*
Y529756D01*
X401737Y531290D02*
X404691D01*
X401737D02*
Y529960D01*
X403144Y531290D02*
Y530472D01*
X397800Y531290D02*
X400754D01*
X397800D02*
Y529960D01*
X399207Y531290D02*
Y530472D01*
X400754Y531290D02*
Y529960D01*
X393863Y531290D02*
X396817D01*
X393863D02*
Y530574D01*
X394004Y530267*
X394285Y530062*
X394567Y529960*
X394988Y529858*
X395692*
X396113Y529960*
X396395Y530062*
X396676Y530267*
X396817Y530574*
Y531290*
X390630Y529756D02*
X390348Y529858D01*
X390067Y530062*
X389926Y530267*
Y530676*
X390067Y530881*
X390348Y531085*
X390630Y531187*
X391051Y531290*
X391755*
X392176Y531187*
X392458Y531085*
X392739Y530881*
X392880Y530676*
Y530267*
X392739Y530062*
X392458Y529858*
X392176Y529756*
X385989Y531290D02*
X388943D01*
X385989D02*
Y530369D01*
X386130Y530062*
X386271Y529960*
X386552Y529858*
X386833*
X387114Y529960*
X387255Y530062*
X387396Y530369*
Y531290D02*
Y530369D01*
X387536Y530062*
X387677Y529960*
X387958Y529858*
X388380*
X388661Y529960*
X388802Y530062*
X388943Y530369*
Y531290*
X382052Y530472D02*
X385006Y531290D01*
X382052Y530472D02*
X385006Y529653D01*
X384021Y530983D02*
Y529960D01*
X376709Y477156D02*
X376569Y476951D01*
X376147Y476645*
X379100*
X376147Y475520D02*
Y474395D01*
X377272Y475008*
Y474701*
X377412Y474497*
X377412D02*
X377553Y474395D01*
X377975Y474292*
X378256*
X378678Y474395*
X378959Y474599*
X379100Y474906*
Y475213*
X378959Y475520*
X378819Y475622*
X378537Y475724*
X376709Y481093D02*
X376569Y480888D01*
X376147Y480582*
X379100*
X376850Y479559D02*
X376709D01*
X376428Y479457*
X376287Y479354*
X376287D02*
X376147Y479150D01*
Y478741*
X376287Y478536*
X376287D02*
X376428Y478434D01*
X376709Y478332*
X376991*
X377272Y478434*
X377694Y478638*
X379100Y479661*
Y478229*
X376692Y485236D02*
X376551Y485032D01*
X376130Y484725*
X379083*
X376692Y483804D02*
X376551Y483600D01*
X376130Y483293*
X379083*
X376692Y490157D02*
X376551Y489953D01*
X376130Y489646*
X379083*
X376130Y488112D02*
X376270Y488419D01*
X376692Y488623*
X377395Y488726*
X377817*
X378520Y488623*
X378942Y488419*
X379083Y488112*
Y487907*
X378942Y487601*
X378520Y487396*
X377817Y487294*
X377395*
X376692Y487396*
X376270Y487601*
X376130Y487907*
Y488112*
X377131Y491574D02*
X377553Y491677D01*
X377834Y491881*
X377975Y492188*
Y492290*
X377834Y492597*
X377553Y492802*
X377131Y492904*
X376991*
X376569Y492802*
X376287Y492597*
X376287D02*
X376147Y492290D01*
Y492188*
X376287Y491881*
X376287D02*
X376569Y491677D01*
X377131Y491574*
X377834*
X378537Y491677*
X378537D02*
X378959Y491881D01*
X379100Y492188*
Y492393*
X378959Y492699*
X378678Y492802*
X376147Y496330D02*
X376287Y496636D01*
X376287D02*
X376569Y496739D01*
X376850*
X377131Y496636*
X377272Y496432*
X377412Y496023*
X377412D02*
X377553Y495716D01*
X377834Y495511*
X378116Y495409*
X378537*
X378537D02*
X378819Y495511D01*
X378959Y495614*
X379100Y495920*
Y496330*
X378959Y496636*
X378819Y496739*
X378537Y496841*
X378537D02*
X378116D01*
X377834Y496739*
X377553Y496534*
X377412Y496227*
X377412D02*
X377272Y495818D01*
X377131Y495614*
X376850Y495511*
X376569*
X376287Y495614*
X376287D02*
X376147Y495920D01*
Y496330*
Y499346D02*
X379100Y500369D01*
X376147Y500778D02*
Y499346D01*
X376569Y503488D02*
X376287Y503590D01*
X376287D02*
X376147Y503897D01*
Y504101*
X376287Y504408*
X376287D02*
X376709Y504613D01*
X377412Y504715*
X377412D02*
X378116D01*
X378678Y504613*
X378959Y504408*
X379100Y504101*
Y503999*
X378959Y503692*
X378678Y503488*
X378256Y503385*
X378116*
X377694Y503488*
X377412Y503692*
X377412D02*
X377272Y503999D01*
Y504101*
X377412Y504408*
X377412D02*
X377694Y504613D01*
X378116Y504715*
X376147Y507322D02*
Y508345D01*
X377412Y508447*
X377412D02*
X377272Y508345D01*
X377131Y508038*
Y507732*
X377272Y507425*
X377553Y507220*
X377975Y507118*
X378256Y507220*
X378678Y507322*
X378959Y507527*
X379100Y507834*
Y508141*
X378959Y508447*
X378819Y508550*
X378537Y508652*
X376147Y511566D02*
X378116Y512589D01*
Y511055*
X376147Y511566D02*
X379100D01*
X376147Y516321D02*
Y515196D01*
X377272Y515810*
Y515503*
X377412Y515299*
X377412D02*
X377553Y515196D01*
X377975Y515094*
X378256*
X378678Y515196*
X378959Y515401*
X379100Y515708*
Y516015*
X378959Y516321*
X378819Y516424*
X378537Y516526*
X376850Y520361D02*
X376709D01*
X376428Y520258*
X376287Y520156*
X376287D02*
X376147Y519952D01*
Y519543*
X376287Y519338*
X376287D02*
X376428Y519236D01*
X376709Y519133*
X376991*
X377272Y519236*
X377694Y519440*
X379100Y520463*
Y519031*
X379500Y525500D02*
Y528000D01*
X382500*
X379000Y525500D02*
Y528500D01*
X382500*
X490800Y483900D02*
X497800D01*
G03Y486900I-1750J1500*
G01X490800*
G03Y483900I1750J-1500*
G01Y480700D02*
X497800D01*
G03Y483700I-1750J1500*
G01X490800*
G03Y480700I1750J-1500*
G01X487450Y519676D02*
X490137D01*
Y516724*
X487450*
X484950Y519676D02*
X482263D01*
Y516724*
X484950*
X371203Y494750D02*
Y497437D01*
X374155*
Y494750*
X371203Y492250D02*
Y489563D01*
X374155*
Y492250*
Y510670D02*
Y507983D01*
X371203*
Y510670*
X374155Y513170D02*
Y515857D01*
X371203*
Y513170*
Y521350D02*
Y524037D01*
X374155*
Y521350*
X371203Y518850D02*
Y516163D01*
X374155*
Y518850*
X495128Y503331D02*
X496072D01*
X495128Y505331D02*
X496072D01*
X496600Y500078D02*
Y499134D01*
X498600Y500078D02*
Y499134D01*
X371203Y478750D02*
Y481437D01*
X374155*
Y478750*
X371203Y476250D02*
Y473563D01*
X374155*
Y476250*
X498600Y522728D02*
Y523672D01*
X496600Y522728D02*
Y523672D01*
X388933Y426918D02*
Y424621D01*
X390763Y426589D02*
X390604Y426808D01*
X390365Y426918*
X390047*
X389808Y426808*
X389649Y426589*
Y426371*
X389729Y426152*
X389808Y426043*
X389967Y425933*
X390444Y425714*
X390604Y425605*
X390683Y425496*
X390763Y425277*
Y424949*
X390604Y424730*
X390365Y424621*
X390047*
X389808Y424730*
X389649Y424949*
X392513Y426152D02*
X392433Y425824D01*
X392274Y425605*
X392035Y425496*
X391956*
X391717Y425605*
X391558Y425824*
X391479Y426152*
Y426261*
X391558Y426589*
X391717Y426808*
X391956Y426918*
X392035*
X392274Y426808*
X392433Y426589*
X392513Y426152*
Y425605*
X392433Y425058*
X392274Y424730*
X392035Y424621*
X391876*
X391638Y424730*
X391558Y424949*
X393706Y426918D02*
X393467Y426808D01*
X393308Y426480*
X393229Y425933*
Y425605*
X393308Y425058*
X393467Y424730*
X393706Y424621*
X393865*
X394104Y424730*
X394263Y425058*
X394342Y425605*
Y425933*
X394263Y426480*
X394104Y426808*
X393865Y426918*
X393706*
X395217D02*
X396092D01*
X395615Y426043*
X395854*
X396013Y425933*
X396092Y425824*
X396172Y425496*
Y425277*
X396092Y424949*
X395933Y424730*
X395694Y424621*
X395456*
X395217Y424730*
X395138Y424839*
X395058Y425058*
X398001Y426589D02*
X397842Y426808D01*
X397604Y426918*
X397285*
X397047Y426808*
X396888Y426589*
Y426371*
X396967Y426152*
X397047Y426043*
X397206Y425933*
X397683Y425714*
X397842Y425605*
X397922Y425496*
X398001Y425277*
Y424949*
X397842Y424730*
X397604Y424621*
X397285*
X397047Y424730*
X396888Y424949*
X399831Y426918D02*
X398717Y424621D01*
Y426918D02*
X399831D01*
X398717Y424621D02*
X399831D01*
X401024Y426918D02*
X400865Y426808D01*
X400706Y426589*
X400626Y426371*
X400547Y426043*
Y425496*
X400626Y425168*
X400706Y424949*
X400865Y424730*
X401024Y424621*
X401342*
X401501Y424730*
X401660Y424949*
X401740Y425168*
X401819Y425496*
Y426043*
X401740Y426371*
X401660Y426589*
X401501Y426808*
X401342Y426918*
X401024*
X401263Y425058D02*
X401740Y424402D01*
X403013Y426918D02*
X402774Y426808D01*
X402615Y426480*
X402535Y425933*
Y425605*
X402615Y425058*
X402774Y424730*
X403013Y424621*
X403172*
X403410Y424730*
X403569Y425058*
X403649Y425605*
Y425933*
X403569Y426480*
X403410Y426808*
X403172Y426918*
X403013*
X405319Y426589D02*
X405240Y426808D01*
X405001Y426918*
X404842*
X404604Y426808*
X404444Y426480*
X404365Y425933*
Y425386*
X404444Y424949*
X404604Y424730*
X404842Y424621*
X404922*
X405160Y424730*
X405319Y424949*
X405399Y425277*
Y425386*
X405319Y425714*
X405160Y425933*
X404922Y426043*
X404842*
X404604Y425933*
X404444Y425714*
X404365Y425386*
X406910Y426918D02*
X406115Y425386D01*
X407308*
X406910Y426918D02*
Y424621D01*
X408024Y425605D02*
X409456D01*
X410967Y426918D02*
X410172Y425386D01*
X411365*
X410967Y426918D02*
Y424621D01*
X413194Y426918D02*
X412081Y424621D01*
Y426918D02*
X413194D01*
X412081Y424621D02*
X413194D01*
X414388Y426918D02*
X414149Y426808D01*
X413990Y426480*
X413910Y425933*
Y425605*
X413990Y425058*
X414149Y424730*
X414388Y424621*
X414547*
X414785Y424730*
X414944Y425058*
X415024Y425605*
Y425933*
X414944Y426480*
X414785Y426808*
X414547Y426918*
X414388*
X416774Y426152D02*
X416694Y425824D01*
X416535Y425605*
X416297Y425496*
X416217*
X415979Y425605*
X415819Y425824*
X415740Y426152*
Y426261*
X415819Y426589*
X415979Y426808*
X416217Y426918*
X416297*
X416535Y426808*
X416694Y426589*
X416774Y426152*
Y425605*
X416694Y425058*
X416535Y424730*
X416297Y424621*
X416138*
X415899Y424730*
X415819Y424949*
X417490Y425605D02*
X418922D01*
X420194Y426918D02*
Y424621D01*
X419638Y426918D02*
X420751D01*
X421467D02*
Y424621D01*
Y426918D02*
X422183D01*
X422422Y426808*
X422501Y426699*
X422581Y426480*
Y426261*
X422501Y426043*
X422422Y425933*
X422183Y425824*
X421467D02*
X422183D01*
X422422Y425714*
X422501Y425605*
X422581Y425386*
Y425058*
X422501Y424839*
X422422Y424730*
X422183Y424621*
X421467*
X425683Y427355D02*
X425524Y427136D01*
X425365Y426808*
X425206Y426371*
X425126Y425824*
Y425386*
X425206Y424839*
X425365Y424402*
X425524Y424074*
X425683Y423855*
X426399Y426918D02*
Y424621D01*
Y426918D02*
X427115D01*
X427354Y426808*
X427433Y426699*
X427513Y426480*
Y426261*
X427433Y426043*
X427354Y425933*
X427115Y425824*
X426399*
X426956D02*
X427513Y424621D01*
X428229Y426918D02*
Y424621D01*
X430138Y426371D02*
X430058Y426589D01*
X429899Y426808*
X429740Y426918*
X429422*
X429263Y426808*
X429104Y426589*
X429024Y426371*
X428944Y426043*
Y425496*
X429024Y425168*
X429104Y424949*
X429263Y424730*
X429422Y424621*
X429740*
X429899Y424730*
X430058Y424949*
X430138Y425168*
X430854Y426918D02*
Y424621D01*
X431967Y426918D02*
Y424621D01*
X430854Y425824D02*
X431967D01*
X432683Y426918D02*
Y424621D01*
Y426918D02*
X433319Y424621D01*
X433956Y426918D02*
X433319Y424621D01*
X433956Y426918D02*
Y424621D01*
X435308Y426918D02*
X434672Y424621D01*
X435308Y426918D02*
X435944Y424621D01*
X434910Y425386D02*
X435706D01*
X436660Y426918D02*
X437774Y424621D01*
Y426918D02*
X436660Y424621D01*
X438490Y427355D02*
X438649Y427136D01*
X438808Y426808*
X438967Y426371*
X439047Y425824*
Y425386*
X438967Y424839*
X438808Y424402*
X438649Y424074*
X438490Y423855*
X479832Y477281D02*
X480173Y477125D01*
X480286Y476813*
X480286D02*
Y476500D01*
X480173Y476188*
X480173D02*
X479945Y476031D01*
X479491Y475875*
X479150Y475719*
X478923Y475406*
X478809Y475094*
Y474625*
X478923Y474313*
X478923D02*
X479036Y474156D01*
X479377Y474000*
X479832*
X480173Y474156*
X480286Y474313*
X480286D02*
X480400Y474625D01*
Y475094*
X480286Y475406*
X480059Y475719*
X479718Y475875*
X479264Y476031*
X479036Y476188*
X479036D02*
X478923Y476500D01*
Y476813*
X478923D02*
X479036Y477125D01*
X479377Y477281*
X479832*
X476082Y476500D02*
X476195Y476813D01*
X476195D02*
X476423Y477125D01*
X476650Y477281*
X477105*
X477332Y477125*
X477559Y476813*
X477559D02*
X477673Y476500D01*
X477786Y476031*
Y475250*
X477673Y474781*
X477559Y474469*
X477332Y474156*
X477105Y474000*
X476650*
X476423Y474156*
X476195Y474469*
X476082Y474781*
X475059Y477281D02*
Y474000D01*
Y477281D02*
X473582D01*
X475059Y475719D02*
X474150D01*
X475059Y474000D02*
X473582D01*
G54D37*
X450933Y527559D02*
X380559D01*
X380067Y527067*
Y472441*
X450933*
Y527559*
X339533Y420593D02*
X453233D01*
X569533Y408293D02*
X339533D01*
Y433293D02*
X569533D01*
X480233D02*
Y395793D01*
X454533Y433293D02*
Y395793D01*
X569533Y445793D02*
Y383293D01*
X339533*
Y445793*
X569533*
Y395793D02*
X339533D01*
X381533Y433293D02*
Y408293D01*
G54D95*
X500000Y528740D02*
X500003D01*
X370079D02*
X370081D01*
X499987Y500022D02*
X499990D01*
X316813Y499841D02*
X316815D01*
G54D213*
X461600Y481025D02*
Y479150D01*
X461509Y478775*
X461327Y478525*
X461055Y478400*
X460873*
X460600Y478525*
X460418Y478775*
X460327Y479150*
Y481025*
X459418Y480400D02*
Y480525D01*
X459327Y480775*
X459236Y480900*
X459055Y481025*
X458691*
X458509Y480900*
X458418Y480775*
X458327Y480525*
Y480275*
X458418Y480025*
X458600Y479650*
X459509Y478400*
X458236*
X387718Y475463D02*
Y473588D01*
X387718D02*
X387627Y473213D01*
X387627D02*
X387445Y472963D01*
X387445D02*
X387173Y472838D01*
X387173D02*
X386991D01*
X386991D02*
X386718Y472963D01*
X386718D02*
X386536Y473213D01*
X386536D02*
X386445Y473588D01*
X386445D02*
Y475463D01*
X384536Y475088D02*
X384627Y475338D01*
X384900Y475463*
X385082*
X385355Y475338*
X385536Y474963*
X385627Y474338*
X385627D02*
Y473713D01*
X385627D02*
X385536Y473213D01*
X385536D02*
X385355Y472963D01*
X385355D02*
X385082Y472838D01*
X385082D02*
X384991D01*
X384991D02*
X384718Y472963D01*
X384718D02*
X384536Y473213D01*
X384536D02*
X384445Y473588D01*
X384445D02*
Y473713D01*
X384445D02*
X384536Y474088D01*
X384536D02*
X384718Y474338D01*
X384718D02*
X384991Y474463D01*
X385082*
X385355Y474338*
X385355D02*
X385536Y474088D01*
X385536D02*
X385627Y473713D01*
X469036Y520600D02*
X469127Y520850D01*
X469309Y521100*
X469491Y521225*
X469855*
X470036Y521100*
X470218Y520850*
X470309Y520600*
X470400Y520225*
Y519600*
X470309Y519225*
X470218Y518975*
X470036Y518725*
X469855Y518600*
X469491*
X469309Y518725*
X469127Y518975*
X469036Y519225*
X468218Y520725D02*
X468036Y520850D01*
X467764Y521225*
Y518600*
X465764Y520350D02*
X465855Y519975D01*
X466036Y519725*
X466309Y519600*
X466400*
X466673Y519725*
X466855Y519975*
X466945Y520350*
Y520475*
X466855Y520850*
X466673Y521100*
X466400Y521225*
X466309*
X466036Y521100*
X465855Y520850*
X465764Y520350*
Y519725*
X465855Y519100*
X466036Y518725*
X466309Y518600*
X466491*
X466764Y518725*
X466855Y518975*
X456500Y526625D02*
Y524000D01*
Y526625D02*
X455682D01*
X455409Y526500*
X455318Y526375*
X455227Y526125*
Y525875*
X455318Y525625*
X455409Y525500*
X455682Y525375*
X456500*
X455864D02*
X455227Y524000D01*
X454409Y526125D02*
X454227Y526250D01*
X453955Y526625*
Y524000*
X452227Y526625D02*
X453136Y524875D01*
X451773*
X452227Y526625D02*
Y524000D01*
X475200Y519425D02*
X474473Y518175D01*
Y516800*
X473745Y519425D02*
X474473Y518175D01*
X472927Y518925D02*
X472745Y519050D01*
X472473Y519425*
Y516800*
X376000Y527125D02*
Y525250D01*
X375909Y524875*
X375727Y524625*
X375455Y524500*
X375273*
X375000Y524625*
X374818Y524875*
X374727Y525250*
Y527125*
X373455D02*
X373727Y527000D01*
X373818Y526750*
Y526500*
X373727Y526250*
X373545Y526125*
X373182Y526000*
X372909Y525875*
X372727Y525625*
X372636Y525375*
Y525000*
X372727Y524750*
X372818Y524625*
X373091Y524500*
X373455*
X373727Y524625*
X373818Y524750*
X373909Y525000*
Y525375*
X373818Y525625*
X373636Y525875*
X373364Y526000*
X373000Y526125*
X372818Y526250*
X372727Y526500*
Y526750*
X372818Y527000*
X373091Y527125*
X373455*
X495636Y493000D02*
X495727Y493250D01*
X495909Y493500*
X496091Y493625*
X496455*
X496636Y493500*
X496818Y493250*
X496909Y493000*
X497000Y492625*
Y492000*
X496909Y491625*
X496818Y491375*
X496636Y491125*
X496455Y491000*
X496091*
X495909Y491125*
X495727Y491375*
X495636Y491625*
X494727Y493000D02*
Y493125D01*
X494636Y493375*
X494545Y493500*
X494364Y493625*
X494000*
X493818Y493500*
X493727Y493375*
X493636Y493125*
Y492875*
X493727Y492625*
X493909Y492250*
X494818Y491000*
X493545*
X491818Y493625D02*
X492727Y491875D01*
X491364*
X491818Y493625D02*
Y491000D01*
X495636Y489700D02*
X495727Y489950D01*
X495909Y490200*
X496091Y490325*
X496455*
X496636Y490200*
X496818Y489950*
X496909Y489700*
X497000Y489325*
Y488700*
X496909Y488325*
X496818Y488075*
X496636Y487825*
X496455Y487700*
X496091*
X495909Y487825*
X495727Y488075*
X495636Y488325*
X494727Y489700D02*
Y489825D01*
X494636Y490075*
X494545Y490200*
X494364Y490325*
X494000*
X493818Y490200*
X493727Y490075*
X493636Y489825*
Y489575*
X493727Y489325*
X493909Y488950*
X494818Y487700*
X493545*
X491455Y490325D02*
X492364Y487700D01*
X492727Y490325D02*
X491455D01*
X481300Y519425D02*
Y516800D01*
Y519425D02*
X480482D01*
X480209Y519300*
X480118Y519175*
X480027Y518925*
Y518675*
X480118Y518425*
X480209Y518300*
X480482Y518175*
X481300*
X480664D02*
X480027Y516800D01*
X479118Y518800D02*
Y518925D01*
X479027Y519175*
X478936Y519300*
X478755Y519425*
X478391*
X478209Y519300*
X478118Y519175*
X478027Y518925*
Y518675*
X478118Y518425*
X478300Y518050*
X479209Y516800*
X477936*
X475845Y519425D02*
X476755Y516800D01*
X477118Y519425D02*
X475845D01*
X371375Y502200D02*
X374000D01*
X371375D02*
Y501382D01*
X371500Y501109*
X371625Y501018*
X371875Y500927*
X372125*
X372375Y501018*
X372500Y501109*
X372625Y501382*
Y502200*
Y501564D02*
X374000Y500927D01*
X372000Y500018D02*
X371875D01*
X371625Y499927*
X371500Y499836*
X371375Y499655*
Y499291*
X371500Y499109*
X371625Y499018*
X371875Y498927*
X372125*
X372375Y499018*
X372750Y499200*
X374000Y500109*
Y498836*
X392200Y527125D02*
Y524500D01*
Y527125D02*
X391382D01*
X391109Y527000*
X391018Y526875*
X390927Y526625*
Y526375*
X391018Y526125*
X391109Y526000*
X391382Y525875*
X392200*
X391564D02*
X390927Y524500D01*
X389200Y527125D02*
X390109Y525375D01*
X388745*
X389200Y527125D02*
Y524500D01*
X388000Y527025D02*
Y524400D01*
Y527025D02*
X387182D01*
X386909Y526900*
X386818Y526775*
X386727Y526525*
Y526275*
X386818Y526025*
X386909Y525900*
X387182Y525775*
X388000*
X387364D02*
X386727Y524400D01*
X384727Y527025D02*
X385636D01*
X385727Y525900*
X385636Y526025*
X385364Y526150*
X385091*
X384818Y526025*
X384636Y525775*
X384545Y525400*
X384636Y525150*
X384727Y524775*
X384909Y524525*
X385182Y524400*
X385455*
X385727Y524525*
X385818Y524650*
X385909Y524900*
X496136Y507800D02*
X496227Y508050D01*
X496409Y508300*
X496591Y508425*
X496955*
X497136Y508300*
X497318Y508050*
X497409Y507800*
X497500Y507425*
Y506800*
X497409Y506425*
X497318Y506175*
X497136Y505925*
X496955Y505800*
X496591*
X496409Y505925*
X496227Y506175*
X496136Y506425*
X495227Y507800D02*
Y507925D01*
X495136Y508175*
X495045Y508300*
X494864Y508425*
X494500*
X494318Y508300*
X494227Y508175*
X494136Y507925*
Y507675*
X494227Y507425*
X494409Y507050*
X495318Y505800*
X494045*
X492045Y508425D02*
X492955D01*
X493045Y507300*
X492955Y507425*
X492682Y507550*
X492409*
X492136Y507425*
X491955Y507175*
X491864Y506800*
X491955Y506550*
X492045Y506175*
X492227Y505925*
X492500Y505800*
X492773*
X493045Y505925*
X493136Y506050*
X493227Y506300*
X494200Y499736D02*
X493950Y499827D01*
X493700Y500009*
X493575Y500191*
Y500555*
X493700Y500736*
X493950Y500918*
X494200Y501009*
X494575Y501100*
X495200*
X495575Y501009*
X495825Y500918*
X496075Y500736*
X496200Y500555*
Y500191*
X496075Y500009*
X495825Y499827*
X495575Y499736*
X493575Y497645D02*
X496200Y498555D01*
X493575Y498918D02*
Y497645D01*
X371175Y487500D02*
X373800D01*
X371175D02*
Y486682D01*
X371300Y486409*
X371425Y486318*
X371675Y486227*
X371925*
X372175Y486318*
X372300Y486409*
X372425Y486682*
Y487500*
Y486864D02*
X373800Y486227D01*
X371800Y485318D02*
X371675D01*
X371425Y485227*
X371300Y485136*
X371175Y484955*
Y484591*
X371300Y484409*
X371425Y484318*
X371675Y484227*
X371925*
X372175Y484318*
X372550Y484500*
X373800Y485409*
Y484136*
X371800Y483227D02*
X371675D01*
X371425Y483136*
X371300Y483045*
X371175Y482864*
Y482500*
X371300Y482318*
X371425Y482227*
X371675Y482136*
X371925*
X372175Y482227*
X372550Y482409*
X373800Y483318*
Y482045*
X481100Y525536D02*
X480850Y525627D01*
X480600Y525809*
X480475Y525991*
Y526355*
X480600Y526536*
X480850Y526718*
X481100Y526809*
X481475Y526900*
X482100*
X482475Y526809*
X482725Y526718*
X482975Y526536*
X483100Y526355*
Y525991*
X482975Y525809*
X482725Y525627*
X482475Y525536*
X481100Y524627D02*
X480975D01*
X480725Y524536*
X480600Y524445*
X480475Y524264*
Y523900*
X480600Y523718*
X480725Y523627*
X480975Y523536*
X481225*
X481475Y523627*
X481850Y523809*
X483100Y524718*
Y523445*
X480850Y521536D02*
X480600Y521627D01*
X480475Y521900*
Y522082*
X480600Y522355*
X480975Y522536*
X481600Y522627*
X482225*
X482725Y522536*
X482975Y522355*
X483100Y522082*
Y521991*
X482975Y521718*
X482725Y521536*
X482350Y521445*
X482225*
X481850Y521536*
X481600Y521718*
X481475Y521991*
Y522082*
X481600Y522355*
X481850Y522536*
X482225Y522627*
X418595Y526400D02*
X418709Y526713D01*
X418709D02*
X418936Y527025D01*
X419164Y527181*
X419618*
X419845Y527025*
X420073Y526713*
X420073D02*
X420186Y526400D01*
X420300Y525931*
Y525150*
X420186Y524681*
X420073Y524369*
X419845Y524056*
X419618Y523900*
X419164*
X418936Y524056*
X418709Y524369*
X418595Y524681*
X417573Y527181D02*
Y523900D01*
X415982Y527181D02*
Y523900D01*
X417573Y525619D02*
X415982D01*
X414959Y526556D02*
X414732Y526713D01*
X414732D02*
X414391Y527181D01*
Y523900*
X410755Y527181D02*
Y523900D01*
Y527181D02*
X409277D01*
X410755Y525619D02*
X409845D01*
X408255Y526556D02*
X408027Y526713D01*
X408027D02*
X407686Y527181D01*
Y523900*
G54D262*
X500004Y472389D02*
X467001D01*
Y476419*
G03X464619Y478801I-2382J0*
G01X464592*
G03X462204Y476413I-0J-2388*
G01Y472390*
X334043*
Y478741*
X316813*
Y520941*
X334046*
Y527594*
X462205*
Y523586*
G03X464590Y521200I2385J-0*
G01X464624*
G03X467004Y523579I0J2379*
G01Y527592*
X481073*
X481162Y527589*
X500004*
Y472389*
X369407Y475255D02*
G03X369407I-991J0D01*
G01X369392Y477775D02*
G03X369392I-985J0D01*
G01X369429Y480203D02*
G03X369429I-982J0D01*
G01X369446Y485204D02*
G03X369446I-986J0D01*
G01X369454Y487596D02*
G03X369454I-988J0D01*
G01X369459Y490109D02*
G03X369459I-989J0D01*
G01X369443Y492557D02*
G03X369443I-989J0D01*
G01X369505Y495039D02*
G03X369505I-993J0D01*
G01X369442Y497535D02*
G03X369442I-976J0D01*
G01X369449Y500054D02*
G03X369449I-986J0D01*
G01X369446Y502498D02*
G03X369446I-993J0D01*
G01X369461Y504989D02*
G03X369461I-999J0D01*
G01X369453Y507477D02*
G03X369453I-985J0D01*
G01X369441Y509994D02*
G03X369441I-975J0D01*
G01X369420Y512438D02*
G03X369420I-973J0D01*
G01X369384Y514816D02*
G03X369384I-971J0D01*
G01X369452Y519577D02*
G03X369452I-986J0D01*
G01X369455Y522091D02*
G03X369455I-991J0D01*
G01X369419Y524598D02*
G03X369419I-987J0D01*
G01X357938Y519537D02*
G03X357938I-979J0D01*
G01X357951Y522053D02*
G03X357951I-997J0D01*
G01X357922Y524558D02*
G03X357922I-993J0D01*
G01X348222Y521019D02*
G03X348222I-2294J0D01*
G01X340121Y519602D02*
G03X340121I-986J0D01*
G01X340129Y522085D02*
G03X340129I-993J0D01*
G01X340116Y524645D02*
G03X340116I-981J0D01*
G01X357050Y483839D02*
X339047D01*
Y515865*
X357050*
Y483839*
X357998Y475331D02*
G03X357998I-1001J0D01*
G01X357991Y477843D02*
G03X357991I-982J0D01*
G01X357966Y480352D02*
G03X357966I-987J0D01*
G01X348123Y478587D02*
G03X348123I-2311J0D01*
G01X340146Y475504D02*
G03X340146I-1004J0D01*
G01X340135Y477962D02*
G03X340135I-988J0D01*
G01X340124Y480318D02*
G03X340124I-989J0D01*
G74*
G01X0Y0D02*
M02*
