*
*
G04 PADS 9.2 Build Number: 406656 generated Gerber (RS-274-X) file*
G04 PC Version=2.1*
*
%IN "IS903SZQ064-4Z08-TB (RI"*%
*
%MOIN*%
*
%FSLAX35Y35*%
*
*
*
*
G04 PC Standard Apertures*
*
*
G04 Thermal Relief Aperture macro.*
%AMTER*
1,1,$1,0,0*
1,0,$1-$2,0,0*
21,0,$3,$4,0,0,45*
21,0,$3,$4,0,0,135*
%
*
*
G04 Annular Aperture macro.*
%AMANN*
1,1,$1,0,0*
1,0,$2,0,0*
%
*
*
G04 Odd Aperture macro.*
%AMODD*
1,1,$1,0,0*
1,0,$1-0.005,0,0*
%
*
*
G04 PC Custom Aperture Macros*
*
*
*
*
*
*
G04 PC Aperture Table*
*
%ADD033C,0.01*%
%ADD035C,0.005*%
%ADD037C,0.006*%
%ADD086C,0.008*%
%ADD095C,0.001*%
%ADD104C,0.018*%
%ADD164C,0.016*%
%ADD213C,0.004*%
%ADD262C,0.00118*%
%ADD293O,0.10236X0.05906*%
*
*
*
*
G04 PC Circuitry*
G04 Layer Name IS903SZQ064-4Z08-TB (RI - circuitry*
%LPD*%
*
*
G04 PC Custom Flashes*
G04 Layer Name IS903SZQ064-4Z08-TB (RI - flashes*
%LPD*%
*
*
G04 PC Circuitry*
G04 Layer Name IS903SZQ064-4Z08-TB (RI - circuitry*
%LPD*%
*
G54D33*
G01X459533Y403543D02*
Y398293D01*
Y403543D02*
X460805D01*
X461351Y403293*
X461714Y402793*
X461896Y402293*
X462078Y401543*
Y400293*
X461896Y399543*
X461714Y399043*
X461351Y398543*
X460805Y398293*
X459533*
X465169Y403543D02*
X463714Y398293D01*
X465169Y403543D02*
X466623Y398293D01*
X464260Y400043D02*
X466078D01*
X469533Y403543D02*
Y398293D01*
X468260Y403543D02*
X470805D01*
X472442D02*
Y398293D01*
Y403543D02*
X474805D01*
X472442Y401043D02*
X473896D01*
X472442Y398293D02*
X474805D01*
X457433Y418643D02*
Y413393D01*
Y418643D02*
X459978Y413393D01*
Y418643D02*
Y413393D01*
X463069Y418643D02*
X461614Y413393D01*
X463069Y418643D02*
X464523Y413393D01*
X462160Y415143D02*
X463978D01*
X466160Y418643D02*
Y413393D01*
Y418643D02*
X467614Y413393D01*
X469069Y418643D02*
X467614Y413393D01*
X469069Y418643D02*
Y413393D01*
X470705Y418643D02*
Y413393D01*
Y418643D02*
X473069D01*
X470705Y416143D02*
X472160D01*
X470705Y413393D02*
X473069D01*
X457133Y428543D02*
Y423293D01*
X459314*
X462405Y428543D02*
X460951Y423293D01*
X462405Y428543D02*
X463860Y423293D01*
X461496Y425043D02*
X463314D01*
X465496Y428543D02*
X466951Y426043D01*
Y423293*
X468405Y428543D02*
X466951Y426043D01*
X470042Y428543D02*
Y423293D01*
Y428543D02*
X472405D01*
X470042Y426043D02*
X471496D01*
X470042Y423293D02*
X472405D01*
X474042Y428543D02*
Y423293D01*
Y428543D02*
X475678D01*
X476223Y428293*
X476405Y428043*
X476587Y427543*
Y427043*
X476405Y426543*
X476223Y426293*
X475678Y426043*
X474042*
X475314D02*
X476587Y423293D01*
X342783Y429443D02*
Y424193D01*
Y429443D02*
X344419D01*
X344964Y429193*
X345146Y428943*
X345328Y428443*
Y427693*
X345146Y427193*
X344964Y426943*
X344419Y426693*
X342783*
X348419Y429443D02*
X346964Y424193D01*
X348419Y429443D02*
X349873Y424193D01*
X347510Y425943D02*
X349328D01*
X351510Y429443D02*
Y424193D01*
Y429443D02*
X353146D01*
X353692Y429193*
X353873Y428943*
X354055Y428443*
Y427943*
X353873Y427443*
X353692Y427193*
X353146Y426943*
X351510*
X352783D02*
X354055Y424193D01*
X356964Y429443D02*
Y424193D01*
X355692Y429443D02*
X358237D01*
X364055D02*
Y424193D01*
Y429443D02*
X366601Y424193D01*
Y429443D02*
Y424193D01*
X369692Y429443D02*
X368237Y424193D01*
X369692Y429443D02*
X371146Y424193D01*
X368783Y425943D02*
X370601D01*
X372783Y429443D02*
Y424193D01*
Y429443D02*
X374237Y424193D01*
X375692Y429443D02*
X374237Y424193D01*
X375692Y429443D02*
Y424193D01*
X377328Y429443D02*
Y424193D01*
Y429443D02*
X379692D01*
X377328Y426943D02*
X378783D01*
X377328Y424193D02*
X379692D01*
X352078Y390293D02*
X351714Y390793D01*
X351169Y391043*
X350442*
X349896Y390793*
X349533Y390293*
Y389793*
X349714Y389293*
X349896Y389043*
X350260Y388793*
X351351Y388293*
X351714Y388043*
X351896Y387793*
X352078Y387293*
Y386543*
X351714Y386043*
X351169Y385793*
X350442*
X349896Y386043*
X349533Y386543*
X353714Y388793D02*
X356987D01*
X353714Y387293D02*
X356987D01*
X366987Y391043D02*
Y385793D01*
Y391043D02*
X368260D01*
X368805Y390793*
X369169Y390293*
X369351Y389793*
X369533Y389043*
Y387793*
X369351Y387043*
X369169Y386543*
X368805Y386043*
X368260Y385793*
X366987*
X373533Y389293D02*
X373351Y388543D01*
X372987Y388043*
X372442Y387793*
X372260*
X371714Y388043*
X371351Y388543*
X371169Y389293*
Y389543*
X371351Y390293*
X371714Y390793*
X372260Y391043*
X372442*
X372987Y390793*
X373351Y390293*
X373533Y389293*
Y388043*
X373351Y386793*
X372987Y386043*
X372442Y385793*
X372078*
X371533Y386043*
X371351Y386543*
X376260Y391043D02*
X375714Y390793D01*
X375351Y390043*
X375169Y388793*
Y388043*
X375351Y386793*
X375714Y386043*
X376260Y385793*
X376623*
X377169Y386043*
X377533Y386793*
X377714Y388043*
Y388793*
X377533Y390043*
X377169Y390793*
X376623Y391043*
X376260*
X379351Y388793D02*
X382623D01*
X379351Y387293D02*
X382623D01*
X386442Y390293D02*
X386260Y390793D01*
X385714Y391043*
X385351*
X384805Y390793*
X384442Y390043*
X384260Y388793*
Y387543*
X384442Y386543*
X384805Y386043*
X385351Y385793*
X385533*
X386078Y386043*
X386442Y386543*
X386623Y387293*
Y387543*
X386442Y388293*
X386078Y388793*
X385533Y389043*
X385351*
X384805Y388793*
X384442Y388293*
X384260Y387543*
X391533Y392043D02*
X388260Y384043D01*
X395351Y390293D02*
X395169Y390793D01*
X394623Y391043*
X394260*
X393714Y390793*
X393351Y390043*
X393169Y388793*
Y387543*
X393351Y386543*
X393714Y386043*
X394260Y385793*
X394442*
X394987Y386043*
X395351Y386543*
X395533Y387293*
Y387543*
X395351Y388293*
X394987Y388793*
X394442Y389043*
X394260*
X393714Y388793*
X393351Y388293*
X393169Y387543*
X400442Y392043D02*
X397169Y384043D01*
X404260Y390293D02*
X404078Y390793D01*
X403533Y391043*
X403169*
X402623Y390793*
X402260Y390043*
X402078Y388793*
Y387543*
X402260Y386543*
X402623Y386043*
X403169Y385793*
X403351*
X403896Y386043*
X404260Y386543*
X404442Y387293*
Y387543*
X404260Y388293*
X403896Y388793*
X403351Y389043*
X403169*
X402623Y388793*
X402260Y388293*
X402078Y387543*
X409351Y392043D02*
X406078Y384043D01*
X413169Y390293D02*
X412987Y390793D01*
X412442Y391043*
X412078*
X411533Y390793*
X411169Y390043*
X410987Y388793*
Y387543*
X411169Y386543*
X411533Y386043*
X412078Y385793*
X412260*
X412805Y386043*
X413169Y386543*
X413351Y387293*
Y387543*
X413169Y388293*
X412805Y388793*
X412260Y389043*
X412078*
X411533Y388793*
X411169Y388293*
X410987Y387543*
X418260Y392043D02*
X414987Y384043D01*
X422078Y390293D02*
X421896Y390793D01*
X421351Y391043*
X420987*
X420442Y390793*
X420078Y390043*
X419896Y388793*
Y387543*
X420078Y386543*
X420442Y386043*
X420987Y385793*
X421169*
X421714Y386043*
X422078Y386543*
X422260Y387293*
Y387543*
X422078Y388293*
X421714Y388793*
X421169Y389043*
X420987*
X420442Y388793*
X420078Y388293*
X419896Y387543*
X440623Y391043D02*
Y385793D01*
Y391043D02*
X441896D01*
X442442Y390793*
X442805Y390293*
X442987Y389793*
X443169Y389043*
Y387793*
X442987Y387043*
X442805Y386543*
X442442Y386043*
X441896Y385793*
X440623*
X444805Y390043D02*
X445169Y390293D01*
X445714Y391043*
Y385793*
X448442Y391043D02*
X447896Y390793D01*
X447533Y390043*
X447351Y388793*
Y388043*
X447533Y386793*
X447896Y386043*
X448442Y385793*
X448805*
X449351Y386043*
X449714Y386793*
X449896Y388043*
Y388793*
X449714Y390043*
X449351Y390793*
X448805Y391043*
X448442*
X452623D02*
X452078Y390793D01*
X451714Y390043*
X451533Y388793*
Y388043*
X451714Y386793*
X452078Y386043*
X452623Y385793*
X452987*
X453533Y386043*
X453896Y386793*
X454078Y388043*
Y388793*
X453896Y390043*
X453533Y390793*
X452987Y391043*
X452623*
X455714Y388793D02*
X458987D01*
X455714Y387293D02*
X458987D01*
X389533Y442355D02*
Y435793D01*
X391578Y440168D02*
Y435793D01*
Y438918D02*
X392260Y439855D01*
X392714Y440168*
X393396*
X393851Y439855*
X394078Y438918*
Y435793*
X396123Y440168D02*
Y435793D01*
Y438918D02*
X396805Y439855D01*
X397260Y440168*
X397942*
X398396Y439855*
X398623Y438918*
Y435793*
X401805Y440168D02*
X401351Y439855D01*
X400896Y439230*
X400669Y438293*
Y437668*
X400896Y436730*
X401351Y436105*
X401805Y435793*
X402487*
X402942Y436105*
X403396Y436730*
X403623Y437668*
Y438293*
X403396Y439230*
X402942Y439855*
X402487Y440168*
X401805*
X408169Y439230D02*
X407942Y439855D01*
X407260Y440168*
X406578*
X405896Y439855*
X405669Y439230*
X405896Y438605*
X406351Y438293*
X407487Y437980*
X407942Y437668*
X408169Y437043*
Y436730*
X407942Y436105*
X407260Y435793*
X406578*
X405896Y436105*
X405669Y436730*
X410896Y442355D02*
Y437043D01*
X411123Y436105*
X411578Y435793*
X412033*
X410214Y440168D02*
X411805D01*
X415214D02*
X414760Y439855D01*
X414305Y439230*
X414078Y438293*
Y437668*
X414305Y436730*
X414760Y436105*
X415214Y435793*
X415896*
X416351Y436105*
X416805Y436730*
X417033Y437668*
Y438293*
X416805Y439230*
X416351Y439855*
X415896Y440168*
X415214*
X419078D02*
Y435793D01*
Y438293D02*
X419305Y439230D01*
X419760Y439855*
X420214Y440168*
X420896*
X429760Y442355D02*
Y435793D01*
X428169Y442355D02*
X431351D01*
X433396Y438293D02*
X436123D01*
Y438918*
X435896Y439543*
X435669Y439855*
X435214Y440168*
X434533*
X434078Y439855*
X433623Y439230*
X433396Y438293*
Y437668*
X433623Y436730*
X434078Y436105*
X434533Y435793*
X435214*
X435669Y436105*
X436123Y436730*
X440896Y439230D02*
X440442Y439855D01*
X439987Y440168*
X439305*
X438851Y439855*
X438396Y439230*
X438169Y438293*
Y437668*
X438396Y436730*
X438851Y436105*
X439305Y435793*
X439987*
X440442Y436105*
X440896Y436730*
X442942Y442355D02*
Y435793D01*
Y438918D02*
X443623Y439855D01*
X444078Y440168*
X444760*
X445214Y439855*
X445442Y438918*
Y435793*
X447487Y440168D02*
Y435793D01*
Y438918D02*
X448169Y439855D01*
X448623Y440168*
X449305*
X449760Y439855*
X449987Y438918*
Y435793*
X453169Y440168D02*
X452714Y439855D01*
X452260Y439230*
X452033Y438293*
Y437668*
X452260Y436730*
X452714Y436105*
X453169Y435793*
X453851*
X454305Y436105*
X454760Y436730*
X454987Y437668*
Y438293*
X454760Y439230*
X454305Y439855*
X453851Y440168*
X453169*
X457033Y442355D02*
Y435793D01*
X460214Y440168D02*
X459760Y439855D01*
X459305Y439230*
X459078Y438293*
Y437668*
X459305Y436730*
X459760Y436105*
X460214Y435793*
X460896*
X461351Y436105*
X461805Y436730*
X462033Y437668*
Y438293*
X461805Y439230*
X461351Y439855*
X460896Y440168*
X460214*
X466805D02*
Y435168D01*
X466578Y434230*
X466351Y433918*
X465896Y433605*
X465214*
X464760Y433918*
X466805Y439230D02*
X466351Y439855D01*
X465896Y440168*
X465214*
X464760Y439855*
X464305Y439230*
X464078Y438293*
Y437668*
X464305Y436730*
X464760Y436105*
X465214Y435793*
X465896*
X466351Y436105*
X466805Y436730*
X469078Y440168D02*
X470442Y435793D01*
X471805Y440168D02*
X470442Y435793D01*
X469987Y434543*
X469533Y433918*
X469078Y433605*
X468851*
X482487Y440793D02*
X482260Y441418D01*
X481805Y442043*
X481351Y442355*
X480442*
X479987Y442043*
X479533Y441418*
X479305Y440793*
X479078Y439855*
Y438293*
X479305Y437355*
X479533Y436730*
X479987Y436105*
X480442Y435793*
X481351*
X481805Y436105*
X482260Y436730*
X482487Y437355*
X485669Y440168D02*
X485214Y439855D01*
X484760Y439230*
X484533Y438293*
Y437668*
X484760Y436730*
X485214Y436105*
X485669Y435793*
X486351*
X486805Y436105*
X487260Y436730*
X487487Y437668*
Y438293*
X487260Y439230*
X486805Y439855*
X486351Y440168*
X485669*
X489533D02*
Y435793D01*
Y438293D02*
X489760Y439230D01*
X490214Y439855*
X490669Y440168*
X491351*
X493396D02*
Y433605D01*
Y439230D02*
X493851Y439855D01*
X494305Y440168*
X494987*
X495442Y439855*
X495896Y439230*
X496123Y438293*
Y437668*
X495896Y436730*
X495442Y436105*
X494987Y435793*
X494305*
X493851Y436105*
X493396Y436730*
X499305Y440168D02*
X498851Y439855D01*
X498396Y439230*
X498169Y438293*
Y437668*
X498396Y436730*
X498851Y436105*
X499305Y435793*
X499987*
X500442Y436105*
X500896Y436730*
X501123Y437668*
Y438293*
X500896Y439230*
X500442Y439855*
X499987Y440168*
X499305*
X503169D02*
Y435793D01*
Y438293D02*
X503396Y439230D01*
X503851Y439855*
X504305Y440168*
X504987*
X509760D02*
Y435793D01*
Y439230D02*
X509305Y439855D01*
X508851Y440168*
X508169*
X507714Y439855*
X507260Y439230*
X507033Y438293*
Y437668*
X507260Y436730*
X507714Y436105*
X508169Y435793*
X508851*
X509305Y436105*
X509760Y436730*
X512487Y442355D02*
Y437043D01*
X512714Y436105*
X513169Y435793*
X513623*
X511805Y440168D02*
X513396D01*
X515669Y442355D02*
X515896Y442043D01*
X516123Y442355*
X515896Y442668*
X515669Y442355*
X515896Y440168D02*
Y435793D01*
X519305Y440168D02*
X518851Y439855D01*
X518396Y439230*
X518169Y438293*
Y437668*
X518396Y436730*
X518851Y436105*
X519305Y435793*
X519987*
X520442Y436105*
X520896Y436730*
X521123Y437668*
Y438293*
X520896Y439230*
X520442Y439855*
X519987Y440168*
X519305*
X523169D02*
Y435793D01*
Y438918D02*
X523851Y439855D01*
X524305Y440168*
X524987*
X525442Y439855*
X525669Y438918*
Y435793*
X346083Y417143D02*
Y411893D01*
Y417143D02*
X347719D01*
X348264Y416893*
X348446Y416643*
X348628Y416143*
Y415393*
X348446Y414893*
X348264Y414643*
X347719Y414393*
X346083*
X351719Y417143D02*
X350264Y411893D01*
X351719Y417143D02*
X353173Y411893D01*
X350810Y413643D02*
X352628D01*
X354810Y417143D02*
Y411893D01*
Y417143D02*
X356446D01*
X356992Y416893*
X357173Y416643*
X357355Y416143*
Y415643*
X357173Y415143*
X356992Y414893*
X356446Y414643*
X354810*
X356083D02*
X357355Y411893D01*
X360264Y417143D02*
Y411893D01*
X358992Y417143D02*
X361537D01*
X367355D02*
Y411893D01*
Y417143D02*
X369901Y411893D01*
Y417143D02*
Y411893D01*
X372628Y417143D02*
X372264Y416893D01*
X371901Y416393*
X371719Y415893*
X371537Y415143*
Y413893*
X371719Y413143*
X371901Y412643*
X372264Y412143*
X372628Y411893*
X373355*
X373719Y412143*
X374083Y412643*
X374264Y413143*
X374446Y413893*
Y415143*
X374264Y415893*
X374083Y416393*
X373719Y416893*
X373355Y417143*
X372628*
X376264Y412393D02*
X376083Y412143D01*
X376264Y411893*
X376446Y412143*
X376264Y412393*
X368851Y402918D02*
X367033Y399418D01*
X369760*
X368851Y402918D02*
Y397668D01*
X375578Y402918D02*
Y397668D01*
X377760*
X380851Y402918D02*
X379396Y397668D01*
X380851Y402918D02*
X382305Y397668D01*
X379942Y399418D02*
X381760D01*
X383942Y402918D02*
X385396Y400418D01*
Y397668*
X386851Y402918D02*
X385396Y400418D01*
X388487Y402918D02*
Y397668D01*
Y402918D02*
X390851D01*
X388487Y400418D02*
X389942D01*
X388487Y397668D02*
X390851D01*
X392487Y402918D02*
Y397668D01*
Y402918D02*
X394123D01*
X394669Y402668*
X394851Y402418*
X395033Y401918*
Y401418*
X394851Y400918*
X394669Y400668*
X394123Y400418*
X392487*
X393760D02*
X395033Y397668D01*
X396669Y399918D02*
X399942D01*
X401578Y402918D02*
Y397668D01*
Y402918D02*
X403942D01*
X401578Y400418D02*
X403033D01*
X405578Y402918D02*
Y397668D01*
Y402918D02*
X407214D01*
X407760Y402668*
X407942Y402418*
X408123Y401918*
Y401418*
X407942Y400918*
X407760Y400668*
X407214Y400418*
X405578*
X406851D02*
X408123Y397668D01*
X411578Y402918D02*
X409760Y399418D01*
X412487*
X411578Y402918D02*
Y397668D01*
X414123Y399918D02*
X417396D01*
X419033Y401918D02*
X419396Y402168D01*
X419942Y402918*
Y397668*
X421760Y398168D02*
X421578Y397918D01*
X421760Y397668*
X421942Y397918*
X421760Y398168*
X424669Y402918D02*
X424123Y402668D01*
X423760Y401918*
X423578Y400668*
Y399918*
X423760Y398668*
X424123Y397918*
X424669Y397668*
X425033*
X425578Y397918*
X425942Y398668*
X426123Y399918*
Y400668*
X425942Y401918*
X425578Y402668*
X425033Y402918*
X424669*
X428305D02*
Y398668D01*
X428487Y397918*
X428851Y397668*
X429214*
X427760Y401168D02*
X429033D01*
X509714Y402293D02*
Y402543D01*
X509896Y403043*
X510078Y403293*
X510442Y403543*
X511169*
X511533Y403293*
X511714Y403043*
X511896Y402543*
Y402043*
X511714Y401543*
X511351Y400793*
X509533Y398293*
X512078*
X514805Y403543D02*
X514260Y403293D01*
X513896Y402543*
X513714Y401293*
Y400543*
X513896Y399293*
X514260Y398543*
X514805Y398293*
X515169*
X515714Y398543*
X516078Y399293*
X516260Y400543*
Y401293*
X516078Y402543*
X515714Y403293*
X515169Y403543*
X514805*
X517896Y402543D02*
X518260Y402793D01*
X518805Y403543*
Y398293*
X522260Y403543D02*
X520442Y400043D01*
X523169*
X522260Y403543D02*
Y398293D01*
X524987Y398793D02*
X524805Y398543D01*
X524987Y398293*
X525169Y398543*
X524987Y398793*
X527169Y403543D02*
X529169D01*
X528078Y401543*
X528623*
X528987Y401293*
X529169Y401043*
X529351Y400293*
Y399793*
X529169Y399043*
X528805Y398543*
X528260Y398293*
X527714*
X527169Y398543*
X526987Y398793*
X526805Y399293*
X531169Y398793D02*
X530987Y398543D01*
X531169Y398293*
X531351Y398543*
X531169Y398793*
X533169Y402293D02*
Y402543D01*
X533351Y403043*
X533533Y403293*
X533896Y403543*
X534623*
X534987Y403293*
X535169Y403043*
X535351Y402543*
Y402043*
X535169Y401543*
X534805Y400793*
X532987Y398293*
X535533*
X539533Y403543D02*
X537714D01*
X537533Y401293*
X537714Y401543*
X538260Y401793*
X538805*
X539351Y401543*
X539714Y401043*
X539896Y400293*
X539714Y399793*
X539533Y399043*
X539169Y398543*
X538623Y398293*
X538078*
X537533Y398543*
X537351Y398793*
X537169Y399293*
X484033Y422855D02*
Y416293D01*
X486760*
X491533Y420668D02*
Y416293D01*
Y419730D02*
X491078Y420355D01*
X490623Y420668*
X489942*
X489487Y420355*
X489033Y419730*
X488805Y418793*
Y418168*
X489033Y417230*
X489487Y416605*
X489942Y416293*
X490623*
X491078Y416605*
X491533Y417230*
X493805Y420668D02*
X495169Y416293D01*
X496533Y420668D02*
X495169Y416293D01*
X494714Y415043*
X494260Y414418*
X493805Y414105*
X493578*
X498578Y418793D02*
X501305D01*
Y419418*
X501078Y420043*
X500851Y420355*
X500396Y420668*
X499714*
X499260Y420355*
X498805Y419730*
X498578Y418793*
Y418168*
X498805Y417230*
X499260Y416605*
X499714Y416293*
X500396*
X500851Y416605*
X501305Y417230*
X503351Y420668D02*
Y416293D01*
Y418793D02*
X503578Y419730D01*
X504033Y420355*
X504487Y420668*
X505169*
X507669Y422855D02*
X510169D01*
X508805Y420355*
X509487*
X509942Y420043*
X510169Y419730*
X510396Y418793*
Y418168*
X510169Y417230*
X509714Y416605*
X509033Y416293*
X508351*
X507669Y416605*
X507442Y416918*
X507214Y417543*
X514033Y424105D02*
X513578Y423480D01*
X513123Y422543*
X512669Y421293*
X512442Y419730*
Y418480*
X512669Y416918*
X513123Y415668*
X513578Y414730*
X514033Y414105*
X519487Y421293D02*
X519260Y421918D01*
X518805Y422543*
X518351Y422855*
X517442*
X516987Y422543*
X516533Y421918*
X516305Y421293*
X516078Y420355*
Y418793*
X516305Y417855*
X516533Y417230*
X516987Y416605*
X517442Y416293*
X518351*
X518805Y416605*
X519260Y417230*
X519487Y417855*
Y418793*
X518351D02*
X519487D01*
X521533Y422855D02*
Y416293D01*
Y422855D02*
X524714Y416293D01*
Y422855D02*
Y416293D01*
X526760Y422855D02*
Y416293D01*
Y422855D02*
X528351D01*
X529033Y422543*
X529487Y421918*
X529714Y421293*
X529942Y420355*
Y418793*
X529714Y417855*
X529487Y417230*
X529033Y416605*
X528351Y416293*
X526760*
X531987Y424105D02*
X532442Y423480D01*
X532896Y422543*
X533351Y421293*
X533578Y419730*
Y418480*
X533351Y416918*
X532896Y415668*
X532442Y414730*
X531987Y414105*
X500000Y538583D02*
X453636D01*
X500000D02*
X490000Y536083D01*
Y541083*
X500000Y538583*
X370079D02*
X416500D01*
X370079D02*
X380079Y541083D01*
Y536083*
X370079Y538583*
X500000Y533740D02*
Y543583D01*
X370079Y533740D02*
Y543583D01*
X419955Y541363D02*
X422455D01*
X422455D02*
X421091Y538863D01*
X421091D02*
X421773D01*
X421773D02*
X422227Y538550D01*
X422455Y538238*
X422455D02*
X422682Y537300D01*
Y536675*
X422455Y535738*
X422455D02*
X422000Y535113D01*
X422000D02*
X421318Y534800D01*
X420636*
X419955Y535113*
X419955D02*
X419727Y535425D01*
X419500Y536050*
X425182Y541363D02*
X427682D01*
X427682D02*
X426318Y538863D01*
X426318D02*
X427000D01*
X427000D02*
X427455Y538550D01*
X427682Y538238*
X427682D02*
X427909Y537300D01*
Y536675*
X427682Y535738*
X427682D02*
X427227Y535113D01*
X427227D02*
X426545Y534800D01*
X425864*
X425182Y535113*
X425182D02*
X424955Y535425D01*
X424727Y536050*
X430182Y535425D02*
X429955Y535113D01*
X429955D02*
X430182Y534800D01*
X430409Y535113*
X430409D02*
X430182Y535425D01*
X433818Y541363D02*
X433136Y541050D01*
X432682Y540113*
X432682D02*
X432455Y538550D01*
Y537613*
X432455D02*
X432682Y536050D01*
X433136Y535113*
X433136D02*
X433818Y534800D01*
X434273*
X434955Y535113*
X434955D02*
X435409Y536050D01*
X435636Y537613*
X435636D02*
Y538550D01*
X435409Y540113*
X435409D02*
X434955Y541050D01*
X434273Y541363*
X434273D02*
X433818D01*
X437682Y539175D02*
Y534800D01*
Y537925D02*
X438364Y538863D01*
X438364D02*
X438818Y539175D01*
X439500*
X439955Y538863*
X439955D02*
X440182Y537925D01*
Y534800*
Y537925D02*
X440864Y538863D01*
X440864D02*
X441318Y539175D01*
X442000*
X442455Y538863*
X442455D02*
X442682Y537925D01*
Y534800*
X444727Y539175D02*
Y534800D01*
Y537925D02*
X445409Y538863D01*
X445409D02*
X445864Y539175D01*
X446545*
X447000Y538863*
X447000D02*
X447227Y537925D01*
Y534800*
Y537925D02*
X447909Y538863D01*
X447909D02*
X448364Y539175D01*
X449045*
X449500Y538863*
X449500D02*
X449727Y537925D01*
Y534800*
X466958Y547480D02*
X481958D01*
X466958D02*
X476958Y549980D01*
Y544980*
X466958Y547480*
X462158D02*
X447158D01*
X462158D02*
X452158Y544980D01*
Y549980*
X462158Y547480*
X466958Y532597D02*
Y552480D01*
X462158Y532599D02*
Y552480D01*
X451063Y561690D02*
X451518Y562003D01*
X452199Y562940*
Y556378*
X454472Y557003D02*
X454245Y556690D01*
X454472Y556378*
X454699Y556690*
X454472Y557003*
X456972Y561378D02*
Y561690D01*
X457199Y562315*
X457427Y562628*
X457881Y562940*
X458790*
X459245Y562628*
X459472Y562315*
X459699Y561690*
Y561065*
X459472Y560440*
X459018Y559503*
X456745Y556378*
X459927*
X461972Y560753D02*
Y556378D01*
Y559503D02*
X462654Y560440D01*
X463108Y560753*
X463790*
X464245Y560440*
X464472Y559503*
Y556378*
Y559503D02*
X465154Y560440D01*
X465608Y560753*
X466290*
X466745Y560440*
X466972Y559503*
Y556378*
X469018Y560753D02*
Y556378D01*
Y559503D02*
X469699Y560440D01*
X470154Y560753*
X470836*
X471290Y560440*
X471518Y559503*
Y556378*
Y559503D02*
X472199Y560440D01*
X472654Y560753*
X473336*
X473790Y560440*
X474018Y559503*
Y556378*
X464573Y476424D02*
X464576D01*
X465234Y474136D02*
X465237D01*
X465234D02*
X470411Y465222D01*
X465607Y463835*
X465234Y474136*
X469397Y459725*
X479397*
X482397Y462537D02*
Y455975D01*
Y462537D02*
X484442D01*
X485124Y462225*
X485351Y461912*
X485579Y461287*
Y460662*
X485351Y460037*
X485124Y459725*
X484442Y459412*
X482397*
X483988D02*
X485579Y455975D01*
X488988Y462537D02*
X488306Y462225D01*
X487851Y461287*
X487624Y459725*
Y458787*
X487851Y457225*
X488306Y456287*
X488988Y455975*
X489442*
X490124Y456287*
X490579Y457225*
X490806Y458787*
Y459725*
X490579Y461287*
X490124Y462225*
X489442Y462537*
X488988*
X493079Y456600D02*
X492851Y456287D01*
X493079Y455975*
X493306Y456287*
X493079Y456600*
X498079Y461600D02*
X497851Y462225D01*
X497169Y462537*
X496715*
X496033Y462225*
X495579Y461287*
X495351Y459725*
Y458162*
X495579Y456912*
X496033Y456287*
X496715Y455975*
X496942*
X497624Y456287*
X498079Y456912*
X498306Y457850*
Y458162*
X498079Y459100*
X497624Y459725*
X496942Y460037*
X496715*
X496033Y459725*
X495579Y459100*
X495351Y458162*
X500351Y460350D02*
Y455975D01*
Y459100D02*
X501033Y460037D01*
X501488Y460350*
X502169*
X502624Y460037*
X502851Y459100*
Y455975*
Y459100D02*
X503533Y460037D01*
X503988Y460350*
X504669*
X505124Y460037*
X505351Y459100*
Y455975*
X507397Y460350D02*
Y455975D01*
Y459100D02*
X508079Y460037D01*
X508533Y460350*
X509215*
X509669Y460037*
X509897Y459100*
Y455975*
Y459100D02*
X510579Y460037D01*
X511033Y460350*
X511715*
X512169Y460037*
X512397Y459100*
Y455975*
X499987Y553671D02*
X427082D01*
X499987D02*
X489987Y551171D01*
Y556171*
X499987Y553671*
X316813D02*
X389718D01*
X316813D02*
X326813Y556171D01*
Y551171*
X316813Y553671*
X499987Y505022D02*
Y558671D01*
X316813Y504841D02*
Y558671D01*
X394991Y556483D02*
X392718Y552108D01*
X396127*
X394991Y556483D02*
Y549921D01*
X400900Y555546D02*
X400672Y556171D01*
X399991Y556483*
X399536*
X398854Y556171*
X398400Y555233*
X398172Y553671*
Y552108*
X398400Y550858*
X398854Y550233*
X399536Y549921*
X399763*
X400445Y550233*
X400900Y550858*
X401127Y551796*
Y552108*
X400900Y553046*
X400445Y553671*
X399763Y553983*
X399536*
X398854Y553671*
X398400Y553046*
X398172Y552108*
X403400Y550546D02*
X403172Y550233D01*
X403400Y549921*
X403627Y550233*
X403400Y550546*
X408627Y556483D02*
X406354D01*
X406127Y553671*
X406354Y553983*
X407036Y554296*
X407718*
X408400Y553983*
X408854Y553358*
X409082Y552421*
X408854Y551796*
X408627Y550858*
X408172Y550233*
X407491Y549921*
X406809*
X406127Y550233*
X405900Y550546*
X405672Y551171*
X411127Y554296D02*
Y549921D01*
Y553046D02*
X411809Y553983D01*
X412263Y554296*
X412945*
X413400Y553983*
X413627Y553046*
Y549921*
Y553046D02*
X414309Y553983D01*
X414763Y554296*
X415445*
X415900Y553983*
X416127Y553046*
Y549921*
X418172Y554296D02*
Y549921D01*
Y553046D02*
X418854Y553983D01*
X419309Y554296*
X419991*
X420445Y553983*
X420672Y553046*
Y549921*
Y553046D02*
X421354Y553983D01*
X421809Y554296*
X422491*
X422945Y553983*
X423172Y553046*
Y549921*
G54D35*
X388933Y426918D02*
Y424621D01*
X390763Y426589D02*
X390604Y426808D01*
X390365Y426918*
X390047*
X389808Y426808*
X389649Y426589*
Y426371*
X389729Y426152*
X389808Y426043*
X389967Y425933*
X390444Y425714*
X390604Y425605*
X390683Y425496*
X390763Y425277*
Y424949*
X390604Y424730*
X390365Y424621*
X390047*
X389808Y424730*
X389649Y424949*
X392513Y426152D02*
X392433Y425824D01*
X392274Y425605*
X392035Y425496*
X391956*
X391717Y425605*
X391558Y425824*
X391479Y426152*
Y426261*
X391558Y426589*
X391717Y426808*
X391956Y426918*
X392035*
X392274Y426808*
X392433Y426589*
X392513Y426152*
Y425605*
X392433Y425058*
X392274Y424730*
X392035Y424621*
X391876*
X391638Y424730*
X391558Y424949*
X393706Y426918D02*
X393467Y426808D01*
X393308Y426480*
X393229Y425933*
Y425605*
X393308Y425058*
X393467Y424730*
X393706Y424621*
X393865*
X394104Y424730*
X394263Y425058*
X394342Y425605*
Y425933*
X394263Y426480*
X394104Y426808*
X393865Y426918*
X393706*
X395217D02*
X396092D01*
X395615Y426043*
X395854*
X396013Y425933*
X396092Y425824*
X396172Y425496*
Y425277*
X396092Y424949*
X395933Y424730*
X395694Y424621*
X395456*
X395217Y424730*
X395138Y424839*
X395058Y425058*
X398001Y426589D02*
X397842Y426808D01*
X397604Y426918*
X397285*
X397047Y426808*
X396888Y426589*
Y426371*
X396967Y426152*
X397047Y426043*
X397206Y425933*
X397683Y425714*
X397842Y425605*
X397922Y425496*
X398001Y425277*
Y424949*
X397842Y424730*
X397604Y424621*
X397285*
X397047Y424730*
X396888Y424949*
X399831Y426918D02*
X398717Y424621D01*
Y426918D02*
X399831D01*
X398717Y424621D02*
X399831D01*
X401024Y426918D02*
X400865Y426808D01*
X400706Y426589*
X400626Y426371*
X400547Y426043*
Y425496*
X400626Y425168*
X400706Y424949*
X400865Y424730*
X401024Y424621*
X401342*
X401501Y424730*
X401660Y424949*
X401740Y425168*
X401819Y425496*
Y426043*
X401740Y426371*
X401660Y426589*
X401501Y426808*
X401342Y426918*
X401024*
X401263Y425058D02*
X401740Y424402D01*
X403013Y426918D02*
X402774Y426808D01*
X402615Y426480*
X402535Y425933*
Y425605*
X402615Y425058*
X402774Y424730*
X403013Y424621*
X403172*
X403410Y424730*
X403569Y425058*
X403649Y425605*
Y425933*
X403569Y426480*
X403410Y426808*
X403172Y426918*
X403013*
X405319Y426589D02*
X405240Y426808D01*
X405001Y426918*
X404842*
X404604Y426808*
X404444Y426480*
X404365Y425933*
Y425386*
X404444Y424949*
X404604Y424730*
X404842Y424621*
X404922*
X405160Y424730*
X405319Y424949*
X405399Y425277*
Y425386*
X405319Y425714*
X405160Y425933*
X404922Y426043*
X404842*
X404604Y425933*
X404444Y425714*
X404365Y425386*
X406910Y426918D02*
X406115Y425386D01*
X407308*
X406910Y426918D02*
Y424621D01*
X408024Y425605D02*
X409456D01*
X410967Y426918D02*
X410172Y425386D01*
X411365*
X410967Y426918D02*
Y424621D01*
X413194Y426918D02*
X412081Y424621D01*
Y426918D02*
X413194D01*
X412081Y424621D02*
X413194D01*
X414388Y426918D02*
X414149Y426808D01*
X413990Y426480*
X413910Y425933*
Y425605*
X413990Y425058*
X414149Y424730*
X414388Y424621*
X414547*
X414785Y424730*
X414944Y425058*
X415024Y425605*
Y425933*
X414944Y426480*
X414785Y426808*
X414547Y426918*
X414388*
X416774Y426152D02*
X416694Y425824D01*
X416535Y425605*
X416297Y425496*
X416217*
X415979Y425605*
X415819Y425824*
X415740Y426152*
Y426261*
X415819Y426589*
X415979Y426808*
X416217Y426918*
X416297*
X416535Y426808*
X416694Y426589*
X416774Y426152*
Y425605*
X416694Y425058*
X416535Y424730*
X416297Y424621*
X416138*
X415899Y424730*
X415819Y424949*
X417490Y425605D02*
X418922D01*
X420194Y426918D02*
Y424621D01*
X419638Y426918D02*
X420751D01*
X421467D02*
Y424621D01*
Y426918D02*
X422183D01*
X422422Y426808*
X422501Y426699*
X422581Y426480*
Y426261*
X422501Y426043*
X422422Y425933*
X422183Y425824*
X421467D02*
X422183D01*
X422422Y425714*
X422501Y425605*
X422581Y425386*
Y425058*
X422501Y424839*
X422422Y424730*
X422183Y424621*
X421467*
X425683Y427355D02*
X425524Y427136D01*
X425365Y426808*
X425206Y426371*
X425126Y425824*
Y425386*
X425206Y424839*
X425365Y424402*
X425524Y424074*
X425683Y423855*
X426399Y426918D02*
Y424621D01*
Y426918D02*
X427115D01*
X427354Y426808*
X427433Y426699*
X427513Y426480*
Y426261*
X427433Y426043*
X427354Y425933*
X427115Y425824*
X426399*
X426956D02*
X427513Y424621D01*
X428229Y426918D02*
Y424621D01*
X430138Y426371D02*
X430058Y426589D01*
X429899Y426808*
X429740Y426918*
X429422*
X429263Y426808*
X429104Y426589*
X429024Y426371*
X428944Y426043*
Y425496*
X429024Y425168*
X429104Y424949*
X429263Y424730*
X429422Y424621*
X429740*
X429899Y424730*
X430058Y424949*
X430138Y425168*
X430854Y426918D02*
Y424621D01*
X431967Y426918D02*
Y424621D01*
X430854Y425824D02*
X431967D01*
X432683Y426918D02*
Y424621D01*
Y426918D02*
X433319Y424621D01*
X433956Y426918D02*
X433319Y424621D01*
X433956Y426918D02*
Y424621D01*
X435308Y426918D02*
X434672Y424621D01*
X435308Y426918D02*
X435944Y424621D01*
X434910Y425386D02*
X435706D01*
X436660Y426918D02*
X437774Y424621D01*
Y426918D02*
X436660Y424621D01*
X438490Y427355D02*
X438649Y427136D01*
X438808Y426808*
X438967Y426371*
X439047Y425824*
Y425386*
X438967Y424839*
X438808Y424402*
X438649Y424074*
X438490Y423855*
X491950Y482800D02*
G75*
G03X491950I-1650J0D01*
G01X492550Y505000D02*
G03X492550I-1650J0D01*
G01X481750Y508200D02*
G03X481750I-1650J0D01*
G01X451250Y495200D02*
G03X451250I-1550J0D01*
G01X446950Y496100D02*
G03X446950I-1550J0D01*
G01X458650Y524000D02*
G03X458650I-1550J0D01*
G01X416750Y513500D02*
G03X416750I-1550J0D01*
G01X411150Y517000D02*
G03X411150I-1550J0D01*
G01X410050Y523500D02*
G03X410050I-1550J0D01*
G01X403450Y521100D02*
G03X403450I-1550J0D01*
G01X378525Y523778D02*
G03X378525I-1550J0D01*
G01X387550Y485300D02*
G03X387550I-1550J0D01*
G01X383050Y476600D02*
G03X383050I-1550J0D01*
G01X422908Y476151D02*
G03X422908I-1550J0D01*
G01X430350Y478100D02*
G03X430350I-1550J0D01*
G01X498754Y497657D02*
Y526089D01*
G03X498504Y526339I-250J-0*
G01X481856*
G03X481682Y525910I0J-250*
G01X479825Y523458D02*
G03X481682Y525910I775J1342D01*
G01X479825Y523458D02*
G03X479575I-125J-217D01*
G01X477721Y525913D02*
G03X479575Y523458I1079J-1113D01*
G01X477721Y525913D02*
G03X477547Y526342I-174J179D01*
G01X468504*
G03X468254Y526092I-0J-250*
G01Y523579*
X464624Y519950D02*
G03X468254Y523579I0J3629D01*
G01X464624Y519950D02*
X464590D01*
X460954Y523586D02*
G03X464590Y519950I3636J-0D01*
G01X460954Y523586D02*
Y526094D01*
X460954D02*
G03X460704Y526344I-250J-0D01*
G01X460704D02*
X370419D01*
G03X370220Y525943I0J-250*
G01X370381Y523498D02*
G03X370220Y525943I-1949J1100D01*
G01X370381Y523498D02*
G03X370384Y523246I217J-123D01*
G01X370397Y520957D02*
G03X370384Y523246I-1933J1134D01*
G01X370397Y520957D02*
G03Y520705I215J-126D01*
G01X369899Y517860D02*
G03X370397Y520705I-1433J1717D01*
G01X369899Y517860D02*
G03X369809Y517668I160J-192D01*
G01Y516658*
G03X369892Y516472I250J0*
G01X370376Y513777D02*
G03X369892Y516472I-1963J1039D01*
G01X370376Y513777D02*
G03X370379Y513536I221J-117D01*
G01X370389Y511356D02*
G03X370379Y513536I-1942J1082D01*
G01X370389Y511356D02*
G03X370391Y511109I219J-121D01*
G01X370388Y508873D02*
G03X370391Y511109I-1922J1121D01*
G01X370388Y508873D02*
G03X370389Y508619I216J-126D01*
G01X370544Y508307D02*
G03X370389Y508619I-2076J-830D01*
G01X370544Y508307D02*
G03X370929Y508202I232J92D01*
G01X373372Y507397D02*
G03X370929Y508202I-1492J-419D01*
G01X373372Y507397D02*
G03X373558Y507220I241J67D01*
G01X371726Y505289D02*
G03X373558Y507220I1492J419D01*
G01X371726Y505289D02*
G03X371540Y505466I-241J-67D01*
G01X371050Y505669D02*
G03X371540Y505466I830J1309D01*
G01X371050Y505669D02*
G03X370671Y505411I-133J-211D01*
G01X370405Y503856D02*
G03X370671Y505411I-1943J1133D01*
G01X370405Y503856D02*
G03X370403Y503606I216J-126D01*
G01X370409Y501400D02*
G03X370403Y503606I-1956J1098D01*
G01X370409Y501400D02*
G03X370410Y501155I218J-122D01*
G01X370444Y501092D02*
G03X370410Y501155I-1981J-1038D01*
G01X370444Y501092D02*
G03X370851Y501040I221J116D01*
G01X372818Y501317D02*
G03X370851Y501040I-818J-1317D01*
G01X372818Y501317D02*
G03X373082I132J212D01*
G01Y498683D02*
G03Y501317I818J1317D01*
G01Y498683D02*
G03X372818I-132J-212D01*
G01X370819Y498996D02*
G03X372818Y498683I1181J1004D01*
G01X370819Y498996D02*
G03X370411Y498956I-190J-162D01*
G01X370387Y498915D02*
G03X370411Y498956I-1924J1139D01*
G01X370387Y498915D02*
G03X370386Y498661I215J-128D01*
G01X370418Y496464D02*
G03X370386Y498661I-1952J1071D01*
G01X370418Y496464D02*
G03X370424Y496213I219J-120D01*
G01X370429Y493873D02*
G03X370424Y496213I-1917J1166D01*
G01X370429Y493873D02*
G03X370422Y493624I213J-130D01*
G01X370411Y491469D02*
G03X370422Y493624I-1957J1088D01*
G01X370411Y491469D02*
G03X370413Y491224I218J-121D01*
G01X370400Y488974D02*
G03X370413Y491223I-1930J1135D01*
G01X370400Y488974D02*
G03Y488722I216J-126D01*
G01X370424Y486514D02*
G03X370400Y488722I-1958J1082D01*
G01X370424Y486514D02*
G03X370423Y486273I219J-121D01*
G01X369898Y483492D02*
G03X370423Y486273I-1438J1712D01*
G01X369898Y483492D02*
G03X369809Y483301I161J-191D01*
G01Y482089*
G03X369897Y481899I250J0*
G01X370377Y479082D02*
G03X369897Y481899I-1930J1121D01*
G01X370377Y479082D02*
G03X370373Y478838I216J-125D01*
G01X370341Y476654D02*
G03X370373Y478838I-1934J1121D01*
G01X370341Y476654D02*
G03X370342Y476401I216J-126D01*
G01X370291Y474027D02*
G03X370342Y476401I-1875J1228D01*
G01X370291Y474027D02*
G03X370500Y473640I209J-137D01*
G01X460704*
G03X460954Y473890I-0J250*
G01Y476413*
X464592Y480051D02*
G03X460954Y476413I-0J-3638D01*
G01X464592Y480051D02*
X464619D01*
X468251Y476419D02*
G03X464619Y480051I-3632J0D01*
G01X468251Y476419D02*
Y473889D01*
G03X468501Y473639I250J0*
G01X498504*
G03X498754Y473889I-0J250*
G01Y494543*
G03X498378Y494759I-250J0*
G01Y497441D02*
G03Y494759I-778J-1341D01*
G01Y497441D02*
G03X498754Y497657I126J216D01*
G01X491950Y482800D02*
G03X491950I-1650J0D01*
G01X491579Y488088D02*
G03X494221I1321J-988D01*
G01X491579D02*
G03X491590Y488372I-200J150D01*
G01X491358Y489358D02*
G03X491590Y488372I1542J-158D01*
G01X491358Y489358D02*
G03X491219Y489608I-249J25D01*
G01X493442Y490842D02*
G03X491219Y489608I-1542J158D01*
G01X493442Y490842D02*
G03X493581Y490592I249J-25D01*
G01X494210Y488372D02*
G03X493581Y490592I-1310J828D01*
G01X494210Y488372D02*
G03X494221Y488088I211J-134D01*
G01X490124Y495388D02*
G03X492668Y496236I1576J-488D01*
G01X490124Y495388D02*
G03X490032Y495664I-239J74D01*
G01X492576Y496512D02*
G03X490032Y495664I-1576J488D01*
G01X492576Y496512D02*
G03X492668Y496236I239J-74D01*
G01X492550Y505000D02*
G03X492550I-1650J0D01*
G01X481897Y479750D02*
G03X480518Y482002I3J1550D01*
G01X481897Y479750D02*
G03X481689Y479361I-0J-250D01*
G01X478960Y477925D02*
G03X481689Y479361I1440J575D01*
G01X478960Y477925D02*
G03X478502Y477939I-232J-92D01*
G01X476136Y477386D02*
G03X478502Y477939I964J1214D01*
G01X476136Y477386D02*
G03X475844Y477400I-156J-196D01*
G01X474036Y477486D02*
G03X475844Y477400I964J1214D01*
G01X474036Y477486D02*
G03X473744Y477500I-156J-196D01*
G01X471953Y477573D02*
G03X473744Y477500I947J1227D01*
G01X471953Y477573D02*
G03X471647I-153J-198D01*
G01X469301Y479467D02*
G03X471647Y477573I1399J-667D01*
G01X469301Y479467D02*
G03X469044Y479823I-226J108D01*
G01X468078Y482704D02*
G03X469044Y479823I774J-1343D01*
G01X468078Y482704D02*
G03X467953Y483171I-125J217D01*
G01X455379*
X454708Y483449D02*
G03X455379Y483171I671J672D01*
G01X454707Y483449D02*
X453552Y484605D01*
G03X453375Y484678I-177J-177*
G01X450436*
G03X450246Y484266I0J-250*
G01X448426Y481849D02*
G03X450246Y484266I641J1411D01*
G01X448426Y481849D02*
G03X448395Y481860I-104J-228D01*
X448368Y481877I-140J-207*
G01X447961Y482174D02*
G03X448368Y481877I1106J1086D01*
G01X447961Y482174D02*
G03X447536Y482036I-178J-176D01*
G01X447489Y481828D02*
G03X447536Y482036I-1485J445D01*
G01X447489Y481828D02*
G03X447728Y481506I239J-72D01*
G01X447770*
X448154Y481425D02*
G03X447770Y481506I-384J-869D01*
G01X448154Y481425D02*
G03X448181Y481414I101J228D01*
X448207Y481399I141J207*
G01X448441Y481228D02*
G03X448207Y481399I-671J-672D01*
G01X448441Y481228D02*
X448646Y481023D01*
G03X448754Y480960I176J177*
G01X448791Y480949*
G03X448870Y480940I68J241*
G01X447385Y479361D02*
G03X448870Y480940I1549J30D01*
G01X447385Y479361D02*
G03X447135Y479606I-250J-5D01*
G01X444837*
G03X444729Y479130I-0J-250*
G01X445291Y478861*
G03X445351Y478841I108J225*
G01X443526Y477044D02*
G03X445351Y478841I1525J276D01*
G01X443526Y477044D02*
G03X443507Y477104I-246J-45D01*
G01X443153Y477872*
G03X443104Y477943I-227J-104*
G01X438248Y482875*
G03X438070Y482950I-178J-175*
G01X436589*
G03X436340Y482672I-0J-250*
G01X433260D02*
G03X436340I1540J-172D01*
G01X433260D02*
G03X433011Y482950I-249J28D01*
G01X428997*
G03X428761Y482617I0J-250*
G01X427703Y480603D02*
G03X428761Y482617I-403J1497D01*
G01X427703Y480603D02*
G03X427519Y480376I65J-241D01*
G01X425036Y481701D02*
G03X427519Y480376I935J-1236D01*
G01X425036Y481701D02*
G03X424885Y482150I-151J199D01*
G01X415030*
G03X414783Y481935I0J-250*
G01X411772Y482624D02*
G03X414783Y481935I1476J-473D01*
G01X411772Y482624D02*
G03X411534Y482950I-238J76D01*
G01X408500*
X407828Y483228D02*
G03X408500Y482950I672J672D01*
G01X407828Y483228D02*
X401728Y489328D01*
X401450Y490000D02*
G03X401728Y489328I950J0D01*
G01X401450Y490000D02*
Y492511D01*
G03X401172Y492760I-250J0*
G01X400541Y495781D02*
G03X401172Y492760I459J-1481D01*
G01X400541Y495781D02*
G03X400644Y496196I-74J238D01*
G01X399773Y497067*
G03X399347Y496905I-176J-177*
G01X396415Y497695D02*
G03X399347Y496905I1385J-695D01*
G01X396415Y497695D02*
G03X396218Y498056I-224J112D01*
G01X395650Y498328D02*
G03X396218Y498056I671J672D01*
G01X395650Y498328D02*
X393734Y500244D01*
G03X393452Y500294I-177J-177*
G01X391541Y500796D02*
G03X393452Y500294I1259J904D01*
G01X391541Y500796D02*
G03X391161Y500827I-203J-146D01*
G01X390974Y500639*
G03X390901Y500463I177J-176*
G01Y497050*
X390639Y496396D02*
G03X390901Y497050I-689J654D01*
G01X390639Y496396D02*
G03X390748Y495984I181J-173D01*
G01X391830Y494746D02*
G03X390748Y495984I-1530J-246D01*
G01X391830Y494746D02*
G03X392108Y494538I247J40D01*
G01X391596Y491619D02*
G03X392108Y494538I704J1381D01*
G01X391596Y491619D02*
G03X391236Y491439I-113J-223D01*
G01X390972Y490928D02*
G03X391236Y491439I-672J672D01*
G01X390972Y490928D02*
X390120Y490077D01*
G03X390297Y489650I177J-177*
G01X391000*
X391672Y489372D02*
G03X391000Y489650I-672J-672D01*
G01X391672Y489372D02*
X391844Y489199D01*
G03X392268Y489338I177J177*
G01X394577Y487759D02*
G03X392268Y489338I-777J1341D01*
G01X394577Y487759D02*
G03X394522Y487370I125J-216D01*
G01X394410Y485124D02*
G03X394522Y487370I-1010J1176D01*
G01X394410Y485124D02*
G03X394474Y484705I163J-189D01*
G01X392850Y484458D02*
G03X394474Y484705I1010J-1176D01*
G01X392850Y484458D02*
G03X392786Y484877I-163J189D01*
G01X391877Y486012D02*
G03X392786Y484877I1523J288D01*
G01X391877Y486012D02*
G03X391858Y486072I-246J-47D01*
G01X391498Y486838*
G03X391448Y486908I-226J-107*
G01X390680Y487677*
G03X390503Y487750I-177J-177*
G01X385576*
X384905Y488028D02*
G03X385576Y487750I671J672D01*
G01X384905Y488028D02*
X384062Y488871D01*
G03X383749Y488903I-176J-177*
G01X383310Y491695D02*
G03X383749Y488903I-410J-1495D01*
G01X383310Y491695D02*
G03X383626Y491936I66J241D01*
G01Y491999*
X383626*
X383625Y493469*
X383625*
Y493470*
Y495000*
G03X383378Y495250I-250J0*
G01X382621Y495460D02*
G03X383378Y495250I779J1340D01*
G01X382621Y495460D02*
G03X382337Y495436I-125J-216D01*
G01X382128Y497971D02*
G03X382337Y495436I-779J-1340D01*
G01X382128Y497971D02*
G03X382412Y497995I125J216D01*
G01X382974Y498290D02*
G03X382412Y497995I426J-1490D01*
G01X382974Y498290D02*
G03X383154Y498512I-69J241D01*
G01X384098Y499828D02*
G03X383154Y498512I602J-1428D01*
G01X384098Y499828D02*
G03X384250Y500064I-98J231D01*
G01X384595Y501075D02*
G03X384250Y500064I1205J-975D01*
G01X384595Y501075D02*
G03X384277Y501450I-194J157D01*
G01X381994Y502478D02*
G03X384277Y501450I1517J319D01*
G01X381994Y502478D02*
G03X381792Y502673I-245J-51D01*
G01X380957Y505291D02*
G03X381792Y502673I1101J-1091D01*
G01X380957Y505291D02*
G03X381008Y505568I-178J176D01*
G01X383919Y505787D02*
G03X381008Y505568I-1495J411D01*
G01X383919Y505787D02*
G03X384160Y505471I241J-66D01*
G01X384503*
G03X384680Y505544I-0J250*
G01X385170Y506035*
X385344Y506172D02*
G03X385170Y506035I498J-809D01*
G01X385344Y506172D02*
G03X385420Y506526I-131J213D01*
G01X385172Y507660D02*
G03X385420Y506526I1528J-260D01*
G01X385172Y507660D02*
G03X384936Y507951I-247J42D01*
G01X386003Y510682D02*
G03X384936Y507951I-1003J-1182D01*
G01X386003Y510682D02*
G03X386308Y510668I162J190D01*
G01X387683Y510873D02*
G03X386308Y510668I-483J-1473D01*
G01X387683Y510873D02*
G03X388011Y511110I78J237D01*
G01Y512346*
G03X387938Y512523I-250J0*
G01X387760Y512701*
G03X387583Y512774I-177J-177*
G01X381492*
X380820Y513053D02*
G03X381492Y512774I672J671D01*
G01X380820Y513053D02*
X379428Y514445D01*
X379150Y515116D02*
G03X379428Y514445I950J0D01*
G01X379150Y515116D02*
Y517628D01*
X379428Y518300D02*
G03X379150Y517628I672J-672D01*
G01X379428Y518300D02*
X379551Y518423D01*
G03X379623Y518626I-177J176*
G01X382168Y517611D02*
G03X379623Y518626I-1004J1181D01*
G01X382168Y517611D02*
G03X382256Y517181I162J-191D01*
G01X383343Y515846D02*
G03X382256Y517181I-1543J-146D01*
G01X383343Y515846D02*
G03X383592Y515620I249J24D01*
G01X388493*
X389165Y515341D02*
G03X388493Y515620I-672J-672D01*
G01X389165Y515341D02*
X390465Y514041D01*
X390743Y513369D02*
G03X390465Y514041I-950J0D01*
G01X390743Y513369D02*
Y511450D01*
G03X391030Y511202I250J-0*
G01X392738Y510125D02*
G03X391030Y511202I-1481J-456D01*
G01X392738Y510125D02*
G03X392967Y509949I239J73D01*
G01X394195Y509252D02*
G03X392967Y509949I-1295J-852D01*
G01X394195Y509252D02*
G03X394581Y509212I209J137D01*
G01X395977Y510608*
G03X396050Y510785I-177J177*
G01Y514103*
G03X395977Y514280I-250J-0*
G01X395252Y515004*
G03X394954Y515046I-176J-177*
G01X392883Y517218D02*
G03X394954Y515046I1317J-818D01*
G01X392883Y517218D02*
G03X392671Y517600I-212J132D01*
G01X392241*
X391569Y517878D02*
G03X392241Y517600I672J672D01*
G01X391569Y517878D02*
X390442Y519005D01*
G03X390372Y519055I-177J-176*
G01X389606Y519415*
G03X389546Y519434I-107J-227*
G01X391357Y521245D02*
G03X389546Y519434I-1523J-288D01*
G01X391357Y521245D02*
G03X391376Y521185I246J47D01*
G01X391736Y520419*
G03X391786Y520349I226J107*
G01X391883Y520251*
G03X392309Y520447I177J177*
G01X395378Y520853D02*
G03X392309Y520447I-1523J-288D01*
G01X395378Y520853D02*
G03X395397Y520793I246J47D01*
G01X395757Y520027*
G03X395807Y519957I226J107*
G01X397472Y518292*
X397750Y517620D02*
G03X397472Y518292I-950J0D01*
G01X397750Y517620D02*
Y516797D01*
G03X397823Y516620I250J0*
G01X397920Y516523*
G03X398097Y516450I177J177*
G01X399600*
X400272Y516172D02*
G03X399600Y516450I-672J-672D01*
G01X400272Y516172D02*
X402633Y513811D01*
G03X403058Y513961I177J176*
G01X405994Y514478D02*
G03X403058Y513961I-1394J-678D01*
G01X405994Y514478D02*
G03X406412Y514429I225J109D01*
G01X408860Y514369D02*
G03X406412Y514429I-1247J-920D01*
G01X408860Y514369D02*
G03X409136Y514279I202J149D01*
G01X410682Y511691D02*
G03X409136Y514279I-1082J1109D01*
G01X410682Y511691D02*
G03X410780Y511274I175J-179D01*
G01X411173Y511081D02*
G03X410780Y511274I-873J-1281D01*
G01X411173Y511081D02*
G03X411229Y511052I141J206D01*
G01X412025Y510765*
G03X412110Y510750I85J235*
G01X416103*
G03X416280Y510823I-0J250*
G01X418428Y512972*
X418874Y513223D02*
G03X418428Y512972I226J-923D01*
G01X418874Y513223D02*
G03X419063Y513498I-59J243D01*
G01X422098Y514099D02*
G03X419063Y513498I-1498J-400D01*
G01X422098Y514099D02*
G03X422516Y513986I241J64D01*
G01X425128Y516599*
X425800Y516877D02*
G03X425128Y516599I0J-950D01*
G01X425800Y516877D02*
X432004D01*
G03X432198Y517285I-0J250*
G01X434602D02*
G03X432198I-1202J978D01*
G01X434602D02*
G03X434796Y516877I194J-158D01*
G01X435902*
G03X436068Y517314I-0J250*
G01X438645Y518582D02*
G03X436068Y517314I-1546J-111D01*
G01X438645Y518582D02*
G03X438894Y518350I249J18D01*
G01X447284*
G03X447531Y518639I0J250*
G01X450593D02*
G03X447531I-1531J244D01*
G01X450593D02*
G03X450840Y518350I247J-39D01*
G01X473303*
G03X473480Y518423I-0J250*
G01X475428Y520372*
X476100Y520650D02*
G03X475428Y520372I0J-950D01*
G01X476100Y520650D02*
X477490D01*
G03X477575Y520665I0J250*
G01X478371Y520952*
G03X478427Y520981I-85J235*
G01X480730Y520298D02*
G03X478427Y520981I-1430J-598D01*
G01X480730Y520298D02*
G03X480980Y520145I231J97D01*
G01X481763Y517199D02*
G03X480980Y520145I-663J1401D01*
G01X481763Y517199D02*
G03X481693Y517150I107J-226D01*
G01X478772Y514228*
X478100Y513950D02*
G03X478772Y514228I0J950D01*
G01X478100Y513950D02*
X449892D01*
G03X449810Y513464I-0J-250*
G01X448790D02*
G03X449810I510J-1464D01*
G01X448790D02*
G03X448708Y513950I-82J236D01*
G01X439598*
G03X439421Y513877I0J-250*
G01X438372Y512827*
X438026Y512607D02*
G03X438372Y512827I-326J892D01*
G01X438026Y512607D02*
G03X437976Y512162I86J-235D01*
G01X436196Y512100D02*
G03X437976Y512162I935J-1237D01*
G01X436196Y512100D02*
G03X436046Y512549I-150J199D01*
G01X431998*
G03X431821Y512122I0J-250*
G01X432792Y511152*
G03X432862Y511102I177J176*
G01X433628Y510742*
G03X433688Y510723I107J227*
G01X431877Y508912D02*
G03X433688Y510723I1523J288D01*
G01X431877Y508912D02*
G03X431858Y508972I-246J-47D01*
G01X431498Y509738*
G03X431448Y509808I-226J-107*
G01X431175Y510081*
G03X430763Y509987I-176J-177*
G01X430075Y509158D02*
G03X430763Y509987I-775J1342D01*
G01X430075Y509158D02*
G03X429950Y508941I125J-217D01*
G01Y506897*
G03X430023Y506720I250J0*
G01X430333Y506411*
X431572Y505172*
X431850Y504500D02*
G03X431572Y505172I-950J0D01*
G01X431850Y504500D02*
Y503697D01*
G03X431923Y503520I250J0*
G01X432220Y503223*
G03X432397Y503150I177J177*
G01X443003*
G03X443180Y503223I-0J250*
G01X447077Y507120*
G03X447150Y507297I-177J177*
G01Y508200*
G03X446900Y508450I-250J-0*
G01X446255*
G03X446011Y508144I0J-250*
G01X444108Y509300D02*
G03X446011Y508144I392J-1500D01*
G01X444108Y509300D02*
G03X444221Y509365I-64J241D01*
G01X444928Y510072*
X445600Y510350D02*
G03X444928Y510072I0J-950D01*
G01X445600Y510350D02*
X447500D01*
X448172Y510072D02*
G03X447500Y510350I-672J-672D01*
G01X448172Y510072D02*
X448772Y509472D01*
X449050Y508800D02*
G03X448772Y509472I-950J0D01*
G01X449050Y508800D02*
Y507600D01*
G03X449300Y507350I250J0*
G01X452967*
G03X453144Y507423I0J250*
G01X454379Y508658*
X455051Y508937D02*
G03X454379Y508658I0J-951D01*
G01X455051Y508937D02*
X456329D01*
G03X456506Y509010I0J250*
G01X458568Y511072*
X459240Y511350D02*
G03X458568Y511072I0J-950D01*
G01X459240Y511350D02*
X465000D01*
X465672Y511072D02*
G03X465000Y511350I-672J-672D01*
G01X465672Y511072D02*
X466892Y509852D01*
G03X466962Y509802I177J176*
G01X467728Y509442*
G03X467788Y509423I107J227*
G01X468490Y509092D02*
G03X467788Y509423I-990J-1192D01*
G01X468490Y509092D02*
G03X468810I160J193D01*
G01X471298Y507500D02*
G03X468810Y509092I-1498J400D01*
G01X471298Y507500D02*
G03X471409Y507222I241J-64D01*
G01X469639Y504684D02*
G03X471409Y507222I961J1216D01*
G01X469639Y504684D02*
G03X469310Y504667I-155J-197D01*
G01X468650Y504400D02*
G03X469310Y504667I0J950D01*
G01X468650Y504400D02*
X466472D01*
X466049Y504499D02*
G03X466472Y504400I423J851D01*
G01X466049Y504499D02*
G03X465698Y504205I-111J-224D01*
G01X464448Y502236D02*
G03X465698Y504205I-237J1532D01*
G01X464448Y502236D02*
G03X464240Y501950I39J-247D01*
G01X463907Y500725D02*
G03X464240Y501950I-1198J984D01*
G01X463907Y500725D02*
G03X463893Y500426I193J-158D01*
G01X464133Y499857D02*
G03X463893Y500426I-1520J-305D01*
G01X464133Y499857D02*
G03X464620Y499844I245J49D01*
G01X465770Y497947D02*
G03X464620Y499844I351J1510D01*
G01X465770Y497947D02*
G03X465464Y497717I-57J-244D01*
G01X462864Y496661D02*
G03X465464Y497717I1052J1138D01*
G01X462864Y496661D02*
G03X462518Y496655I-170J-183D01*
G01X460337Y498859D02*
G03X462518Y496655I1090J-1103D01*
G01X460337Y498859D02*
G03X460236Y499275I-175J178D01*
G01X461041Y502267D02*
G03X460236Y499275I-347J-1511D01*
G01X461041Y502267D02*
G03X461321Y502399I56J243D01*
G01X461801Y502965D02*
G03X461321Y502399I908J-1256D01*
G01X461801Y502965D02*
G03X461756Y503396I-146J203D01*
G01X461556Y503503D02*
G03X461756Y503396I827J1311D01*
G01X461556Y503503D02*
G03X461267Y503487I-133J-212D01*
G01X458792Y505045D02*
G03X461267Y503487I1511J-344D01*
G01X458792Y505045D02*
G03X458548Y505350I-244J55D01*
G01X456353*
G03X456177Y505277I0J-250*
G01X454990Y504096*
Y504095D02*
X454923Y504028D01*
X454251Y503750D02*
G03X454923Y504028I0J950D01*
G01X454251Y503750D02*
X450370D01*
G03X450193Y503677I0J-250*
G01X445645Y499128*
X444973Y498850D02*
G03X445645Y499128I0J950D01*
G01X444973Y498850D02*
X440045D01*
G03X439872Y498419I0J-250*
G01X437728D02*
G03X439872I1072J-1119D01*
G01X437728D02*
G03X437555Y498850I-173J181D01*
G01X433351*
G03X433107Y498545I0J-250*
G01X432662Y497075D02*
G03X433107Y498545I-1066J1126D01*
G01X432662Y497075D02*
G03X432584Y496894I172J-181D01*
G01Y496538*
G03X432657Y496361I250J0*
G01X433544Y495474*
G03X433720Y495401I176J177*
G01X436063*
X436735Y495123D02*
G03X436063Y495401I-672J-672D01*
G01X436735Y495123D02*
X437985Y493873D01*
G03X438363Y493902I176J177*
G01X440525Y494235D02*
G03X438363Y493902I-914J-1252D01*
G01X440525Y494235D02*
G03X440807Y494225I148J201D01*
G01X443166Y492656D02*
G03X440807Y494225I-1528J261D01*
G01X443166Y492656D02*
G03X443412Y492364I246J-42D01*
G01X443903*
G03X444080Y492437I-0J250*
G01X444759Y493117*
X445387Y493394D02*
G03X444759Y493117I44J-949D01*
G01X445387Y493394D02*
G03X445402Y493395I-11J250D01*
G01X445501Y493400D02*
G03X445402Y493395I0J-950D01*
G01X445501Y493400D02*
X447229D01*
X447901Y493122D02*
G03X447229Y493400I-672J-672D01*
G01X447901Y493122D02*
X447941Y493081D01*
G03X448132Y493009I177J177*
G01X448847Y490044D02*
G03X448132Y493009I-628J1417D01*
G01X448847Y490044D02*
G03X448771Y489638I101J-229D01*
G01X448886Y489523*
G03X449063Y489450I177J177*
G01X455100*
X455772Y489172D02*
G03X455100Y489450I-672J-672D01*
G01X455772Y489172D02*
X457398Y487546D01*
G03X457574Y487473I176J177*
G01X461440*
G03X461684Y487775I-0J250*
G01X462188Y489274D02*
G03X461684Y487775I1012J-1174D01*
G01X462188Y489274D02*
G03X462091Y489705I-163J190D01*
G01X464016Y491525D02*
G03X462091Y489705I-1516J-325D01*
G01X464016Y491525D02*
G03X464495Y491493I244J52D01*
G01X467477Y491257D02*
G03X464495Y491493I-1523J-288D01*
G01X467477Y491257D02*
G03X467496Y491197I246J46D01*
G01X467856Y490431*
G03X467906Y490360I226J106*
G01X468171Y490095*
G03X468347Y490022I176J177*
G01X469442*
X470114Y489744D02*
G03X469442Y490022I-672J-672D01*
G01X470114Y489744D02*
X474306Y485552D01*
G03X474695Y485861I177J177*
G01X474991Y487845D02*
G03X474695Y485861I1021J-1167D01*
G01X474991Y487845D02*
G03X475052Y488142I-164J188D01*
G01X475975Y490293D02*
G03X475052Y488142I473J-1477D01*
G01X475975Y490293D02*
G03X476149Y490514I-76J238D01*
G01X479034Y489631D02*
G03X476149Y490514I-1338J782D01*
G01X479034Y489631D02*
G03X479405Y489309I216J-126D01*
G01X481477Y487013D02*
G03X479405Y489309I-1111J1080D01*
G01X481477Y487013D02*
G03X481407Y486838I180J-175D01*
G01Y484643*
X481128Y483972D02*
G03X481407Y484643I-671J671D01*
G01X481128Y483972D02*
X480085Y482928D01*
X479514Y482655D02*
G03X480085Y482928I-101J945D01*
G01X479514Y482655D02*
G03X479434Y482180I27J-248D01*
G01X479728Y482042*
G03X479788Y482023I107J227*
G01X480185Y481891D02*
G03X479788Y482023I-685J-1391D01*
G01X480185Y481891D02*
G03X480518Y482002I110J224D01*
G01X481750Y508200D02*
G03X481750I-1650J0D01*
G01X472228Y490578D02*
G03X472272Y493230I824J1313D01*
G01X472228Y490578D02*
G03X471969Y490583I-133J-211D01*
G01X472013Y493235D02*
G03X471969Y490583I-824J-1313D01*
G01X472013Y493235D02*
G03X472272Y493230I133J211D01*
G01X451250Y495200D02*
G03X451250I-1550J0D01*
G01X446950Y496100D02*
G03X446950I-1550J0D01*
G01X458650Y524000D02*
G03X458650I-1550J0D01*
G01X428553Y518316D02*
G03X427725Y520681I447J1484D01*
G01X428553Y518316D02*
G03X428275Y518219I-72J-239D01*
G01X425470Y518852D02*
G03X428275Y518219I1530J248D01*
G01X425470Y518852D02*
G03X425225Y519062I-247J-40D01*
G01X426764Y520860D02*
G03X425225Y519062I-1530J-248D01*
G01X426764Y520860D02*
G03X427009Y520650I247J40D01*
G01X427447Y520584D02*
G03X427009Y520650I-447J-1484D01*
G01X427447Y520584D02*
G03X427725Y520681I72J239D01*
G01X416750Y513500D02*
G03X416750I-1550J0D01*
G01X419513Y516564D02*
G03X419246Y517885I1235J937D01*
G01X419513Y516564D02*
G03X419072Y516475I-199J-151D01*
G01X418805Y517796D02*
G03X419072Y516475I-1235J-937D01*
G01X418805Y517796D02*
G03X419246Y517885I199J151D01*
G01X411150Y517000D02*
G03X411150I-1550J0D01*
G01X410050Y523500D02*
G03X410050I-1550J0D01*
G01X403450Y521100D02*
G03X403450I-1550J0D01*
G01X378525Y523778D02*
G03X378525I-1550J0D01*
G01X387550Y485300D02*
G03X387550I-1550J0D01*
G01X383050Y476600D02*
G03X383050I-1550J0D01*
G01X382989Y484995D02*
G03X380475Y485057I-1234J937D01*
G01X382989Y484995D02*
G03X382982Y484702I199J-152D01*
G01X380467Y484765D02*
G03X382982Y484702I1235J-937D01*
G01X380467Y484765D02*
G03X380475Y485057I-199J151D01*
G01X403712Y481726D02*
G03X403880Y482949I1493J417D01*
G01X403712Y481726D02*
G03X403257Y481789I-241J-67D01*
G01X402541Y481169D02*
G03X403257Y481789I-608J1425D01*
G01X402541Y481169D02*
G03X402524Y480717I98J-230D01*
G01X403359Y479444D02*
G03X402524Y480717I-1547J-104D01*
G01X403359Y479444D02*
G03X403787Y479286I249J17D01*
G01X403351Y478101D02*
G03X403787Y479286I1547J104D01*
G01X403351Y478101D02*
G03X402923Y478258I-249J-17D01*
G01X401204Y480766D02*
G03X402923Y478258I608J-1426D01*
G01X401204Y480766D02*
G03X401221Y481218I-98J230D01*
G01X401072Y483884D02*
G03X401221Y481218I861J-1290D01*
G01X401072Y483884D02*
G03X401012Y484329I-139J207D01*
G01X400003Y485397D02*
G03X401012Y484329I1497J403D01*
G01X400003Y485397D02*
G03X399517Y485383I-241J-65D01*
G01X399497Y486103D02*
G03X399517Y485383I-1497J-403D01*
G01X399497Y486103D02*
G03X399983Y486117I241J65D01*
G01X402361Y484511D02*
G03X399983Y486117I-861J1289D01*
G01X402361Y484511D02*
G03X402421Y484066I139J-208D01*
G01X403426Y483011D02*
G03X402421Y484066I-1493J-417D01*
G01X403426Y483011D02*
G03X403880Y482949I241J67D01*
G01X422908Y476151D02*
G03X422908I-1550J0D01*
G01X430350Y478100D02*
G03X430350I-1550J0D01*
G01X481741Y525849D02*
X498754D01*
X482030Y525399D02*
X498754D01*
X482143Y524949D02*
X498754D01*
X482120Y524499D02*
X498754D01*
X481956Y524049D02*
X498754D01*
X481579Y523599D02*
X498754D01*
X468228Y523149D02*
X498754D01*
X468145Y522699D02*
X498754D01*
X468001Y522249D02*
X498754D01*
X467787Y521799D02*
X498754D01*
X467487Y521349D02*
X498754D01*
X480283Y520899D02*
X498754D01*
X480657Y520449D02*
X498754D01*
X481768Y519999D02*
X498754D01*
X482326Y519549D02*
X498754D01*
X482568Y519099D02*
X498754D01*
X482649Y518649D02*
X498754D01*
X482597Y518199D02*
X498754D01*
X482395Y517749D02*
X498754D01*
X481942Y517299D02*
X498754D01*
X481392Y516849D02*
X498754D01*
X480942Y516399D02*
X498754D01*
X480492Y515949D02*
X498754D01*
X480042Y515499D02*
X498754D01*
X479592Y515049D02*
X498754D01*
X479142Y514599D02*
X498754D01*
X478681Y514149D02*
X498754D01*
X449642Y513699D02*
X498754D01*
X450218Y513249D02*
X498754D01*
X450628Y512799D02*
X498754D01*
X450810Y512349D02*
X498754D01*
X450847Y511899D02*
X498754D01*
X450749Y511449D02*
X498754D01*
X465745Y510999D02*
X498754D01*
X466195Y510549D02*
X498754D01*
X466645Y510099D02*
X498754D01*
X480890Y509649D02*
X498754D01*
X481413Y509199D02*
X498754D01*
X481656Y508749D02*
X498754D01*
X481747Y508299D02*
X498754D01*
X481712Y507849D02*
X498754D01*
X481542Y507399D02*
X498754D01*
X481176Y506949D02*
X498754D01*
X491590Y506499D02*
X498754D01*
X492174Y506049D02*
X498754D01*
X492438Y505599D02*
X498754D01*
X492543Y505149D02*
X498754D01*
X492522Y504699D02*
X498754D01*
X492369Y504249D02*
X498754D01*
X492031Y503799D02*
X498754D01*
X465704Y503349D02*
X498754D01*
X465495Y502899D02*
X498754D01*
X465025Y502449D02*
X498754D01*
X464237Y501999D02*
X498754D01*
X464250Y501549D02*
X498754D01*
X464134Y501099D02*
X498754D01*
X467112Y500649D02*
X498754D01*
X467482Y500199D02*
X498754D01*
X467643Y499749D02*
X498754D01*
X467663Y499299D02*
X498754D01*
X467547Y498849D02*
X498754D01*
X491875Y498399D02*
X498754D01*
X492350Y497949D02*
X498754D01*
X493255Y494349D02*
X498754D01*
X493011Y493899D02*
X498754D01*
X492485Y493449D02*
X498754D01*
X474136Y492999D02*
X498754D01*
X491964Y492549D02*
X498754D01*
X492993Y492099D02*
X498754D01*
X493308Y491649D02*
X498754D01*
X493437Y491199D02*
X498754D01*
X493450Y490749D02*
X498754D01*
X493993Y490299D02*
X498754D01*
X494308Y489849D02*
X498754D01*
X494437Y489399D02*
X498754D01*
X494430Y488949D02*
X498754D01*
X494282Y488499D02*
X498754D01*
X494250Y488049D02*
X498754D01*
X494473Y487599D02*
X498754D01*
X494549Y487149D02*
X498754D01*
X494500Y486699D02*
X498754D01*
X494313Y486249D02*
X498754D01*
X493914Y485799D02*
X498754D01*
X481407Y485349D02*
X498754D01*
X481407Y484899D02*
X498754D01*
X490366Y484449D02*
X498754D01*
X491434Y483999D02*
X498754D01*
X491770Y483549D02*
X498754D01*
X491923Y483099D02*
X498754D01*
X491943Y482649D02*
X498754D01*
X491837Y482199D02*
X498754D01*
X491572Y481749D02*
X498754D01*
X490985Y481299D02*
X498754D01*
X483383Y480849D02*
X498754D01*
X483161Y480399D02*
X498754D01*
X482659Y479949D02*
X498754D01*
X481647Y479499D02*
X498754D01*
X481850Y479049D02*
X498754D01*
X481947Y478599D02*
X498754D01*
X481910Y478149D02*
X498754D01*
X481727Y477699D02*
X498754D01*
X481315Y477249D02*
X498754D01*
X468231Y476799D02*
X498754D01*
X468251Y476349D02*
X498754D01*
X468251Y475899D02*
X498754D01*
X468251Y475449D02*
X498754D01*
X468251Y474999D02*
X498754D01*
X468251Y474549D02*
X498754D01*
X468251Y474099D02*
X498754D01*
X498268Y497499D02*
X498697D01*
X481720Y526299D02*
X498640D01*
X468432Y473649D02*
X498573D01*
X492573Y497499D02*
X496932D01*
X493347Y494799D02*
X496758D01*
X492649Y497049D02*
X496374D01*
X493313Y495249D02*
X496305D01*
X492600Y496599D02*
X496132D01*
X493144Y495699D02*
X496103D01*
X492779Y496149D02*
X496051D01*
X481407Y485799D02*
X491886D01*
X474456Y492549D02*
X491836D01*
X481916Y488049D02*
X491550D01*
X481862Y488499D02*
X491518D01*
X481407Y486249D02*
X491487D01*
X481659Y488949D02*
X491370D01*
X481202Y489399D02*
X491359D01*
X481835Y487599D02*
X491327D01*
X481407Y486699D02*
X491300D01*
X481595Y487149D02*
X491251D01*
X471457Y493449D02*
X490915D01*
X479139Y489849D02*
X490862D01*
X474588Y492099D02*
X490807D01*
X479241Y490299D02*
X490518D01*
X478632Y491649D02*
X490492D01*
X450542Y493899D02*
X490389D01*
X479209Y490749D02*
X490370D01*
X479032Y491199D02*
X490363D01*
X481387Y484449D02*
X490234D01*
X472030Y506499D02*
X490210D01*
X450995Y494349D02*
X490145D01*
X467254Y498399D02*
X490125D01*
X451249Y495249D02*
X490087D01*
X451197Y494799D02*
X490053D01*
X451168Y495699D02*
X489986D01*
X465761Y503799D02*
X489769D01*
X466479Y497949D02*
X489650D01*
X472143Y506049D02*
X489626D01*
X483450Y481299D02*
X489615D01*
X450926Y496149D02*
X489587D01*
X465690Y504249D02*
X489431D01*
X465437Y497499D02*
X489427D01*
X464896Y496599D02*
X489400D01*
X472120Y505599D02*
X489362D01*
X465272Y497049D02*
X489351D01*
X471579Y504699D02*
X489278D01*
X471956Y505149D02*
X489257D01*
X481155Y483999D02*
X489166D01*
X483384Y481749D02*
X489028D01*
X480706Y483549D02*
X488830D01*
X483163Y482199D02*
X488763D01*
X480256Y483099D02*
X488677D01*
X482664Y482649D02*
X488657D01*
X479478D02*
X481136D01*
X479402Y482199D02*
X480637D01*
X479023Y489399D02*
X479531D01*
X477859Y477249D02*
X479485D01*
X467289Y509649D02*
X479310D01*
X478361Y477699D02*
X479073D01*
X471741Y506949D02*
X479024D01*
X470646Y509199D02*
X478787D01*
X471292Y507399D02*
X478658D01*
X471097Y508749D02*
X478544D01*
X471349Y507849D02*
X478488D01*
X471298Y508299D02*
X478453D01*
X467071Y520899D02*
X478223D01*
X468254Y523599D02*
X477821D01*
X468363Y526299D02*
X477688D01*
X468254Y525849D02*
X477659D01*
X468254Y524049D02*
X477444D01*
X468254Y525399D02*
X477370D01*
X468254Y524499D02*
X477280D01*
X468254Y524949D02*
X477257D01*
X474583Y491649D02*
X476759D01*
X474439Y491199D02*
X476359D01*
X475544Y477249D02*
X476341D01*
X474100Y490749D02*
X476182D01*
X467967Y490299D02*
X475992D01*
X466461Y520449D02*
X475515D01*
X469990Y489849D02*
X475291D01*
X471809Y488049D02*
X475076D01*
X465217Y519999D02*
X475055D01*
X470459Y489399D02*
X475011D01*
X471359Y488499D02*
X474930D01*
X470909Y488949D02*
X474903D01*
X472259Y487599D02*
X474765D01*
X474059Y485799D02*
X474723D01*
X450462Y519549D02*
X474605D01*
X472709Y487149D02*
X474535D01*
X473609Y486249D02*
X474523D01*
X473159Y486699D02*
X474462D01*
X468155Y477249D02*
X474456D01*
X450597Y519099D02*
X474155D01*
X450594Y518649D02*
X473705D01*
X443094Y493449D02*
X470921D01*
X467707Y490749D02*
X470176D01*
X448414Y492999D02*
X470074D01*
X467496Y491199D02*
X469818D01*
X463264Y492549D02*
X469771D01*
X467347Y491649D02*
X469663D01*
X467015Y492099D02*
X469649D01*
X469351Y504699D02*
X469618D01*
X468018Y477699D02*
X469609D01*
X466545Y479499D02*
X469313D01*
X467813Y478149D02*
X469293D01*
X467125Y479049D02*
X469170D01*
X467524Y478599D02*
X469163D01*
X468346Y509199D02*
X468954D01*
X465476Y479949D02*
X468213D01*
X450609Y483099D02*
X468129D01*
X450491Y482649D02*
X467989D01*
X450112Y480399D02*
X467636D01*
X450197Y482199D02*
X467548D01*
X449462Y480849D02*
X467389D01*
X449412Y481749D02*
X467351D01*
X448362Y481299D02*
X467303D01*
X465665Y497949D02*
X465762D01*
X463864Y500649D02*
X465130D01*
X463763Y492099D02*
X464893D01*
X464022Y500199D02*
X464760D01*
X464184Y499749D02*
X464572D01*
X463984Y491649D02*
X464561D01*
X450138Y519999D02*
X463997D01*
X450381Y479949D02*
X463735D01*
X462458Y496599D02*
X462936D01*
X430408Y520449D02*
X462753D01*
X450481Y479499D02*
X462664D01*
X455408Y489399D02*
X462267D01*
X430093Y520899D02*
X462141D01*
X450446Y479049D02*
X462084D01*
X455995Y488949D02*
X461903D01*
X461061Y503349D02*
X461827D01*
X448700Y489849D02*
X461741D01*
X449323Y492549D02*
X461736D01*
X429064Y521349D02*
X461724D01*
X449415Y502899D02*
X461715D01*
X456445Y488499D02*
X461702D01*
X450267Y478599D02*
X461683D01*
X457345Y487599D02*
X461657D01*
X456895Y488049D02*
X461651D01*
X426231Y521799D02*
X461424D01*
X449861Y478149D02*
X461394D01*
X448965Y502449D02*
X461347D01*
X449244Y490299D02*
X461239D01*
X449632Y492099D02*
X461237D01*
X409415Y522249D02*
X461209D01*
X446554Y477699D02*
X461189D01*
X457942Y522699D02*
X461064D01*
X446600Y477249D02*
X461051D01*
X449596Y490749D02*
X461017D01*
X449758Y491649D02*
X461016D01*
X458395Y523149D02*
X460981D01*
X446511Y476799D02*
X460974D01*
X370287Y525849D02*
X460954D01*
X457768Y525399D02*
X460954D01*
X458326Y524949D02*
X460954D01*
X458568Y524499D02*
X460954D01*
X458649Y524049D02*
X460954D01*
X458597Y523599D02*
X460954D01*
X446259Y476349D02*
X460954D01*
X445669Y475899D02*
X460954D01*
X422740Y475449D02*
X460954D01*
X422395Y474999D02*
X460954D01*
X370543Y474549D02*
X460954D01*
X370335Y474099D02*
X460954D01*
X449747Y491199D02*
X460950D01*
X370276Y526299D02*
X460848D01*
X370436Y473649D02*
X460768D01*
X450368Y496599D02*
X460395D01*
X440020Y498849D02*
X460327D01*
X445815Y499299D02*
X460166D01*
X446626Y497049D02*
X460047D01*
X439893Y498399D02*
X460016D01*
X446068Y497499D02*
X459898D01*
X440208Y497949D02*
X459889D01*
X448515Y501999D02*
X459768D01*
X449865Y503349D02*
X459545D01*
X446265Y499749D02*
X459516D01*
X448065Y501549D02*
X459362D01*
X446715Y500199D02*
X459248D01*
X447615Y501099D02*
X459183D01*
X447165Y500649D02*
X459148D01*
X454551Y503799D02*
X459043D01*
X455144Y504249D02*
X458821D01*
X456048Y505149D02*
X458793D01*
X455596Y504699D02*
X458753D01*
X450483Y510999D02*
X458495D01*
X449844Y510549D02*
X458045D01*
X448144Y510099D02*
X457595D01*
X448595Y509649D02*
X457145D01*
X448962Y509199D02*
X456695D01*
X370521Y525399D02*
X456432D01*
X409827Y522699D02*
X456258D01*
X409051Y524949D02*
X455874D01*
X410010Y523149D02*
X455805D01*
X409685Y524499D02*
X455632D01*
X410047Y523599D02*
X455603D01*
X409950Y524049D02*
X455551D01*
X450590Y483549D02*
X454608D01*
X449050Y508749D02*
X454484D01*
X450430Y483999D02*
X454158D01*
X449050Y508299D02*
X454020D01*
X450187Y484449D02*
X453708D01*
X449050Y507849D02*
X453570D01*
X449152Y507399D02*
X453116D01*
X446868Y496599D02*
X449032D01*
X439243Y513699D02*
X448958D01*
X442838Y493899D02*
X448858D01*
X438649Y510549D02*
X448756D01*
X447478Y481749D02*
X448722D01*
X446949Y496149D02*
X448474D01*
X442232Y494349D02*
X448405D01*
X438793Y513249D02*
X448382D01*
X446897Y495699D02*
X448232D01*
X446242Y494799D02*
X448203D01*
X446695Y495249D02*
X448151D01*
X438675Y510999D02*
X448117D01*
X446361Y478149D02*
X448008D01*
X437361Y519999D02*
X447986D01*
X438342Y512799D02*
X447972D01*
X447633Y482199D02*
X447932D01*
X438566Y511449D02*
X447851D01*
X437863Y512349D02*
X447790D01*
X438284Y511899D02*
X447753D01*
X438213Y519549D02*
X447662D01*
X445928Y478599D02*
X447602D01*
X438639Y518649D02*
X447530D01*
X438516Y519099D02*
X447527D01*
X444899Y479049D02*
X447423D01*
X444631Y479499D02*
X447340D01*
X446049Y507849D02*
X447150D01*
X445997Y507399D02*
X447150D01*
X446025Y508299D02*
X447130D01*
X445795Y506949D02*
X446905D01*
X445342Y506499D02*
X446455D01*
X430695Y506049D02*
X446005D01*
X431145Y505599D02*
X445555D01*
X431594Y505149D02*
X445105D01*
X438479Y510099D02*
X444956D01*
X440337Y497499D02*
X444732D01*
X431829Y504699D02*
X444655D01*
X443186Y492999D02*
X444641D01*
X437059Y494799D02*
X444558D01*
X438094Y509649D02*
X444505D01*
X422888Y475899D02*
X444433D01*
X431850Y504249D02*
X444205D01*
X443171Y492549D02*
X444191D01*
X440330Y497049D02*
X444174D01*
X436579Y495249D02*
X444105D01*
X440182Y496599D02*
X443932D01*
X433319Y495699D02*
X443903D01*
X439838Y496149D02*
X443851D01*
X422896Y476349D02*
X443843D01*
X434950Y509199D02*
X443832D01*
X431850Y503799D02*
X443755D01*
X430245Y506499D02*
X443658D01*
X429642Y476799D02*
X443592D01*
X430095Y477249D02*
X443440D01*
X432095Y503349D02*
X443305D01*
X434883Y508749D02*
X443274D01*
X430297Y477699D02*
X443233D01*
X429950Y506949D02*
X443205D01*
X434661Y508299D02*
X443032D01*
X429950Y507399D02*
X443003D01*
X434159Y507849D02*
X442951D01*
X430349Y478149D02*
X442902D01*
X430268Y478599D02*
X442459D01*
X430026Y479049D02*
X442016D01*
X429468Y479499D02*
X441573D01*
X427433Y479949D02*
X441130D01*
X440344Y494349D02*
X441044D01*
X427521Y480399D02*
X440687D01*
X428215Y480849D02*
X440244D01*
X435779Y481299D02*
X439801D01*
X436156Y481749D02*
X439357D01*
X436320Y482199D02*
X438914D01*
X437509Y494349D02*
X438878D01*
X436343Y482649D02*
X438471D01*
X437959Y493899D02*
X438360D01*
X432869Y496149D02*
X437762D01*
X433133Y498399D02*
X437707D01*
X433326Y498849D02*
X437580D01*
X432584Y496599D02*
X437418D01*
X433125Y497949D02*
X437392D01*
X432637Y497049D02*
X437270D01*
X432978Y497499D02*
X437263D01*
X430537Y519999D02*
X436837D01*
X431753Y512349D02*
X436291D01*
X434884Y509649D02*
X436168D01*
X434614Y517299D02*
X436083D01*
X434266Y519549D02*
X435985D01*
X432045Y511899D02*
X435978D01*
X434663Y510099D02*
X435783D01*
X434862Y517749D02*
X435728D01*
X432495Y511449D02*
X435696D01*
X434705Y519099D02*
X435682D01*
X434164Y510549D02*
X435613D01*
X433083Y510999D02*
X435587D01*
X434949Y518199D02*
X435573D01*
X434901Y518649D02*
X435559D01*
X428627Y481299D02*
X433821D01*
X428810Y481749D02*
X433444D01*
X428847Y482199D02*
X433280D01*
X428752Y482649D02*
X433257D01*
X429950Y507849D02*
X432641D01*
X430530Y519549D02*
X432534D01*
X422285Y517299D02*
X432186D01*
X429950Y508299D02*
X432139D01*
X430382Y519099D02*
X432095D01*
X427759Y517749D02*
X431938D01*
X429950Y508749D02*
X431917D01*
X430038Y518649D02*
X431899D01*
X428261Y518199D02*
X431851D01*
X430142Y509199D02*
X431751D01*
X430595Y509649D02*
X431540D01*
X430841Y510099D02*
X431156D01*
X426598Y521349D02*
X428936D01*
X427183Y479499D02*
X428132D01*
X422766Y476799D02*
X427958D01*
X426757Y520899D02*
X427907D01*
X426602Y479049D02*
X427574D01*
X422453Y477249D02*
X427505D01*
X406397Y478599D02*
X427332D01*
X421442Y477699D02*
X427303D01*
X406447Y478149D02*
X427251D01*
X422278Y517749D02*
X426241D01*
X422132Y518199D02*
X425739D01*
X422154Y516849D02*
X425570D01*
X421790Y518649D02*
X425517D01*
X406198Y479049D02*
X425340D01*
X414745Y481749D02*
X425084D01*
X421838Y516399D02*
X424928D01*
X396665Y519099D02*
X424899D01*
X405751Y479499D02*
X424759D01*
X414543Y481299D02*
X424665D01*
X403238Y479949D02*
X424509D01*
X418825Y515949D02*
X424478D01*
X414089Y480849D02*
X424469D01*
X402944Y480399D02*
X424423D01*
X403284Y521799D02*
X424237D01*
X396215Y519549D02*
X424106D01*
X418313Y515499D02*
X424028D01*
X403430Y521349D02*
X423870D01*
X402991Y519999D02*
X423810D01*
X403437Y520899D02*
X423711D01*
X403307Y520449D02*
X423693D01*
X421362Y515049D02*
X423578D01*
X421862Y514599D02*
X423128D01*
X422083Y514149D02*
X422678D01*
X406363Y477699D02*
X421275D01*
X370642Y474999D02*
X420321D01*
X406118Y477249D02*
X420264D01*
X382538Y475449D02*
X419976D01*
X405550Y476799D02*
X419950D01*
X415264Y515049D02*
X419838D01*
X382882Y475899D02*
X419829D01*
X383030Y476349D02*
X419821D01*
X397115Y518649D02*
X419706D01*
X419050Y516399D02*
X419658D01*
X418350Y518199D02*
X419364D01*
X416293Y514599D02*
X419338D01*
X418852Y517749D02*
X419156D01*
X416608Y514149D02*
X419117D01*
X416737Y513699D02*
X419050D01*
X416730Y513249D02*
X418939D01*
X416582Y512799D02*
X418255D01*
X416238Y512349D02*
X417805D01*
X410861Y511899D02*
X417355D01*
X410615Y511449D02*
X416905D01*
X409986Y515499D02*
X416827D01*
X410583Y518199D02*
X416790D01*
X411377Y510999D02*
X416455D01*
X410739Y515949D02*
X416315D01*
X410957Y517749D02*
X416301D01*
X411029Y516399D02*
X416090D01*
X411121Y517299D02*
X416084D01*
X411143Y516849D02*
X416020D01*
X405518Y515049D02*
X415136D01*
X411083Y512349D02*
X414162D01*
X408653Y514599D02*
X414107D01*
X411150Y512799D02*
X413818D01*
X410364Y514149D02*
X413792D01*
X411084Y513249D02*
X413670D01*
X410863Y513699D02*
X413663D01*
X406057Y480849D02*
X412407D01*
X406505Y481299D02*
X411953D01*
X406670Y482649D02*
X411778D01*
X406704Y481749D02*
X411751D01*
X406754Y482199D02*
X411699D01*
X400945Y515499D02*
X409214D01*
X397553Y518199D02*
X408617D01*
X400495Y515949D02*
X408461D01*
X397741Y517749D02*
X408243D01*
X399908Y516399D02*
X408171D01*
X397750Y517299D02*
X408079D01*
X397750Y516849D02*
X408057D01*
X406425Y483099D02*
X407990D01*
X377991Y524949D02*
X407949D01*
X402941Y522249D02*
X407585D01*
X405858Y483549D02*
X407508D01*
X378347Y524499D02*
X407315D01*
X378087Y522699D02*
X407173D01*
X402589Y483999D02*
X407058D01*
X378501Y524049D02*
X407050D01*
X378391Y523149D02*
X406990D01*
X378515Y523599D02*
X406953D01*
X402296Y484449D02*
X406608D01*
X405928Y514599D02*
X406573D01*
X402761Y484899D02*
X406158D01*
X402983Y485349D02*
X405708D01*
X403050Y485799D02*
X405258D01*
X402984Y486249D02*
X404808D01*
X403155Y483549D02*
X404551D01*
X402763Y486699D02*
X404358D01*
X402406Y480849D02*
X404352D01*
X383037Y476799D02*
X404245D01*
X403354Y479499D02*
X404044D01*
X403399Y483099D02*
X403984D01*
X402264Y487149D02*
X403908D01*
X402784Y481299D02*
X403905D01*
X403232Y481749D02*
X403704D01*
X401395Y515049D02*
X403682D01*
X382908Y477249D02*
X403678D01*
X394459Y487599D02*
X403458D01*
X382593Y477699D02*
X403433D01*
X402804Y478149D02*
X403343D01*
X401845Y514599D02*
X403272D01*
X402295Y514149D02*
X403090D01*
X394939Y488049D02*
X403008D01*
X395229Y488499D02*
X402558D01*
X395343Y488949D02*
X402108D01*
X395321Y489399D02*
X401664D01*
X395157Y489849D02*
X401462D01*
X393561Y492099D02*
X401450D01*
X393059Y491649D02*
X401450D01*
X391161Y491199D02*
X401450D01*
X390792Y490749D02*
X401450D01*
X394783Y490299D02*
X401450D01*
X393783Y492549D02*
X401447D01*
X370583Y480849D02*
X401308D01*
X395234Y483999D02*
X401166D01*
X370391Y481299D02*
X401083D01*
X390691Y522249D02*
X400859D01*
X381564Y478149D02*
X400821D01*
X395773Y519999D02*
X400809D01*
X398915Y484449D02*
X400741D01*
X398551Y487149D02*
X400736D01*
X395387Y483549D02*
X400712D01*
X399095Y496149D02*
X400681D01*
X370670Y480399D02*
X400680D01*
X394087Y481749D02*
X400634D01*
X394793Y521799D02*
X400516D01*
X395559Y520449D02*
X400493D01*
X395399Y483099D02*
X400467D01*
X370485Y478599D02*
X400451D01*
X394969Y482199D02*
X400434D01*
X370664Y479949D02*
X400387D01*
X395275Y482649D02*
X400384D01*
X395192Y521349D02*
X400370D01*
X395369Y520899D02*
X400363D01*
X398642Y495699D02*
X400332D01*
X370361Y479049D02*
X400290D01*
X370565Y479499D02*
X400270D01*
X399297Y496599D02*
X400242D01*
X399327Y484899D02*
X400239D01*
X399185Y486699D02*
X400237D01*
X393850Y492999D02*
X400158D01*
X399510Y485349D02*
X400017D01*
X399450Y486249D02*
X400016D01*
X399403Y497049D02*
X399792D01*
X391657Y495249D02*
X399774D01*
X393784Y493449D02*
X399705D01*
X391821Y494799D02*
X399532D01*
X393563Y493899D02*
X399503D01*
X393064Y494349D02*
X399451D01*
X394697Y487149D02*
X397449D01*
X394880Y484449D02*
X397085D01*
X391283Y495699D02*
X396958D01*
X394898Y486699D02*
X396815D01*
X394326Y484899D02*
X396673D01*
X394949Y486249D02*
X396550D01*
X390581Y496149D02*
X396505D01*
X394624Y485349D02*
X396490D01*
X394867Y485799D02*
X396453D01*
X390901Y497949D02*
X396397D01*
X390901Y497499D02*
X396332D01*
X390786Y496599D02*
X396303D01*
X390901Y497049D02*
X396251D01*
X390684Y513699D02*
X396050D01*
X390743Y513249D02*
X396050D01*
X390743Y512799D02*
X396050D01*
X390743Y512349D02*
X396050D01*
X390743Y511899D02*
X396050D01*
X390743Y511449D02*
X396050D01*
X392054Y510999D02*
X396050D01*
X390357Y514149D02*
X396046D01*
X392533Y510549D02*
X395917D01*
X389907Y514599D02*
X395658D01*
X390901Y498399D02*
X395579D01*
X392748Y510099D02*
X395467D01*
X394959Y515049D02*
X395192D01*
X390901Y498849D02*
X395129D01*
X393818Y509649D02*
X395017D01*
X390901Y499299D02*
X394679D01*
X394242Y509199D02*
X394566D01*
X390901Y499749D02*
X394229D01*
X393186Y500199D02*
X393779D01*
X370056Y481749D02*
X393633D01*
X389457Y515049D02*
X393441D01*
X388957Y515499D02*
X392939D01*
X391136Y521799D02*
X392917D01*
X382111Y517299D02*
X392916D01*
X387295Y484449D02*
X392840D01*
X390342Y490299D02*
X392817D01*
X369809Y482199D02*
X392751D01*
X387497Y484899D02*
X392738D01*
X383330Y515949D02*
X392717D01*
X382841Y516849D02*
X392716D01*
X383184Y516399D02*
X392650D01*
X391334Y521349D02*
X392518D01*
X386842Y483999D02*
X392486D01*
X382708Y482649D02*
X392445D01*
X390052Y489849D02*
X392443D01*
X390901Y500199D02*
X392414D01*
X391511Y520899D02*
X392341D01*
X383227Y483549D02*
X392333D01*
X383070Y483099D02*
X392321D01*
X391722Y520449D02*
X392309D01*
X391644Y489399D02*
X392279D01*
X387549Y485349D02*
X392176D01*
X387468Y485799D02*
X391933D01*
X387226Y486249D02*
X391775D01*
X382310Y517749D02*
X391731D01*
X390983Y500649D02*
X391661D01*
X386668Y486699D02*
X391563D01*
X382596Y518199D02*
X391249D01*
X382715Y487149D02*
X391208D01*
X382707Y518649D02*
X390799D01*
X370704Y487599D02*
X390758D01*
X382683Y519099D02*
X390278D01*
X382517Y519549D02*
X389187D01*
X377226Y522249D02*
X388977D01*
X382137Y519999D02*
X388616D01*
X370686Y521799D02*
X388532D01*
X370525Y520449D02*
X388370D01*
X370578Y521349D02*
X388334D01*
X370372Y520899D02*
X388285D01*
X370604Y511899D02*
X388011D01*
X370438Y511449D02*
X388011D01*
X370668Y512349D02*
X388011D01*
X385396Y510999D02*
X387985D01*
X383945Y506499D02*
X385436D01*
X383102Y486699D02*
X385332D01*
X383780Y506949D02*
X385217D01*
X383967Y506049D02*
X385184D01*
X383243Y483999D02*
X385158D01*
X383404Y507399D02*
X385150D01*
X373162Y507849D02*
X385128D01*
X370657Y488049D02*
X384884D01*
X383272Y486249D02*
X384774D01*
X383942Y505599D02*
X384734D01*
X383122Y484449D02*
X384705D01*
X374993Y501099D02*
X384612D01*
X370451Y510999D02*
X384604D01*
X383299Y485799D02*
X384532D01*
X382944Y484899D02*
X384503D01*
X383191Y485349D02*
X384451D01*
X370514Y488499D02*
X384434D01*
X375308Y500649D02*
X384350D01*
X375437Y500199D02*
X384253D01*
X372691Y508299D02*
X384021D01*
X375430Y499749D02*
X383936D01*
X370621Y510549D02*
X383859D01*
X370354Y508749D02*
X383644D01*
X370645Y492099D02*
X383626D01*
X370693Y492549D02*
X383626D01*
X370649Y492999D02*
X383625D01*
X370508Y493449D02*
X383625D01*
X370743Y494799D02*
X383625D01*
X370647Y494349D02*
X383625D01*
X370444Y493899D02*
X383625D01*
X370689Y510099D02*
X383570D01*
X370544Y509199D02*
X383480D01*
X370664Y509649D02*
X383457D01*
X375282Y499299D02*
X383437D01*
X382050Y495249D02*
X383402D01*
X374938Y498849D02*
X383216D01*
X370518Y498399D02*
X383117D01*
X373964Y501549D02*
X382592D01*
X370500Y491649D02*
X382349D01*
X382179Y497949D02*
X382327D01*
X370640Y501999D02*
X382182D01*
X370695Y502449D02*
X382001D01*
X370387Y488949D02*
X381985D01*
X370427Y491199D02*
X381715D01*
X370593Y489399D02*
X381573D01*
X370616Y490749D02*
X381450D01*
X373372Y507399D02*
X381444D01*
X370611Y478149D02*
X381436D01*
X370694Y489849D02*
X381390D01*
X370701Y490299D02*
X381353D01*
X370640Y512799D02*
X381279D01*
X370660Y502899D02*
X381216D01*
X374147Y506949D02*
X381068D01*
X374764Y505599D02*
X380995D01*
X374551Y506499D02*
X380903D01*
X374730Y506049D02*
X380881D01*
X374664Y505149D02*
X380832D01*
X370658Y487149D02*
X380795D01*
X370528Y503349D02*
X380763D01*
X369809Y482649D02*
X380696D01*
X370746Y495249D02*
X380648D01*
X370517Y513249D02*
X380624D01*
X374394Y504699D02*
X380590D01*
X370380Y503799D02*
X380561D01*
X370653Y497949D02*
X380533D01*
X370675Y484899D02*
X380518D01*
X373740Y504249D02*
X380509D01*
X370649Y475449D02*
X380462D01*
X370516Y486699D02*
X380408D01*
X370641Y477699D02*
X380407D01*
X369809Y483099D02*
X380334D01*
X370691Y485349D02*
X380318D01*
X370564Y484449D02*
X380282D01*
X370437Y486249D02*
X380237D01*
X370615Y485799D02*
X380210D01*
X370662Y519999D02*
X380191D01*
X369963Y483549D02*
X380177D01*
X370350Y513699D02*
X380174D01*
X370343Y483999D02*
X380161D01*
X370563Y475899D02*
X380118D01*
X370656Y495699D02*
X380111D01*
X370579Y477249D02*
X380092D01*
X370692Y497499D02*
X380065D01*
X370372Y476349D02*
X379970D01*
X370418Y476799D02*
X379963D01*
X370462Y496149D02*
X379876D01*
X370638Y497049D02*
X379856D01*
X370702Y519549D02*
X379811D01*
X370486Y496599D02*
X379799D01*
X370531Y514149D02*
X379724D01*
X370650Y519099D02*
X379645D01*
X370500Y518649D02*
X379621D01*
X370227Y518199D02*
X379340D01*
X370623Y514599D02*
X379304D01*
X369822Y517749D02*
X379158D01*
X370622Y515049D02*
X379152D01*
X369809Y517299D02*
X379150D01*
X369809Y516849D02*
X379150D01*
X369970Y516399D02*
X379150D01*
X370323Y515949D02*
X379150D01*
X370526Y515499D02*
X379150D01*
X370699Y522249D02*
X376724D01*
X370642Y524949D02*
X375959D01*
X370621Y522699D02*
X375863D01*
X370667Y524499D02*
X375603D01*
X370439Y523149D02*
X375559D01*
X370601Y524049D02*
X375449D01*
X370434Y523599D02*
X375435D01*
X372064Y501549D02*
X373836D01*
X370586Y504249D02*
X372696D01*
X370692Y504699D02*
X372042D01*
X370485Y501549D02*
X371936D01*
X370705Y505149D02*
X371772D01*
X370710Y505599D02*
X371173D01*
X370547Y508299D02*
X371069D01*
X370360Y498849D02*
X370962D01*
X370440Y501099D02*
X370907D01*
G54D37*
X339533Y420593D02*
X453233D01*
X569533Y408293D02*
X339533D01*
Y433293D02*
X569533D01*
X480233D02*
Y395793D01*
X454533Y433293D02*
Y395793D01*
X569533Y445793D02*
Y383293D01*
X339533*
Y445793*
X569533*
Y395793D02*
X339533D01*
X381533Y433293D02*
Y408293D01*
G54D86*
X392451Y499049D02*
X391900Y500000D01*
X392349Y499151*
X391500Y499600*
X392451Y499049*
X392451*
X391980Y499849D02*
X391988D01*
X391500Y499600D02*
X391500D01*
X392300Y499136D02*
Y499177D01*
Y499243D02*
Y499310D01*
X440051Y506549D02*
X439500Y507500D01*
X439949Y506651*
X439100Y507100*
X440051Y506549*
X439659Y507200D02*
X439674D01*
X439100Y507100D02*
X439100D01*
X439900Y506636D02*
Y506677D01*
Y506743D02*
Y506810D01*
X445749Y506549D02*
X446700Y507100D01*
X445851Y506651*
X446300Y507500*
X445749Y506549*
X446126Y507200D02*
X446141D01*
X445749Y506549D02*
X445749D01*
X446549Y507012D02*
Y507020D01*
X394400Y494000D02*
X393300Y495100D01*
Y498200*
X391500Y500000*
X394400Y494000D02*
X398000D01*
X398100Y494100*
Y494300*
X437543Y495300D02*
X439900D01*
X442300Y497700*
X447600*
X448000Y498100*
X439100Y507500D02*
X440900Y505700D01*
X444900*
X446700Y507500*
X409300Y514900D02*
X408500D01*
X407900Y515500*
X401700*
X399500Y517700*
X399000*
G54D95*
X500000Y528740D02*
X500003D01*
X370079D02*
X370081D01*
X499987Y500022D02*
X499990D01*
X316813Y499841D02*
X316815D01*
G54D104*
X422800Y486500D03*
G54D164*
X402500Y474300D03*
X377200Y474700D03*
X381755Y485932D03*
X381702Y483828D03*
X396800Y482200D03*
X398000Y485700D03*
X393400Y486300D03*
X386000Y485300D03*
X382900Y490200D03*
X387000Y491300D03*
X388600Y493000D03*
X398100Y494300D03*
X386100Y478600D03*
X393900Y474900D03*
X393800Y489100D03*
X393860Y483282D03*
X381500Y476600D03*
X392300Y493000D03*
X412600Y486300D03*
X416900Y479000D03*
X401933Y482594D03*
X404800Y494100D03*
X405600Y490200D03*
X401000Y494300D03*
X412500Y494100D03*
X415800D03*
X401812Y479340D03*
X411500Y481000D03*
X413248Y482151D03*
X405205Y482143D03*
X404898Y478205D03*
X401500Y485800D03*
X410300Y494200D03*
X418000D03*
X406800Y494100D03*
X409700Y486200D03*
X414800Y486400D03*
X421358Y476151D03*
X428800Y478100D03*
X439611Y492983D03*
X433200Y489100D03*
X424978Y486664D03*
X422800Y481600D03*
X428800Y486100D03*
X425300Y489600D03*
X425971Y480465D03*
X423171Y474692D03*
X432000Y482400D03*
X437200Y491100D03*
X429300D03*
X427300Y482100D03*
X421206Y494442D03*
X434800Y482500D03*
X449650Y481299D03*
X446004Y482273D03*
X443950Y482243D03*
X449067Y483260D03*
X445000Y489200D03*
X441638Y492917D03*
X449700Y493200D03*
X446169Y490959D03*
X456290Y477102D03*
X441058Y489151D03*
X448219Y491461D03*
X448934Y479391D03*
X445051Y477320D03*
X476012Y486678D03*
X462500Y491200D03*
X476448Y488816D03*
X478963Y486552D03*
X475000Y478700D03*
X472900Y478800D03*
X468700Y487300D03*
X465954Y490969D03*
X477100Y478600D03*
X471189Y491922D03*
X463200Y488100D03*
X464252Y492541D03*
X474219Y476265D03*
X460813Y492586D03*
X477696Y490413D03*
X470700Y478800D03*
X468852Y481361D03*
X479500Y480500D03*
X473052Y491891D03*
X465200Y488100D03*
X480366Y488093D03*
X480400Y478500D03*
X483600Y487300D03*
X497800Y493500D03*
Y491200D03*
X496800Y477600D03*
X492800Y492900D03*
X490300Y482800D03*
X492900Y487100D03*
X491900Y491000D03*
X492900Y489200D03*
X481900Y481300D03*
X374231Y511922D03*
X371880Y506978D03*
X373218Y505708D03*
X373900Y500000D03*
X372000D03*
X386700Y507400D03*
X383511Y502797D03*
X386365Y503317D03*
X398400Y502100D03*
X383400Y496800D03*
X392900Y508400D03*
X392800Y501700D03*
X391257Y509669D03*
X387200Y509400D03*
X382058Y504200D03*
X397800Y497000D03*
X381800Y498900D03*
X381349Y496631D03*
X382424Y506198D03*
X385800Y500100D03*
X385000Y509500D03*
X398900Y513800D03*
X398300Y507000D03*
X395800Y501800D03*
X384700Y498400D03*
X390300Y494500D03*
X391500Y500000D03*
X412400Y505900D03*
X415500Y505800D03*
X410300Y509800D03*
X409600Y512800D03*
X400700Y505900D03*
X404600Y513800D03*
X417500Y506900D03*
X400500Y501700D03*
X405658Y506781D03*
X402800Y505900D03*
X405700Y502900D03*
X417973Y499043D03*
X409581Y504953D03*
X417500Y504900D03*
X409600Y497200D03*
X417800Y514200D03*
X407613Y513449D03*
X415200Y513500D03*
X437131Y510863D03*
X433400Y509200D03*
X424299Y509835D03*
X429300Y510500D03*
X431596Y498201D03*
X420749Y509925D03*
X429400Y502800D03*
X425216Y505796D03*
X421420Y504841D03*
X429500Y498300D03*
X426400D03*
X437543Y495300D03*
X439100Y507500D03*
X433000Y507200D03*
X424000Y498300D03*
X421396Y506938D03*
X420900Y497700D03*
X438800Y497300D03*
X420600Y513699D03*
X446700Y507500D03*
X444500Y507800D03*
X449300Y512000D03*
X449700Y495200D03*
X448000Y498100D03*
X445400Y496100D03*
X471899Y502517D03*
X461427Y497756D03*
X462383Y504814D03*
X470596Y500226D03*
X470600Y505900D03*
X462613Y499552D03*
X469800Y507900D03*
X460303Y504701D03*
X460694Y500756D03*
X467500Y507900D03*
X464211Y503768D03*
X476856Y501190D03*
X477100Y505200D03*
X476589Y496630D03*
X476908Y499062D03*
X478327Y496780D03*
X462709Y501709D03*
X460600Y508800D03*
X463916Y497799D03*
X466121Y499457D03*
X463000Y508600D03*
X481000Y500300D03*
X498000Y504100D03*
X497200Y513600D03*
X493200Y506700D03*
X490900Y505000D03*
X480100Y508200D03*
X491700Y494900D03*
X491000Y497000D03*
X497600Y496100D03*
X376975Y523778D03*
X399000Y517700D03*
X381800Y515700D03*
X382000Y521100D03*
X389834Y520957D03*
X393855Y520565D03*
X381164Y518792D03*
X389000Y525600D03*
X394200Y516400D03*
X409300Y514900D03*
X417570Y516859D03*
X408500Y523500D03*
X409600Y517000D03*
X401900Y521100D03*
X414000Y525400D03*
X430210Y517675D03*
X420748Y517501D03*
X425234Y520612D03*
X427000Y519100D03*
X429000Y519800D03*
X422841Y517463D03*
X433400Y518263D03*
X437099Y518471D03*
X454000Y525400D03*
X457100Y524000D03*
X449062Y518883D03*
X445000Y525200D03*
X456300Y518800D03*
X449600Y524000D03*
X479300Y519700D03*
X478600Y517800D03*
X476500Y518000D03*
X472800Y525200D03*
X469200Y518800D03*
X478800Y524800D03*
X481100Y518600D03*
X495800Y525600D03*
X494400Y519200D03*
X480600Y524800D03*
G54D213*
X392269Y487431D02*
X392800Y486300D01*
X392693Y487007*
X393400Y486900*
X392269Y487431*
X392800Y486300D02*
X392800D01*
X392612Y486700D02*
X392739D01*
X392424Y487100D02*
X392974D01*
X392269Y487431D02*
X392269D01*
X392669Y486580D02*
Y487244D01*
X393069Y486950D02*
Y487056D01*
X387000Y492900D02*
X386576Y491724D01*
X387000Y492300*
X387424Y491724*
X387000Y492900*
X386576Y491724D02*
X386576D01*
X387424D02*
X387424D01*
X386720Y492124D02*
X386871D01*
X387129D02*
X387280D01*
X386864Y492524D02*
X387136D01*
X386576Y491724D02*
X386576D01*
X386976Y492267D02*
Y492833D01*
X387376Y491790D02*
Y491859D01*
X390965Y519826D02*
X390434Y520957D01*
X390541Y520250*
X389834Y520357*
X390965Y519826*
X390594Y520000D02*
X390883D01*
X390518Y520400D02*
X390696D01*
X390458Y520800D02*
X390508D01*
X389834Y520357D02*
X389834D01*
X390234Y520169D02*
Y520296D01*
X390634Y519981D02*
Y520531D01*
X390300Y492900D02*
X390724Y494076D01*
X390300Y493500*
X389876Y494076*
X390300Y492900*
X390300*
X390156Y493300D02*
X390444D01*
X390011Y493700D02*
X390153D01*
X390447D02*
X390589D01*
X389876Y494076D02*
X389876D01*
X390276Y492967D02*
Y493533D01*
X390676Y493941D02*
Y494010D01*
X410300Y493200D02*
X410565Y493662D01*
X410300Y493200*
X410035Y493662*
X410300Y493200*
X410300*
X410300*
X410070Y493600D02*
X410070D01*
X410530D02*
X410530D01*
X410035Y493662D02*
X410035D01*
X410435Y493434D02*
X410435D01*
X406476Y489324D02*
X406197Y490144D01*
X406307Y489493*
X405656Y489603*
X406476Y489324*
X406476*
X406268Y489724D02*
X406340D01*
X406201Y490124D02*
X406204D01*
X405656Y489603D02*
X405656D01*
X406056Y489467D02*
Y489535D01*
X406456Y489331D02*
Y489383D01*
X426900Y489600D02*
X425724Y490024D01*
X426300Y489600*
X425724Y489176*
X426900Y489600*
X425724Y489176D02*
X425724D01*
X426267Y489576D02*
X426833D01*
X425790Y489976D02*
X425859D01*
X425724Y489176D02*
X425724D01*
Y490024D02*
X425724D01*
X426124Y489320D02*
Y489471D01*
Y489729D02*
Y489880D01*
X426524Y489464D02*
Y489736D01*
X439927Y488020D02*
X441058Y488551D01*
X440351Y488444*
X440458Y489151*
X439927Y488020*
X439927*
X440114Y488420D02*
X440778D01*
X440302Y488820D02*
X440408D01*
X439927Y488020D02*
X439927D01*
X440327Y488207D02*
Y488871D01*
X440727Y488395D02*
Y488501D01*
X442189Y488020D02*
X441658Y489151D01*
X441765Y488444*
X441058Y488551*
X442189Y488020*
X442189*
X441338Y488420D02*
X442002D01*
X441708Y488820D02*
X441814D01*
X441058Y488551D02*
X441058D01*
X441458Y488363D02*
Y488490D01*
X441858Y488175D02*
Y488725D01*
X448194Y480132D02*
X448358Y479557D01*
X448227Y480098*
X448768Y479968*
X448194Y480132*
X448358Y479557D02*
X448358D01*
X448244Y479957D02*
X448261D01*
X448194Y480132D02*
X448194D01*
X448594Y480010D02*
Y480017D01*
X396931Y500669D02*
X396400Y501800D01*
X396507Y501093*
X395800Y501200*
X396931Y500669*
X396652Y500800D02*
X396870D01*
X395800Y501200D02*
X395800D01*
X396491D02*
X396682D01*
X396430Y501600D02*
X396494D01*
X395800Y501200D02*
X395800D01*
X396200Y501012D02*
Y501139D01*
X396600Y500824D02*
Y501374D01*
X443929Y478460D02*
X444451Y477325D01*
X444350Y478033*
X445056Y477920*
X443929Y478460*
X444451Y477325D02*
X444451D01*
X444267Y477725D02*
X444394D01*
X444083Y478125D02*
X444629D01*
X443929Y478460D02*
X443929D01*
X444329Y477591D02*
Y478269D01*
X444729Y477972D02*
Y478077D01*
X467085Y489837D02*
X466554Y490969D01*
X466661Y490261*
X465954Y490369*
X467085Y489837*
X467085*
X466234Y490237D02*
X466898D01*
X466604Y490637D02*
X466710D01*
X465954Y490369D02*
X465954D01*
X466354Y490181D02*
Y490308D01*
X466754Y489993D02*
Y490543D01*
X446131Y488069D02*
X445600Y489200D01*
X445707Y488493*
X445000Y488600*
X446131Y488069*
X446131*
X445280Y488469D02*
X445944D01*
X445650Y488869D02*
X445756D01*
X445000Y488600D02*
X445000D01*
X445400Y488412D02*
Y488539D01*
X445800Y488224D02*
Y488774D01*
X475000Y480300D02*
X474576Y479124D01*
X475000Y479700*
X475424Y479124*
X475000Y480300*
X474576Y479124D02*
X474576D01*
X475424D02*
X475424D01*
X474720Y479524D02*
X474871D01*
X475129D02*
X475280D01*
X474864Y479924D02*
X475136D01*
X474576Y479124D02*
X474576D01*
X474976Y479667D02*
Y480233D01*
X475376Y479190D02*
Y479259D01*
X478369Y481631D02*
X478900Y480500D01*
X478793Y481207*
X479500Y481100*
X478369Y481631*
X478900Y480500D02*
X478900D01*
X478712Y480900D02*
X478839D01*
X478524Y481300D02*
X479074D01*
X478369Y481631D02*
X478369D01*
X478769Y480780D02*
Y481444D01*
X479169Y481150D02*
Y481256D01*
X400031Y512669D02*
X399500Y513800D01*
X399607Y513093*
X398900Y513200*
X400031Y512669*
X399752Y512800D02*
X399970D01*
X398900Y513200D02*
X398900D01*
X399591D02*
X399782D01*
X399530Y513600D02*
X399594D01*
X398900Y513200D02*
X398900D01*
X399300Y513012D02*
Y513139D01*
X399700Y512824D02*
Y513374D01*
X394986Y519434D02*
X394455Y520565D01*
X394562Y519858*
X393855Y519965*
X394986Y519434*
X394632Y519600D02*
X394908D01*
X394541Y520000D02*
X394720D01*
X394480Y520400D02*
X394532D01*
X393855Y519965D02*
X393855D01*
X394255Y519777D02*
Y519904D01*
X394655Y519589D02*
Y520139D01*
X414369Y504669D02*
X415500Y505200D01*
X414793Y505093*
X414900Y505800*
X414369Y504669*
X414430Y504800D02*
X414648D01*
X414618Y505200D02*
X414809D01*
X415500D02*
X415500D01*
X414806Y505600D02*
X414870D01*
X414369Y504669D02*
X414369D01*
X414769Y504856D02*
Y505520D01*
X415169Y505044D02*
Y505150D01*
X411900Y509800D02*
X410724Y510224D01*
X411300Y509800*
X410724Y509376*
X411900Y509800*
X411029Y509600D02*
X411346D01*
X411029Y510000D02*
X411346D01*
X410724Y509376D02*
X410724D01*
Y510224D02*
X410724D01*
X411124Y509520D02*
Y509671D01*
Y509929D02*
Y510080D01*
X411524Y509664D02*
Y509936D01*
X477700Y519700D02*
X478876Y519276D01*
X478300Y519700*
X478876Y520124*
X477700Y519700*
X477977Y519600D02*
X478436D01*
X478531Y520000D02*
X478707D01*
X477700Y519700D02*
X477700D01*
X478100Y519556D02*
Y519844D01*
X478500Y519411D02*
Y519553D01*
Y519847D02*
Y519989D01*
X405700Y504100D02*
X405335Y503376D01*
X405700Y503900*
X406065Y503376*
X405700Y504100*
X405448Y503600D02*
X405491D01*
X405909D02*
X405952D01*
X405650Y504000D02*
X405750D01*
X405335Y503376D02*
X405335D01*
X405735Y503850D02*
Y504031D01*
X419104Y500174D02*
X417973Y499643D01*
X418680Y499750*
X418573Y499043*
X419104Y500174*
X418573Y499043D02*
X418573D01*
X418634Y499443D02*
X418761D01*
X418399Y499843D02*
X418949D01*
X417973Y499643D02*
X417973D01*
X418373Y499704D02*
Y499831D01*
X418773Y499469D02*
Y500019D01*
X475524Y517024D02*
X476500Y517400D01*
X475793Y517293*
X475900Y518000*
X475524Y517024*
X475592Y517200D02*
X475981D01*
X475746Y517600D02*
X475839D01*
X475900Y518000D02*
X475900D01*
X475524Y517024D02*
X475524D01*
X475924Y517178D02*
Y517313D01*
X476324Y517332D02*
Y517373D01*
X418600Y504900D02*
X418010Y505217D01*
X418500Y504900*
X418010Y504583*
X418600Y504900*
X418345Y504800D02*
X418414D01*
X418036Y505200D02*
X418041D01*
X418010Y504583D02*
X418010D01*
Y505217D02*
X418010D01*
X418410Y504798D02*
Y504842D01*
Y504958D02*
Y505002D01*
X432269Y510331D02*
X432800Y509200D01*
X432693Y509907*
X433400Y509800*
X432269Y510331*
X432800Y509200D02*
X432800D01*
X432612Y509600D02*
X432739D01*
X432424Y510000D02*
X432974D01*
X432269Y510331D02*
X432269D01*
X432669Y509480D02*
Y510144D01*
X433069Y509850D02*
Y509956D01*
X421805Y509925D02*
X421272Y510220D01*
X421749Y509925*
X421272Y509630*
X421805Y509925*
X421627Y510000D02*
X421669D01*
X421272Y509630D02*
X421272D01*
Y510220D02*
X421272D01*
X421672Y509851D02*
Y509877D01*
Y509973D02*
Y509999D01*
X477530Y516611D02*
X478632Y517201D01*
X477931Y517057*
X478001Y517768*
X477530Y516611*
X477607Y516800D02*
X477883D01*
X477769Y517200D02*
X477945D01*
X478628D02*
X478630D01*
X477932Y517600D02*
X477984D01*
X477530Y516611D02*
X477530D01*
X477930Y516825D02*
Y517594D01*
X478330Y517039D02*
Y517139D01*
X468669Y506769D02*
X469800Y507300D01*
X469093Y507193*
X469200Y507900*
X468669Y506769*
X468683Y506800D02*
X468735D01*
X468871Y507200D02*
X469094D01*
X469140D02*
X469587D01*
X469059Y507600D02*
X469155D01*
X468669Y506769D02*
X468669D01*
X469069Y506956D02*
Y507620D01*
X469469Y507144D02*
Y507250D01*
X466369Y509031D02*
X466900Y507900D01*
X466793Y508607*
X467500Y508500*
X466369Y509031*
X466853Y508000D02*
X466885D01*
X466665Y508400D02*
X466824D01*
X466477Y508800D02*
X466861D01*
X466369Y509031D02*
X466369D01*
X466769Y508180D02*
Y508844D01*
X467169Y508550D02*
Y508656D01*
X393400Y486300D02*
X391000Y488700D01*
X385576*
X384576Y489700*
Y492000*
X384575Y493470*
Y495300*
X387230Y497955*
Y498025*
X387241Y501661*
Y502000*
X392900Y507659*
Y508400*
X387000Y491300D02*
Y495300D01*
X389053Y497353*
Y501209*
X397472Y509628*
X403530*
X388600Y493000D02*
X388000Y493600D01*
Y495100*
X389950Y497050*
X389950D02*
Y500975D01*
X389950D02*
X389965D01*
X389965D02*
X397645Y508655D01*
X387100Y489500D02*
X386233D01*
X385433Y490300*
Y494933*
X388100Y497600*
X388100D02*
Y501388D01*
X388100D02*
X397000Y510288D01*
Y514600*
X395700Y515900*
Y517500*
X394650Y518550*
X392241*
X389834Y520957*
X387100Y489500D02*
X388200D01*
X390300Y491600*
Y494500*
X411100Y492300D02*
X410600D01*
X410300Y492600*
Y494200*
X411100Y492300D02*
X418500D01*
X419465Y493265*
Y498565*
X420700Y499800*
X444973*
X449832Y504659*
Y504700*
X454251*
X454319Y504768*
X455858Y506300*
X464325*
X412600Y486300D02*
X412700D01*
X412750Y486350*
Y487250*
X413600Y488100*
X426517*
X427094Y488677*
X413248Y482151D02*
X414197Y483100D01*
X426300*
X405600Y490200D02*
X406900Y488900D01*
X422500*
X426200Y492600*
X430768*
X418000Y494200D02*
Y495600D01*
X416306Y497294*
Y499894*
X416456Y500044*
X434900Y487490D02*
X436794D01*
X439910Y490606*
X445504*
X445917Y490958*
X445972*
X446041Y491025*
X434900Y487490D02*
Y489700D01*
X431200Y493400*
X434900Y487490D02*
X432500D01*
X430390Y489600*
X425300*
X422100Y489700D02*
X408300D01*
X404800Y493200*
Y494100*
X422100Y489700D02*
X422450Y490050D01*
X422450*
X425800Y493400*
X431200*
X439118Y491414D02*
X444400D01*
X445431Y492445*
X445496*
X445501Y492450*
X439118Y491414D02*
X439100D01*
X436063Y494451*
X433223*
X431634Y496041*
X431634D02*
Y498163D01*
X431634D02*
X431596Y498201D01*
X433200Y489100D02*
Y490168D01*
X430768Y492600*
X424978Y486664D02*
X426466D01*
X427636Y487834*
X429224*
X427300Y482100D02*
X426300Y483100D01*
X438407Y486500D02*
X432050D01*
X429873Y488677*
X427094*
X438407Y486500D02*
X441058Y489151D01*
X446041Y491064D02*
X445819Y491247D01*
X446063Y491046D02*
X446041Y491025D01*
X445819Y491247*
X446063Y491046D02*
X446041Y491064D01*
X441058Y489151D02*
X443611Y486598D01*
X443611D02*
X454398D01*
X454398D02*
X454400Y486600D01*
X446169Y490959D02*
X446063Y491046D01*
X448219Y491461D02*
X448218D01*
X447229Y492450*
X445501*
X448934Y479391D02*
X447770Y480556D01*
X443337*
X443308Y480585*
X439207Y484700*
X408900*
X403200Y490400*
Y496300*
X399700Y499800*
X397800*
X395800Y501800*
X445051Y477320D02*
X438572Y483900D01*
X408500*
X402400Y490000*
Y495784*
X399184Y499000*
X396321*
X394261Y501061*
Y502561*
X395200Y503500*
X466360Y486523D02*
X457077D01*
X455100Y488500*
X448566*
X446041Y491025*
X466360Y486523D02*
X467923D01*
X468700Y487300*
X478022Y484404D02*
X478963Y485345D01*
Y486552*
X478022Y484404D02*
X478019Y484407D01*
X474107*
X469442Y489072*
X467850*
X465954Y490969*
X477797Y483600D02*
X473512D01*
X473512D02*
X472849Y484264D01*
X472849*
X471391Y485722*
X471071*
X471071*
X456628*
X454950Y487400*
X446800*
X445000Y489200*
X477797Y483600D02*
X479413D01*
X480457Y484643*
Y488003*
X480366Y488093*
X475000Y478700D02*
Y481200D01*
X474300Y481900*
X472868*
X470647Y484121*
X455379*
X453872Y485628*
X431430*
X431430D02*
X429224Y487834D01*
X479500Y480500D02*
X477200Y482800D01*
X473100*
X470979Y484921*
X456079*
X454400Y486600*
X386365Y503317D02*
X386410D01*
X389793Y506700*
Y513369*
X389793D02*
X388493Y514669D01*
X388493D02*
X382831D01*
X382831D02*
X381800Y515700D01*
X398400Y502100D02*
X398250Y502250D01*
Y502750*
X397500Y503500*
X395200*
X392800Y501700D02*
Y502400D01*
X394800Y504400*
X382058Y504200D02*
X382379Y504521D01*
X385000*
X385842Y505363*
X386937*
X388961Y507387*
X388961D02*
Y512843D01*
X388961D02*
X388080Y513724D01*
X388080D02*
X381492D01*
X381492D02*
X380100Y515116D01*
X380100D02*
Y517628D01*
X381164Y518692*
Y518792*
X408600Y502100D02*
X414761D01*
X416000Y503339*
X425611*
X426972Y504700*
X426972D02*
Y511372D01*
X426972D02*
X428100Y512500D01*
X430100*
X408600Y502100D02*
X408477D01*
X407100Y503477*
Y507550*
X403600Y511050*
X401650*
X398900Y513800*
X404800Y501200D02*
X400700Y505300D01*
Y505900*
X404800Y501200D02*
X415800D01*
X417000Y502400*
X426322*
X429661Y505739*
X409700Y503500D02*
X408700D01*
X408100Y504100*
Y508175*
X404200Y512075*
X403025*
X399600Y515500*
X397600*
X396800Y516300*
Y517620*
X393855Y520565*
X409700Y503500D02*
X413200D01*
X415500Y505800*
X410300Y509800D02*
X416600D01*
X419100Y512300*
X422173*
X425800Y515927*
X436535*
X438008Y517400*
X473800*
X476100Y519700*
X479300*
X404050Y506762D02*
Y507805D01*
X403200Y508655*
X397645*
X405658Y506781D02*
Y507500D01*
X403530Y509628*
X405700Y502900D02*
Y504700D01*
X404341Y506059*
X417973Y499043D02*
X419530Y500600D01*
X444550*
X449550Y505600*
X454000*
X455500Y507100*
X465754*
X409581Y504953D02*
X409694D01*
X409694D02*
Y505753D01*
X409694D02*
X411500Y507559D01*
X411500D02*
X415659D01*
X415659D02*
X419550Y511450D01*
X422667*
X424908Y513691*
X424908D02*
X426317Y515120D01*
X436860*
X438340Y516600*
X475100*
X476500Y518000*
X404050Y506762D02*
G03X404341Y506059I995J0D01*
G01X417500Y504900D02*
X419200D01*
X419850Y505550*
Y507599*
X419850D02*
X420600Y508349D01*
X420600D02*
X424950D01*
X424950D02*
X425900Y509299D01*
X425900D02*
Y511799D01*
X425900D02*
X427600Y513499D01*
X437700*
X439101Y514900*
X478100*
X481100Y517900*
Y518600*
X416456Y500044D02*
X417813Y501400D01*
X417813D02*
X444000D01*
X449000Y506400*
X453465*
X453465D02*
X455051Y507986D01*
X455051D02*
X456826D01*
X456826D02*
X459240Y510400D01*
X416456Y500044D02*
X404356D01*
X400000Y504400*
X394800*
X429661Y505739D02*
X429000Y506400D01*
Y509800*
X429300Y510100*
Y510500*
X431900Y502200D02*
X443500D01*
X448100Y506800*
Y508800*
X447500Y509400*
X431900Y502200D02*
X430900Y503200D01*
Y504500*
X429661Y505739*
X433400Y509200D02*
X430100Y512500D01*
X420749Y509925D02*
X422405D01*
X426800Y514320*
X437195*
X438672Y515797*
X475998Y515800*
X475998D02*
X476800D01*
X478600Y517800*
X444500Y507800D02*
Y508100D01*
X444400Y508200*
X445600Y509400*
X447500*
X468650Y505350D02*
X466472D01*
X465522Y506300*
X464325*
X468650Y505350D02*
X469600Y506300D01*
X470200*
X466900Y506250D02*
X468150D01*
X469800Y507900*
X466900Y506250D02*
X466850D01*
X466000Y507100*
X465754*
X470600Y505900D02*
X470200Y506300D01*
X467500Y507900D02*
X465000Y510400D01*
X459240*
G54D262*
X500004Y472389D02*
X467001D01*
Y476419*
G03X464619Y478801I-2382J0*
G01X464592*
G03X462204Y476413I-0J-2388*
G01Y472390*
X334043*
Y478741*
X316813*
Y520941*
X334046*
Y527594*
X462205*
Y523586*
G03X464590Y521200I2385J-0*
G01X464624*
G03X467004Y523579I0J2379*
G01Y527592*
X481073*
X481162Y527589*
X500004*
Y472389*
X369407Y475255D02*
G03X369407I-991J0D01*
G01X369392Y477775D02*
G03X369392I-985J0D01*
G01X369429Y480203D02*
G03X369429I-982J0D01*
G01X369446Y485204D02*
G03X369446I-986J0D01*
G01X369454Y487596D02*
G03X369454I-988J0D01*
G01X369459Y490109D02*
G03X369459I-989J0D01*
G01X369443Y492557D02*
G03X369443I-989J0D01*
G01X369505Y495039D02*
G03X369505I-993J0D01*
G01X369442Y497535D02*
G03X369442I-976J0D01*
G01X369449Y500054D02*
G03X369449I-986J0D01*
G01X369446Y502498D02*
G03X369446I-993J0D01*
G01X369461Y504989D02*
G03X369461I-999J0D01*
G01X369453Y507477D02*
G03X369453I-985J0D01*
G01X369441Y509994D02*
G03X369441I-975J0D01*
G01X369420Y512438D02*
G03X369420I-973J0D01*
G01X369384Y514816D02*
G03X369384I-971J0D01*
G01X369452Y519577D02*
G03X369452I-986J0D01*
G01X369455Y522091D02*
G03X369455I-991J0D01*
G01X369419Y524598D02*
G03X369419I-987J0D01*
G01X357938Y519537D02*
G03X357938I-979J0D01*
G01X357951Y522053D02*
G03X357951I-997J0D01*
G01X357922Y524558D02*
G03X357922I-993J0D01*
G01X348222Y521019D02*
G03X348222I-2294J0D01*
G01X340121Y519602D02*
G03X340121I-986J0D01*
G01X340129Y522085D02*
G03X340129I-993J0D01*
G01X340116Y524645D02*
G03X340116I-981J0D01*
G01X357050Y483839D02*
X339047D01*
Y515865*
X357050*
Y483839*
X357998Y475331D02*
G03X357998I-1001J0D01*
G01X357991Y477843D02*
G03X357991I-982J0D01*
G01X357966Y480352D02*
G03X357966I-987J0D01*
G01X348123Y478587D02*
G03X348123I-2311J0D01*
G01X340146Y475504D02*
G03X340146I-1004J0D01*
G01X340135Y477962D02*
G03X340135I-988J0D01*
G01X340124Y480318D02*
G03X340124I-989J0D01*
G54D293*
G01X490157Y523228D03*
Y476772D03*
G74*
X0Y0D02*
M02*
