%
T1C.008F0S0
X03772Y04747
X038135Y049663
X03815Y04766
X03817Y048383
X038175Y048593
X03818Y04989
X03829Y04902
X03834Y04968
X03847Y04984
X0386Y04853
X03861Y04786
X0387Y04913
X03886Y0493
X03903Y04945
X03923Y0493
X03934Y04863
X03938Y04891
X039386Y048328
X03939Y04749
X03968Y04822
X03978Y0497
X0398Y04857
X03981Y04943
X0401Y04943
X04015Y04858
X040181Y047934
X040193Y048259
X04025Y04743
X04048Y04941
X04049Y04782
X04052Y048214
X04056Y04902
X04068Y04941
X04096Y04972
X04097Y04862
X04103Y04942
X04115Y0481
X04125Y04941
X04126Y04863
X041325Y048215
X04148Y04864
X04158Y04941
X04169Y0479
X041797Y049904
X0418Y04942
X04209Y04977
X042121Y049444
X042136Y047615
X04228Y04816
X042317Y047469
X0424Y04983
X042498Y048666
X04253Y04896
X042597Y048046
X04264Y04983
X04273Y04821
X04288Y04781
X04288Y04861
X04293Y04911
X04295Y04983
X04316Y04982
X0432Y04824
X04332Y04891
X04348Y04825
X04372Y04911
X043754Y04953
X04388Y04973
X043961Y049298
X044106Y048915
X044164Y049292
X044395Y048224
X0445Y04892
X044505Y047732
X04454Y04961
X0446Y048227
X044617Y049096
X0448Y04981
X044822Y049146
X044893Y047939
X044907Y048326
X044965Y04813
X04497Y04932
X04497Y04952
X045629Y04771
X046081Y049259
X046143Y049776
X04625Y04912
X04632Y04881
X046392Y04978
X046425Y049254
X04652Y04881
X046595Y049097
X04687Y04873
X046885Y048136
X04707Y04788
X047119Y049192
X04729Y04788
X047305Y049189
X047422Y047627
X0475Y04787
X047601Y048668
X047645Y048882
X047659Y049663
X047691Y049906
X04771Y04786
X04777Y049041
X047833Y049678
X047896Y048655
X04795Y04805
X048037Y048809
X04804Y04785
X04819Y04813
X04836Y04873
X04903Y04828
X0491Y0497
X04917Y04949
X04919Y0491
X04928Y04929
X04929Y04892
X04929Y04871
X04968Y04776
X04976Y04961
X04978Y04912
X04978Y04935
X0498Y05041
X04972Y05136
X04944Y05192
X04932Y05067
X04909Y0505
X04811Y05186
X0481Y05003
X04801Y05082
X04793Y05197
X04786Y05178
X04771Y05052
X047686Y050119
X04765Y0518
X04719Y050252
X04706Y05059
X04706Y050023
X04698Y05079
X04692Y05188
X04675Y05079
X046612Y049946
X046421Y050377
X0463Y05086
X046271Y050171
X046261Y049955
X046238Y050481
X046069Y050076
X04606Y05088
X04603Y05047
X04571Y0524
X04563Y05188
X04496Y0524
X04493Y0512
X044906Y051888
X04467Y05075
X04445Y05078
X04391Y05075
X043713Y051086
X04371Y051847
X04334Y05092
X04334Y051826
X0433Y05072
X043021Y051768
X04294Y05028
X04293Y05105
X0429Y05198
X0427Y05191
X042523Y052061
X042522Y05058
X04243Y050984
X042284Y051746
X042142Y050484
X04214Y050694
X042075Y050993
X042075Y05175
X04206Y05137
X04178Y05142
X041757Y051686
X04175Y05049
X04175Y05069
X04155Y05058
X04152Y05135
X04124Y05059
X04103Y05098
X04096Y05128
X04096Y0517
X040958Y050495
X04093Y05149
X04085Y05235
X040761Y051345
X04057Y05029
X040566Y050678
X04046Y05138
X04028Y05059
X04019Y05211
X04007Y05059
X04005Y05017
X0399Y05177
X03989Y05138
X03984Y05021
X03983Y0507
X03958Y05018
X03942Y05164
X039386Y052057
X03929Y05084
X03928Y05017
X03915Y05
X039126Y050967
X038983Y052096
X03872Y05094
X03867Y05074
X038637Y050332
X03858Y05001
X0385Y05095
X038351Y05028
X038242Y05062
X038206Y05042
X0382Y05211
X03818Y05157
X038116Y051879
X037698Y052378
X037423Y051192
X03739Y05
X037322Y050571
X0372Y05
X037188Y050698
X0389Y05256
X0414Y05254
X0445Y05252
X0454Y05254
X04728Y05252
X04788Y05248
X04806Y05248
X04958Y05256
T2C.01F095S3
X04228Y04865
T3C.02362F197S55
X049333Y052323G85X048699Y052323
X049333Y047677G85X048699Y047677
M30
